<svg width="128" height="128" viewBox="0 0 128 128" fill="none" xmlns="http://www.w3.org/2000/svg">
<circle cx="64" cy="64" r="64" fill="#AAB94D"/>
<path d="M40 40V73.9375H54.2575C54.19 73.4781 54.1562 73.0084 54.1562 72.5312C54.1562 67.1031 58.5719 62.6875 64 62.6875C69.4281 62.6875 73.8438 67.1031 73.8438 72.5312C73.8438 73.0084 73.81 73.4781 73.7425 73.9375H88V40H40ZM56.9688 51.4375H52.75C51.9747 51.4375 51.3438 52.0684 51.3438 52.8438V54.25H56.9688V58.4688C56.9688 60.3016 55.7931 61.8662 54.1562 62.4456V65.5H51.3438V62.6875H48.5312V59.875H52.75C53.5253 59.875 54.1562 59.2441 54.1562 58.4688V57.0625H48.5312V52.8438C48.5312 51.0109 49.7069 49.4463 51.3438 48.8669V45.8125H54.1562V48.625H56.9688V51.4375ZM80.875 59.875H64V57.0625H80.875V59.875ZM80.875 54.25H64V51.4375H80.875V54.25ZM80.875 48.625H64V45.8125H80.875V48.625Z" fill="white"/>
<path d="M64 65.5C60.1234 65.5 56.9688 68.6547 56.9688 72.5312C56.9688 76.4078 60.1234 79.5625 64 79.5625C67.8775 79.5625 71.0312 76.4078 71.0312 72.5312C71.0312 68.6547 67.8775 65.5 64 65.5ZM65.4062 73.9375H62.5938V71.125H65.4062V73.9375Z" fill="white"/>
<path d="M62.4277 82.2494L58.5933 88L50.543 79.9497L55.1648 76.8682C56.5477 79.6769 59.2327 81.7347 62.4277 82.2494V82.2494Z" fill="white"/>
<path d="M77.457 79.9497L69.4066 88L65.5723 82.2494C68.7673 81.7347 71.4523 79.6769 72.8351 76.8682L77.457 79.9497Z" fill="white"/>
</svg>
