<svg width="128" height="128" viewBox="0 0 128 128" fill="none" xmlns="http://www.w3.org/2000/svg">
<circle cx="64" cy="64" r="64" fill="#AAB94D"/>
<g clip-path="url(#clip0_833_925)">
<path d="M75.9177 54.3843L64.0014 66.3005L52.0852 54.3843C48.7945 51.0936 48.7945 45.7585 52.0852 42.468C55.3758 39.1773 60.7108 39.1773 64.0014 42.468C67.2921 39.1773 72.6272 39.1773 75.9177 42.468C79.2083 45.7585 79.2083 51.0936 75.9177 54.3843V54.3843Z" fill="white"/>
<path d="M85.3548 50.9766C83.894 50.9766 82.7099 52.1607 82.7099 53.6215V63.7466C82.7099 65.2042 82.1423 66.5745 81.1116 67.6051L76.0918 72.6249L74.1031 70.6362L79.1229 65.6164C80.1539 64.5854 80.1539 62.9078 79.1229 61.8769C78.0918 60.8459 76.4143 60.8459 75.3833 61.8769L65.5527 71.7076C65.4589 71.8014 65.4062 71.9285 65.4062 72.0611V87.5001C65.4062 87.7763 65.6301 88.0001 65.9062 88.0001H77.3457C77.6219 88.0001 77.8457 87.7763 77.8457 87.5001V80.4333C77.8457 80.3103 77.8911 80.1915 77.9732 80.0998L87.8724 69.0437C87.9545 68.952 87.9999 68.8332 87.9999 68.7101V53.6215C87.9998 52.1607 86.8157 50.9766 85.3548 50.9766Z" fill="white"/>
<path d="M48.8769 61.8769C47.8459 62.9078 47.8459 64.5854 48.8769 65.6164L53.8967 70.6362L51.908 72.6249L46.8882 67.6051C45.8575 66.5745 45.2899 65.2042 45.2899 63.7466V53.6215C45.2899 52.1607 44.1058 50.9766 42.645 50.9766C41.1842 50.9766 40 52.1607 40 53.6215V68.7101C40 68.8332 40.0454 68.952 40.1275 69.0437L50.0267 80.0998C50.1088 80.1915 50.1542 80.3103 50.1542 80.4333V87.5001C50.1542 87.7763 50.378 88.0001 50.6542 88.0001H62.0936C62.3697 88.0001 62.5936 87.7763 62.5936 87.5001V72.0611C62.5936 71.9285 62.5409 71.8014 62.4471 71.7076L52.6164 61.8769C51.5855 60.8459 49.908 60.8459 48.8769 61.8769Z" fill="white"/>
</g>
<defs>
<clipPath id="clip0_833_925">
<rect width="48" height="48" fill="white" transform="translate(40 40)"/>
</clipPath>
</defs>
</svg>
