<svg width="128" height="128" viewBox="0 0 128 128" fill="none" xmlns="http://www.w3.org/2000/svg">
<circle cx="64" cy="64" r="64" fill="#AAB94D"/>
<path d="M73.0236 48.64C73.0236 51.808 66.6876 57.232 64.6236 58.912C64.2396 59.2 63.7116 59.2 63.3276 58.912C61.2636 57.232 54.9756 51.856 54.9756 48.688C54.9756 44.896 59.8716 41.92 63.9996 45.52C67.5036 41.92 73.0236 44.848 73.0236 48.64Z" fill="white"/>
<path d="M84.6398 62.7035L81.6638 57.0395C81.4238 56.5595 80.9918 56.2235 80.4638 56.0795L73.0238 53.7275C72.5438 54.3515 72.0157 54.9755 71.4877 55.5515L77.8718 57.6155L63.9997 62.8955L50.1277 57.6155L56.4637 55.5995C55.8877 54.9755 55.3597 54.3995 54.9277 53.7755L47.5357 56.1275C47.0077 56.2715 46.5757 56.6555 46.3357 57.0875L43.3597 62.7035C42.9757 63.4235 43.3117 64.2875 44.0797 64.6235L59.2957 71.1515C60.0637 71.4875 60.9277 71.1515 61.2637 70.4315L63.9997 65.5355L66.7357 70.4315C67.0717 71.1515 67.9357 71.4395 68.7037 71.1515L83.9198 64.6235C84.6878 64.2875 85.0238 63.4235 84.6398 62.7035V62.7035Z" fill="white"/>
<path d="M81.2798 68.0801L69.6158 73.0721C69.1358 73.2641 68.6078 73.4081 68.0798 73.4081C66.8318 73.4081 65.7278 72.8321 65.0078 71.8721V84.6881L80.3198 79.1681C80.8958 78.9761 81.2798 78.4481 81.2798 77.8721V68.0801Z" fill="white"/>
<path d="M59.9197 73.4081C59.3917 73.4081 58.8637 73.3121 58.3837 73.0721L46.7197 68.0801V77.8721C46.7197 78.4481 47.1037 78.9761 47.6797 79.1681L62.9917 84.6881V71.8721C62.2717 72.7841 61.1677 73.4081 59.9197 73.4081V73.4081Z" fill="white"/>
</svg>
