<svg width="128" height="128" viewBox="0 0 128 128" fill="none" xmlns="http://www.w3.org/2000/svg">
<circle cx="64" cy="64" r="64" fill="#AAB94D"/>
<g clip-path="url(#clip0_833_983)">
<path d="M58.6319 57.7646H58.0519C54.6758 57.7646 51.912 60.4361 51.7637 63.7763H64.9201C64.7714 60.4365 62.0078 57.7646 58.6319 57.7646V57.7646Z" fill="white"/>
<path d="M80.4102 40H47.5897C43.4058 40 40.002 43.6812 40.002 48.2062V68.9301C40.002 73.455 43.4058 77.1362 47.5897 77.1362H57.4437L62.7474 87.2428C62.9917 87.7084 63.4741 88.0001 63.9999 88.0001C64.5258 88.0001 65.0081 87.7084 65.2525 87.2428L70.5562 77.1362H80.4101C84.594 77.1362 87.9979 73.455 87.9979 68.9301V48.2062C87.998 43.6812 84.5941 40 80.4102 40V40ZM65.2092 66.6057H51.4743C50.0704 66.6057 48.9282 65.4635 48.9282 64.0595C48.9282 60.2747 51.2447 57.0211 54.5343 55.6414C53.5619 54.6671 52.9599 53.3233 52.9599 51.8414C52.9599 48.8739 55.3742 46.4595 58.3417 46.4595C61.3093 46.4595 63.7235 48.8739 63.7235 51.8414C63.7235 53.3233 63.1214 54.6671 62.1491 55.6414C65.4387 57.021 67.7553 60.2746 67.7553 64.0594C67.7554 65.4634 66.6132 66.6057 65.2092 66.6057V66.6057ZM77.4494 64.2694C77.4494 64.8685 76.7193 65.168 75.9891 65.168C75.259 65.168 74.5288 64.8684 74.5288 64.2694V54.7397L73.9858 55.0768C73.8174 55.1891 73.6489 55.2265 73.5178 55.2265C72.9748 55.2265 72.6003 54.6461 72.6003 54.0657C72.6003 53.6726 72.7688 53.2981 73.1433 53.0735L75.6146 51.5758C75.7645 51.4821 75.9517 51.4447 76.1576 51.4447C76.7567 51.4447 77.4494 51.8004 77.4494 52.3621V64.2694Z" fill="white"/>
<path d="M58.3418 54.3947C59.7493 54.3947 60.8945 53.2495 60.8945 51.8419C60.8945 50.4343 59.7492 49.2891 58.3418 49.2891C56.9343 49.2891 55.7891 50.4343 55.7891 51.8419C55.789 53.2495 56.9342 54.3947 58.3418 54.3947Z" fill="white"/>
</g>
<defs>
<clipPath id="clip0_833_983">
<rect width="48" height="48" fill="white" transform="translate(40 40)"/>
</clipPath>
</defs>
</svg>
