<svg width="128" height="128" viewBox="0 0 128 128" fill="none" xmlns="http://www.w3.org/2000/svg">
<circle cx="64" cy="64" r="64" fill="#AAB94D"/>
<path d="M61.1875 62.5H66.8125V65.3125H61.1875V62.5Z" fill="white"/>
<path d="M69.625 65.1428V68.1255H58.375V65.1428C50.6333 64.6861 43.2315 63.415 40 62.8047V80.9692C40 83.2954 41.8925 85.188 44.2188 85.188H83.7812C86.1075 85.188 88 83.2954 88 80.9692V62.8047C84.7685 63.4149 77.3667 64.6861 69.625 65.1428Z" fill="white"/>
<path d="M58.375 62.3252V59.6875H69.625V62.3252C77.6183 61.8414 85.2197 60.4793 88 59.9411V48.4375H74.6406V43.7667L73.5074 43.5423C73.3568 43.5125 69.7532 42.8125 64 42.8125C58.2468 42.8125 54.6432 43.5125 54.4925 43.5423L53.3594 43.7667V48.4375H40V59.9411C42.7803 60.4792 50.3818 61.8414 58.375 62.3252ZM56.1719 46.1222C57.6175 45.9217 60.3705 45.625 64 45.625C67.6295 45.625 70.3828 45.9218 71.8281 46.1222V48.4375H56.1719V46.1222Z" fill="white"/>
</svg>
