<svg width="32" height="26" viewBox="0 0 32 26" fill="none" xmlns="http://www.w3.org/2000/svg">
<path d="M32 1.20117C32 0.648889 31.5523 0.201172 31 0.201172H1C0.447715 0.201172 0 0.648887 0 1.20117V24.8012C0 25.3535 0.447715 25.8012 1 25.8012H31C31.5523 25.8012 32 25.3535 32 24.8012V1.20117ZM28.8 6.04692C28.8 6.39171 28.6224 6.71218 28.33 6.89492L16 14.6012L3.67 6.89492C3.37762 6.71218 3.2 6.39171 3.2 6.04692V5.20542C3.2 4.41998 4.06395 3.94114 4.73 4.35742L16 11.4012L27.27 4.35742C27.936 3.94114 28.8 4.41998 28.8 5.20542V6.04692Z" fill="#006DB6"/>
</svg>
