<svg width="32" height="26" viewBox="0 0 32 26" fill="none" xmlns="http://www.w3.org/2000/svg">
<path d="M32 1.2002C32 0.647912 31.5523 0.200195 31 0.200195H1C0.447715 0.200195 0 0.647911 0 1.2002V24.8002C0 25.3525 0.447715 25.8002 1 25.8002H31C31.5523 25.8002 32 25.3525 32 24.8002V1.2002ZM28.8 6.04595C28.8 6.39074 28.6224 6.71121 28.33 6.89395L16 14.6002L3.67 6.89395C3.37762 6.71121 3.2 6.39074 3.2 6.04595V5.20444C3.2 4.41901 4.06395 3.94016 4.73 4.35644L16 11.4002L27.27 4.35645C27.936 3.94017 28.8 4.41901 28.8 5.20444V6.04595Z" fill="white"/>
</svg>
