<svg width="32" height="32" viewBox="0 0 32 32" fill="none" xmlns="http://www.w3.org/2000/svg">
<g clip-path="url(#clip0_1246_7979)">
<path d="M32 4.2002C32 3.64791 31.5523 3.2002 31 3.2002H1C0.447715 3.2002 0 3.64791 0 4.2002V27.8002C0 28.3525 0.447715 28.8002 1 28.8002H31C31.5523 28.8002 32 28.3525 32 27.8002V4.2002ZM28.8 9.04595C28.8 9.39074 28.6224 9.71121 28.33 9.89395L16 17.6002L3.67 9.89395C3.37762 9.71121 3.2 9.39074 3.2 9.04595V8.20444C3.2 7.41901 4.06395 6.94016 4.73 7.35644L16 14.4002L27.27 7.35645C27.936 6.94017 28.8 7.41901 28.8 8.20444V9.04595Z" fill="#5271F2"/>
</g>
<defs>
<clipPath id="clip0_1246_7979">
<rect width="32" height="32" fill="white"/>
</clipPath>
</defs>
</svg>
