<svg width="28" height="28" viewBox="0 0 28 28" fill="none" xmlns="http://www.w3.org/2000/svg">
<path d="M13.997 9.55399C11.5487 9.55399 9.55065 11.552 9.55065 14.0003C9.55065 16.4486 11.5487 18.4467 13.997 18.4467C16.4453 18.4467 18.4433 16.4486 18.4433 14.0003C18.4433 11.552 16.4453 9.55399 13.997 9.55399ZM27.3327 14.0003C27.3327 12.1591 27.3493 10.3345 27.2459 8.49661C27.1425 6.36183 26.6555 4.46722 25.0945 2.90616C23.5301 1.34177 21.6388 0.858113 19.504 0.75471C17.6628 0.651306 15.8382 0.667984 14.0003 0.667984C12.1591 0.667984 10.3345 0.651306 8.49661 0.75471C6.36183 0.858113 4.46722 1.34511 2.90616 2.90616C1.34177 4.47055 0.858113 6.36183 0.75471 8.49661C0.651306 10.3379 0.667984 12.1624 0.667984 14.0003C0.667984 15.8382 0.651306 17.6661 0.75471 19.504C0.858113 21.6388 1.34511 23.5334 2.90616 25.0945C4.47055 26.6589 6.36183 27.1425 8.49661 27.2459C10.3379 27.3493 12.1624 27.3327 14.0003 27.3327C15.8416 27.3327 17.6661 27.3493 19.504 27.2459C21.6388 27.1425 23.5334 26.6555 25.0945 25.0945C26.6589 23.5301 27.1425 21.6388 27.2459 19.504C27.3527 17.6661 27.3327 15.8416 27.3327 14.0003ZM13.997 20.8416C10.2111 20.8416 7.1557 17.7862 7.1557 14.0003C7.1557 10.2144 10.2111 7.15904 13.997 7.15904C17.7829 7.15904 20.8383 10.2144 20.8383 14.0003C20.8383 17.7862 17.7829 20.8416 13.997 20.8416ZM21.1185 8.47659C20.2345 8.47659 19.5207 7.76278 19.5207 6.87885C19.5207 5.99492 20.2345 5.2811 21.1185 5.2811C22.0024 5.2811 22.7162 5.99492 22.7162 6.87885C22.7165 7.08874 22.6753 7.29662 22.5951 7.49059C22.5149 7.68456 22.3973 7.8608 22.2488 8.00921C22.1004 8.15763 21.9242 8.27531 21.7302 8.35551C21.5362 8.43571 21.3284 8.47686 21.1185 8.47659Z" fill="#5271F2"/>
</svg>
