<svg width="28" height="28" viewBox="0 0 28 28" fill="none" xmlns="http://www.w3.org/2000/svg">
<path d="M13.996 9.55301C11.5477 9.55301 9.54968 11.551 9.54968 13.9993C9.54968 16.4477 11.5477 18.4457 13.996 18.4457C16.4443 18.4457 18.4424 16.4477 18.4424 13.9993C18.4424 11.551 16.4443 9.55301 13.996 9.55301ZM27.3317 13.9993C27.3317 12.1581 27.3484 10.3335 27.245 8.49563C27.1416 6.36086 26.6546 4.46624 25.0935 2.90519C23.5291 1.3408 21.6378 0.857136 19.5031 0.753733C17.6618 0.65033 15.8373 0.667008 13.9993 0.667008C12.1581 0.667008 10.3335 0.65033 8.49563 0.753733C6.36086 0.857136 4.46624 1.34413 2.90519 2.90519C1.3408 4.46958 0.857136 6.36086 0.753733 8.49563C0.65033 10.3369 0.667008 12.1614 0.667008 13.9993C0.667008 15.8373 0.65033 17.6652 0.753733 19.5031C0.857136 21.6378 1.34413 23.5325 2.90519 25.0935C4.46958 26.6579 6.36086 27.1416 8.49563 27.245C10.3369 27.3484 12.1614 27.3317 13.9993 27.3317C15.8406 27.3317 17.6652 27.3484 19.5031 27.245C21.6378 27.1416 23.5325 26.6546 25.0935 25.0935C26.6579 23.5291 27.1416 21.6378 27.245 19.5031C27.3517 17.6652 27.3317 15.8406 27.3317 13.9993ZM13.996 20.8406C10.2101 20.8406 7.15472 17.7852 7.15472 13.9993C7.15472 10.2135 10.2101 7.15806 13.996 7.15806C17.7819 7.15806 20.8373 10.2135 20.8373 13.9993C20.8373 17.7852 17.7819 20.8406 13.996 20.8406ZM21.1175 8.47562C20.2336 8.47562 19.5197 7.7618 19.5197 6.87787C19.5197 5.99394 20.2336 5.28013 21.1175 5.28013C22.0014 5.28013 22.7152 5.99394 22.7152 6.87787C22.7155 7.08776 22.6744 7.29565 22.5942 7.48961C22.514 7.68358 22.3963 7.85982 22.2479 8.00824C22.0994 8.15665 21.9232 8.27433 21.7292 8.35453C21.5353 8.43473 21.3274 8.47588 21.1175 8.47562Z" fill="#006DB6"/>
</svg>
