<svg width="32" height="32" viewBox="0 0 32 32" fill="none" xmlns="http://www.w3.org/2000/svg">
<path d="M15.996 11.554C13.5477 11.554 11.5497 13.552 11.5497 16.0003C11.5497 18.4486 13.5477 20.4467 15.996 20.4467C18.4443 20.4467 20.4424 18.4486 20.4424 16.0003C20.4424 13.552 18.4443 11.554 15.996 11.554ZM29.3317 16.0003C29.3317 14.1591 29.3484 12.3345 29.245 10.4966C29.1416 8.36183 28.6546 6.46722 27.0935 4.90616C25.5291 3.34177 23.6378 2.85811 21.5031 2.75471C19.6618 2.65131 17.8373 2.66798 15.9993 2.66798C14.1581 2.66798 12.3335 2.65131 10.4956 2.75471C8.36086 2.85811 6.46624 3.34511 4.90519 4.90616C3.3408 6.47055 2.85714 8.36183 2.75373 10.4966C2.65033 12.3379 2.66701 14.1624 2.66701 16.0003C2.66701 17.8382 2.65033 19.6661 2.75373 21.504C2.85714 23.6388 3.34413 25.5334 4.90519 27.0945C6.46958 28.6589 8.36086 29.1425 10.4956 29.2459C12.3369 29.3493 14.1614 29.3327 15.9993 29.3327C17.8406 29.3327 19.6652 29.3493 21.5031 29.2459C23.6378 29.1425 25.5325 28.6555 27.0935 27.0945C28.6579 25.5301 29.1416 23.6388 29.245 21.504C29.3517 19.6661 29.3317 17.8416 29.3317 16.0003ZM15.996 22.8416C12.2101 22.8416 9.15472 19.7862 9.15472 16.0003C9.15472 12.2144 12.2101 9.15904 15.996 9.15904C19.7819 9.15904 22.8373 12.2144 22.8373 16.0003C22.8373 19.7862 19.7819 22.8416 15.996 22.8416ZM23.1175 10.4766C22.2336 10.4766 21.5197 9.76278 21.5197 8.87885C21.5197 7.99492 22.2336 7.2811 23.1175 7.2811C24.0014 7.2811 24.7152 7.99492 24.7152 8.87885C24.7155 9.08874 24.6744 9.29662 24.5942 9.49059C24.514 9.68456 24.3963 9.8608 24.2479 10.0092C24.0994 10.1576 23.9232 10.2753 23.7292 10.3555C23.5353 10.4357 23.3274 10.4769 23.1175 10.4766Z" fill="#5271F2"/>
</svg>
