<svg width="23" height="32" viewBox="0 0 23 32" fill="none" xmlns="http://www.w3.org/2000/svg">
<path d="M22.1663 0.999999C22.1663 0.447714 21.7186 0 21.1663 0H1.83304C1.28074 0 0.83302 0.447731 0.833034 1.00003L0.833822 31C0.833837 31.5523 1.28155 32 1.83382 32H21.1663C21.7186 32 22.1663 31.5523 22.1663 31V0.999999ZM14.1663 28.7143C14.1663 29.2665 13.7186 29.7143 13.1663 29.7143H9.83301C9.28072 29.7143 8.83301 29.2665 8.83301 28.7143V28.4285C8.83301 27.8763 9.28072 27.4285 9.83301 27.4285H13.1663C13.7186 27.4285 14.1663 27.8763 14.1663 28.4285V28.7143ZM4.49967 25.3333C3.94739 25.3333 3.49967 24.8856 3.49967 24.3333V3.66667C3.49967 3.11438 3.94739 2.66667 4.49967 2.66667H18.4997C19.052 2.66667 19.4997 3.11438 19.4997 3.66667V24.3333C19.4997 24.8856 19.052 25.3333 18.4997 25.3333H4.49967Z" fill="#FFFFFF"/>
</svg>
