<svg width="26" height="32" viewBox="0 0 26 32" fill="none" xmlns="http://www.w3.org/2000/svg">
<path d="M13.0714 0C9.7385 0.00393197 6.54319 1.32968 4.18644 3.68643C1.82969 6.04318 0.503945 9.23849 0.500013 12.5714C0.496021 15.2951 1.38571 17.9449 3.03258 20.1143C3.03258 20.1143 3.37544 20.5657 3.43144 20.6309L13.0714 32L22.716 20.6251C22.7663 20.5646 23.1103 20.1143 23.1103 20.1143L23.1114 20.1109C24.7575 17.9424 25.6468 15.2939 25.6429 12.5714C25.6389 9.23849 24.3132 6.04318 21.9564 3.68643C19.5997 1.32968 16.4044 0.00393197 13.0714 0ZM13.0714 17.1429C12.1673 17.1429 11.2835 16.8747 10.5317 16.3724C9.77993 15.8701 9.19399 15.1562 8.84799 14.3208C8.50199 13.4855 8.41146 12.5664 8.58785 11.6796C8.76424 10.7928 9.19963 9.97827 9.83895 9.33894C10.4783 8.69961 11.2928 8.26423 12.1796 8.08784C13.0664 7.91145 13.9855 8.00198 14.8209 8.34798C15.6562 8.69398 16.3701 9.27991 16.8724 10.0317C17.3748 10.7834 17.6429 11.6673 17.6429 12.5714C17.6414 13.7834 17.1592 14.9453 16.3023 15.8022C15.4453 16.6592 14.2834 17.1413 13.0714 17.1429Z" fill="white"/>
</svg>
