<svg width="32" height="26" viewBox="0 0 32 26" fill="none" xmlns="http://www.w3.org/2000/svg">
<path d="M32 1.20069C32 0.6484 31.5523 0.200684 31 0.200684H1C0.447715 0.200684 0 0.648399 0 1.20068V24.8007C0 25.353 0.447715 25.8007 1 25.8007H31C31.5523 25.8007 32 25.353 32 24.8007V1.20069ZM28.8 6.04644C28.8 6.39123 28.6224 6.7117 28.33 6.89443L16 14.6007L3.67 6.89443C3.37762 6.7117 3.2 6.39123 3.2 6.04644V5.20493C3.2 4.4195 4.06395 3.94065 4.73 4.35693L16 11.4007L27.27 4.35693C27.936 3.94065 28.8 4.4195 28.8 5.20493V6.04644Z" fill="#FFFFFF"/>
</svg>
