<svg width="12" height="20" viewBox="0 0 12 20" fill="none" xmlns="http://www.w3.org/2000/svg">
<path d="M0.93918 0.453828C0.657973 0.73512 0.5 1.11658 0.5 1.51433C0.5 1.91207 0.657973 2.29354 0.93918 2.57483L8.36418 9.99983L0.93918 17.4248C0.665943 17.7077 0.514751 18.0866 0.518168 18.4799C0.521586 18.8732 0.67934 19.2494 0.957452 19.5276C1.23556 19.8057 1.61178 19.9634 2.00508 19.9668C2.39837 19.9703 2.77728 19.8191 3.06018 19.5458L11.5457 11.0603C11.8269 10.779 11.9849 10.3976 11.9849 9.99983C11.9849 9.60208 11.8269 9.22062 11.5457 8.93933L3.06018 0.453828C2.77889 0.172622 2.39743 0.0146484 1.99968 0.0146484C1.60193 0.0146484 1.22047 0.172622 0.93918 0.453828Z" fill="#A6ADC7"/>
</svg>
