<svg width="12" height="20" viewBox="0 0 12 20" fill="none" xmlns="http://www.w3.org/2000/svg">
<path d="M11.0608 0.453828C11.342 0.73512 11.5 1.11658 11.5 1.51433C11.5 1.91207 11.342 2.29354 11.0608 2.57483L3.63582 9.99983L11.0608 17.4248C11.3341 17.7077 11.4852 18.0866 11.4818 18.4799C11.4784 18.8732 11.3207 19.2494 11.0425 19.5276C10.7644 19.8057 10.3882 19.9634 9.99492 19.9668C9.60163 19.9703 9.22272 19.8191 8.93982 19.5458L0.454321 11.0603C0.173114 10.779 0.015141 10.3976 0.015141 9.99983C0.015141 9.60208 0.173114 9.22062 0.454321 8.93933L8.93982 0.453828C9.22111 0.172622 9.60257 0.0146484 10.0003 0.0146484C10.3981 0.0146484 10.7795 0.172622 11.0608 0.453828V0.453828Z" fill="#5271F2"/>
</svg>
