<svg width="64" height="64" viewBox="0 0 64 64" fill="none" xmlns="http://www.w3.org/2000/svg">
<rect width="64" height="64" rx="32" fill="white"/>
<path d="M38 36.1304C37.2404 36.1304 36.5552 36.4256 36.0356 36.9008L28.91 32.7452C28.9652 32.5196 29 32.2844 29 32.0444C29 31.8044 28.9652 31.5704 28.91 31.3448L35.96 27.23C36.512 27.7501 37.2416 28.0398 38 28.04C39.6548 28.04 41 26.6948 41 25.04C41 23.3852 39.6548 22.04 38 22.04C36.3452 22.04 35 23.3852 35 25.04C35 25.28 35.0348 25.5152 35.09 25.7396L28.04 29.8544C27.4877 29.3349 26.7583 29.0453 26 29.0444C24.3452 29.0444 23 30.3896 23 32.0444C23 33.6992 24.3452 35.0444 26 35.0444C26.7584 35.0442 27.488 34.7545 28.04 34.2344L35.1656 38.39C35.1131 38.6045 35.0861 38.8244 35.0852 39.0452C35.0854 39.6214 35.2565 40.1845 35.5767 40.6635C35.897 41.1425 36.352 41.5157 36.8844 41.7361C37.4167 41.9565 38.0024 42.0141 38.5675 41.9016C39.1326 41.7891 39.6516 41.5117 40.059 41.1043C40.4664 40.6969 40.7439 40.1778 40.8564 39.6127C40.9688 39.0477 40.9112 38.4619 40.6908 37.9296C40.4705 37.3973 40.0972 36.9422 39.6183 36.622C39.1393 36.3017 38.5762 36.1307 38 36.1304Z" fill="#002049"/>
</svg>
