<svg width="64" height="64" viewBox="0 0 64 64" fill="none" xmlns="http://www.w3.org/2000/svg">
<rect width="64" height="64" rx="32" fill="white"/>
<path d="M42.46 26C41.69 26.35 40.86 26.58 40 26.69C40.88 26.16 41.56 25.32 41.88 24.31C41.05 24.81 40.13 25.16 39.16 25.36C38.37 24.5 37.26 24 36 24C33.65 24 31.73 25.92 31.73 28.29C31.73 28.63 31.77 28.96 31.84 29.27C28.28 29.09 25.11 27.38 23 24.79C22.63 25.42 22.42 26.16 22.42 26.94C22.42 28.43 23.17 29.75 24.33 30.5C23.62 30.5 22.96 30.3 22.38 30V30.03C22.38 32.11 23.86 33.85 25.82 34.24C25.1908 34.4122 24.5301 34.4362 23.89 34.31C24.1616 35.1625 24.6936 35.9084 25.4111 36.4429C26.1285 36.9775 26.9955 37.2737 27.89 37.29C26.3737 38.4904 24.494 39.1393 22.56 39.13C22.22 39.13 21.88 39.11 21.54 39.07C23.44 40.29 25.7 41 28.12 41C36 41 40.33 34.46 40.33 28.79C40.33 28.6 40.33 28.42 40.32 28.23C41.16 27.63 41.88 26.87 42.46 26Z" fill="#002049"/>
</svg>
