<svg width="128" height="128" viewBox="0 0 128 128" fill="none" xmlns="http://www.w3.org/2000/svg">
<circle cx="64" cy="64" r="64" fill="#FEBB37"/>
<path d="M84.5014 50.3316H71.7957L69.23 46.0214C68.979 45.6 68.525 45.3418 68.0345 45.3418H59.9652C59.4747 45.3418 59.0205 45.6 58.7697 46.0214L56.204 50.3316H52.0347V49.3816C52.0347 48.6133 51.4118 47.9904 50.6434 47.9904H45.4957C44.7272 47.9904 44.1045 48.6133 44.1045 49.3816V50.3316H43.4985C41.5662 50.3316 40 51.8979 40 53.8299V79.1594C40 81.0916 41.5662 82.6579 43.4983 82.6579H84.5014C86.4335 82.6579 87.9998 81.0916 87.9998 79.1594V53.8299C88 51.8979 86.4335 50.3316 84.5014 50.3316ZM63.9998 76.4526C58.5002 76.4526 54.0419 71.9943 54.0419 66.4945C54.0419 60.995 58.5002 56.5366 63.9998 56.5366C69.4995 56.5366 73.9578 60.995 73.9578 66.4945C73.9578 71.9943 69.4995 76.4526 63.9998 76.4526ZM82.3187 57.5441H77.9593C77.191 57.5441 76.5681 56.9212 76.5681 56.1527C76.5681 55.3842 77.191 54.7613 77.9593 54.7613H82.3187C83.0874 54.7613 83.7101 55.3842 83.7101 56.1527C83.7101 56.9212 83.0872 57.5441 82.3187 57.5441Z" fill="white"/>
<path d="M63.9996 73.4513C67.8416 73.4513 70.9562 70.3367 70.9562 66.4947C70.9562 62.6527 67.8416 59.5381 63.9996 59.5381C60.1576 59.5381 57.043 62.6527 57.043 66.4947C57.043 70.3367 60.1576 73.4513 63.9996 73.4513Z" fill="white"/>
</svg>
