<svg width="128" height="128" viewBox="0 0 128 128" fill="none" xmlns="http://www.w3.org/2000/svg">
<circle cx="64" cy="64" r="64" fill="#FEBB37"/>
<g clip-path="url(#clip0_833_934)">
<path d="M71.3429 55.4003L72.3379 56.3949L68.7728 59.9589L68.2407 59.4268L61.9481 60.6858L56.9688 68.3997V73.75H62.3231L70.0341 68.7732L71.2935 62.4795L70.7614 61.9474L74.3268 58.3831L75.3214 59.377L88 46.6958L84.0215 42.7188L71.3429 55.4003Z" fill="white"/>
<path d="M54.1562 72.5253C56.8256 64.2665 54.3383 60.3609 52.5907 58.7719C50.4169 56.7944 47.21 56.3135 44.4279 57.544C41.7142 58.743 40 61.2493 40 64.2471C40 65.8127 40.6947 66.763 41.277 67.2848C43.4882 69.2664 48.5298 68.1553 48.5312 63.9065H45.7188C45.7188 65.1506 44.7164 65.4831 44.1243 65.4831C43.7742 65.4831 43.3618 65.3758 43.1531 65.1905C42.9279 64.9872 42.8125 64.6701 42.8125 64.2471C42.8125 61.5789 44.7659 60.4693 45.5649 60.1163C47.3352 59.3333 49.3483 59.6233 50.6981 60.8523C52.7053 62.6772 53.0411 66.329 51.6982 70.9378H40V88.0003H88V76.5628H54.1562V72.5253Z" fill="white"/>
<path d="M62.4098 50.8051C65.9928 49.0128 68.219 45.4122 68.219 41.4062V40H65.4065V41.4062C65.4065 44.3396 63.7765 46.9778 61.1519 48.2892L60.5586 48.5858L61.8169 51.1017L62.4098 50.8051Z" fill="white"/>
<path d="M86.6296 65.4609L87.2229 65.1643L85.9646 62.6484L85.3717 62.9451C81.7887 64.7373 79.5625 68.3379 79.5625 72.3439H82.375C82.375 69.4105 84.005 66.7723 86.6296 65.4609V65.4609Z" fill="white"/>
<path d="M51.3438 52.6564H54.1563C54.1563 49.723 55.7863 47.0848 58.4109 45.7734L59.0042 45.4768L57.7459 42.9609L57.153 43.2576C53.5699 45.0498 51.3438 48.6504 51.3438 52.6564Z" fill="white"/>
</g>
<defs>
<clipPath id="clip0_833_934">
<rect width="48" height="48" fill="white" transform="translate(40 40)"/>
</clipPath>
</defs>
</svg>
