<svg width="128" height="128" viewBox="0 0 128 128" fill="none" xmlns="http://www.w3.org/2000/svg">
<circle cx="64" cy="64" r="64" fill="#FEBB37"/>
<path d="M83.0547 68.8165C80.4303 68.8165 78.1077 67.5053 76.7031 65.5049C75.2986 67.5053 72.976 68.8165 70.3516 68.8165C67.7271 68.8165 65.4046 67.5052 64 65.5049C62.5954 67.5053 60.2729 68.8165 57.6484 68.8165C55.024 68.8165 52.7014 67.5053 51.2969 65.5049C49.8923 67.5053 47.5697 68.8165 44.9453 68.8165C44.2056 68.8165 43.4907 68.7102 42.8125 68.5159V85.2228H85.1875V68.5159C84.5093 68.7102 83.7944 68.8165 83.0547 68.8165Z" fill="white"/>
<path d="M75.2139 42.7773L77.8852 58.0708H87.4256L82.0829 42.7773H75.2139Z" fill="white"/>
<path d="M65.4062 58.0708H75.03L72.3586 42.7773H65.4062V58.0708Z" fill="white"/>
<path d="M62.5934 58.0708V42.7773H55.6411L52.9697 58.0708H62.5934Z" fill="white"/>
<path d="M50.1146 58.0708L52.7859 42.7773H45.9168L40.5742 58.0708H50.1146Z" fill="white"/>
<path d="M44.9453 66.0041C47.6722 66.0041 49.8906 63.7856 49.8906 61.0588V60.8838H40V61.0588C40 63.7856 42.2184 66.0041 44.9453 66.0041Z" fill="white"/>
<path d="M62.5938 61.0588V60.8838H52.7031V61.0588C52.7031 63.7856 54.9215 66.0041 57.6484 66.0041C60.3753 66.0041 62.5938 63.7856 62.5938 61.0588V61.0588Z" fill="white"/>
<path d="M75.2969 61.0588V60.8838H65.4062V61.0588C65.4062 63.7856 67.6247 66.0041 70.3516 66.0041C73.0785 66.0041 75.2969 63.7856 75.2969 61.0588V61.0588Z" fill="white"/>
<path d="M83.0547 66.0041C85.7816 66.0041 88 63.7856 88 61.0588V60.8838H78.1094V61.0588C78.1094 63.7856 80.3278 66.0041 83.0547 66.0041Z" fill="white"/>
</svg>
