<svg width="128" height="128" viewBox="0 0 128 128" fill="none" xmlns="http://www.w3.org/2000/svg">
<circle cx="64" cy="64" r="64" fill="#FEBB37"/>
<path d="M72.4375 62.5938C73.2142 62.5938 73.8438 61.3346 73.8438 59.7812C73.8438 58.2279 73.2142 56.9688 72.4375 56.9688C71.6608 56.9688 71.0312 58.2279 71.0312 59.7812C71.0312 61.3346 71.6608 62.5938 72.4375 62.5938Z" fill="white"/>
<path d="M68.2188 82.375C68.2188 83.892 68.5222 85.3263 68.9689 86.6964L86.6964 68.9689C85.3263 68.5222 83.7982 68.2188 82.2813 68.2188C74.5277 68.2188 68.2188 74.6214 68.2188 82.375Z" fill="white"/>
<path d="M55.5625 62.5938C56.3392 62.5938 56.9688 61.3346 56.9688 59.7812C56.9688 58.2279 56.3392 56.9688 55.5625 56.9688C54.7858 56.9688 54.1562 58.2279 54.1562 59.7812C54.1562 61.3346 54.7858 62.5938 55.5625 62.5938Z" fill="white"/>
<path d="M64 40C50.8178 40 40 50.8178 40 64C40 77.1822 50.8178 88 64 88C64.7773 88 65.5521 87.904 66.3281 87.829C65.7405 86.1155 65.4062 84.2854 65.4062 82.375C65.4062 81.3782 65.5099 80.3132 65.6764 79.3634C65.1204 79.4235 64.5618 79.4688 64 79.4688C57.8476 79.4688 52.2817 75.8254 49.8194 70.1881L52.3956 69.0619C54.4117 73.6748 58.9655 76.6562 64 76.6562C64.8405 76.6562 65.6715 76.5495 66.4896 76.3864C68.8878 69.984 75.0515 65.4062 82.2812 65.4062C84.1917 65.4062 86.1155 65.7405 87.829 66.3281C87.904 65.5522 88 64.7773 88 64C88 50.8178 77.1822 40 64 40ZM55.5625 65.4062C53.1963 65.4062 51.3438 62.9357 51.3438 59.7812C51.3438 56.6268 53.1963 54.1562 55.5625 54.1562C57.9287 54.1562 59.7812 56.6268 59.7812 59.7812C59.7812 62.9357 57.9287 65.4062 55.5625 65.4062ZM72.4375 65.4062C70.0713 65.4062 68.2188 62.9357 68.2188 59.7812C68.2188 56.6268 70.0713 54.1562 72.4375 54.1562C74.8037 54.1562 76.6562 56.6268 76.6562 59.7812C76.6562 62.9357 74.8037 65.4062 72.4375 65.4062Z" fill="white"/>
</svg>
