<svg width="128" height="128" viewBox="0 0 128 128" fill="none" xmlns="http://www.w3.org/2000/svg">
<circle cx="64" cy="64" r="64" fill="#FEBB37"/>
<path d="M88 45.7843C88 44.2252 87.397 42.766 86.3007 41.6697C84.1119 39.477 80.2642 39.4828 78.0735 41.6697L68.4849 51.2563L45.2336 47.5852C44.9302 47.5334 44.623 47.6351 44.4042 47.854L41.6547 50.6034C41.4282 50.83 41.3283 51.1545 41.3937 51.4694C41.457 51.7843 41.6721 52.0473 41.9678 52.1702L60.1062 59.6372L51.9615 67.7818C51.8309 67.9105 51.7119 68.0468 51.5986 68.1869H43.7091C43.4537 68.1869 43.2099 68.2886 43.0294 68.4672L40.28 71.2168C40.04 71.4568 39.946 71.8043 40.0304 72.1326C40.1149 72.4609 40.3626 72.7201 40.689 72.8161L51.8692 76.1051L55.1563 87.2834C55.2504 87.6079 55.5096 87.8594 55.8379 87.942C55.9166 87.9631 55.9973 87.9728 56.0759 87.9728C56.3275 87.9728 56.5732 87.873 56.7556 87.6905L59.5032 84.943C59.6836 84.7625 59.7854 84.5186 59.7854 84.2633V76.374C59.9256 76.2607 60.0619 76.1397 60.1925 76.0092L68.3353 67.8664L75.8023 86.0028C75.9252 86.3004 76.1881 86.5154 76.503 86.5788C76.818 86.6402 77.1443 86.5442 77.369 86.3158L80.1184 83.5682C80.3354 83.3493 80.4352 83.0421 80.3872 82.7388L76.7143 59.4856L86.3009 49.8989C87.397 48.8045 88 47.3434 88 45.7843Z" fill="white"/>
</svg>
