<svg width="128" height="128" viewBox="0 0 128 128" fill="none" xmlns="http://www.w3.org/2000/svg">
<circle cx="64" cy="64" r="64" fill="#FEBB37"/>
<path d="M88 64C88 50.7451 77.2549 40 64 40C50.7451 40 40 50.7451 40 64C40 77.2549 50.7451 88 64 88H88V84H77.25C83.96 79.5576 87.9971 72.0479 88 64ZM75.7559 80.1807C73.0752 82.1279 69.3223 81.5342 67.375 78.8525C65.4277 76.1719 66.0215 72.4199 68.7021 70.4717C71.3838 68.5244 75.1357 69.1182 77.083 71.7998C79.0312 74.4805 78.4365 78.2324 75.7559 80.1807ZM75.4609 53.9678C78.6123 52.9434 81.9971 54.668 83.0215 57.8193C84.0449 60.9717 82.3203 64.3564 79.1689 65.3799C76.0176 66.4043 72.6328 64.6797 71.6084 61.5283C70.585 58.377 72.3096 54.9912 75.4609 53.9678ZM64 44C67.3135 44 70 46.6865 70 50C70 53.3135 67.3135 56 64 56C60.6865 56 58 53.3135 58 50C58 46.6865 60.6865 44 64 44ZM44.9785 57.8193C46.0029 54.668 49.3877 52.9434 52.5391 53.9668C55.6904 54.9912 57.415 58.376 56.3916 61.5273C55.3672 64.6787 51.9824 66.4033 48.8311 65.3799C45.6797 64.3564 43.9551 60.9717 44.9785 57.8193ZM60.625 78.8525C58.6777 81.5342 54.9248 82.1279 52.2441 80.1807C49.5635 78.2324 48.9688 74.4805 50.917 71.7998C52.8643 69.1191 56.6172 68.5244 59.2979 70.4727C61.9785 72.4199 62.5723 76.1719 60.625 78.8525ZM62 64C62 62.8955 62.8955 62 64 62C65.1045 62 66 62.8955 66 64C66 65.1045 65.1045 66 64 66C62.8955 66 62 65.1045 62 64Z" fill="white"/>
</svg>
