<svg width="128" height="128" viewBox="0 0 128 128" fill="none" xmlns="http://www.w3.org/2000/svg">
<circle cx="64" cy="64" r="64" fill="#5271F2"/>
<g clip-path="url(#clip0_833_960)">
<path d="M86.5546 46.5234H77.1389V48.4285C77.1389 49.2272 76.4926 49.8739 75.6935 49.8739C74.8955 49.8739 74.248 49.2272 74.248 48.4285V46.5234H53.752V48.4285C53.752 49.2272 53.1045 49.8739 52.3065 49.8739C51.5074 49.8739 50.8611 49.2272 50.8611 48.4285V46.5234H41.4454C40.6467 46.5234 40 47.1709 40 47.9689V54.007H88V47.9689C88 47.1709 87.3533 46.5234 86.5546 46.5234V46.5234Z" fill="white"/>
<path fill-rule="evenodd" clip-rule="evenodd" d="M41.4454 87.692C40.6467 87.692 40 87.0442 40 86.2466V56.8984H88V86.2466C88 87.0442 87.3533 87.692 86.5546 87.692H41.4454ZM59.2975 79.8683L59.6117 75.3141C59.6377 74.9413 59.5183 74.5732 59.2781 74.2861L56.3121 70.7445L60.825 69.3456C61.1399 69.2482 61.4127 69.0457 61.5966 68.771L64 65.1953L66.4034 68.771C66.5873 69.0457 66.8601 69.2482 67.175 69.3456L71.6879 70.7445L68.7219 74.2861C68.4817 74.5732 68.3623 74.9413 68.3883 75.3141L68.7025 79.8683L64.4944 78.3361C64.1783 78.2218 63.8293 78.2192 63.5056 78.3361L59.2975 79.8683Z" fill="white"/>
</g>
<defs>
<clipPath id="clip0_833_960">
<rect width="48" height="48" fill="white" transform="translate(40 40)"/>
</clipPath>
</defs>
</svg>
