<svg width="128" height="128" viewBox="0 0 128 128" fill="none" xmlns="http://www.w3.org/2000/svg">
<circle cx="64" cy="64" r="64" fill="#5271F2"/>
<path d="M62.0938 51.4375C62.3699 51.4375 62.5938 51.6614 62.5938 51.9375V53.75C62.5938 54.0261 62.8176 54.25 63.0938 54.25H64.9063C65.1824 54.25 65.4062 54.0261 65.4062 53.75V51.9375C65.4062 51.6614 65.6301 51.4375 65.9063 51.4375H70.5313C70.8074 51.4375 71.0312 51.6614 71.0312 51.9375V58.4688C71.0312 59.2446 70.4009 59.875 69.625 59.875H58.375C57.5991 59.875 56.9688 59.2446 56.9688 58.4688V51.9375C56.9688 51.6614 57.1926 51.4375 57.4688 51.4375H62.0938ZM40 74.4375C40 74.1614 40.2239 73.9375 40.5 73.9375H48.0313C48.3074 73.9375 48.5312 74.1614 48.5312 74.4375V78.1562C48.5312 78.9321 47.9009 79.5625 47.125 79.5625H41.4062C40.6304 79.5625 40 78.9321 40 78.1562V74.4375ZM40.5 88C40.2239 88 40 87.7761 40 87.5V82.116C40.442 82.2736 40.9109 82.375 41.4062 82.375H42.8125V85.1875H45.7188V82.375H47.125C47.6204 82.375 48.0892 82.2736 48.5312 82.116V87.5C48.5312 87.7761 48.3074 88 48.0312 88H40.5ZM68.2188 78.1562C68.2188 78.9321 67.5884 79.5625 66.8125 79.5625H61.1875C60.4116 79.5625 59.7812 78.9321 59.7812 78.1562V74.4375C59.7812 74.1614 60.0051 73.9375 60.2812 73.9375H67.7188C67.9949 73.9375 68.2188 74.1614 68.2188 74.4375V78.1562ZM60.2812 88C60.0051 88 59.7812 87.7761 59.7812 87.5V82.116C60.2233 82.2736 60.6921 82.375 61.1875 82.375H62.5938V85.1875H65.4062V82.375H66.8125C67.3079 82.375 67.7767 82.2736 68.2188 82.116V87.5C68.2188 87.7761 67.9949 88 67.7188 88H60.2812ZM71.5312 88C71.2551 88 71.0312 87.7761 71.0312 87.5V71.625C71.0312 71.3489 70.8074 71.125 70.5312 71.125H57.4687C57.1926 71.125 56.9688 71.3489 56.9688 71.625V87.5C56.9688 87.7761 56.7449 88 56.4687 88H51.8437C51.5676 88 51.3438 87.7761 51.3438 87.5V71.625C51.3438 71.3489 51.1199 71.125 50.8438 71.125H43.4062C43.1301 71.125 42.9062 70.9011 42.9062 70.625V62.3972C42.9062 62.2212 42.9993 62.0588 43.1481 61.9649C46.4955 59.8533 48.5312 56.2016 48.5312 52.1805V40.5C48.5312 40.2239 48.7551 40 49.0313 40H53.6563C53.9324 40 54.1562 40.2239 54.1562 40.5V58.4688C54.1562 60.7951 56.0487 62.6875 58.375 62.6875H69.625C71.9513 62.6875 73.8438 60.7951 73.8438 58.4688C73.8438 56.6884 73.8438 43.7288 73.8438 40.4981C73.8438 40.222 74.0676 40 74.3438 40H78.9688C79.2449 40 79.4688 40.2239 79.4688 40.5V52.1805C79.4688 56.2016 81.5045 59.8533 84.8519 61.9649C85.0007 62.0588 85.0938 62.2212 85.0938 62.3972V70.625C85.0938 70.9011 84.8699 71.125 84.5938 71.125H77.1562C76.8801 71.125 76.6562 71.3489 76.6562 71.625V87.5C76.6562 87.7761 76.4324 88 76.1562 88H71.5312ZM79.9687 88C79.6926 88 79.4688 87.7761 79.4688 87.5V82.116C79.9108 82.2736 80.3796 82.375 80.875 82.375H82.2812V85.1875H85.1875V82.375H86.5938C87.0891 82.375 87.558 82.2736 88 82.116V87.5C88 87.7761 87.7761 88 87.5 88H79.9687ZM86.5938 79.5625H80.875C80.0991 79.5625 79.4688 78.9321 79.4688 78.1562V74.4375C79.4688 74.1614 79.6926 73.9375 79.9688 73.9375H87.5C87.7761 73.9375 88 74.1614 88 74.4375V78.1562C88 78.9321 87.3696 79.5625 86.5938 79.5625Z" fill="white"/>
</svg>
