<svg width="128" height="128" viewBox="0 0 128 128" fill="none" xmlns="http://www.w3.org/2000/svg">
<circle cx="64" cy="64" r="64" fill="#5271F2"/>
<path d="M77.3789 52.5158L84.0226 57.7153C84.2043 57.8575 84.3104 58.0753 84.3104 58.3059V79.8475C84.3104 80.2617 84.6462 80.5975 85.0604 80.5975H99.2519C99.6661 80.5975 100.002 80.2617 100.002 79.8475V60.3613C100.002 60.1306 99.8957 59.9128 99.7141 59.7706L84.3737 47.7651C84.1022 47.5526 83.7208 47.5526 83.4492 47.7651L77.3789 52.5158ZM90.0468 69.2135C90.0468 68.7993 90.3826 68.4635 90.7968 68.4635H93.5152C93.9294 68.4635 94.2652 68.7993 94.2652 69.2135V74.0439C94.2652 74.4581 93.9294 74.7939 93.5152 74.7939H90.7968C90.3826 74.7939 90.0468 74.4581 90.0468 74.0439V69.2135Z" fill="white"/>
<path d="M31.6944 57.1044L28.2878 59.7706C28.1061 59.9128 28 60.1306 28 60.3613V79.8475C28 80.2617 28.3358 80.5975 28.75 80.5975H42.9415C43.3557 80.5975 43.6915 80.2617 43.6915 79.8475V58.3059C43.6915 58.0753 43.7976 57.8575 43.9792 57.7153L50.623 52.5158L44.5526 47.7651C44.2811 47.5526 43.8997 47.5526 43.6282 47.7651L35.913 53.8031V48.6857C35.913 48.2715 35.5772 47.9357 35.1629 47.9357H32.4446C32.0304 47.9357 31.6946 48.2715 31.6946 48.6857L31.6944 57.1044ZM37.9549 74.0439C37.9549 74.4581 37.6191 74.7939 37.2049 74.7939H34.4866C34.0723 74.7939 33.7366 74.4581 33.7366 74.0439V69.2135C33.7366 68.7993 34.0723 68.4635 34.4866 68.4635H37.2049C37.6191 68.4635 37.9549 68.7993 37.9549 69.2135V74.0439Z" fill="white"/>
<path d="M60.5742 73.6953C60.5742 73.2811 60.91 72.9453 61.3242 72.9453H66.6838C67.0981 72.9453 67.4338 73.2811 67.4338 73.6953V79.8462C67.4338 80.2604 67.0981 80.5962 66.6838 80.5962H61.3242C60.91 80.5962 60.5742 80.2604 60.5742 79.8462V73.6953Z" fill="white"/>
<path d="M80.0908 60.3611C80.0908 60.1305 79.9847 59.9126 79.803 59.7705L64.4626 47.7651C64.1911 47.5526 63.8097 47.5526 63.5382 47.7651L48.1979 59.7705C48.0163 59.9126 47.9102 60.1305 47.9102 60.3611V79.8475C47.9102 80.2617 48.2459 80.5975 48.6602 80.5975H55.6022C56.0164 80.5975 56.3522 80.2617 56.3522 79.8475V69.4781C56.3522 69.0639 56.688 68.7281 57.1022 68.7281H70.8987C71.3129 68.7281 71.6487 69.0639 71.6487 69.4781V79.8475C71.6487 80.2617 71.9845 80.5975 72.3987 80.5975H79.3408C79.755 80.5975 80.0908 80.2617 80.0908 79.8475V60.3611Z" fill="white"/>
</svg>
