<svg width="128" height="128" viewBox="0 0 128 128" fill="none" xmlns="http://www.w3.org/2000/svg">
<circle cx="64" cy="64" r="64" fill="#5271F2"/>
<path d="M57.1971 45.4001C57.1769 45.6145 57.1655 45.8314 57.1655 46.051C57.1655 49.8249 60.2249 52.8843 63.9988 52.8843C67.7726 52.8843 70.832 49.8249 70.832 46.051C70.832 45.8314 70.8207 45.6145 70.8004 45.4001C72.63 44.9443 73.9859 43.2909 73.9859 41.3203C73.9859 39.524 72.8591 37.9915 71.2742 37.389C70.7976 37.2613 70.2973 37.1924 69.7809 37.1924C69.1575 37.1924 68.5684 37.2715 68.0217 37.4224C67.1822 37.7509 66.5178 38.3451 66.1014 39.2176C65.879 39.2176 62.1187 39.2176 61.8963 39.2176C61.4799 38.3451 60.8155 37.7508 59.9759 37.4224C59.4292 37.2715 58.8402 37.1924 58.2168 37.1924C57.7005 37.1924 57.2001 37.2613 56.7234 37.389C55.1385 37.9915 54.0117 39.5239 54.0117 41.3203C54.0117 43.2909 55.3676 44.9443 57.1971 45.4001V45.4001Z" fill="white"/>
<path d="M88.7366 58.9052C88.5868 58.6356 88.2468 58.5384 87.9771 58.6882L79.4876 63.4046C79.4046 63.4507 79.3112 63.4749 79.2163 63.4749H48.7845C48.6896 63.4749 48.5962 63.4507 48.5133 63.4046L40.0237 58.6882C39.7541 58.5384 39.4141 58.6356 39.2643 58.9052L38.2751 60.6857C38.1253 60.9553 38.2225 61.2953 38.4921 61.4451L46.367 65.8201C46.5443 65.9186 46.6543 66.1055 46.6543 66.3083V90.2498C46.6543 90.5582 46.9043 90.8083 47.2128 90.8083H80.788C81.0965 90.8083 81.3465 90.5582 81.3465 90.2498V66.3083C81.3465 66.1055 81.4565 65.9186 81.6338 65.8201L89.5087 61.4452C89.7784 61.2954 89.8755 60.9554 89.7257 60.6858L88.7366 58.9052ZM72.0019 74.5936C72.0019 75.9045 71.4913 77.1372 70.5643 78.0641L64.0003 84.628L57.4365 78.0641C56.5094 77.1371 55.9989 75.9045 55.9989 74.5935V74.1651C55.9989 71.4586 58.2007 69.2568 60.9072 69.2568C62.0474 69.2568 63.1281 69.9923 64.0003 70.7027C64.8725 69.9924 65.9534 69.2568 67.0934 69.2568C69.8 69.2568 72.0017 71.4586 72.0017 74.1651L72.0019 74.5936Z" fill="white"/>
<path d="M49.8994 56.7184L54 58.3588C53.7369 58.9925 53.4624 59.6801 53.2317 60.3404C53.108 60.6942 53.3753 61.0559 53.7501 61.0559H74.2547C74.6296 61.0559 74.8968 60.6943 74.7731 60.3404C74.5424 59.6802 74.2678 58.9926 74.0048 58.3588L78.1055 56.7184C80.1804 55.8885 81.1934 53.5249 80.3635 51.4499C79.5469 49.4085 77.2255 48.389 75.1731 49.1614L73.5299 49.6741C73.3695 49.7242 73.2411 49.8442 73.1745 49.9984C71.6414 53.548 68.1082 56.0392 64.0027 56.0392C59.8969 56.0392 56.3639 53.548 54.8309 49.9984C54.7643 49.8442 54.6358 49.7242 54.4754 49.6741L52.8321 49.1614C50.7795 48.3888 48.4581 49.4084 47.6417 51.4498C46.8114 53.525 47.8244 55.8885 49.8994 56.7184Z" fill="white"/>
</svg>
