<svg width="128" height="128" viewBox="0 0 128 128" fill="none" xmlns="http://www.w3.org/2000/svg">
<circle cx="64" cy="64" r="64" fill="#5271F2"/>
<path d="M51.0781 94.4868C51.0781 94.7629 51.302 94.9868 51.5781 94.9868H76.4276C76.7037 94.9868 76.9276 94.7629 76.9276 94.4868V73.207C76.9276 72.9309 76.7037 72.707 76.4276 72.707H51.5781C51.302 72.707 51.0781 72.9309 51.0781 73.207V94.4868ZM58.4637 82.439C58.4637 82.1628 58.6875 81.939 58.9637 81.939H62.1565V78.7462C62.1565 78.4701 62.3803 78.2462 62.6565 78.2462H65.3492C65.6254 78.2462 65.8492 78.4701 65.8492 78.7462V81.939H69.042C69.3181 81.939 69.542 82.1628 69.542 82.439V85.1318C69.542 85.4079 69.3181 85.6318 69.042 85.6318H65.8492V88.8245C65.8492 89.1007 65.6254 89.3245 65.3492 89.3245H62.6565C62.3803 89.3245 62.1565 89.1007 62.1565 88.8245V85.6318H58.9637C58.6875 85.6318 58.4637 85.4079 58.4637 85.1318V82.439Z" fill="white"/>
<path d="M69.9505 69.0134C70.0492 69.0134 70.1457 68.9842 70.2279 68.9295L88.0061 57.0768V56.0887C88.0061 45.0161 80.237 34.8876 70.4902 32.4345C73.6636 35.8683 76.9278 42.1182 76.9278 52.3959V54.6185C77.5456 54.388 78.1735 54.2423 78.7742 54.2423C80.2198 54.2423 81.8206 55.0823 83.057 55.9377L68.7646 65.4658C68.7646 65.4658 73.0971 57.0227 73.235 56.9042V52.3959C73.235 37.8917 66.1073 33.0422 63.9995 32C61.8664 33.0422 54.7711 37.8502 54.7711 52.3959V56.9042C54.9091 57.0227 59.2415 65.4658 59.2415 65.4658L44.9491 55.9377C46.1855 55.0823 47.7862 54.2423 49.2319 54.2423C49.8326 54.2423 50.4605 54.388 51.0783 54.6185V52.3959C51.0783 42.1182 54.3424 35.8683 57.5159 32.4345C47.7692 34.8876 40 45.0161 40 56.0887V57.0768L57.7782 68.9295C57.8604 68.9842 57.9569 69.0134 58.0556 69.0134H69.9505ZM58.9059 56.5364C60.1823 55.5258 62.2149 54.2425 64.003 54.2425C65.7912 54.2425 67.8238 55.5258 69.1002 56.5364L64.4503 65.8364C64.266 66.2049 63.7401 66.2049 63.5558 65.8364L58.9059 56.5364Z" fill="white"/>
</svg>
