<svg width="12" height="12" viewBox="0 0 12 12" fill="none" xmlns="http://www.w3.org/2000/svg">
<path d="M0.251772 0.251772C0.331378 0.171963 0.425948 0.108644 0.530063 0.0654409C0.634179 0.0222377 0.745795 0 0.858518 0C0.971242 0 1.08286 0.0222377 1.18697 0.0654409C1.29109 0.108644 1.38566 0.171963 1.46527 0.251772L6.00044 4.78866L10.5356 0.251772C10.6153 0.172092 10.7099 0.108887 10.814 0.0657654C10.9181 0.0226434 11.0297 0.00044869 11.1424 0.00044869C11.255 0.00044869 11.3666 0.0226434 11.4707 0.0657654C11.5748 0.108887 11.6694 0.172092 11.7491 0.251772C11.8288 0.331451 11.892 0.426043 11.9351 0.530149C11.9782 0.634255 12.0004 0.745835 12.0004 0.858518C12.0004 0.971202 11.9782 1.08278 11.9351 1.18689C11.892 1.29099 11.8288 1.38559 11.7491 1.46527L7.21222 6.00044L11.7491 10.5356C11.8288 10.6153 11.892 10.7099 11.9351 10.814C11.9782 10.9181 12.0004 11.0297 12.0004 11.1424C12.0004 11.255 11.9782 11.3666 11.9351 11.4707C11.892 11.5748 11.8288 11.6694 11.7491 11.7491C11.6694 11.8288 11.5748 11.892 11.4707 11.9351C11.3666 11.9782 11.255 12.0004 11.1424 12.0004C11.0297 12.0004 10.9181 11.9782 10.814 11.9351C10.7099 11.892 10.6153 11.8288 10.5356 11.7491L6.00044 7.21222L1.46527 11.7491C1.38559 11.8288 1.29099 11.892 1.18689 11.9351C1.08278 11.9782 0.971202 12.0004 0.858518 12.0004C0.745835 12.0004 0.634255 11.9782 0.530149 11.9351C0.426043 11.892 0.331451 11.8288 0.251772 11.7491C0.172092 11.6694 0.108887 11.5748 0.0657654 11.4707C0.0226434 11.3666 0.00044869 11.255 0.00044869 11.1424C0.00044869 11.0297 0.0226434 10.9181 0.0657654 10.814C0.108887 10.7099 0.172092 10.6153 0.251772 10.5356L4.78866 6.00044L0.251772 1.46527C0.171963 1.38566 0.108644 1.29109 0.0654409 1.18697C0.0222377 1.08286 0 0.971242 0 0.858518C0 0.745795 0.0222377 0.634179 0.0654409 0.530063C0.108644 0.425948 0.171963 0.331378 0.251772 0.251772Z" fill="#002049"/>
</svg>
