<svg width="24" height="24" viewBox="0 0 24 24" fill="none" xmlns="http://www.w3.org/2000/svg">
<path d="M14.2757 10.2444L12 5.63339L9.72427 10.2444L4.63566 10.9839L8.31787 14.5731L7.44863 19.6412L12 17.2484L16.5514 19.6411L15.6822 14.5731L19.3644 10.9838L14.2757 10.2444ZM14.0612 16.2137L12 15.13L9.93881 16.2137L10.3324 13.9185L8.66494 12.2931L10.9694 11.9582L12 9.87L13.0306 11.9582L15.335 12.2931L13.6675 13.9185L14.0612 16.2137ZM21.1875 1.875H20.4375V0H18.5625V1.875H5.4375V0H3.5625V1.875H2.8125C1.26169 1.875 0 3.13669 0 4.6875V21.1875C0 22.7383 1.26169 24 2.8125 24H21.1875C22.7383 24 24 22.7383 24 21.1875V4.6875C24 3.13669 22.7383 1.875 21.1875 1.875ZM22.125 21.1875C22.125 21.7044 21.7044 22.125 21.1875 22.125H2.8125C2.29556 22.125 1.875 21.7044 1.875 21.1875V4.6875C1.875 4.17056 2.29556 3.75 2.8125 3.75H3.5625V5.625H5.4375V3.75H18.5625V5.625H20.4375V3.75H21.1875C21.7044 3.75 22.125 4.17056 22.125 4.6875V21.1875Z" fill="#002049"/>
</svg>
