<svg width="20" height="20" viewBox="0 0 20 20" fill="none" xmlns="http://www.w3.org/2000/svg">
<path d="M19.5578 9.50309C19.4393 9.32852 19.3292 9.12844 19.2126 8.91668C18.7485 8.07363 18.1129 6.9191 16.4092 6.9191C16.0395 6.9191 15.7039 7.00227 15.4009 7.1407C14.8154 5.46535 13.7941 4.67336 12.8018 3.90473C11.8939 3.20156 11.0363 2.53738 10.4154 1.14695L9.94934 0.103516L9.32422 1.06027C9.27965 1.12844 8.31875 2.61266 7.66008 4.69707C6.38332 4.2352 5.10223 3.72336 3.96211 2.9866L3.22844 2.51242L3.01848 3.36035C3.00328 3.42188 2.65016 4.8875 3.06871 6.63164C3.22441 7.28039 3.50129 8.01758 3.98484 8.74258C4.04023 9.22902 4.25238 10.6897 4.91949 12.167C5.43297 13.3041 6.09832 14.1923 6.89551 14.8186C5.8482 14.9039 4.0591 14.8848 1.41992 14.3284L0 14.0291L0.760273 15.2652C0.801094 15.3316 1.78301 16.9065 3.73832 18.2051C4.89066 18.9704 6.14504 19.483 7.4668 19.7288C8.07215 19.8414 8.69133 19.8975 9.32191 19.8975C10.405 19.8975 11.5218 19.7317 12.66 19.4009C16.2465 18.3586 17.2478 15.228 17.9788 12.9421C18.3564 11.7616 18.713 10.6465 19.2645 10.4357L20 10.1546L19.5578 9.50309ZM9.83758 2.68465C10.5097 3.70672 11.3113 4.32758 12.0383 4.89062C13.0355 5.66301 13.9049 6.3366 14.3452 7.94277C14.1854 8.11918 14.0429 8.30531 13.9171 8.49031C13.7691 8.22207 13.5857 7.94551 13.361 7.65848C12.4018 6.43285 10.6875 5.77332 8.83637 5.11551C9.14395 4.13348 9.52988 3.2848 9.83758 2.68465ZM16.7911 12.5622C16.4435 13.6491 16.0495 14.8811 15.3692 15.9233C14.6148 17.079 13.6147 17.8249 12.312 18.2035C10.7116 18.6686 9.16859 18.7712 7.72586 18.5085C6.57469 18.2989 5.4793 17.8565 4.47004 17.1939C3.8041 16.7567 3.26184 16.2786 2.84539 15.854C6.32234 16.3768 8.15086 15.9379 8.74508 15.7405C9.19434 15.8582 9.66867 15.9182 10.1666 15.9182V14.6713C8.35172 14.6713 6.97285 13.6652 6.06828 11.681C5.87285 11.2523 5.72066 10.8209 5.60227 10.4194C6.21207 10.8666 6.95648 11.2685 7.86512 11.5905L8.28172 10.4152C6.10762 9.64461 4.76547 8.2891 4.29242 6.38633C4.11699 5.6807 4.09606 5.02129 4.12137 4.52777C5.41336 5.22746 6.8073 5.72039 8.06375 6.16469C9.8732 6.80453 11.5823 7.40891 12.379 8.42695C13.6326 10.0287 13.2387 10.9993 12.5237 12.7611C12.4476 12.9488 12.3688 13.1429 12.2896 13.3445L13.4504 13.8002C13.5269 13.6051 13.6043 13.4144 13.6792 13.23C14.1057 12.179 14.4986 11.2105 14.4309 10.1636C14.6385 9.65953 15.3441 8.16609 16.4092 8.16609C17.331 8.16609 17.6448 8.65461 18.1202 9.51805C18.1455 9.5641 18.1711 9.61051 18.197 9.65699C17.5245 10.2692 17.1786 11.3506 16.7911 12.5622Z" fill="#002049"/>
</svg>
