<svg width="24" height="24" viewBox="0 0 24 24" fill="none" xmlns="http://www.w3.org/2000/svg">
<path d="M22.0932 24H15.6044C14.8512 23.999 14.2409 23.3886 14.24 22.6354V15.7532C14.2456 14.5302 13.2588 13.5342 12.0359 13.5285C10.8129 13.5228 9.81686 14.5096 9.81119 15.7326C9.81114 15.7395 9.81114 15.7463 9.81119 15.7532V22.6354C9.81034 23.3886 9.19989 23.9991 8.44661 24H1.90705C1.45034 24 1.08008 23.6298 1.08008 23.173V8.60327C1.08008 8.34672 1.19914 8.10475 1.40234 7.94819L11.4954 0.171879C11.7929 -0.0572929 12.2074 -0.0572929 12.5049 0.171879L22.5979 7.94819C22.8011 8.10475 22.9201 8.34677 22.9201 8.60327V23.173C22.9201 23.6297 22.5499 24 22.0932 24ZM15.8937 22.3461H21.2662V9.0101L12.0001 1.87091L2.73397 9.0101V22.3461H8.15711V15.7532C8.14966 13.6168 9.87555 11.8788 12.0119 11.8714C14.1483 11.8639 15.8863 13.5898 15.8937 15.7262C15.8938 15.7352 15.8938 15.7442 15.8937 15.7531V22.3461Z" fill="#FFFFFF"/>
</svg>
