<svg width="24" height="24" viewBox="0 0 24 24" fill="none" xmlns="http://www.w3.org/2000/svg">
<g clip-path="url(#clip0_798_4834)">
<path d="M21.1875 0.046875H2.8125C1.2616 0.046875 0 1.30847 0 2.85938V16.9688C0 18.5197 1.2616 19.7812 2.8125 19.7812H8.68359L12.0062 24.0297L15.2741 19.7812H21.1875C22.7384 19.7812 24 18.5197 24 16.9688V2.85938C24 1.30847 22.7384 0.046875 21.1875 0.046875ZM22.125 16.9688C22.125 17.4857 21.7044 17.9062 21.1875 17.9062H14.3509L11.9938 20.9703L9.59766 17.9062H2.8125C2.29559 17.9062 1.875 17.4857 1.875 16.9688V2.85938C1.875 2.34247 2.29559 1.92188 2.8125 1.92188H21.1875C21.7044 1.92188 22.125 2.34247 22.125 2.85938V16.9688ZM11.0167 5.29688C11.0167 4.6496 11.5413 4.125 12.1886 4.125C12.8357 4.125 13.3605 4.6496 13.3605 5.29688C13.3605 5.94415 12.8357 6.46875 12.1886 6.46875C11.5413 6.46875 11.0167 5.94415 11.0167 5.29688ZM13.4639 13.6108L14.2861 15.2959L13.649 15.6066C13.3315 15.7617 12.9904 15.8381 12.6509 15.8381C12.1754 15.8381 11.7036 15.6883 11.3047 15.395C10.6214 14.8923 10.2764 14.0592 10.4044 13.2208C10.4088 13.1915 10.4147 13.1624 10.422 13.1336L11.1661 10.1735C11.1815 9.98621 11.0731 9.87579 11.0045 9.82526C10.9319 9.77197 10.7818 9.69598 10.5934 9.78809C9.95581 10.0992 9.82452 10.1631 9.82452 10.1631L9.00348 8.47742C9.00385 8.47723 9.13568 8.41296 9.77106 8.10297C10.5337 7.7309 11.4318 7.81219 12.1154 8.31482C12.7987 8.81726 13.1437 9.65039 13.0159 10.4888C13.0113 10.5181 13.0054 10.5472 12.9983 10.576L12.2542 13.5361C12.2388 13.7234 12.3472 13.8338 12.4156 13.8843C12.4883 13.9378 12.6383 14.0136 12.8269 13.9215L13.4639 13.6108Z" fill="#002049"/>
</g>
<defs>
<clipPath id="clip0_798_4834">
<rect width="24" height="24" fill="white"/>
</clipPath>
</defs>
</svg>
