<svg width="256" height="182" viewBox="0 0 256 182" fill="none" xmlns="http://www.w3.org/2000/svg">
<path d="M154.994 181.858C143.506 181.915 132.314 179.156 121.034 177.376C115.791 176.669 110.55 175.846 105.263 175.558C99.1468 175.391 93.0274 175.729 86.967 176.571C77.9158 177.757 68.8359 178.733 59.7258 179.312C50.6216 179.987 41.4643 180.172 32.4431 178.566C24.1138 177.146 15.6927 174.842 8.63964 170.03C5.1532 167.355 -1.40571 164.814 0.26875 159.383C1.60087 156.42 14.8949 156.324 18.3914 155.516L18.2753 155.533C19.9942 155.291 21.7131 155.075 23.419 154.835L23.3016 154.851C30.9921 153.871 38.7112 153.147 46.4189 152.355H46.4003C47.0091 152.269 47.6164 152.168 48.228 152.1C49.4699 152.042 49.3109 153.893 48.228 154.046C47.2153 154.218 46.1883 154.29 45.1685 154.426C35.5237 155.163 25.9066 156.176 16.3173 157.464C11.4958 158.101 6.41084 158.06 1.83435 159.822C1.2485 163.884 6.22033 165.46 8.8058 167.565C13.1803 170.702 18.1923 172.642 23.2729 174.307C29.6471 176.053 36.2289 177.029 42.8122 177.546C53.515 177.994 64.2006 176.787 74.8548 175.92C83.4376 175.061 91.9575 173.402 100.606 173.342C122.447 172.912 143.608 181.954 165.531 179.235C178.649 178.045 190.774 172.683 203.177 168.675C207.941 167.286 212.861 166.485 217.809 166.128C227.692 165.104 238.087 166.222 247.492 162.489C250.343 161.129 255.155 158.706 254.014 154.997L254.104 155.09C254.01 154.985 253.906 154.889 253.793 154.804L253.868 154.858L253.76 154.781L253.785 154.798C253.672 154.72 253.551 154.653 253.425 154.599L253.543 154.658C250.268 153.34 246.659 153.387 243.184 153.386H243.327C241.273 153.041 199.331 155.642 205.198 151.945C210.398 151.706 215.642 152.284 220.858 151.892C229.987 151.787 239.121 150.972 248.251 151.405C250.81 151.77 254.212 151.762 255.803 154.102C257.105 158.929 251.67 162.241 247.888 163.881C241.96 166.379 235.441 166.656 229.103 166.991C222.219 167.451 215.245 167.534 208.487 169.042C199.649 170.923 191.487 175.011 182.847 177.579C173.842 180.378 164.449 182.011 154.994 181.858Z" fill="#231F20"/>
<path d="M165.361 170.017C164.385 169.588 166.978 167.039 167.314 166.402C168.72 165.918 167.214 167.897 166.948 168.287C166.431 168.797 166.23 170.129 165.361 170.017Z" fill="#231F20"/>
<path d="M168.499 169.506C167.792 169.052 168.785 168.309 169.004 167.825C169.274 167.564 169.471 166.637 169.948 166.931C170.117 167.504 169.543 168.09 169.392 168.638C169.245 169.029 169.05 169.693 168.499 169.506Z" fill="#231F20"/>
<path d="M175.221 168.198C174.777 167.859 175.34 167.421 175.56 167.131C175.79 166.901 175.857 166.525 176.106 166.333C176.722 166.199 176.259 167.008 176.143 167.269C175.94 167.634 175.801 168.458 175.221 168.198Z" fill="#231F20"/>
<path d="M218.575 160.316C218.352 159.803 219.055 159.63 219.396 159.457L219.373 159.467C220.017 159.336 221.838 158.007 222.094 159.037C222.1 159.176 222.057 159.312 221.972 159.422C221.888 159.532 221.767 159.609 221.632 159.64C220.877 159.561 218.863 160.766 218.575 160.316Z" fill="#231F20"/>
<path d="M222.215 162.26C222.11 161.731 224.896 160.163 224.981 161.064C224.981 162.042 223.49 161.737 222.927 162.3C222.804 162.632 222.246 162.664 222.215 162.26Z" fill="#231F20"/>
<path d="M23.2883 163.858C22.9288 163.142 22.7483 162.359 22.3888 161.644C22.1553 161.273 21.929 160.603 22.5206 160.455C23.3886 160.544 23.8298 162.592 24.1893 163.32C24.4027 163.827 23.5992 164.376 23.2883 163.858Z" fill="#231F20"/>
<path d="M26.4544 161.996C26.2338 161.462 26.0905 160.899 25.9229 160.348V160.359C25.8711 160.161 25.7976 159.969 25.7038 159.786C25.5878 159.293 26.3541 158.927 26.5561 159.462C26.6377 160.22 27.8825 161.707 27.1648 162.174C27.109 162.217 27.0442 162.247 26.9752 162.261C26.9063 162.275 26.835 162.274 26.7666 162.257C26.6983 162.24 26.6347 162.208 26.5806 162.162C26.5265 162.117 26.4834 162.06 26.4544 161.996Z" fill="#231F20"/>
<path d="M181.654 142.328C181.506 142.28 181.375 142.192 181.274 142.075C181.173 141.957 181.106 141.814 181.081 141.661C178.359 142.52 175.373 142.131 172.556 142.126C167.782 141.808 163.12 140.771 158.409 140.031C148.862 138.734 139.282 137.836 129.718 136.698C128.397 137.09 128.437 135.281 128.2 134.437C127.902 132.418 127.356 130.437 127.197 128.4C125.07 127.381 122.04 125.904 121.974 123.213C121.974 123.227 121.974 123.24 121.974 123.253C121.847 122.05 121.816 120.84 121.881 119.632V119.642C121.881 119.33 121.881 119.019 121.881 118.707V118.85C121.881 118.721 121.881 118.591 121.881 118.46V118.612C121.881 117.94 121.894 117.267 121.901 116.595V116.747C122.206 109.322 121.708 101.912 121.512 94.4907C121.755 93.1199 119.936 87.5092 121.271 87.3574C121.741 86.7844 122.257 86.9706 122.837 87.0709C123.463 87.0981 124.208 86.9535 124.686 87.462C125.795 89.3685 126.455 91.5385 127.876 93.2846C130.55 96.709 133.168 100.176 135.731 103.685C137.748 105.956 139.958 108.021 142.137 110.131C144.797 103.99 149.872 99.325 153.318 93.647C157.074 88.1681 164.244 80.1969 160.834 73.1896C158.854 70.0384 154.702 70.1816 151.863 68.3625C151.29 67.821 151.131 66.8384 151.642 66.2039C152.439 65.4361 153.745 65.5994 154.76 65.3057C163.212 64.1785 176.246 65.3645 183.695 69.6373C189.669 73.1538 192.454 76.1962 193.184 83.2851C194.078 86.2043 190.355 86.5796 188.649 87.9518C185.793 89.7857 183.197 91.9973 180.933 94.5265C179.418 96.3156 177.639 98.0201 176.56 100.113C176.978 101.999 176.99 103.947 177.229 105.864C177.934 111.571 179.867 117.028 181.44 122.533C182.013 123.737 182.862 124.876 182.85 126.265C182.789 127.645 183.249 128.973 183.242 130.353C183.296 130.324 183.357 130.31 183.419 130.314C183.481 130.317 183.54 130.338 183.59 130.374C183.64 130.409 183.679 130.459 183.703 130.516C183.727 130.573 183.734 130.635 183.723 130.696V130.68C183.276 133.638 183.564 136.666 183.127 139.641C182.996 140.621 183.127 142.582 181.654 142.328ZM180.99 140.26L181.134 140.228V140.214L180.99 140.26ZM144.907 108.604L144.891 108.633C144.974 108.491 145.06 108.348 145.149 108.203C145.067 108.333 144.986 108.467 144.907 108.601V108.604Z" fill="#F54E5A"/>
<path d="M110.251 98.3987C106.312 98.0908 102.39 97.4677 98.4364 97.3531C97.173 97.1296 94.9184 98.0077 94.5116 96.3003C94.2366 89.0295 96.0257 81.73 103.328 78.6403C103.587 77.6033 104.935 77.2079 105.597 78.1218C106.442 78.8709 107.343 79.5699 107.955 80.5382C109.113 82.1139 109.897 83.9201 110.746 85.6691C111.723 88.2746 111.606 91.0935 111.693 93.8337C111.514 95.1873 112.1 98.1466 110.251 98.3987Z" fill="#F54E5A"/>
<path d="M142.428 154.418C140.513 154.364 138.609 154.123 136.698 154.123C135.319 154.024 130.546 154.526 130.32 152.812C130.263 152.065 130.394 151.308 130.522 150.572C130.47 149.239 130.075 147.941 130.041 146.61C130.041 145.914 130.9 145.267 131.53 145.704C131.672 145.664 131.822 145.668 131.961 145.715C132.101 145.762 132.223 145.849 132.312 145.966C132.547 146.298 132.456 146.729 132.434 147.112C135.247 147.971 137.76 149.572 140.526 150.559C142.047 151.108 143.963 150.794 145.273 151.806C147.756 150.329 147.599 155.276 142.428 154.418Z" fill="#F54E5A"/>
<path d="M151.422 155.571C149.759 155.386 147.81 155.488 146.368 154.577C146.007 154.004 146.672 153.461 147.246 153.64C148.76 153.994 151.467 152.955 152.527 154.093C152.894 154.808 152.218 155.727 151.422 155.571Z" fill="#F54E5A"/>
<path d="M153.947 156.266C152.4 156.123 150.855 156.137 149.315 155.837C148.885 155.762 148.44 155.778 148.039 155.612C147.668 155.418 147.847 154.82 148.231 154.772C149.507 154.629 150.789 154.81 152.066 154.785C153.241 154.447 154.397 154.711 155.54 155.072C155.848 155.149 155.97 155.513 155.915 155.795C155.703 156.696 154.608 156.334 153.947 156.266Z" fill="#F54E5A"/>
<path d="M113.152 75.9256C110.243 74.3385 115.05 71.1528 116.877 72.1928C119.111 74.0978 115.05 76.626 113.152 75.9256Z" fill="#5271F2"/>
<path d="M129.719 69.4318C125.812 68.0725 129.524 64.9585 131.803 64.2867C133.845 63.3857 136.726 65.2149 134.617 67.2474C133.275 68.4034 131.584 69.6624 129.719 69.4318Z" fill="#5271F2"/>
<path d="M131.571 90.7106C130.746 89.1908 130.324 87.4834 129.503 85.9608C120.525 90.2093 115.626 85.415 111.041 77.9723C107.254 72.1769 103.34 66.3471 100.786 59.8841C99.1376 56.9692 97.9788 53.8237 97.5577 50.4833C97.5577 50.4948 97.5577 50.5077 97.5577 50.5206V50.4289C97.5577 50.4389 97.5577 50.4475 97.5577 50.4576C97.5231 49.8079 97.5394 49.1566 97.6064 48.5095C97.6071 48.5147 97.6071 48.52 97.6064 48.5253C97.6064 48.4937 97.6064 48.4622 97.6136 48.4322C98.1564 36.9186 108.508 28.4976 118.916 25.5139C116.087 20.0264 114.103 5.03072 120.244 1.33229C121.857 0.306698 123.895 -0.426686 125.665 0.651904C130.013 3.31615 130.019 9.79628 129.514 14.3169C129.166 18.1213 126.738 21.3356 126.107 25.024C130.911 25.587 134.78 28.8299 137.637 32.5383C140.68 36.1465 143.401 40.0527 145.229 44.4272C145.215 44.3985 145.2 44.3685 145.188 44.3384C145.746 45.4342 146.137 46.6001 146.51 47.7761C146.51 47.7632 146.5 47.7489 146.495 47.7346C146.553 47.9108 146.611 48.0869 146.667 48.2646C146.657 48.2345 146.647 48.203 146.639 48.1729C146.696 48.3519 146.753 48.531 146.809 48.71C152.779 49.0481 152.116 54.0328 149.326 57.7785C150.13 61.5639 151.436 65.2249 153.209 68.6647C153.205 68.6578 153.202 68.6506 153.199 68.6432C153.378 69.0252 153.557 69.4038 153.735 69.7791L153.692 69.6903C154.442 71.1355 155.204 72.7226 156.654 73.5806C157.392 74.4644 156.367 75.2035 155.537 74.4014C153.985 73.3801 153.147 71.5982 152.348 69.9825C152.342 69.9714 152.337 69.9599 152.332 69.9481C152.325 69.9352 152.318 69.9194 152.312 69.9066C150.593 66.8269 149.425 63.5009 148.488 60.1119C147.574 57.7212 148.226 56.9606 149.535 54.9954V55.0054C151.185 52.4529 150.039 50.0207 146.935 49.9591C145.838 51.1322 144.887 52.5259 144.517 54.113C143.602 56.1785 142.486 52.8239 142.082 52.0346C141.617 50.9357 141.075 49.8707 140.461 48.8475C133.214 35.0966 118.402 39.2434 108.213 47.1029C105.453 48.965 102.986 51.3098 101.296 54.1932L101.335 54.1345C100.773 55.0183 100.231 55.9966 100.251 57.0709C101.468 59.0204 102.424 61.0945 103.41 63.1715C106.122 67.7981 108.832 72.4361 111.814 76.8937C114.668 81.2683 118.26 87.4018 124.316 86.634C126.128 86.4908 127.754 85.6499 129.456 85.0928C129.504 85.0446 129.562 85.007 129.625 84.9823C129.689 84.9577 129.757 84.9464 129.825 84.9494C129.893 84.9524 129.96 84.9694 130.021 84.9995C130.082 85.0296 130.136 85.0721 130.18 85.1243C130.884 84.8951 131.005 85.8491 131.235 86.3031C131.753 87.449 132.3 88.5663 132.752 89.7409C133.343 90.5401 132.173 91.7133 131.571 90.7106Z" fill="#231F20"/>
<path d="M120.037 77.0666C118.789 76.6899 119.051 74.8564 118.731 73.8265C118.14 70.8085 117.672 67.7145 116.414 64.8856C116.215 64.5604 115.963 63.8098 116.569 63.7998C117.553 64.3842 117.907 65.7622 118.394 66.7577C119.505 69.6855 120.232 72.7447 120.558 75.8591C121.373 75.5339 122.016 74.5699 122.244 73.742L122.231 73.8093C122.449 73.1419 122.214 72.4228 122.353 71.7768C122.598 71.3141 123.243 71.6178 123.147 72.0991C123.331 74.0743 122.32 76.9434 120.037 77.0666Z" fill="#231F20"/>
<path d="M122.8 82.0905C122.731 82.0786 122.667 82.0502 122.611 82.0078C122.556 81.9654 122.512 81.9102 122.483 81.847C122.33 81.9487 122.075 81.5219 122.247 81.4646C121.87 76.7849 128.64 77.6458 126.997 80.0494C125.636 80.7627 124.215 81.5176 122.8 82.0905ZM123.099 80.3717C123.09 80.6424 123.099 80.9131 123.099 81.1838C124.102 80.8057 124.996 80.2055 125.987 79.8016L125.944 79.8216C126.128 79.7417 126.305 79.6458 126.472 79.5351C125.385 79.1713 123.688 79.0725 123.086 80.2685C123.096 80.3026 123.1 80.3378 123.099 80.3731V80.3717Z" fill="#231F20"/>
<path d="M113.018 76.5322C112.886 76.081 112.158 73.3995 112.683 73.3193C113.152 73.6445 113.178 75.3247 113.509 75.9635C113.509 75.9492 113.499 75.932 113.493 75.9163C113.777 76.2844 113.422 77.0206 113.018 76.5322Z" fill="#231F20"/>
<path d="M114.888 75.7263C114.141 75.0989 114.377 73.7453 114.136 72.8429C114.133 72.8103 114.136 72.7773 114.146 72.746C114.156 72.7147 114.172 72.6858 114.194 72.6611C114.216 72.6363 114.242 72.6163 114.272 72.6022C114.301 72.5881 114.334 72.5803 114.366 72.5792C114.399 72.5781 114.432 72.5838 114.462 72.5959C114.493 72.608 114.521 72.6262 114.544 72.6495C114.567 72.6728 114.585 72.7005 114.597 72.7311C114.609 72.7617 114.614 72.7944 114.613 72.8272C114.613 72.8143 114.613 72.7999 114.613 72.7871C114.613 72.8028 114.613 72.8171 114.613 72.8329V72.8243C114.54 73.456 115.755 75.8309 114.888 75.7263Z" fill="#231F20"/>
<path d="M116.612 74.3573C116.439 73.6526 116.517 72.8992 116.325 72.193C116.326 72.2001 116.326 72.2073 116.325 72.2145C116.271 72.1085 116.222 71.9165 116.391 71.8965C116.911 72.3047 116.805 73.2401 117.08 73.8331C117.364 74.217 116.95 74.8887 116.612 74.3573Z" fill="#231F20"/>
<path d="M128.569 68.4128C128.559 67.8398 127.938 65.4649 128.496 65.336C128.81 65.2329 129.008 65.6325 128.836 65.8731C128.854 66.0551 128.889 66.237 128.919 66.4189L128.91 66.3716C128.988 66.787 129.598 69.3309 128.569 68.4128Z" fill="#231F20"/>
<path d="M130.752 67.2167C130.242 66.7039 130.622 65.8129 130.49 65.1598C130.46 65.1332 130.436 65.0993 130.422 65.0613C130.407 65.0233 130.403 64.9823 130.409 64.9421C130.409 64.9492 130.409 64.9564 130.409 64.9635C130.387 64.7673 130.532 64.4708 130.754 64.6441C131.07 65.0738 131.015 65.6783 131.131 66.1882C131.244 66.5607 131.41 67.3972 130.752 67.2167Z" fill="#231F20"/>
<path d="M133.634 65.8906C133.563 65.558 133.521 65.2195 133.511 64.8793V64.9409C133.587 64.3107 133.147 63.4297 133.607 62.9356C134.323 62.7307 134.015 64.1932 134.222 64.6201C134.259 65.1099 134.716 65.8877 134.131 66.1957C134.079 66.212 134.023 66.2168 133.968 66.2099C133.914 66.203 133.861 66.1845 133.814 66.1556C133.767 66.1267 133.727 66.0882 133.696 66.0425C133.665 65.9968 133.644 65.945 133.634 65.8906Z" fill="#231F20"/>
<path d="M109.687 70.6687C106.648 70.0313 106.384 68.8137 108.729 66.8141C110.23 64.8088 113.026 63.9837 115.43 64.4593C116.441 64.6426 116.054 66.085 115.741 66.7354C114.781 69.0716 112.301 71.0182 109.687 70.6687ZM110.805 69.2936C112.852 69.0071 114.79 67.5246 115.218 65.4462C113.343 65.8487 111.194 65.8759 109.646 67.125C109.484 67.7523 108.786 68.1276 108.516 68.7278C109.218 69.073 110.01 69.3838 110.805 69.2936Z" fill="#231F20"/>
<path d="M123.921 62.8654C120.168 62.5517 123.217 58.5524 124.572 57.1186C126.406 55.6232 128.945 54.5661 131.325 54.6076C136.254 55.1462 134.727 57.1859 132.059 59.7485C130.103 61.6822 126.64 62.8482 123.921 62.8654ZM125.222 61.4917C128.466 60.7626 132.433 59.419 133.899 56.2033C132.233 55.7736 130.45 55.4971 128.856 56.3208C126.485 57.1243 124.033 58.5983 123.259 61.1136C123.811 61.5332 124.559 61.5289 125.222 61.4917Z" fill="#231F20"/>
<path d="M111.309 69.6064C109.822 68.6997 111.231 65.6931 112.917 66.3778C115.09 67.1714 113.072 70.2352 111.309 69.6064Z" fill="#231F20"/>
<path d="M126.821 60.4394C125.4 58.5615 128.759 56.4731 129.907 58.4527C130.765 60.0483 127.879 61.995 126.821 60.4394Z" fill="#231F20"/>
<path d="M107.899 68.0592C107.157 67.8501 106.432 67.5851 105.675 67.4218C105.441 67.4877 105.289 67.1711 105.413 66.9921C105.461 66.697 107.533 67.27 108.013 67.2241C108.494 67.2943 108.375 68.1208 107.899 68.0592Z" fill="#231F20"/>
<path d="M109.314 67.0029C108.235 66.7866 106.566 66.6706 105.793 65.91C105.783 65.8588 105.789 65.8058 105.809 65.7578C105.829 65.7097 105.863 65.6688 105.907 65.6401C105.95 65.6114 106.001 65.5963 106.053 65.5967C106.106 65.597 106.156 65.6129 106.2 65.6421C106.817 65.92 107.499 66.006 108.163 66.1005C108.628 66.2552 109.596 65.92 109.666 66.5904C109.67 66.691 109.636 66.7894 109.571 66.8659C109.506 66.9425 109.414 66.9914 109.314 67.0029Z" fill="#231F20"/>
<path d="M110.709 65.8836C109.839 65.62 109.02 65.2032 108.148 64.9439C107.861 64.8594 107.407 64.7119 107.565 64.328C107.583 64.2751 107.617 64.2288 107.662 64.1949C107.707 64.161 107.76 64.141 107.816 64.1373C107.872 64.1337 107.928 64.1465 107.977 64.1743C108.026 64.2021 108.065 64.2436 108.091 64.2936C109.029 64.7233 110.143 64.8007 111.054 65.1688C111.266 65.4281 111.067 65.9423 110.709 65.8836Z" fill="#231F20"/>
<path d="M129.348 55.4732C129.116 55.1967 129.282 54.7942 129.303 54.4705C129.377 53.8125 129.408 53.1502 129.395 52.4881C129.397 52.4214 129.423 52.3577 129.47 52.3097C129.516 52.2618 129.579 52.2329 129.645 52.229C129.712 52.225 129.778 52.2462 129.829 52.2884C129.881 52.3305 129.915 52.3905 129.925 52.4566C129.958 52.6941 129.978 52.9331 129.986 53.1728V53.1613C129.941 53.6684 130.325 55.9588 129.348 55.4732Z" fill="#231F20"/>
<path d="M131.209 55.3203C130.547 55.0066 131.242 54.0312 131.236 53.4754C131.425 52.8867 131.337 52.0788 131.719 51.6133C132.034 51.7264 131.808 52.2908 131.847 52.5644C131.847 52.5763 131.847 52.5883 131.847 52.6002V52.6561C131.847 52.6432 131.847 52.6317 131.847 52.6188V52.6704C131.847 52.7005 131.847 52.7291 131.847 52.7578C131.67 53.3436 131.942 55.2315 131.209 55.3203Z" fill="#231F20"/>
<path d="M132.935 54.8678C132.977 54.3937 133.222 53.9611 133.28 53.487L133.268 53.5442C133.328 53.2126 133.37 52.8779 133.394 52.5416V52.5946C133.396 52.4571 133.406 52.3198 133.424 52.1835C133.424 52.1901 133.424 52.1969 133.424 52.2035C133.424 51.9615 133.725 51.7624 133.916 51.9557C134.15 52.5287 133.944 53.2535 133.941 53.8723C133.941 53.8508 133.941 53.8307 133.941 53.8107C133.914 54.1528 133.919 54.4967 133.958 54.8377C133.981 55.5696 132.918 55.6327 132.935 54.8678Z" fill="#231F20"/>
<path d="M103.613 65.6851C102.467 65.2969 103.488 63.8416 103.961 63.25L103.931 63.2844L104 63.2056L103.962 63.25C105.042 61.9122 106.343 60.7834 107.329 59.3826C107.854 58.8855 108.167 57.9903 108.874 57.7697C109.375 57.7582 109.59 58.3971 109.348 58.7724C107.572 60.9897 105.746 63.177 104.11 65.5046C104.047 65.5714 103.969 65.6224 103.883 65.6538C103.797 65.6851 103.704 65.6958 103.613 65.6851Z" fill="#231F20"/>
<path d="M117.188 53.7667C116.343 53.6507 116.21 52.3816 116.858 51.9332C118.215 51.3416 119.699 51.0351 121.123 50.6255C123.844 49.9465 126.513 49.0813 129.241 48.4353C130.892 48.0658 132.609 47.9139 134.278 48.2219C134.961 48.0701 135.372 48.8192 134.604 49.0541C132.974 49.332 131.33 49.5741 129.734 50.0052L129.66 50.0253L129.69 50.0167L129.25 50.1427L129.326 50.1213C125.307 51.4247 121.183 52.4661 117.188 53.7667Z" fill="#231F20"/>
<path d="M104.083 64.5549C103.08 63.4964 107.574 59.1419 108.184 57.7797C109.682 56.0079 110.742 57.4632 109.357 59.0288C109.371 59.0044 109.388 58.9801 109.404 58.9557C108.22 60.6144 107.025 62.2731 105.67 63.7972C105.527 64.1911 105.053 64.6065 104.719 64.1453C104.485 64.267 104.408 64.6982 104.083 64.5549Z" fill="#231F20"/>
<path d="M107.619 49.4818C107.515 47.5452 107.246 45.4711 107.619 43.5761C107.972 42.9888 108.681 43.6921 108.314 44.1576C108.304 44.5 108.314 44.8452 108.328 45.1861V45.176C108.369 46.5211 108.447 47.8646 108.555 49.2054C108.635 49.7583 107.776 50.1135 107.619 49.4818Z" fill="#231F20"/>
<path d="M109.375 48.2812C109.112 46.9047 109.443 45.4866 109.4 44.0957C109.458 43.7104 109.123 43.0487 109.635 42.8968C109.691 42.888 109.749 42.8971 109.801 42.9227C109.852 42.9484 109.894 42.9894 109.921 43.0401C110.053 44.398 109.865 45.8146 110.016 47.194C110.073 47.6237 110.445 48.2396 109.905 48.5046C109.856 48.5282 109.803 48.541 109.749 48.5424C109.694 48.5437 109.64 48.5335 109.59 48.5123C109.54 48.4912 109.495 48.4597 109.458 48.4198C109.421 48.38 109.393 48.3327 109.375 48.2812Z" fill="#231F20"/>
<path d="M111.637 48.0043C111.091 47.1792 111.658 45.701 111.546 44.7012C111.678 43.9764 111.429 41.6216 112.333 41.5342C112.379 41.5516 112.421 41.5786 112.455 41.6135C112.49 41.6483 112.517 41.6903 112.534 41.7364C112.552 41.7825 112.559 41.8318 112.555 41.8809C112.552 41.93 112.538 41.9779 112.515 42.0212C112.148 43.0396 112.323 44.1769 112.3 45.2441V45.2169C112.3 45.2369 112.3 45.257 112.3 45.2756C112.301 45.2704 112.301 45.2651 112.3 45.2598V45.4188C112.3 45.4045 112.3 45.3902 112.3 45.3759V45.5191V45.5048C112.175 46.2453 113.049 48.3624 111.637 48.0043Z" fill="#231F20"/>
<path d="M100.46 41.7742C99.2754 41.2929 103.898 35.8928 100.355 33.071C96.3662 36.2222 95.2761 29.6046 100.384 32.1385C100.824 31.302 101.116 30.2506 100.91 29.3124C100.882 29.2351 100.881 29.1508 100.907 29.0729C100.933 28.995 100.985 28.9281 101.053 28.8827C102.129 28.685 101.218 31.9337 100.854 32.4235C102.617 33.7671 102.517 36.3068 101.984 38.2448C101.984 38.229 101.993 38.2118 101.995 38.1961C101.768 39.2389 101.196 40.1556 100.85 41.154C101.099 41.4218 100.799 41.9203 100.46 41.7742ZM98.5506 33.25C98.9598 33.2362 99.3557 33.1011 99.6879 32.8619L99.6693 32.8748C99.7137 32.8432 99.7552 32.8103 99.7968 32.7773C99.2811 32.6069 97.3116 31.8205 97.6711 32.9349L97.6611 32.9206C97.896 33.1569 98.2383 33.2343 98.5506 33.25Z" fill="#231F20"/>
<path d="M136.414 34.2265C136.371 31.737 137.753 29.11 139.838 27.732C139.695 27.2579 138.913 26.5302 139.483 26.1306C140.028 25.9874 139.95 26.8855 140.199 27.1934L140.191 27.1748C140.234 27.2693 140.28 27.3653 140.325 27.4613C145.339 25.698 142.421 32.3128 140.162 28.3207C138.69 29.1658 137.807 30.6913 137.214 32.234C136.908 32.5448 136.939 34.7665 136.414 34.2265ZM141.768 29.0541C142.132 29.0068 142.507 28.7275 142.564 28.3494V28.3594C142.564 28.3479 142.564 28.3379 142.564 28.3264C142.564 28.315 142.564 28.3379 142.564 28.3436C142.565 28.3374 142.565 28.3312 142.564 28.325C142.566 28.3398 142.566 28.3546 142.564 28.3694C142.568 28.324 142.563 28.2783 142.55 28.2348V28.252C142.179 27.6446 141.206 27.8681 140.645 28.0715C140.711 28.1861 140.779 28.2992 140.853 28.411L140.833 28.3809C141.05 28.7003 141.337 29.0928 141.768 29.057V29.0541Z" fill="#231F20"/>
<path d="M93.6546 50.8116C93.3424 50.018 96.5108 49.0225 97.1583 49.1199C97.9103 49.2044 98.7167 49.3405 99.3713 49.7373C99.7179 50.379 98.6437 49.8318 98.3787 49.8232H98.3901L98.2283 49.7917H98.2369L98.1767 49.7802C97.439 49.6241 96.6655 49.5998 95.9608 49.9049C95.5822 50.0573 95.213 50.2318 94.855 50.4277C94.4869 50.5294 93.9998 51.2255 93.6546 50.8116Z" fill="#231F20"/>
<path d="M125.454 26.5979C125.475 26.3776 125.526 26.1612 125.606 25.9547L125.596 25.982L125.647 25.8387V25.8502C125.739 25.6095 125.835 25.3689 125.934 25.1268C127.056 22.0515 128.869 18.6137 132.017 17.2372L131.983 17.2501C132.427 17.1856 133.327 16.4609 133.597 17.0023C133.615 17.0888 133.601 17.1789 133.558 17.2558C133.514 17.3327 133.444 17.3912 133.361 17.4206C132.844 17.571 132.327 17.7285 131.824 17.9248C130.155 18.5679 129.102 20.1106 128.1 21.5057L128.117 21.4814C127.463 22.3802 126.937 23.3656 126.554 24.4092C126.531 24.4722 126.507 24.5367 126.483 24.5997L126.471 24.6269L126.328 25.0237C126.328 25.0194 126.328 25.0151 126.328 25.0108C126.156 25.5279 125.859 26.0135 125.837 26.5721C125.841 26.8228 125.443 26.8801 125.454 26.5979Z" fill="#231F20"/>
<path d="M100.986 149.945C100.231 147.517 100.261 144.87 99.9659 142.354C99.6794 138.459 99.1666 134.582 99.1064 130.674C98.8457 122.857 98.4031 115.052 98.1038 107.239C97.9749 103.781 97.2157 100.193 97.7385 96.7822C99.2153 95.2982 98.9188 101.409 99.1924 102.131C99.1924 102.092 99.1838 102.055 99.1809 102.016C100.853 117.178 100.327 132.505 101.877 147.686C101.877 147.651 101.87 147.616 101.865 147.582C101.912 148.228 102.1 148.857 102.132 149.5C102.146 150.061 101.354 150.485 100.986 149.945Z" fill="#231F20"/>
<path d="M103.963 150.403C103.862 150.396 103.763 150.369 103.673 150.322C103.584 150.275 103.505 150.211 103.441 150.132C103.377 150.053 103.331 149.962 103.304 149.865C103.278 149.767 103.272 149.665 103.287 149.565C103.565 147.913 103.983 146.285 104.338 144.647C105.541 139.529 106.419 134.334 107.267 129.155C109.002 117.932 109.856 106.587 110.755 95.2772C110.735 92.59 110.791 89.8026 109.861 87.2443C107.978 83.4356 104.814 80.3832 103.024 76.5014C102.068 74.39 100.78 72.2959 100.787 69.9124C100.644 68.1405 102.386 66.3543 103.755 68.2537C104.159 66.0263 105.997 67.3942 104.967 67.9672C104.529 70.259 105.905 72.4907 106.819 74.5147C107.194 75.3311 108.548 77.5026 106.756 77.4224C105.65 76.6862 105.18 75.2452 104.795 74.0248C104.486 73.2398 103.163 67.3112 102.009 69.126C102.022 69.0974 102.033 69.0673 102.048 69.0372C101.581 72.2214 104.223 75.8539 105.839 78.491C108.442 81.88 111.855 85.1688 112.203 89.6636C112.987 95.737 111.798 101.797 111.344 107.855C110.408 121.941 107.915 135.87 104.778 149.618C104.725 150.01 104.395 150.404 103.963 150.403Z" fill="#231F20"/>
<path d="M43.3532 160.524C43.2343 160.46 43.1374 160.362 43.0753 160.243C43.0131 160.123 42.9887 159.987 43.0052 159.854C42.7817 159.394 42.5754 158.923 42.4036 158.444C42.3817 158.449 42.3591 158.45 42.3369 158.447C42.3147 158.444 42.2934 158.436 42.2742 158.424C42.255 158.412 42.2384 158.397 42.2252 158.379C42.212 158.361 42.2025 158.34 42.1973 158.318C41.5155 158.082 41.4811 157.208 41.1946 156.644C40.5987 155.102 40.0487 153.544 39.3927 152.026C35.4565 143.232 32.4456 134.065 29.1239 125.041C28.4707 123.225 27.7588 121.428 27.2689 119.558C26.8721 118.278 26.7504 116.906 25.7606 115.918C25.222 114.173 28.0152 114.242 29.1224 114.056C31.5853 113.647 34.0691 113.376 36.5623 113.245C46.589 112.662 56.6301 112.858 66.6597 112.459C71.8249 112.227 77.0072 112.162 82.1696 112.459C83.0734 112.434 84.0575 112.689 84.9183 112.427C85.5343 112.141 86.0342 112.781 86.3078 113.261C86.3235 113.285 86.3378 113.31 86.3522 113.334V113.348C90.0377 121.576 91.4328 130.604 93.7805 139.263C94.7603 142.558 95.9191 145.803 96.9733 149.079C97.1166 150.069 98.6765 151.944 97.3271 152.503C97.3988 152.766 97.4704 153.033 97.5348 153.298C107.812 153.047 118.105 152.087 128.383 152.705H128.311C134.566 153.117 140.971 152.975 147.151 153.179C148.239 153.06 149.014 153.656 148.783 154.872C148.754 155.936 148.991 156.993 148.908 158.052C148.67 159.59 146.557 159.079 145.43 159.382C138.736 159.877 132.022 159.796 125.317 159.718C120.754 159.806 116.19 159.914 111.627 159.753C102.212 159.61 92.7979 159.742 83.3842 159.865C76.8654 159.997 70.3409 159.821 63.8307 160.174C57.0211 160.468 50.1184 160.064 43.3532 160.524ZM134.224 154.776L134.727 154.803C134.559 154.794 134.392 154.78 134.224 154.776ZM31.8225 127.417L31.642 126.963C31.6979 127.106 31.7552 127.25 31.8125 127.393L31.8024 127.37C31.8096 127.391 31.8153 127.409 31.8225 127.423V127.417ZM40.3008 114.759H40.2478L40.9311 114.712C40.7205 114.736 40.5099 114.748 40.3008 114.765V114.759ZM66.9977 114.043C67.1409 114.031 67.2842 114.02 67.4274 114.011C67.2813 114.026 67.1381 114.031 66.9977 114.047V114.043Z" fill="#231F20"/>
<path d="M97.5321 154.611C97.4761 154.572 97.4276 154.524 97.3889 154.467C96.8031 154.344 96.6985 152.06 96.3418 151.412C96.2888 151.388 96.2441 151.348 96.2135 151.299C96.1829 151.249 96.1677 151.191 96.1699 151.133C95.776 150.56 97.0537 149.835 97.2371 150.944C97.5536 151.842 97.7871 152.763 98.181 153.634C98.5133 154.105 98.1452 154.927 97.5321 154.611Z" fill="#231F20"/>
<path d="M102.132 154.559C100.894 152.674 100.605 149.474 100.519 147.221C100.589 146.479 101.683 146.394 101.728 147.196C101.871 147.973 101.99 148.751 102.119 149.527V149.518C102.317 150.828 102.605 152.123 102.978 153.394C103.278 153.957 102.848 154.977 102.132 154.559Z" fill="#231F20"/>
<path d="M104.137 150.325C103.236 150.341 104.197 147.821 104.703 148.006C104.989 148.222 104.703 148.682 104.779 148.996C104.723 149.47 104.819 150.343 104.137 150.325Z" fill="#231F20"/>
<path d="M189.53 159.385H189.629C182.856 159.268 176.096 158.747 169.385 157.826C163.6 157.208 157.827 156.416 152.159 155.075C149.373 154.46 146.834 153.163 144.16 152.22C139.517 150.66 134.981 148.799 130.58 146.648C129.394 147.144 129.139 148.623 128.289 149.489C126.838 151.227 125.673 150.062 126.235 148.151C125.441 149.501 123.487 152.469 122.422 149.659C122.002 147.702 122.84 145.721 123.636 143.967C122.714 144.683 122.248 145.772 121.7 146.766L121.71 146.746C120.933 148.199 120.011 151.451 118.444 148.515C117.781 146.429 119.326 144.49 120.226 142.725C120.494 142.256 120.718 141.762 120.895 141.251C119.405 141.768 117.826 142.149 116.52 143.07C115.374 143.822 113.577 146.925 112.666 144.273C112.72 141.552 115.305 139.403 117.43 138.012C121.277 135.526 125.972 135.789 130.346 136.056C134.083 136.311 137.718 137.315 141.439 137.684C143.317 138.044 145.217 138.16 147.123 138.233C149.128 138.403 151.087 138.887 153.098 139.025C159.757 139.985 166.442 140.858 173.165 141.231C176.659 141.277 180.153 141.149 183.635 141.374C184.384 141.267 185.21 141.141 185.852 140.734C185.48 138.07 184.079 135.677 183.437 133.076C182.059 128.374 180.398 123.766 178.987 119.075C177.859 114.348 177.225 109.538 176.639 104.725C176.646 104.765 176.652 104.805 176.659 104.845C176.5 103.817 176.151 102.84 175.845 101.853C175.578 100.962 176.977 100.134 177.412 101.118C178.272 103.235 178.541 105.527 178.776 107.783C179.277 111.873 179.989 115.984 181.109 119.95C182.112 123.101 183.363 126.172 184.193 129.379V129.362C184.206 129.402 184.219 129.442 184.231 129.481C184.222 129.452 184.213 129.424 184.203 129.394C185.103 133.178 187.125 136.769 187.382 140.659C186.522 143.5 182.575 142.808 180.26 142.748C177.487 142.801 174.711 142.847 171.938 142.722C161.338 141.91 150.842 140.144 140.282 139.016C131.917 137.995 118.694 134.235 113.839 143.591C113.846 143.561 113.853 143.533 113.859 143.503C113.829 143.61 113.811 143.721 113.804 143.832L113.813 143.745C113.813 143.861 113.813 144.017 113.916 144.088L114.046 143.945L113.992 144.007C115.373 142.163 117.364 141.012 119.542 140.358C120.345 140.083 121.442 139.456 122.2 140.105C122.811 142.54 119.246 144.997 119.376 147.602C119.376 147.576 119.376 147.549 119.376 147.522C119.387 147.885 119.542 148.228 119.806 148.477C120.59 146.913 121.3 145.283 122.343 143.866C122.973 143.281 124.907 140.757 125.374 142.577C125.2 144.726 122.424 147.661 123.924 149.708C125.18 148.992 127.236 142.996 128.332 144.3C128.791 145.625 126.866 147.704 127.113 149.338C128.097 148.682 128.419 147.427 129.134 146.529C130.724 144.137 133.144 146.1 135.214 146.714C138.447 148.281 141.926 149.216 145.26 150.54C147.531 151.341 149.657 152.509 152.013 153.072C157.886 154.606 163.918 155.295 169.928 156.013C176.856 156.996 183.834 157.58 190.828 157.761C195.296 157.645 201.617 158.723 203.886 153.794C204.472 151.185 204.029 148.427 203.743 145.794C202.484 139.19 202.104 132.473 200.909 125.851C200.909 125.893 200.922 125.934 200.929 125.974C199.447 116.171 197.401 106.457 194.651 96.9342L194.689 97.053C193.651 94.045 192.596 91.0542 191.668 88.0132C191.54 87.2469 191.004 86.4061 191.352 85.6541C192.41 84.4237 192.875 86.4619 193.119 87.2584C194.1 89.9212 194.968 92.6212 196.008 95.2654C199.567 106.091 201.399 117.383 203.138 128.621C203.949 134.183 204.36 139.794 205.374 145.326C205.671 148.106 206.016 150.988 205.403 153.747C203.074 160.174 195.082 159.401 189.53 159.385Z" fill="#231F20"/>
<path d="M120.753 136.695C120.88 128.571 121.054 120.398 121.154 112.256C121.254 107.369 122.055 102.493 121.612 97.6012C121.469 95.2392 121.297 92.8743 120.971 90.5295C121.014 89.5898 119.162 86.5188 120.932 86.7551C122.77 89.5612 122.753 93.1737 123.129 96.4195C123.628 100.83 123.221 105.252 122.932 109.66C122.565 118.361 122.585 127.074 122.14 135.772V135.727C122.14 135.76 122.132 135.793 122.129 135.826V135.807C122.247 136.642 121.286 137.827 120.753 136.695Z" fill="#231F20"/>
<path d="M119.246 153.153C118.96 152.28 119.451 151.243 119.487 150.325C119.689 149.242 119.809 148.131 120.123 147.077C120.591 146.191 121.534 146.813 121.269 147.677C120.883 148.602 120.859 154.333 119.246 153.153Z" fill="#231F20"/>
<path d="M75.2646 103.369C73.3638 103.157 72.1133 101.013 73.4182 99.4211C70.8242 100.226 70.3128 97.3227 72.1162 95.9948C67.7173 94.3934 71.3427 90.4816 74.7375 91.8638H74.7146C77.8515 92.7934 80.7478 91.1476 83.3089 89.4861C84.187 88.8845 84.9547 88.1425 85.711 87.3991C85.8972 87.2429 86.0963 86.9378 86.3713 87.0209C87.1319 87.793 83.5066 90.5718 82.8233 91.0531H82.8319C76.2057 95.9633 74.3264 91.2364 71.3456 93.3635C70.7554 94.2659 72.2494 94.8704 72.957 94.9707C73.371 95.0967 74.1115 94.9091 74.186 95.4921C74.186 96.4303 72.1105 96.383 71.9658 97.8741C71.7867 99.7277 75.7731 97.0305 74.7647 98.9284L74.7804 98.9155C74.2519 99.5357 73.477 100.407 73.7978 101.272C74.451 102.389 76.0037 102.812 76.8058 101.607C78.8284 98.321 81.676 95.7026 85.2713 94.2373L85.214 94.2674C85.817 94.1313 86.5418 93.0298 87.1004 93.6171C87.1571 93.7313 87.1723 93.8617 87.1433 93.9859C87.1142 94.11 87.0429 94.2202 86.9414 94.2975C85.0793 95.6382 82.7674 96.257 81.1445 97.9443L81.1746 97.9171L81.0171 98.0604L80.9612 98.109L80.9784 98.0947C80.2298 98.756 79.565 99.5064 78.9988 100.329V100.322L78.9587 100.379L78.9115 100.447L78.9272 100.424L78.6594 100.808L78.7066 100.74L78.6407 100.833C78.6479 100.824 78.6546 100.815 78.6608 100.805C77.8615 101.971 76.8746 103.525 75.2646 103.369Z" fill="#231F20"/>
<path d="M78.6662 96.2493C79.0959 95.6148 79.9224 95.3598 80.5498 94.9602C82.1756 93.9948 83.7111 92.8847 85.3942 92.0166C85.4326 91.9974 85.4745 91.9862 85.5174 91.9839C85.5603 91.9815 85.6032 91.988 85.6435 92.0029C85.6838 92.0178 85.7206 92.0408 85.7516 92.0705C85.7826 92.1002 85.8072 92.136 85.8239 92.1756C85.9771 92.6411 85.3942 92.7858 85.0905 92.9692L84.9874 93.0236L85.0031 93.015C83.0508 94.095 81.1357 95.2638 79.2564 96.4613C79.1074 96.8223 78.523 96.6461 78.6662 96.2493Z" fill="#231F20"/>
<path d="M81.8381 93.0974C82.0616 92.122 84.5339 91.062 85.3632 90.32L85.336 90.3401C86.4332 89.5809 87.539 88.8375 88.6191 88.0482L88.5804 88.074C89.1104 87.703 89.6719 87.3722 90.156 86.9467L90.1145 86.9854C90.6001 86.391 91.2332 87.1817 90.6344 87.5856C87.847 89.3025 85.0725 91.0443 82.3108 92.8109L82.3223 92.8038C82.2344 92.8632 82.1497 92.9272 82.0687 92.9957C82.0057 93.0387 81.9083 93.2808 81.8381 93.0974Z" fill="#231F20"/>
<path d="M105.589 40.6113C105.648 39.7017 105.645 38.6059 106.26 37.8768C106.658 37.5116 107.058 38.1633 106.672 38.4598C106.513 39.0915 106.509 39.749 106.496 40.395C106.596 40.988 105.664 41.3103 105.589 40.6113Z" fill="white"/>
<path d="M108.547 39.4925C108.188 39.3321 108.453 36.6907 109 36.9027C109.438 37.0531 109.157 37.6977 109.22 38.0486C109.223 38.56 109.437 39.8391 108.547 39.4925Z" fill="white"/>
<path d="M111.242 37.994C110.967 37.6173 111.329 37.1159 111.385 36.7048C111.385 36.7177 111.378 36.7306 111.374 36.7435C111.448 36.563 111.601 35.2782 111.832 35.9113C111.766 36.4613 112.329 38.4753 111.242 37.994Z" fill="white"/>
<path d="M129.255 34.5143C128.668 34.3424 129.147 33.662 129.235 33.2867C129.3 33.0805 129.379 32.5977 129.687 32.7252C129.88 33.1091 129.932 34.5787 129.255 34.5143Z" fill="white"/>
<path d="M131.369 35.383C130.393 35.33 131.351 33.263 131.735 32.9135C132.484 32.6528 132.18 33.6627 132.076 34.048C131.932 34.5135 132.043 35.3443 131.369 35.383Z" fill="white"/>
<path d="M133.644 36.4953C133.01 36.3334 133.426 35.6086 133.541 35.2061C133.63 34.8881 133.558 34.3596 134.017 34.3467C134.274 34.3467 134.386 34.626 134.316 34.8452C134.19 35.3809 134.468 36.4938 133.644 36.4953Z" fill="white"/>
<path d="M118.461 10.8704C118.031 10.5037 118.391 9.68871 118.334 9.16732C118.359 7.99705 118.514 6.8139 119.154 5.8055C119.577 4.68537 120.943 4.87158 120.253 5.98168C119.143 7.1276 118.947 8.80206 118.805 10.3247C118.978 10.5453 118.755 10.9592 118.461 10.8704Z" fill="white"/>
<path d="M120.509 9.37385C120.534 9.17966 120.576 8.98798 120.634 8.80089C120.633 8.8066 120.633 8.81237 120.634 8.81808L120.644 8.7837V8.79373V8.77225V8.78084L120.674 8.67054C120.675 8.6796 120.675 8.6887 120.674 8.69776L120.713 8.55452V8.56455C121.041 7.39858 121.39 5.87452 122.465 5.19986C122.894 5.14543 123.01 5.72698 122.725 5.97192C121.893 6.96963 121.332 8.16572 121.098 9.44404C121.244 10.0714 120.375 10.027 120.509 9.37385Z" fill="white"/>
<path d="M123.364 8.66614C123.474 8.01153 123.961 7.3999 124.417 6.93008C124.449 6.90387 124.487 6.88503 124.527 6.87487C124.567 6.86471 124.609 6.86347 124.65 6.87125C124.691 6.87902 124.73 6.89561 124.764 6.91987C124.798 6.94413 124.826 6.97548 124.846 7.01173C125.021 7.37985 124.584 7.52596 124.362 7.71217C124.083 7.79381 123.457 9.08439 123.364 8.66614Z" fill="white"/>
<path d="M159.722 69.2355C159.046 68.2958 157.833 68.2557 156.837 67.8704C156.81 67.8782 156.781 67.8764 156.755 67.8651C156.729 67.8539 156.707 67.834 156.694 67.8088C156.62 67.7833 156.552 67.7429 156.494 67.6899C155.879 66.5956 159.701 67.4521 160.01 67.8332C161.077 68.5608 160.534 69.7339 159.722 69.2355Z" fill="white"/>
<path d="M164.362 75.4451C164.456 74.7518 164.025 72.7507 164.696 72.46C165.372 72.5316 164.789 73.8193 164.902 74.2963C164.819 74.726 165.16 75.4422 164.684 75.69C164.646 75.7 164.607 75.7013 164.568 75.6938C164.53 75.6862 164.494 75.67 164.463 75.6464C164.432 75.6227 164.407 75.5923 164.389 75.5574C164.372 75.5225 164.362 75.4841 164.362 75.4451Z" fill="white"/>
<path d="M170.653 98.6704C170.185 98.5271 167.843 97.692 168.76 97.0947C168.889 97.1176 169.116 97.0374 169.085 97.2566C169.643 97.6734 171.314 97.4399 171.183 98.361C171.15 98.4695 171.077 98.5615 170.978 98.6187C170.88 98.676 170.764 98.6944 170.653 98.6704Z" fill="white"/>
<path d="M171.833 94.9118C171.512 94.5165 169.243 92.0255 170.574 92.047C171.306 92.6114 171.833 93.4708 172.511 94.1211C172.923 94.5308 172.293 95.3358 171.833 94.9118Z" fill="white"/>
<path d="M182.775 85.9024C182.046 85.3681 184.832 83.2997 185.193 82.658C186.044 82.1424 186.321 83.2969 185.193 83.8039C184.482 84.3477 183.832 84.9672 183.255 85.6517C183.161 85.8265 182.975 86.0041 182.775 85.9024Z" fill="white"/>
<path d="M97.1383 92.7259C96.647 92.4982 96.8246 90.2021 97.3417 90.0588C97.9691 90.0402 97.5437 91.1059 97.6998 91.5055C97.8703 92.0112 97.9548 92.9422 97.1383 92.7259Z" fill="white"/>
<path d="M101.756 91.9083C100.961 91.7651 101.581 90.8684 101.756 90.4372C101.899 90.2109 101.779 89.7311 102.143 89.7354C102.581 90.0734 102.222 90.8942 102.259 91.3941C102.252 91.5263 102.197 91.6514 102.104 91.7461C102.012 91.8407 101.888 91.8984 101.756 91.9083Z" fill="white"/>
<path d="M133.292 130.75C132.677 130.485 132.071 130.203 131.448 129.958H131.458C131.04 129.729 127.877 129.037 129.185 128.418C130.027 129.02 134.244 129.277 133.866 130.502C133.821 130.61 133.736 130.696 133.629 130.742C133.522 130.788 133.401 130.791 133.292 130.75Z" fill="white"/>
<path d="M164.802 129.397C164.208 129.34 163.617 129.251 163.033 129.129H163.051L162.957 129.107H162.976C161.765 128.821 160.549 128.496 159.505 127.797L159.523 127.808C159.005 127.419 158.177 127.175 157.958 126.519C157.915 126.217 158.388 126.039 158.466 126.376C159.102 126.877 159.876 127.194 160.605 127.539L160.562 127.522C161.984 128.062 163.527 128.175 165.024 128.381C165.628 128.516 165.363 129.481 164.802 129.397Z" fill="white"/>
<path d="M167.449 128.06C166.605 127.832 164.871 127.53 164.518 126.684C164.47 126.31 165.077 126.167 165.091 126.593C165.467 126.753 165.858 126.873 166.259 126.95H166.229C167.856 127.477 169.456 126.964 170.94 126.344C171.977 126.838 170.685 127.633 170.08 127.757L170.115 127.745C169.264 128.063 168.35 128.171 167.449 128.06Z" fill="white"/>
<path d="M175.695 129.624C175.296 129.235 175.957 128.872 176.152 128.564C176.25 128.235 176.685 128.061 176.638 128.537C176.644 128.518 176.648 128.498 176.649 128.478C176.65 128.487 176.65 128.495 176.649 128.504C176.473 128.871 176.244 129.838 175.695 129.624Z" fill="white"/>
<path d="M97.5709 156.306C97.3389 155.759 97.0982 153.484 98.2026 154.276C98.3057 154.659 98.2785 155.077 98.3874 155.465L98.4003 155.527L98.3917 155.486C98.4991 155.865 98.6438 156.383 98.1596 156.555C98.105 156.581 98.0457 156.594 97.9854 156.596C97.9251 156.597 97.8652 156.585 97.8097 156.562C97.7542 156.538 97.7042 156.503 97.6631 156.459C97.6219 156.415 97.5905 156.363 97.5709 156.306Z" fill="white"/>
<path d="M45.1064 158.222C44.7225 158.267 43.5924 158.188 44.3515 157.677C46.4342 157.466 48.5427 157.472 50.6354 157.39C53.3092 157.135 55.9935 156.948 58.6883 156.827H58.6482H58.7514C59.7397 156.767 60.7309 156.813 61.7207 156.787H61.6935L61.9169 156.777H61.8611C63.4754 156.621 65.0883 156.643 66.7069 156.657H66.7412C69.8681 156.435 73.0079 156.645 76.1377 156.615H76.122C81.068 156.569 86.0212 156.472 90.9716 156.346H90.9429C92.9053 156.27 94.8791 156.395 96.8157 156.06C98.6177 157.541 92.1074 157.17 91.4213 157.289H91.4543H91.3855H91.4099C89.7583 157.432 88.1068 157.349 86.4524 157.402H86.524C78.8807 157.809 71.2332 157.36 63.5843 157.46H63.6H63.5413H63.5728C61.9069 157.604 60.2368 157.531 58.568 157.582H58.6224C57.498 157.635 56.3765 157.713 55.252 157.748H55.305L54.9212 157.764H54.9756C53.5876 157.806 52.2154 158.033 50.8317 158.114H50.8847C48.9595 158.151 47.033 158.215 45.1064 158.222Z" fill="white"/>
<path d="M105.619 156.774C105.257 155.979 106.95 156.111 107.416 156.015C107.97 156.035 107.821 156.825 107.34 156.844C106.784 156.827 106.121 157.047 105.619 156.774Z" fill="white"/>
<path d="M111.994 156.59C111.565 156.59 111.123 156.547 110.688 156.559C110.47 156.607 110.169 156.503 110.25 156.229C110.633 155.678 111.58 155.732 112.196 155.734C112.755 155.837 112.484 156.636 111.994 156.59Z" fill="white"/>
<path d="M137.251 156.465C137.003 156.49 136.641 156.414 136.734 156.089C137.175 155.446 138.349 155.802 139.044 155.552C140.047 155.308 140.24 156.627 138.063 156.455H138.12C137.829 156.465 137.54 156.471 137.251 156.465Z" fill="white"/>
<path d="M143.933 156.576C143.37 156.54 142.81 156.448 142.246 156.491C142.201 156.491 142.157 156.479 142.118 156.457C142.079 156.434 142.047 156.403 142.023 156.364C142 156.326 141.987 156.283 141.985 156.238C141.984 156.193 141.993 156.149 142.013 156.109C142.443 155.702 143.42 155.858 144.019 155.679C144.702 155.622 144.53 156.627 143.933 156.576Z" fill="white"/>
<path d="M96.2488 152.685C95.1402 149.729 94.4784 146.463 93.2408 143.498C91.9273 139.201 90.9948 134.794 89.6412 130.506C89.6457 130.519 89.6495 130.531 89.6527 130.544C88.4079 126.63 87.7061 122.574 86.3582 118.688C86.2909 118.287 84.5663 114.124 85.5904 114.723V114.711C85.6126 114.736 85.6282 114.765 85.6357 114.797C85.6433 114.83 85.6425 114.863 85.6334 114.895C85.6578 114.989 85.685 115.084 85.7136 115.181C86.0001 116.319 86.4613 117.391 86.8208 118.503V118.496C86.8208 118.52 86.8352 118.543 86.8409 118.567L86.8309 118.532L86.8996 118.764C86.8996 118.751 86.8996 118.739 86.8882 118.728C86.9555 118.953 87.02 119.178 87.0858 119.404L87.0744 119.367C88.1802 122.375 88.7932 125.509 89.594 128.594C91.0507 133.022 92.2081 137.537 93.4958 142.011C93.4939 142.004 93.4915 141.996 93.4886 141.988C93.4886 142.006 93.4987 142.021 93.503 142.037C93.5034 142.03 93.5034 142.024 93.503 142.017C94.3896 144.61 95.3235 147.187 96.1199 149.811C96.1285 150.422 97.4922 152.913 96.2488 152.685Z" fill="white"/>
<path d="M58.1188 140.141C51.3779 139.54 54.883 131.547 59.8563 132.134C64.5001 133.063 62.4818 140.829 58.1188 140.141ZM58.835 139.053C60.8188 139.087 62.0134 136.474 61.2027 134.817C60.3433 133.419 58.1345 133.428 57.0273 134.548C56.5976 135.042 56.0905 135.551 55.837 136.148C55.8078 136.256 55.7537 136.356 55.6791 136.439C55.6045 136.522 55.5114 136.587 55.4073 136.628C55.2612 138.41 57.4312 138.942 58.8335 139.053H58.835Z" fill="white"/>
</svg>
