<svg width="16" height="24" viewBox="0 0 16 24" fill="none" xmlns="http://www.w3.org/2000/svg">
<path d="M16 1C16 0.447715 15.5523 0 15 0H1.00003C0.447732 0 1.176e-05 0.447731 2.62665e-05 1.00003L0.000604114 23C0.00061862 23.5523 0.44833 24 1.0006 24H15C15.5523 24 16 23.5523 16 23V1ZM10 21.4286C10 21.9019 9.61624 22.2857 9.14286 22.2857H6.85714C6.38376 22.2857 6 21.9019 6 21.4286C6 20.9552 6.38376 20.5714 6.85714 20.5714H9.14286C9.61624 20.5714 10 20.9552 10 21.4286ZM3 19C2.44772 19 2 18.5523 2 18V3C2 2.44772 2.44772 2 3 2H13C13.5523 2 14 2.44772 14 3V18C14 18.5523 13.5523 19 13 19H3Z" fill="#A6ADC7"/>
</svg>
