<svg width="24" height="24" viewBox="0 0 24 24" fill="none" xmlns="http://www.w3.org/2000/svg">
<g clip-path="url(#clip0_586_4743)">
<path d="M17 16H6.90308C3.64282 16 1 18.6428 1 21.9028V21.9031V23.2C1 23.6419 1.35815 24 1.80005 24H22.6001C23.042 24 23.4002 23.6419 23.4002 23.2V22.4002C23.4002 18.8655 20.5347 16 17 16Z" fill="#A6ADC7"/>
<path d="M19.4002 7.19996C19.4002 11.1765 16.1765 14.3999 12.2 14.3999C8.22364 14.3999 5 11.1765 5 7.19996C5 3.22364 8.22364 0 12.2 0C16.1765 0 19.4002 3.22364 19.4002 7.19996Z" fill="#A6ADC7"/>
</g>
<defs>
<clipPath id="clip0_586_4743">
<rect width="24" height="24" fill="white"/>
</clipPath>
</defs>
</svg>
