<svg width="166" height="166" viewBox="0 0 166 166" fill="none" xmlns="http://www.w3.org/2000/svg">
<path d="M16.4567 96.9048C12.5084 90.8523 9.29309 84.3521 6.87852 77.5409C3.47415 68.3002 2.02428 58.4535 2.62062 48.6237C3.78262 31.1439 16.4816 15.5814 33.3306 10.8587C52.5285 5.4803 72.1497 13.2408 82.3006 30.2475C82.9397 31.3265 83.1306 31.1605 83.7282 30.206C90.3682 19.3413 99.8717 12.3776 112.363 9.95401C123.274 7.78033 134.603 9.94539 143.943 15.9894C153.283 22.0335 159.9 31.4804 162.387 42.324C164.047 49.628 163.724 56.9818 162.661 64.3024C161.101 75.0094 157.084 84.8449 151.647 94.1824C151.357 94.6721 151.008 95.1369 150.693 95.61C149.987 96.1661 149.273 96.7139 148.576 97.27C141.373 103.456 132.232 106.927 122.738 107.081C118.434 107.194 114.133 106.739 109.948 105.728C107.416 105.114 104.794 104.69 102.528 103.238C106.088 100.208 107.997 96.1661 109.417 91.8501C110.836 87.5341 112.845 83.741 118.049 82.6703C115.907 81.3257 115.418 79.2092 114.812 77.2255C113.426 72.6771 107.151 71.9135 104.254 74.6442C103.089 75.778 102.026 77.011 101.075 78.3294C98.9255 81.168 96.2695 83.0272 92.5179 82.5292C86.7577 81.7656 82.0267 79.2673 78.8976 74.1628C75.5776 68.718 74.2994 62.6756 73.5109 56.4672C73.1872 53.9108 73.2453 51.3295 73.0046 48.4162C66.5472 53.8859 65.6508 60.7417 66.7796 68.386C65.7132 67.6948 64.5331 67.1975 63.2936 66.9169C60.123 66.3774 59.2349 67.1908 59.5752 70.3448C59.6515 70.8649 59.7568 71.3803 59.8906 71.8886C60.4101 73.6208 61.2061 75.2576 62.2478 76.7358C60.9405 76.525 59.6092 76.5082 58.297 76.686C57.0603 76.935 56.4378 77.4662 56.7532 78.8357C56.925 79.9728 57.2258 81.0867 57.6496 82.1557C57.2263 82.1557 56.8196 82.1557 56.3631 82.0976C47.9753 80.9594 39.4388 82.3585 31.8532 86.1148C26.1989 88.9021 21.0062 92.5411 16.4567 96.9048ZM82.7073 66.7509C81.9935 66.4355 81.4374 66.1699 80.8813 65.9209C79.8659 65.484 78.7655 65.2799 77.6609 65.3233C77.0799 65.3233 76.8309 65.5723 77.0467 66.2529C79.6114 73.6233 84.1847 78.844 92.1859 80.3629C93.3145 80.6249 94.4934 80.5706 95.5932 80.206C96.6929 79.8414 97.6707 79.1806 98.4192 78.2962C98.9338 77.7235 99.0334 77.3832 98.3113 76.852C96.2052 75.2615 94.4999 73.2009 93.3313 70.8345C90.75 65.9126 89.6959 60.5923 89.2892 55.1226C89.0538 52.4818 88.9597 49.8303 89.007 47.1795C82.5579 52.2923 81.7362 59.173 82.7073 66.7509ZM113.766 99.8181C114.405 97.5522 115.011 95.2697 115.683 93.0121C117.825 85.8492 121.585 79.8317 127.942 75.6236C128.217 75.3766 128.565 75.2253 128.933 75.1924C129.301 75.1595 129.67 75.2467 129.984 75.441C130.418 75.6974 130.907 75.8482 131.41 75.8814C131.913 75.9145 132.417 75.8291 132.881 75.6319C134.042 75.1667 135.065 74.4124 135.852 73.4407C136.325 72.8846 137.255 72.3451 136.956 71.6147C136.715 71.0337 135.67 71.1499 134.989 71.0669C132.383 70.7432 129.752 71.4985 129.179 74.1711C129.134 74.356 129.046 74.5277 128.922 74.672C128.798 74.8162 128.641 74.929 128.465 75.0011C125.497 76.5297 122.849 78.6116 120.663 81.1348C117.742 84.3147 115.59 88.1226 114.372 92.2651C113.579 94.7001 113.371 97.2878 113.766 99.8181ZM128.83 83.4837C130.745 83.4381 132.617 82.9038 134.267 81.9316C134.632 81.7407 134.956 81.5 134.441 81.1016C132.781 79.8234 131.121 78.7195 128.93 78.6116C127.494 78.5369 125.311 79.9313 125.261 80.8941C125.212 81.8569 126.996 83.2679 128.581 83.4671C128.664 83.4801 128.747 83.4856 128.83 83.4837ZM127.17 68.7678V67.6141C127.17 67.0829 126.955 66.9418 126.457 67.1659C124.498 67.9959 122.713 69.1247 121.717 71.1167C121.087 72.3866 121.385 74.6691 122.19 75.1671C122.996 75.6651 125.029 74.8517 125.876 73.5486C126.764 72.1142 127.222 70.4549 127.195 68.7678H127.17Z" fill="#5271F2"/>
<path d="M16.4567 96.9051C20.9945 92.5229 26.1789 88.8642 31.8283 86.057C39.4139 82.3007 47.9504 80.9016 56.3382 82.0398C56.7615 82.0979 57.1682 82.0813 57.6247 82.0979C58.6539 84.48 60.5463 86.0902 62.7873 87.6091C62.0818 87.7668 61.6087 87.8581 61.1273 87.9743C58.7867 88.5636 58.3302 89.6343 59.5669 91.6678C60.3511 92.9315 61.3882 94.0195 62.613 94.8633C65.4993 96.8386 68.8475 98.0338 72.3323 98.3327C72.7888 98.3825 73.4528 98.1833 73.6188 98.7145C73.7848 99.2457 73.1789 99.6441 72.7888 99.9014C71.9381 100.428 71.044 100.88 70.1162 101.254C65.186 103.097 59.9902 103.578 54.811 104.002C51.4329 104.284 48.0299 104.3 44.6352 104.375C43.3985 104.375 43.2408 104.69 43.8882 105.761C45.0576 107.842 46.3868 109.829 47.8639 111.704C53.7486 118.618 61.285 120.402 69.6431 116.916C73.825 115.133 77.6665 112.64 80.9975 109.546C81.3102 109.228 81.6879 108.981 82.1046 108.822C82.5214 108.663 82.9676 108.596 83.4128 108.625C86.7082 108.793 90.0112 108.514 93.2317 107.795C96.6491 107.041 99.8314 105.465 102.503 103.205C104.769 104.649 107.391 105.072 109.923 105.695C114.108 106.706 118.409 107.161 122.713 107.048C132.207 106.885 141.345 103.405 148.543 97.2122C149.24 96.6395 149.954 96.0917 150.659 95.5522C148.788 98.9244 146.654 102.144 144.277 105.18C139.19 111.948 133.534 118.268 127.37 124.071C117.684 133.163 107.106 141.255 95.7964 148.224C91.829 150.714 87.9031 153.254 84.0021 155.827C83.7204 156.069 83.3611 156.203 82.9895 156.203C82.6178 156.203 82.2585 156.069 81.9769 155.827C72.7888 149.801 63.3268 144.207 54.5869 137.525C45.3171 130.517 36.7774 122.592 29.0976 113.87C24.7653 108.961 20.8036 103.737 17.2452 98.2414C16.963 97.8264 16.7223 97.3616 16.4567 96.9051Z" fill="#FEBB37"/>
<path d="M102.503 103.188C99.8314 105.448 96.6491 107.024 93.2317 107.778C90.0112 108.497 86.7082 108.776 83.4128 108.608C82.9676 108.579 82.5214 108.646 82.1046 108.805C81.6879 108.964 81.3102 109.211 80.9975 109.529C77.6665 112.623 73.825 115.116 69.6431 116.899C61.285 120.385 53.7486 118.601 47.8639 111.687C46.3839 109.812 45.0519 107.825 43.8799 105.744C43.2325 104.673 43.3902 104.383 44.6269 104.358C48.0216 104.283 51.4246 104.267 54.8027 103.985C59.9819 103.561 65.1777 103.08 70.1079 101.237C71.0357 100.863 71.9298 100.411 72.7805 99.8843C73.2038 99.627 73.818 99.2867 73.6105 98.6974C73.403 98.1081 72.7805 98.3654 72.324 98.3156C68.8392 98.0167 65.491 96.8216 62.6047 94.8462C61.3799 94.0024 60.3428 92.9144 59.5586 91.6507C58.3219 89.6255 58.7784 88.5465 61.119 87.9572C61.5755 87.841 62.0486 87.7497 62.779 87.592C60.538 86.0731 58.629 84.4629 57.6164 82.0808C57.1925 81.0118 56.8918 79.8979 56.72 78.7608C56.4046 77.3913 57.0271 76.8601 58.2638 76.6111C59.576 76.4333 60.9072 76.4501 62.2146 76.6609C61.1805 75.1974 60.3875 73.5778 59.8657 71.8635C59.7319 71.3552 59.6266 70.8398 59.5503 70.3197C59.21 67.1657 60.0981 66.3523 63.2687 66.8918C64.5081 67.1724 65.6882 67.6697 66.7547 68.3609C65.6259 60.7166 66.5223 53.8608 72.9797 48.3911C73.2204 51.3044 73.1623 53.8857 73.486 56.4421C74.316 62.6505 75.5361 68.6929 78.8727 74.1377C82.0018 79.2422 86.7328 81.7405 92.493 82.5041C96.2446 83.0021 98.9006 81.1429 101.05 78.3043C102.001 76.9859 103.065 75.7529 104.229 74.6191C107.126 71.8884 113.359 72.652 114.787 77.2004C115.393 79.1841 115.882 81.3006 118.024 82.6452C112.82 83.7159 110.811 87.4758 109.392 91.825C107.972 96.1742 106.063 100.158 102.503 103.188ZM111.259 77.2834C111.276 77.1407 111.259 76.9961 111.211 76.8606C111.163 76.7251 111.085 76.6024 110.983 76.5016C110.881 76.4008 110.757 76.3246 110.62 76.2789C110.484 76.2331 110.339 76.219 110.197 76.2376C110.066 76.2233 109.933 76.2373 109.808 76.2787C109.682 76.3202 109.567 76.388 109.471 76.4778C109.374 76.5675 109.297 76.6769 109.246 76.7988C109.196 76.9206 109.172 77.0519 109.176 77.1838C109.152 77.326 109.161 77.4717 109.201 77.6102C109.24 77.7487 109.311 77.8767 109.406 77.9847C109.501 78.0928 109.619 78.1783 109.752 78.235C109.884 78.2917 110.028 78.3182 110.172 78.3126C110.877 78.3707 111.193 77.9474 111.259 77.2834Z" fill="#FEFEFE"/>
<path d="M82.7073 66.7506C81.7362 59.1727 82.5579 52.292 88.9904 47.1792C88.9431 49.83 89.0373 52.4815 89.2726 55.1223C89.6793 60.592 90.7334 65.9123 93.3147 70.8342C94.4833 73.2006 96.1887 75.2612 98.2947 76.8517C99.0168 77.3829 98.9172 77.7232 98.4026 78.2959C97.6542 79.1803 96.6763 79.8411 95.5766 80.2057C94.4769 80.5703 93.2979 80.6246 92.1693 80.3626C84.1681 78.852 79.5948 73.6313 77.0301 66.2526C76.7894 65.572 77.0301 65.3479 77.6443 65.323C78.7489 65.2795 79.8493 65.4837 80.8647 65.9206C81.4374 66.1696 81.9935 66.4352 82.7073 66.7506Z" fill="#FEFEFE"/>
<path d="M113.766 99.818C113.356 97.2883 113.55 94.6976 114.33 92.2567C115.548 88.1142 117.701 84.3063 120.622 81.1264C122.808 78.6032 125.456 76.5213 128.424 74.9927C128.6 74.9206 128.756 74.8078 128.88 74.6636C129.004 74.5193 129.093 74.3476 129.137 74.1627C129.752 71.4901 132.383 70.7348 134.947 71.0585C135.628 71.1415 136.674 71.0585 136.915 71.6063C137.213 72.3367 136.284 72.8762 135.811 73.4323C135.023 74.404 134 75.1583 132.839 75.6235C132.375 75.8207 131.871 75.9061 131.368 75.873C130.865 75.8398 130.377 75.689 129.943 75.4326C129.628 75.2383 129.259 75.1511 128.891 75.184C128.523 75.2169 128.176 75.3682 127.901 75.6152C121.543 79.8233 117.783 85.8408 115.642 93.0037C115.011 95.2696 114.405 97.5936 113.766 99.818Z" fill="#FEFEFE"/>
<path d="M128.83 83.4839C128.737 83.4935 128.642 83.4935 128.548 83.4839C126.996 83.2847 125.228 81.8903 125.228 80.9109C125.228 79.9315 127.461 78.5537 128.897 78.6284C131.055 78.7363 132.781 79.8402 134.408 81.1184C134.923 81.5251 134.599 81.7658 134.234 81.9484C132.592 82.9094 130.733 83.4377 128.83 83.4839Z" fill="#FEFEFE"/>
<path d="M127.195 68.7678C127.23 70.4524 126.78 72.1115 125.901 73.5486C125.071 74.8517 123.062 75.69 122.215 75.1671C121.369 74.6442 121.111 72.3866 121.742 71.1167C122.738 69.1247 124.523 68.0374 126.482 67.1659C126.98 66.9418 127.195 67.0829 127.195 67.6141V68.7678Z" fill="#FEFEFE"/>
<path d="M111.259 77.2919C111.193 77.9476 110.878 78.3709 110.172 78.3128C110.028 78.3184 109.885 78.2919 109.752 78.2352C109.62 78.1785 109.501 78.093 109.406 77.9849C109.311 77.8768 109.241 77.7489 109.201 77.6104C109.161 77.4718 109.153 77.3262 109.176 77.184C109.172 77.0521 109.196 76.9207 109.247 76.7989C109.297 76.6771 109.374 76.5676 109.471 76.4779C109.567 76.3882 109.682 76.3203 109.808 76.2789C109.933 76.2375 110.066 76.2234 110.197 76.2378C110.34 76.2206 110.485 76.236 110.621 76.2828C110.757 76.3295 110.881 76.4065 110.983 76.5079C111.085 76.6093 111.163 76.7325 111.211 76.8682C111.259 77.004 111.275 77.1488 111.259 77.2919Z" fill="#5271F2"/>
</svg>
