<svg width="149" height="279" viewBox="0 0 149 279" fill="none" xmlns="http://www.w3.org/2000/svg">
<path d="M117.864 274.087C113.738 273.979 109.608 273.873 105.48 273.687H105.44C100.228 273.477 95.0395 273.069 89.8135 273.069H89.9335C77.4855 272.935 65.0515 273.537 52.6035 273.847H52.7195H52.0315H52.1475C49.1195 273.805 46.0895 273.917 43.0615 273.825H43.0835C42.3915 273.825 41.6975 273.825 41.0055 273.813H41.1175C26.9175 273.131 22.7635 269.859 22.8515 255.275C22.7702 246.325 22.7429 237.379 22.7695 228.437C21.0995 227.939 22.1135 222.757 22.0555 221.237C22.0315 217.325 21.6555 213.425 21.6655 209.515C20.6235 203.453 19.9135 197.257 20.3495 191.087C20.5175 189.959 19.4695 187.833 20.8895 187.371C20.5375 179.771 18.5535 171.995 20.1355 164.329C20.5015 161.095 21.4255 157.489 23.8455 155.179C25.0835 154.245 26.5795 153.733 27.8675 152.867C28.5975 151.965 31.1135 149.949 31.2515 152.221C34.1275 149.821 36.0195 157.511 37.3615 159.249C38.8295 162.341 41.2115 164.889 43.4875 167.403C51.3555 175.693 62.6535 179.641 73.4135 182.657C80.3984 185.017 87.5522 186.843 94.8135 188.121C99.3775 189.045 103.774 190.653 108.402 191.285C108.788 181.713 109.162 172.047 107.802 162.533C107.304 160.017 106.264 157.659 105.346 155.275C104.176 153.007 104.318 152.239 105.866 150.239C107.994 146.891 110.586 143.861 112.666 140.469C113.442 139.447 114.302 141.007 113.444 141.375L113.294 141.693C117.58 142.377 118.694 149.739 120.528 153.221C121.91 158.191 123.23 163.197 123.94 168.309C124.49 175.319 124.482 182.383 124.612 189.415C139.646 182.851 136.662 175.863 140.742 198.717C143.206 214.729 144.908 230.849 144.542 247.075C144.632 251.455 144.696 255.839 144.542 260.217C144.292 262.071 144.942 264.377 143.834 265.953C143.662 267.003 142.546 267.141 141.834 266.523L141.954 266.585C137.592 264.985 133.154 263.385 128.588 262.425C125.988 261.689 123.41 260.735 120.676 260.867H120.698C119.616 260.867 118.53 260.857 117.448 260.813C118.352 264.123 119.059 267.484 119.564 270.879C119.93 272.363 120 274.469 117.864 274.087ZM25.4635 262.487C25.4215 262.241 25.3835 261.995 25.3475 261.749C25.3995 262.001 25.4275 262.253 25.4715 262.497L25.4635 262.487Z" fill="#4B6DED"/>
<path d="M75.3352 74.3144C74.9592 72.1604 75.4012 69.8484 75.3992 67.6504C75.3488 67.61 75.3101 67.5568 75.2872 67.4964C75.1912 66.7784 75.6372 66.0724 75.7592 65.3664C75.9592 64.5664 75.8132 63.5964 76.3592 62.9404C76.6032 61.5164 76.8812 60.0724 76.7832 58.6224C76.7832 58.6444 76.7832 58.6684 76.7832 58.6904C76.3512 53.7664 71.1312 51.9784 67.7132 49.3764L67.7592 49.4124C64.2632 46.6124 60.8512 43.3484 58.7272 39.3704C55.7712 32.6584 55.5752 24.6724 58.3272 17.8584C63.7972 5.75243 79.4392 0.044432 92.0252 0.400432C103.533 0.888432 116.079 3.34443 122.025 14.3824C127.377 25.2884 124.117 40.7164 113.025 46.7124L113.093 46.6724C107.199 50.1504 100.709 52.4344 94.4732 55.2104L94.5352 55.1824C87.6352 57.6144 82.4432 62.9964 78.9872 69.3124C78.0792 70.1084 76.6572 75.9264 75.3352 74.3144ZM76.7132 70.4224C79.2632 65.4224 82.2572 60.4584 86.8972 57.1264L86.8232 57.1804C86.8552 57.1584 86.8852 57.1344 86.9152 57.1104L86.8712 57.1444L87.0892 56.9784L87.0432 57.0144L87.1452 56.9364C94.9752 51.8624 104.411 49.8444 112.383 44.9784L112.309 45.0204L112.279 45.0384C113.272 44.4592 114.226 43.8165 115.135 43.1144L115.039 43.1864C123.463 36.5124 125.143 22.9344 119.639 13.9284C119.663 13.9624 119.685 13.9964 119.709 14.0284C118.867 12.7757 117.906 11.607 116.839 10.5384C116.865 10.5684 116.895 10.5964 116.923 10.6264C112.781 6.53043 107.323 4.11243 101.585 3.35043C96.5452 2.62243 91.4092 1.86643 86.3172 2.46643C75.2852 4.10043 62.2752 9.47643 59.1532 21.2444C57.5712 27.4064 58.0992 34.5364 61.4792 40.0204C63.6552 42.8624 66.1372 45.5284 68.9652 47.7344C75.2052 51.8384 80.1012 54.7704 77.4852 63.1964C77.4372 65.6004 76.6952 68.0004 76.7132 70.4224Z" fill="#4B6DED"/>
<path d="M79.5982 37.4262C78.4522 36.3342 79.4882 33.6262 79.6163 32.1722C80.2802 28.3522 83.7402 25.8322 84.6722 22.1722C85.7562 16.3522 80.0722 14.2422 75.8722 17.3502C71.5802 21.9842 74.8322 27.1502 79.4842 21.1502C78.4542 18.6302 81.2842 17.9902 81.2202 20.6322C80.6202 23.7382 75.0342 28.3282 72.5722 24.7082C69.5882 18.5322 76.0482 11.9562 82.4442 13.7702C86.6862 14.6902 87.7962 19.9382 86.6442 23.5802C85.8122 26.2182 83.7202 28.2002 82.5322 30.6702C81.1982 32.2462 82.1782 38.6142 79.5982 37.4262Z" fill="#4B6DED"/>
<path d="M80.7591 43.438C79.6731 42.494 81.0991 40.402 82.3111 41.386C83.3991 42.33 81.9711 44.424 80.7591 43.438Z" fill="#4B6DED"/>
<path d="M89.7503 33.9832C87.4883 31.9292 91.3923 20.8452 91.7123 17.5832C91.8083 16.8772 91.9403 16.0352 92.6483 15.6912C93.0883 14.9272 94.2923 15.2912 93.9923 16.1912C94.0543 19.3212 92.6183 22.4212 92.1083 25.5192C91.8703 27.1192 91.6763 28.7352 91.5403 30.3512C91.3283 31.5712 91.7263 34.3992 89.7503 33.9832Z" fill="#4B6DED"/>
<path d="M96.5126 35.0568C95.0386 33.6448 97.9906 23.1148 98.4086 20.6568C98.9906 19.1468 98.7666 17.1388 99.9066 15.9408C100.729 15.3408 101.765 16.2128 101.507 17.1408V17.1288C100.899 20.1008 99.9966 23.0008 99.3966 25.9728C99.1366 27.8668 98.8786 29.7588 98.5266 31.6368C98.1546 32.7888 98.4566 35.7548 96.5126 35.0568Z" fill="#4B6DED"/>
<path d="M89.1213 40.8013C89.2133 40.4573 89.0513 40.1213 89.0193 39.7833C88.8913 39.0833 89.8693 38.4333 90.3073 39.1373C90.6153 39.8033 89.9913 40.8793 89.3373 41.0913H89.3593C89.3233 41.0914 89.2879 41.0835 89.2554 41.0682C89.2229 41.0529 89.1942 41.0306 89.1714 41.0028C89.1486 40.975 89.1323 40.9425 89.1236 40.9077C89.1149 40.8728 89.1141 40.8365 89.1213 40.8013Z" fill="#4B6DED"/>
<path d="M94.7447 42.1729C94.4427 41.9229 94.5007 41.5289 94.5047 41.1729C94.4087 40.3189 94.0647 38.9889 95.2047 38.7069C96.5407 38.5749 96.1487 40.1689 96.0307 40.9909C96.2087 41.7409 95.5187 42.7549 94.7447 42.1729Z" fill="#4B6DED"/>
<path d="M88.8256 41.6104C88.0936 41.2424 88.2876 40.1744 88.4736 39.5284C88.6516 39.0544 89.3196 38.8804 89.6156 39.3544C90.9016 39.6984 90.0176 42.0624 88.8256 41.6104Z" fill="#4B6DED"/>
<path d="M95.1813 41.6361C94.0953 40.6921 95.5193 38.5981 96.7333 39.5821C97.8173 40.5261 96.3993 42.6201 95.1813 41.6361Z" fill="#4B6DED"/>
<path d="M69.5611 130.623C65.8411 129.899 69.0151 125.121 71.1091 124.151H71.0931L71.1731 124.103L71.1331 124.127C72.3651 123.527 75.1791 121.645 76.2951 122.945C78.1111 122.885 77.9811 125.045 76.8951 125.955L76.9591 125.875C75.0671 128.075 72.5011 130.213 69.5611 130.623Z" fill="#4B6DED"/>
<path d="M92.2506 121.657C89.5666 121.323 90.9446 118.003 92.5066 117.057C94.1886 115.805 99.4246 113.107 100.049 116.503C100.175 118.895 94.4866 122.063 92.2506 121.657Z" fill="#4B6DED"/>
<path d="M21.8826 238.854C20.8046 237.814 19.7586 236.738 18.4826 235.93C17.3346 235.278 15.9426 235.082 14.9926 234.086C14.1346 232.898 11.9686 231.306 11.9926 229.886C5.88464 224.588 0.414638 219.668 0.938638 210.854C0.576638 206.38 2.07864 202.2 4.25264 198.358C5.42142 195.762 6.78672 193.26 8.33664 190.872L8.28064 190.97C8.73064 190.202 9.12264 189.408 9.49464 188.598C9.49464 188.598 9.49464 188.612 9.49464 188.62C11.3926 184.439 12.0853 179.81 11.4946 175.256C11.4946 175.282 11.4946 175.308 11.4946 175.334C8.31864 157.658 16.9446 150.204 28.2546 138.686C31.8766 134.44 34.8786 129.118 35.0546 123.426C35.1766 118.084 34.5426 112.78 34.0686 107.472C33.9566 101.83 35.3246 95.7561 38.7666 91.2001C41.7846 85.4321 53.8226 81.8581 59.9886 80.4941C64.5986 79.4941 69.2987 79.1981 74.0026 79.1541C76.8027 78.8181 79.4026 79.9821 82.0306 80.7861C88.3826 82.6341 94.7306 85.2001 99.0586 90.4461C106.547 98.6921 104.781 111.28 110.999 120.18C113.723 123.93 117.031 127.308 118.745 131.704C120.345 135.304 120.703 139.386 122.499 142.904C126.847 149.052 126.381 156.77 125.699 163.904C125.559 165.614 125.361 167.32 125.183 169.026C125.027 169.992 125.309 172.226 123.845 171.844C122.611 172.244 122.893 170.43 122.629 169.708C122.243 167.432 121.857 165.154 121.585 162.858C120.807 155.908 119.361 148.77 114.763 143.258L114.817 143.33C114.153 142.238 112.561 141.73 112.277 140.444C106.931 136.958 98.7546 133.034 92.3706 135.244C91.5306 136.57 97.0686 135.822 97.9826 136.504C107.927 140.304 97.8826 139.646 98.9826 141.504L98.9426 141.434C99.2986 142.314 101.115 142.598 100.495 143.728C99.5266 144.564 94.9066 145.222 98.5086 146.402C99.4746 146.884 98.7686 147.982 97.9806 148.19C98.9666 149.894 100.285 151.88 102.397 152.178C102.225 150.996 102.299 149.558 103.913 150.264C104.513 150.644 105.577 150.53 105.829 151.264C105.935 151.464 105.867 151.74 105.813 151.948C105.305 153.148 106.113 154.386 106.413 155.562C107.47 158.313 108.285 161.15 108.851 164.042C108.967 165.58 110.051 171.688 108.623 172.294C108.423 172.894 107.799 172.928 107.295 172.708C105.141 172.308 102.988 171.896 100.835 171.472C96.4686 170.308 92.0647 170.774 91.3287 165.142C90.3687 159.3 88.7586 153.394 88.8326 147.46C89.0326 146.128 90.5146 146.354 91.5186 146.408C93.006 146.414 94.4911 146.29 95.9566 146.036C95.5666 144.416 97.4066 143.494 98.6706 143.036C96.9126 141.612 98.0707 139.362 100.017 138.912C98.9477 138.31 97.7961 137.868 96.5986 137.6C94.6846 137.08 89.6786 137.634 91.6547 134.25C94.9047 131.976 100.179 133.222 103.715 134.372C103.415 127.786 100.223 121.66 98.6186 115.316C96.3566 108.882 95.6347 102.01 93.1526 95.6481C93.1646 95.6781 93.1767 95.7061 93.1866 95.7361C92.7449 94.6317 92.2207 93.562 91.6186 92.5361L91.6386 92.5701C91.4627 92.2595 91.2704 91.9584 91.0626 91.6681C90.9426 91.5161 90.8267 91.3621 90.7047 91.2141C87.5727 90.6621 84.4507 89.7301 81.2287 90.0141C76.2486 90.2521 71.3826 91.4961 66.5146 92.5081C62.2366 93.0801 56.2186 95.2941 52.2686 93.1981C52.4821 93.7389 52.6611 94.2927 52.8046 94.8561C52.8226 94.9261 52.8406 94.9961 52.8566 95.0661C54.0186 99.5101 52.7986 104.052 52.1426 108.478C51.4006 114.578 51.0086 120.84 52.4526 126.878C52.4426 126.84 52.4326 126.804 52.4246 126.766C53.0366 130.722 58.5426 138.41 50.3666 133.292C42.7666 136.972 47.6266 147.636 54.6626 142.892C56.3266 141.092 56.6206 146.654 57.1166 147.558V147.548C58.3166 152.674 58.5846 157.968 59.7786 163.098C59.7966 164.194 61.3166 165.91 60.0106 166.616C58.8106 166.642 57.5706 164.392 56.5006 163.704C52.9226 159.98 48.4726 157.408 43.7446 155.422C40.7574 153.917 37.5467 152.904 34.2366 152.422C31.3526 152.95 28.2366 152.99 25.8506 154.934C21.7106 158.766 20.7506 164.704 20.7146 170.106C20.5358 177.566 20.7615 185.03 21.3906 192.466C21.6126 201.762 22.5066 211.028 22.8006 220.322C23.1586 226.138 22.5326 231.992 23.1106 237.79C23.4306 238.632 22.7586 239.684 21.8826 238.854ZM8.82464 225.2L8.84464 225.218L8.49064 224.888L8.81464 225.192L8.79064 225.17L8.82464 225.2ZM12.5586 172.158C12.5577 172.176 12.5577 172.194 12.5586 172.212C12.5346 172.012 12.5126 171.8 12.4926 171.612C12.5206 171.8 12.5386 171.976 12.5586 172.162V172.158Z" fill="#231F20"/>
<path d="M87.5358 127.082C85.9358 127.032 84.5578 126.204 83.0558 125.77C82.2978 125.556 81.1698 125.17 81.5218 124.17C82.5778 122.17 87.3218 126.678 89.4238 124.996C85.2358 120.396 81.5718 115.118 79.3338 109.256L79.3158 109.214C78.4038 107.55 79.5438 107.084 79.4918 108C80.0498 109.658 80.9218 111.2 81.7938 112.704L81.7638 112.648C83.5218 115.558 85.6218 118.248 87.6198 121.002C88.5838 122.462 90.7998 123.564 90.6538 125.496C90.1658 126.642 88.7038 127.16 87.5358 127.082Z" fill="#231F20"/>
<path d="M86.6148 136.801C86.3668 134.449 88.8627 132.031 91.0927 131.569C91.6027 131.517 91.8668 132.169 91.6488 132.569C91.3248 133.089 90.5668 133.041 90.0868 133.369C87.2708 134.721 87.3628 137.527 86.6148 136.801Z" fill="#231F20"/>
<path d="M66.8111 131.974C66.4251 130.704 67.3351 129.162 67.5451 127.848C67.5582 127.801 67.5809 127.757 67.6118 127.719C67.6426 127.681 67.681 127.649 67.7245 127.627C67.7681 127.604 67.8158 127.59 67.8647 127.587C67.9137 127.583 67.9628 127.59 68.0091 127.606C68.6331 128.18 67.4271 129.948 67.3891 130.788V130.766C67.3891 130.78 67.3891 130.796 67.3751 130.812C67.1751 131.142 67.4231 132.156 66.8111 131.974Z" fill="#231F20"/>
<path d="M69.5516 129.913C69.4985 129.863 69.4608 129.799 69.443 129.728C69.4253 129.657 69.4283 129.583 69.4516 129.513C69.8216 128.129 70.1296 126.687 70.5696 125.313C70.61 125.22 70.6846 125.145 70.7783 125.104C70.872 125.064 70.9777 125.06 71.0736 125.095C71.7316 125.639 70.9016 126.695 70.7736 127.363C70.3836 127.801 70.2116 130.385 69.5516 129.913Z" fill="#231F20"/>
<path d="M74.0195 127.402C74.0615 126.28 74.7235 125.118 74.9055 123.966V123.976C74.9235 123.914 74.9395 123.854 74.9555 123.792C74.9555 123.81 74.9555 123.826 74.9415 123.842C75.2595 122.432 76.1635 123.27 75.4535 124.268C75.0675 125.24 74.6995 126.222 74.2775 127.18V127.16L74.2375 127.256C74.2275 127.34 74.1355 127.492 74.0195 127.402Z" fill="#231F20"/>
<path d="M91.8833 121.681C91.0633 121.517 92.0153 116.621 92.8933 117.049C93.7133 117.575 91.9153 119.865 92.2333 120.973C92.4633 121.231 92.2633 121.767 91.8833 121.681Z" fill="#231F20"/>
<path d="M94.4969 119.905C94.4529 118.603 94.9349 117.177 95.4369 115.971C95.4913 115.883 95.5777 115.82 95.6781 115.794C95.7784 115.768 95.8849 115.782 95.9749 115.833C96.5749 116.515 95.4689 117.453 95.4029 118.233C95.1329 118.601 95.1729 120.481 94.4969 119.905Z" fill="#231F20"/>
<path d="M97.798 118.4C97.556 117.902 97.862 114.638 98.624 114.828C99.524 115.34 98.024 117.2 98.152 118.114C98.362 118.352 97.976 118.686 97.798 118.4Z" fill="#231F20"/>
<path d="M87.4253 111.523C84.5293 111.507 86.0973 106.923 86.9033 105.417C88.1813 102.867 91.5873 100.273 94.4233 101.897C95.6753 101.433 95.7313 103.897 95.6013 104.673C95.6013 104.651 95.6013 104.627 95.6013 104.605C95.7193 108.907 91.3993 111.677 87.4253 111.523ZM87.8133 110.323C91.8133 110.421 95.7653 107.061 94.3053 102.893L94.3533 102.955C94.2812 102.867 94.2256 102.766 94.1893 102.659C93.1373 102.307 91.9893 102.583 91.0153 103.075L91.0313 103.065C88.3433 104.375 87.0913 107.345 86.9753 110.203C87.2426 110.303 87.5289 110.343 87.8133 110.319V110.323Z" fill="#231F20"/>
<path d="M90.8314 107.095C87.7414 105.957 89.0414 101.595 92.1974 102.451C94.9214 103.377 93.6754 107.981 90.8314 107.095Z" fill="#231F20"/>
<path d="M62.0732 120.481C60.5112 120.435 59.0412 119.681 57.9032 118.645L57.9212 118.663C57.0592 117.367 58.8352 115.117 59.7432 114.163C63.5172 110.847 69.8272 110.715 73.6012 114.055C73.9272 118.271 65.5552 121.019 62.0732 120.481ZM63.3672 119.047C66.8652 118.847 70.7792 117.791 72.7312 114.647C71.8732 114.263 71.0012 113.907 70.1132 113.603C66.1332 112.187 60.6292 113.489 58.4692 117.331C58.6932 117.381 58.8572 117.563 59.0452 117.685L58.9652 117.625C60.2144 118.612 61.7768 119.117 63.3672 119.047Z" fill="#231F20"/>
<path d="M63.2866 117.214C61.7846 117.084 60.9406 114.91 62.3926 114.104C62.6986 112.904 64.0186 112.204 65.1926 112.504C68.7286 113.62 67.5246 118.064 63.2866 117.214Z" fill="#231F20"/>
<path d="M58.1563 116.184C58.0983 116.118 57.9423 116.068 57.9983 115.96C58.1063 115.832 58.4123 116.246 58.1563 116.184Z" fill="#231F20"/>
<path d="M57.0305 117.135C55.9413 116.984 54.8864 116.646 53.9125 116.135C53.6245 115.837 53.8745 115.191 54.3125 115.295C54.5876 115.42 54.8547 115.562 55.1125 115.719L55.0625 115.693C56.2505 116.393 57.0625 116.533 58.3545 116.493C58.6145 117.083 57.4285 117.133 57.0305 117.135Z" fill="#231F20"/>
<path d="M58.8791 114.683C57.5611 114.447 56.1011 114.069 54.9471 113.449C54.6571 113.049 54.9911 112.323 55.5191 112.513C56.8371 113.031 58.0811 113.753 59.4611 114.099C60.3351 114.509 59.3791 114.801 58.8791 114.683Z" fill="#231F20"/>
<path d="M61.6814 112.613C60.4234 112.291 59.2974 111.613 58.0814 111.189C57.2094 110.485 58.0334 109.275 59.4114 110.623C59.7474 111.097 62.6874 112.141 61.9514 112.645C61.8602 112.649 61.769 112.638 61.6814 112.613Z" fill="#231F20"/>
<path d="M87.6319 104.899C87.6123 104.875 87.5973 104.848 87.5879 104.819C87.6839 103.119 87.3359 101.317 87.7299 99.655C87.9299 99.055 88.7399 99.369 88.5879 99.943C88.3119 101.185 88.3619 102.471 88.1739 103.729V103.715C88.0759 104.035 88.1679 105.143 87.6319 104.899Z" fill="#231F20"/>
<path d="M90.2405 102.2C90.0665 101.43 90.1385 100.614 90.0085 99.8304V99.8844C89.9685 99.3884 89.6845 98.2664 90.4685 98.2844C90.5814 98.3225 90.6759 98.4016 90.7333 98.5061C90.7907 98.6105 90.8068 98.7326 90.7785 98.8484C90.5445 99.4004 90.7345 102.28 90.2405 102.2Z" fill="#231F20"/>
<path d="M92.5326 101.964C92.5191 101.944 92.5102 101.922 92.5066 101.898C92.4992 101.864 92.4939 101.829 92.4906 101.794C92.4906 101.794 92.4906 101.812 92.4906 101.822C92.4386 100.568 92.3166 99.294 92.4466 98.044C92.4643 97.9281 92.5227 97.8223 92.6114 97.7456C92.7002 97.669 92.8134 97.6265 92.9306 97.626C93.8346 97.962 93.0346 99.314 93.0926 100.026C92.9446 100.402 93.0986 102.244 92.5326 101.964Z" fill="#231F20"/>
<path d="M78.7981 97.4824C77.5241 96.8704 80.0681 94.6824 80.6221 94.1164C83.5761 91.9884 87.7201 90.3464 91.2721 91.8724C91.7041 92.0064 92.1061 92.3824 91.9221 92.8724C91.5021 93.8124 90.3561 92.8204 89.6301 92.8364C86.6081 92.5824 83.5481 93.8884 81.0581 95.5164C80.1981 96.0164 79.6921 97.1044 78.7981 97.4824Z" fill="#231F20"/>
<path d="M52.2099 110.176C51.7199 109.132 52.6399 107.84 53.1159 106.902C55.1159 103.268 58.6919 101.048 62.2959 99.24L62.2199 99.282C63.0199 98.844 63.8499 98.458 64.6539 98.022L64.5739 98.064C65.4879 97.78 66.4019 96.028 67.0099 96.316C67.1665 96.3979 67.2878 96.5341 67.3511 96.6991C67.4145 96.864 67.4155 97.0464 67.3539 97.212C66.3999 98.934 64.3959 99.688 62.7539 100.612L62.8359 100.568C58.8359 102.546 54.7939 105.106 52.8639 109.312L52.8879 109.256C52.7937 109.498 52.7123 109.744 52.6439 109.994C52.6373 110.041 52.6186 110.085 52.5896 110.123C52.5606 110.161 52.5224 110.19 52.4786 110.208C52.4349 110.227 52.3871 110.233 52.34 110.228C52.2929 110.222 52.2481 110.204 52.2099 110.176Z" fill="#231F20"/>
<path d="M136.607 278.624C132.731 276.742 128.977 274.448 124.629 273.746C122.965 273.634 121.311 273.392 119.643 273.346C119.075 273.346 118.025 273.386 118.157 272.546C118.221 271.596 122.915 272.654 123.913 272.458C126.913 272.78 129.849 273.78 132.535 275.134C134.485 275.824 136.055 277.418 138.135 277.696C137.595 275.79 135.935 274.678 134.661 273.31C133.905 270.074 139.823 276.01 142.419 274.814C141.245 272.98 139.371 271.814 137.619 270.614C136.647 269.814 137.545 268.684 138.619 269.312C141.433 269.512 144.113 270.43 146.893 270.776C142.395 265.838 131.129 263.596 124.623 262.376C122.611 262.126 120.594 261.914 118.573 261.74C117.549 261.41 115.451 262.042 115.461 260.474C115.729 258.6 118.919 260.19 120.213 259.976C125.117 260.376 130.013 261.176 134.695 262.726L134.617 262.7L135.391 262.958L135.279 262.92L135.763 263.082L135.653 263.044C139.757 264.522 144.253 265.934 147.301 269.204C151.057 274.334 142.657 270.804 140.501 270.79C145.391 274.554 144.167 277.952 138.199 275.15C139.541 277.188 139.997 279.82 136.607 278.624Z" fill="#231F20"/>
<path d="M106.733 255.678C105.547 240.54 106.017 225.26 106.911 210.11V210.122C107.619 204.598 107.453 198.922 108.277 193.448C108.877 192.92 108.901 194.048 108.877 194.422C108.857 198.84 108.791 203.264 108.477 207.672V207.598C107.647 223.424 107.057 239.306 107.863 255.14C108.113 255.862 107.027 256.542 106.733 255.678Z" fill="white"/>
<path d="M128.141 256.661C127.781 254.035 127.477 251.403 127.373 248.751V248.775C127.34 248.186 127.306 247.594 127.273 247.001C127.273 247.037 127.273 247.071 127.273 247.107C127.273 246.923 127.253 246.739 127.241 246.555C127.241 246.577 127.241 246.599 127.241 246.621C126.347 235.621 125.259 224.659 124.933 213.621C124.713 206.895 124.377 200.133 124.521 193.421C124.503 193.003 124.971 191.821 125.339 192.621C125.393 194.563 125.569 196.509 125.695 198.451V198.435C125.715 198.775 125.733 199.113 125.753 199.453C125.754 199.446 125.754 199.44 125.753 199.433V199.525C125.753 199.503 125.753 199.481 125.753 199.459V199.559C125.753 199.539 125.753 199.517 125.753 199.497C125.929 203.595 126.015 207.697 126.255 211.795C126.255 211.779 126.255 211.761 126.255 211.745V211.853V211.827C126.275 212.151 126.295 212.477 126.313 212.805V212.785L126.373 213.835V213.801C126.733 221.273 127.153 228.725 127.891 236.169C127.892 236.156 127.892 236.144 127.891 236.131C128.173 241.117 128.677 246.083 128.855 251.075C128.655 252.449 130.185 256.527 128.927 257.097C128.847 257.124 128.762 257.134 128.678 257.126C128.594 257.118 128.512 257.093 128.438 257.052C128.364 257.011 128.3 256.955 128.249 256.888C128.197 256.82 128.161 256.743 128.141 256.661Z" fill="white"/>
<path d="M49.3991 254.134C47.1791 241.17 47.5991 227.902 47.3271 214.788C47.2151 209.688 46.8971 204.588 46.8291 199.494C46.7431 195.694 45.8011 191.762 46.6411 188.03C47.4131 187.508 47.1391 189.116 47.1911 189.514C47.1911 191.44 47.3911 193.356 47.5671 195.27C48.8031 208.834 48.7331 222.47 49.0551 236.07C49.4651 240.28 49.4211 244.514 49.9371 248.716C50.0702 250.331 50.2938 251.936 50.6071 253.526C50.8531 254.222 49.7531 254.944 49.3991 254.134Z" fill="white"/>
<path d="M114.096 259.628C113.142 259.428 112.212 259.12 111.276 258.85H111.298L110.98 258.762H111L110.91 258.738C109.148 258.23 107.378 257.738 105.55 257.554H105.566L105.004 257.478L105.098 257.49L103.936 257.338L103.844 257.326L103.644 257.3H103.612H103.628L103.428 257.274L103.52 257.286L103.32 257.258H103.354C102.058 257.086 100.768 256.876 99.4738 256.698H99.5338L99.0558 256.634H99.0698C86.8398 255.152 74.5318 254.526 62.2098 254.518C58.2398 254.188 54.1298 255.194 50.2418 254.19C49.3198 253.854 49.9978 252.37 50.8158 253.006L50.7978 252.994C50.8123 253.003 50.8258 253.013 50.8378 253.024L50.8198 253.008C50.8102 253.001 50.8015 252.993 50.7938 252.984C53.3758 253.542 56.1458 253.126 58.7838 253.072C61.5838 253.02 64.3838 253.224 67.1938 253.2C79.2158 253.43 91.2278 254.2 103.136 255.888L103.044 255.876L103.708 255.966H103.684C106.442 256.262 109.17 256.714 111.818 257.566H111.792C112.792 257.986 114.058 257.966 114.938 258.532C115.304 259.084 114.67 259.766 114.096 259.628Z" fill="white"/>
<path d="M64.4402 235.332C62.8264 235.192 61.2286 234.906 59.6662 234.478H59.6942L59.5582 234.44L59.6482 234.466L59.5262 234.43H59.5442L59.4562 234.404L59.4902 234.414L59.3222 234.368L59.4102 234.394C57.2302 233.862 55.3002 232.624 53.7542 231.016C53.3542 230.53 50.6802 227.758 52.2522 227.75H52.2102C56.9202 234.364 65.9843 234.804 73.3143 233.178C74.7885 232.777 76.2388 232.293 77.6582 231.728C78.3662 231.552 79.3802 230.488 79.9522 231.354C80.2722 232.712 76.9083 233.316 75.9523 233.824C72.2903 235.2 68.3262 235.554 64.4402 235.332Z" fill="white"/>
<path d="M99.4551 234.941C99.1633 234.898 98.8756 234.831 98.5951 234.741H98.6211C97.2411 234.263 95.1351 233.923 94.6211 232.385C94.9151 231.673 95.8511 233.125 96.4211 233.163C96.7125 233.286 97.0103 233.394 97.3131 233.487L97.2611 233.473L97.3971 233.511H97.3591C97.4851 233.541 97.6111 233.583 97.7371 233.617L97.6831 233.601C98.3111 233.955 100.191 233.615 100.125 234.539C100.083 234.677 99.9909 234.794 99.8672 234.868C99.7435 234.942 99.5967 234.968 99.4551 234.941Z" fill="white"/>
<path d="M50.84 196.113C50.124 195.835 50.896 194.913 50.942 194.405C51.436 192.561 52.088 190.671 52.104 188.751C53.68 186.601 51.97 196.801 50.84 196.113Z" fill="white"/>
<path d="M55.6119 195.135C55.5709 195.128 55.532 195.111 55.4984 195.087C55.4647 195.063 55.4371 195.031 55.4178 194.994C55.3984 194.957 55.3878 194.917 55.3868 194.875C55.3858 194.834 55.3943 194.792 55.4119 194.755C56.0089 193.32 56.3962 191.807 56.5619 190.263C57.5519 188.955 56.2959 195.601 55.6119 195.135Z" fill="white"/>
<path d="M29.4576 158.023C29.2576 157.187 32.6816 156.707 33.2136 157.061C33.5316 157.371 33.0736 157.661 32.7636 157.519C31.9056 157.311 29.7496 158.733 29.4576 158.023Z" fill="white"/>
<path d="M39.5234 175.831C38.7874 175.177 41.5754 173.231 42.0154 172.581L41.9774 172.617C43.0094 171.311 43.5774 172.941 42.5774 172.975C41.7974 173.491 40.2454 176.073 39.5234 175.831Z" fill="white"/>
<path d="M68.0896 191.025C67.7085 190.123 67.395 189.195 67.1516 188.247C66.8436 188.213 66.9076 187.887 67.0116 187.685L66.9996 187.719C67.7656 186.627 67.9696 189.145 68.3456 189.565C68.4616 190.055 69.2096 190.717 68.6756 191.143C68.6305 191.176 68.5787 191.2 68.5237 191.213C68.4686 191.225 68.4115 191.226 68.3561 191.215C68.3008 191.204 68.2484 191.181 68.2025 191.148C68.1566 191.115 68.1181 191.073 68.0896 191.025Z" fill="white"/>
<path d="M74.7426 190.738C74.6796 190.108 74.6796 189.473 74.7426 188.844C74.7416 188.852 74.7416 188.861 74.7426 188.87C74.6746 188.558 75.0446 188.224 75.3006 188.494C75.4286 188.802 75.2786 189.182 75.3366 189.516C75.2746 189.99 75.7986 190.732 75.2066 190.986C75.1601 191.005 75.1099 191.014 75.0596 191.011C75.0093 191.009 74.9602 190.995 74.9158 190.972C74.8714 190.948 74.8329 190.915 74.8029 190.874C74.7729 190.834 74.7523 190.787 74.7426 190.738Z" fill="white"/>
<path d="M133.18 194.224C132.022 193.72 130.58 193.436 129.648 192.6C129.546 192.236 130.048 191.938 130.318 192.16C131.098 192.714 134.33 192.656 133.918 193.932C133.846 194.057 133.734 194.154 133.6 194.207C133.466 194.26 133.318 194.266 133.18 194.224Z" fill="white"/>
<path d="M131.836 196.55C131.284 196.326 129.476 195.788 130.018 194.996C130.544 194.656 130.938 195.528 131.508 195.532C131.888 195.66 132.696 195.638 132.484 196.248C132.432 196.368 132.337 196.466 132.217 196.521C132.098 196.577 131.962 196.587 131.836 196.55Z" fill="white"/>
<path d="M34.6535 139.4C32.1935 137.874 41.3595 125.762 42.7055 123.64C45.7975 118.96 48.0595 113.628 48.5255 108C48.8375 104.228 49.6015 100.464 49.1255 96.6743C49.1875 95.9243 48.5455 94.6383 49.3255 94.1963C49.8475 94.1963 49.4855 95.4963 49.6955 95.8923C50.4175 101.646 49.8435 107.572 48.9695 113.292C47.6115 119.382 44.0895 124.604 40.6235 129.676L40.6555 129.628L40.3195 130.138V130.122L40.2475 130.232L40.2635 130.208L40.2495 130.23L40.2675 130.202C38.8815 132.202 37.5415 134.23 36.6155 136.49C35.9855 137.37 36.0115 139.414 34.6535 139.4Z" fill="white"/>
<path d="M29.0105 150.648C27.6325 149.132 30.3725 148.774 31.4005 148.588C33.6165 147.854 35.7605 146.756 37.4305 145.1L37.3745 145.152C41.3425 142.07 41.8425 136.996 42.9445 132.452C43.3305 131.358 43.5165 129.792 44.4305 129.08C44.7885 129.328 44.2085 129.902 44.1865 130.256C43.0665 134.056 43.3865 138.21 41.7665 141.876C39.9825 145.504 36.7125 148.394 32.9525 149.848L32.9825 149.834C31.7505 150.272 30.3165 150.83 29.0105 150.648Z" fill="white"/>
<path d="M20.265 156.824C18.665 156.384 23.959 151.054 24.443 152.164C23.3753 152.977 22.4609 153.973 21.743 155.106C21.249 155.624 21.199 157.018 20.265 156.824Z" fill="white"/>
<path d="M12.4668 199.6C11.4208 198.8 12.7828 197.714 13.1968 196.946C14.0308 195.62 14.8228 194.264 15.5428 192.872C17.6188 188.272 17.8768 182.964 17.0388 178.044L17.0208 177.956L17.0328 178.014C16.9068 177.396 16.7828 176.782 16.6628 176.164C16.6628 176.19 16.6628 176.218 16.6788 176.242C16.2468 173.642 15.4608 171.004 15.7408 168.338C15.8988 167.798 15.7628 166.714 16.3688 166.524C16.4006 166.535 16.4297 166.552 16.4542 166.574C16.4787 166.597 16.498 166.625 16.5108 166.655C16.5235 166.686 16.5294 166.719 16.528 166.753C16.5267 166.786 16.5181 166.819 16.5028 166.848L16.5148 166.812C15.5008 172.136 19.0208 177.116 18.9628 182.444C19.3975 187.536 18.0847 192.624 15.2408 196.87C14.4828 197.764 13.8988 200 12.4668 199.6Z" fill="white"/>
<path d="M14.8107 222.024C11.9327 218.77 12.0847 212.866 13.0107 208.824C13.6647 205.856 15.9487 203.58 16.6787 200.664V200.712C16.6987 200.61 16.7207 200.512 16.7407 200.406C16.7407 200.42 16.7407 200.436 16.7407 200.452C16.9407 199.942 16.7147 198.984 17.3167 198.77C17.6527 198.77 17.6507 199.132 17.5687 199.37C17.5687 199.37 17.5687 199.37 17.5687 199.356C17.5567 199.418 17.5427 199.482 17.5307 199.544C17.5297 199.528 17.5297 199.512 17.5307 199.496C17.1607 203.134 14.3827 205.908 13.8227 209.496C13.8227 209.472 13.8227 209.448 13.8387 209.422C13.2833 212.717 13.5899 216.101 14.7287 219.244C14.9704 219.809 15.3442 220.308 15.8187 220.7C16.5287 221.306 15.5987 222.616 14.8107 222.024Z" fill="white"/>
<path d="M97.9047 102.624C97.0307 101.146 97.4407 99.0242 96.3327 97.5342C96.3352 97.5418 96.3386 97.5492 96.3427 97.5562C96.1107 97.1142 95.8787 96.6742 95.6487 96.2302L95.6987 96.3302L95.3727 95.7002C95.3887 95.7342 95.4067 95.7662 95.4227 95.7982C92.8487 89.6542 85.6907 88.1182 79.6967 87.6302C79.3927 87.6022 77.9427 87.5702 78.7287 87.1602C79.0854 87.2285 79.4476 87.264 79.8107 87.2662C86.2967 87.3022 94.2387 88.3002 96.9827 95.1422L96.9307 95.0442C97.6687 95.9722 100.643 103.272 97.9047 102.624Z" fill="white"/>
<path d="M113.571 131.612C112.497 129.012 110.391 127.312 108.315 125.55C104.675 122.302 102.297 117.873 101.599 113.044C101.277 111.032 101.101 109 100.947 106.968C100.971 106.652 100.747 106.078 101.133 105.952C101.161 105.952 101.188 105.957 101.213 105.969C101.238 105.98 101.26 105.997 101.278 106.018C101.296 106.039 101.308 106.064 101.315 106.091C101.322 106.117 101.323 106.145 101.317 106.172C101.382 107.848 101.577 109.517 101.901 111.162C101.9 111.154 101.9 111.146 101.901 111.138C101.931 111.29 101.959 111.442 101.989 111.594C102.671 115.238 104.297 118.736 106.789 121.492C108.937 123.776 111.639 125.578 113.429 128.158C113.873 129.134 115.463 130.832 114.449 131.772C114.382 131.821 114.305 131.856 114.224 131.874C114.142 131.893 114.058 131.894 113.976 131.88C113.894 131.865 113.816 131.833 113.747 131.787C113.677 131.741 113.617 131.682 113.571 131.612Z" fill="white"/>
<path d="M109.054 132.8C108.942 131.922 107.016 129.9 108.098 129.364C108.376 129.332 108.402 129.616 108.436 129.812C108.436 129.796 108.426 129.782 108.422 129.768C108.48 129.913 108.547 130.054 108.622 130.19C108.808 130.508 109.012 130.81 109.222 131.108C109.484 131.46 109.766 131.804 109.994 132.18C110.358 132.74 109.398 133.496 109.054 132.8Z" fill="white"/>
</svg>
