<svg width="400" height="400" viewBox="0 0 400 400" fill="none" xmlns="http://www.w3.org/2000/svg">
<path d="M325.037 324.641C316.419 324.701 307.819 324.161 299.237 323.475C293.879 323.291 288.517 323.309 283.169 322.943C273.569 322.721 263.891 320.911 254.301 321.805C233.631 325.327 233.387 313.145 235.083 296.585C235.633 288.323 235.267 280.035 235.807 271.771C235.807 271.723 235.807 271.675 235.807 271.625C236.073 270.343 235.573 268.693 236.453 267.645C236.885 257.659 237.367 247.673 238.235 237.717C238.943 233.583 239.021 229.361 239.881 225.253C241.551 220.215 242.991 214.853 245.973 210.413C245.301 209.341 246.389 208.465 247.197 209.573C247.685 209.421 248.051 209.773 248.137 210.229C250.107 211.553 252.423 212.189 254.583 213.123C256.139 213.807 256.983 214.047 256.567 216.037C256.235 216.875 255.215 216.731 254.581 217.193C253.971 219.193 255.283 221.271 256.309 222.917C258.509 225.819 259.057 229.631 261.459 232.391C265.319 231.257 268.623 228.773 272.475 227.621C271.617 225.279 270.573 223.021 269.543 220.745C269.143 218.125 271.437 219.107 272.873 219.721H272.861C275.887 220.629 278.951 221.425 282.061 222.029C289.877 224.251 297.703 226.897 305.891 227.289C310.169 227.187 314.365 224.925 317.383 221.975C319.243 219.809 319.541 216.687 319.825 213.943C319.825 213.959 319.825 213.975 319.825 213.991V213.911V213.921C319.824 213.913 319.824 213.904 319.825 213.895C320.103 212.633 319.303 210.169 321.137 209.961C322.723 205.865 325.391 202.389 327.503 198.581C329.503 194.711 331.675 190.909 333.303 186.869C335.073 182.295 336.801 177.709 338.303 173.037C340.847 166.437 343.789 160.009 346.231 153.377C346.215 153.429 346.197 153.481 346.179 153.533C347.779 147.395 351.835 140.973 348.323 134.789C346.123 129.249 342.267 124.651 338.181 120.389C332.199 113.357 324.707 107.649 317.035 102.573C312.665 99.8292 307.235 98.4252 303.731 94.5112C303.359 92.7812 305.477 90.8232 306.287 89.3472C308.973 85.0932 311.397 80.6712 313.957 76.3472C314.581 70.3972 326.797 83.7172 328.585 85.0992C334.175 90.3352 340.117 95.2152 345.653 100.521L345.575 100.441C351.521 106.987 357.461 113.495 363.943 119.529L363.839 119.421C368.713 124.699 372.667 131.561 373.073 138.857C373.343 143.457 371.711 147.857 370.655 152.275C368.887 159.833 366.055 167.075 363.703 174.463C361.503 180.063 358.629 185.361 356.439 190.963C357.239 191.993 355.897 193.085 355.571 194.065C354.879 195.653 354.171 197.233 353.333 198.751C350.037 207.847 343.807 215.463 340.069 224.339L339.983 224.593C339.983 224.593 339.983 224.579 339.983 224.571C338.639 228.825 336.521 232.807 335.407 237.143C335.123 239.835 335.207 242.561 334.899 245.261L334.911 245.081C334.601 249.805 334.951 254.695 333.369 259.233C332.219 262.233 330.445 264.923 328.847 267.703C327.873 269.519 328.017 271.591 327.773 273.575C326.815 281.759 327.347 290.031 327.539 298.247C328.351 306.099 329.257 313.985 328.469 321.883V321.871C328.531 324.609 327.533 324.915 325.037 324.641Z" fill="#4B6DED"/>
<path d="M259.879 93.8725C257.243 92.3705 258.175 88.5645 256.823 86.2025C254.823 83.0745 250.561 81.5085 249.997 77.4285C248.263 66.9965 262.507 62.4505 267.077 71.9805C268.985 76.8445 265.401 78.8985 264.519 82.8465C264.319 85.7965 266.471 89.4465 264.337 91.9845C263.143 93.0705 261.545 94.0285 259.879 93.8725ZM260.599 91.7025C267.123 91.6125 260.733 83.9925 263.771 79.7425C265.111 77.5425 266.407 74.6545 264.699 72.2905C263.323 70.5585 261.249 68.9085 258.929 69.0425C254.217 68.5225 250.429 73.7945 252.317 78.1145C253.653 81.3685 257.573 82.7905 258.289 86.3645C260.359 86.3345 259.307 90.4485 260.601 91.7025H260.599Z" fill="#4B6DED"/>
<path d="M259.611 92.6961C259.173 91.5301 258.865 89.3641 259.629 88.2961C258.849 85.7741 258.669 83.0621 257.743 80.5961C254.715 79.1221 253.269 72.1761 257.343 74.5961C257.445 73.5961 258.529 72.8281 259.373 73.5961C259.469 73.4091 259.613 73.251 259.79 73.1383C259.967 73.0255 260.171 72.9622 260.381 72.9548C260.591 72.9475 260.799 72.9964 260.984 73.0965C261.168 73.1966 261.323 73.3442 261.431 73.5241C262.231 75.1561 261.395 77.1041 261.631 78.8541C261.891 81.6541 262.375 84.4421 262.809 87.2281C263.055 88.6081 263.967 93.3441 261.235 91.8161C261.167 91.8273 261.097 91.816 261.035 91.7841C261.259 92.5741 260.199 93.3641 259.611 92.6961ZM261.291 88.9281C260.953 85.0001 260.065 81.0781 260.325 77.1281C260.324 77.1434 260.324 77.1588 260.325 77.1741L260.355 76.7301V76.8341L260.393 76.3061V76.4081C260.411 76.1501 260.431 75.8921 260.449 75.6341V75.7041C260.449 75.3041 260.565 74.8341 260.381 74.4561C260.247 75.0341 260.471 75.9161 259.695 76.0961C258.951 76.2221 258.959 75.2721 258.593 74.8621C258.477 75.6341 258.805 77.5141 257.473 77.0881C256.975 76.7421 256.949 75.9821 256.351 75.7181C256.491 78.1521 258.899 78.4541 259.447 80.4781C260.267 83.1981 259.907 86.4601 261.291 88.9281Z" fill="#4B6DED"/>
<path d="M242.069 81.3842C240.669 80.4762 244.669 79.5162 245.299 79.4922C246.341 79.4922 246.099 81.1682 245.139 81.0922H245.165C244.115 81.0082 243.101 81.2982 242.069 81.3842Z" fill="#4B6DED"/>
<path d="M246.341 72.9972C245.741 72.7872 241.601 73.1332 242.471 72.0492C243.719 71.6132 245.221 71.7532 246.557 71.6152C247.389 71.7152 247.119 73.0612 246.341 72.9972Z" fill="#4B6DED"/>
<path d="M250.236 66.4926C249.752 65.8106 249.598 64.9546 249.212 64.2186L249.236 64.2646C249.148 64.0926 249.062 63.9166 248.968 63.7486C248.368 63.2926 249.194 62.8066 249.588 63.4566C250.068 64.3506 251.846 65.4786 251.028 66.5286C250.974 66.5796 250.91 66.6192 250.841 66.6451C250.772 66.6709 250.698 66.6825 250.624 66.6792C250.55 66.6758 250.477 66.6576 250.411 66.6255C250.344 66.5934 250.284 66.5483 250.236 66.4926Z" fill="#4B6DED"/>
<path d="M257.65 63.3711C256.79 62.7011 257.564 61.3591 257.476 60.4331V60.4451C257.806 59.4611 258.182 61.6171 258.314 61.8691V61.8571C258.314 61.8811 258.33 61.9071 258.34 61.9311C258.67 62.5091 258.53 63.5991 257.65 63.3711Z" fill="#4B6DED"/>
<path d="M264.341 64.8364C263.811 64.7704 263.959 63.9444 264.419 63.9204C265.469 63.0624 266.173 61.6544 267.387 61.0684C268.645 61.1504 267.775 62.4204 267.105 62.7444L267.117 62.7344C266.149 63.3524 265.345 64.3564 264.341 64.8364Z" fill="#4B6DED"/>
<path d="M269.344 70.3971C268.744 70.0311 269.662 69.5971 269.964 69.3971C270.734 69.0251 271.342 68.2751 272.182 68.0871C273.202 67.9791 273.168 69.6191 272.182 69.4871C271.246 69.7971 270.308 70.2691 269.344 70.3971Z" fill="#4B6DED"/>
<path d="M272.281 78.9746C271.881 78.8806 269.247 78.7486 270.217 78.0206L270.185 78.0406C270.959 77.7426 271.861 77.2406 272.703 77.4706C273.449 77.7846 273.057 79.0546 272.281 78.9746Z" fill="#4B6DED"/>
<path d="M266.871 112.569C266.247 109.683 263.931 107.169 261.697 105.261C258.739 102.923 255.013 101.989 251.629 100.447C245.643 98.1967 239.539 96.0207 234.419 92.0707C229.495 88.1647 224.987 82.3767 225.201 75.8007C225.443 63.8347 234.975 52.7487 246.201 49.2847C257.139 46.2847 269.683 48.0347 279.059 54.5227C283.683 58.4527 284.699 64.8907 284.259 70.6527V70.6167C284.259 70.6647 284.259 70.7127 284.259 70.7607V70.7387C283.507 78.7267 278.807 85.7387 274.795 92.4767C271.555 96.9327 268.617 102.101 268.221 107.697C268.222 107.686 268.222 107.675 268.221 107.665C268.047 109.087 268.259 110.505 268.445 111.913C268.631 112.799 267.279 113.537 266.871 112.569ZM244.471 95.1507C251.955 98.7307 262.575 100.425 266.403 108.577C266.481 103.577 268.641 98.8287 271.143 94.5767L271.125 94.6067C273.736 90.9253 276.076 87.0584 278.125 83.0367C280.959 78.0367 283.021 72.4987 282.465 66.6647V66.6767C282.465 66.6547 282.465 66.6347 282.465 66.6127V66.7307V66.6967C282.465 66.7327 282.465 66.7687 282.465 66.8047V66.7307V66.7527C282.419 65.6432 282.286 64.539 282.065 63.4507C282.065 63.4967 282.083 63.5407 282.091 63.5847C281.105 58.2727 277.259 54.9007 272.371 53.0827C266.155 50.3067 259.229 49.5127 252.485 50.1147C240.685 51.0187 230.251 60.3747 227.663 71.8467C225.135 82.8847 235.369 91.2467 244.469 95.1507H244.471Z" fill="#4B6DED"/>
<path d="M289.187 175.719C284.863 173.865 294.045 167.201 296.427 168.141C300.985 170.151 291.729 177.221 289.187 175.719Z" fill="#4B6DED"/>
<path d="M308.693 166.799C305.835 163.799 313.169 159.881 315.715 160.509C319.811 162.699 311.069 168.829 308.693 166.799Z" fill="#4B6DED"/>
<path d="M231.8 273.965C228.65 274.125 226.234 271.779 224.586 269.345C222.304 266.129 222.002 262.059 222.128 258.235V258.261C222.128 258.175 222.128 258.087 222.128 258.001V258.025C222.128 257.955 222.128 257.885 222.128 257.815V257.861C222.852 252.647 219.728 252.073 216.328 249.399C213.172 246.359 212.632 241.497 214.184 237.525C216.772 230.873 224.584 230.087 225.832 222.539C226.516 218.361 226.058 214.047 227.1 209.905C228.436 202.951 233.76 197.669 240.036 194.809L239.948 194.859C244.502 192.475 248.48 189.155 251.208 184.757C253.208 182.235 254.608 179.275 254.498 175.993C254.92 167.487 252.078 158.555 255.65 150.457C256.25 148.939 257.996 143.701 259.954 144.279C266.7 137.459 276.884 136.505 285.93 135.311C290.768 134.671 295.53 133.535 300.37 132.949C306.714 132.197 313.724 133.369 318.77 137.485C324.398 142.333 325.032 150.457 325.696 157.393C325.77 164.449 326.896 169.923 333.548 173.583C334.598 174.349 336.348 174.687 336.636 176.111C338.45 176.253 335.436 183.911 334.984 185.093C335 185.059 335.014 185.023 335.03 184.989L334.81 185.507C334.824 185.473 334.838 185.437 334.854 185.403C332.384 191.35 329.558 197.143 326.392 202.751L326.254 202.985C325.364 204.585 324.24 206.045 323.414 207.681C322.64 208.881 322.06 210.701 320.674 211.269C319.074 213.399 312.82 216.251 310.21 214.935C307.488 212.889 308.458 208.757 307.762 205.787C307.762 205.833 307.772 205.879 307.778 205.925C307.766 205.811 307.752 205.695 307.74 205.579C307.74 205.625 307.74 205.673 307.754 205.719C307.608 202.719 307.276 196.529 309.32 194.293C311.214 194.115 313.188 194.643 315.12 194.375C316.834 193.955 322.464 193.497 321.696 190.959C321.172 187.895 320.852 184.683 319.308 181.929C319.198 181.962 319.086 181.989 318.972 182.009C318.13 183.047 316.154 183.149 314.96 183.863C311.008 185.331 306.264 186.137 302.284 184.415C300.308 183.483 297.348 181.625 298.052 179.079C298.43 178.427 299.31 178.445 299.952 178.217C301.992 177.817 304.002 177.311 306.02 176.817C311.118 175.393 316.22 173.797 321.13 171.855C319.33 168.515 318.028 164.873 316.53 161.377L316.562 161.455C316.2 160.557 315.8 159.677 315.442 158.777L315.454 158.809C314.406 155.609 312.854 152.665 311.13 149.791C310.18 147.839 309.17 145.915 307.754 144.253L307.81 144.325L307.632 144.097C302.552 136.365 290.192 141.201 283.172 143.635H283.188C279.332 144.947 275.712 147.663 271.486 147.399C274.402 152.247 273.348 158.031 272.586 163.319C272.148 167.179 271.866 171.093 272.386 174.959C272.386 174.925 272.386 174.893 272.386 174.861C272.342 178.107 275.586 180.735 272.186 181.331L272.274 181.281C269.904 182.897 269.134 187.481 271.624 189.293L271.55 189.243C273.498 190.749 276.01 190.285 278.292 190.493H278.196C280.646 191.219 281.046 202.471 281.176 204.997C281.294 207.037 281.446 209.079 281.666 211.111C281.666 212.089 282.702 214.417 280.998 214.311C276.424 211.243 271.598 208.553 266.288 206.939C259.004 203.509 250.39 203.257 245.93 211.049C238.968 221.545 240.276 234.871 238.516 246.825C238.516 246.791 238.526 246.757 238.532 246.725C237.678 253.033 236.806 259.357 236.532 265.725C236.296 268.197 236.234 270.725 235.986 273.165C235.046 274.265 233.128 273.757 231.8 273.965Z" fill="#231F20"/>
<path d="M326.82 269.523C325.654 269.423 326.178 268.021 326.984 267.747C328.044 267.161 328.784 266.197 329.696 265.415C334.672 260.777 332.096 246.173 333.544 239.389L333.526 239.509C334.796 232.109 338.958 225.619 342.536 219.145C344.508 215.163 346.4 211.131 348.312 207.119C348.294 207.161 348.276 207.201 348.26 207.241C348.998 205.393 349.876 203.605 350.672 201.783C350.686 201.745 350.704 201.709 350.72 201.671V201.683L350.764 201.579V201.589C352.666 196.891 354.526 192.155 356.69 187.575C356.308 187.145 356.718 186.341 357.304 186.647C358.536 187.847 359.724 189.149 360.872 190.447C362.396 192.481 363.772 194.713 364.168 197.265C366.84 209.665 353.114 214.151 355.556 228.723V228.701C356.27 233.801 357.214 239.003 356.534 244.157C355.212 252.757 350.702 260.557 342.682 264.407L342.706 264.393L342.666 264.415C342.652 264.421 342.64 264.428 342.628 264.437H342.614H342.6C340.16 266.037 337.362 266.837 334.576 267.587C333.554 267.735 332.31 268.821 331.352 268.231C329.78 268.429 328.334 269.157 326.82 269.523ZM355.07 236.067C355.05 235.867 355.028 235.667 355.008 235.467V235.495C355.009 235.479 355.009 235.463 355.008 235.447C355.026 235.649 355.048 235.859 355.07 236.067Z" fill="#231F20"/>
<path d="M260.718 234.344C259.81 229.784 255.268 226.872 253.918 222.44C253.43 220.876 252.718 219.176 253.068 217.524C253.51 215.862 255.65 214.924 256.778 216.524C256.406 214.342 259.122 211.01 260.68 213.946C260.856 211.992 263.114 209.946 264.55 212.146C266.078 209.794 268.688 211.708 268.906 213.932C269.26 216.368 270.032 218.725 271.19 220.898C271.892 222.513 272.72 224.071 273.668 225.556C274.34 226.51 275.548 228.514 273.656 228.832C272.828 228.8 272.684 227.788 272.284 227.232C270.628 224.654 269.458 221.832 268.324 218.988C267.3 217.136 268.276 213.566 266.228 212.56H266.26C265.402 212.602 265.372 213.63 265.292 214.278C265.2 214.862 264.406 215.214 264.034 214.666C263.792 213.688 263.116 211.428 262.034 213.18C261.402 214.046 261.906 215.968 260.966 216.34C259.912 216.214 260.166 214.522 259.412 213.922L259.46 213.968C259.417 213.923 259.37 213.882 259.32 213.846L259.374 213.882C259.294 213.821 259.201 213.78 259.102 213.764L259.164 213.782C257.024 214.2 257.834 217.04 257.964 218.56C257.844 219.178 257.08 219.228 256.8 218.696C252.832 213.678 255.08 222.414 256.316 224.026C258.116 227.166 261.092 230.148 261.39 233.876C261.566 234.246 260.974 234.816 260.718 234.344Z" fill="#231F20"/>
<path d="M303.466 93.7807C294.318 91.9387 296.746 85.0027 303.386 81.5807C305.068 80.3807 309.52 79.7307 308.486 83.0407C307.732 84.2187 306.39 84.8727 305.36 85.7847C306.206 85.7847 308.85 84.7707 308.83 86.1427C308.658 87.3067 307.174 86.6487 306.374 86.8647C305.436 86.9947 302.826 87.5427 303.786 85.7887C304.894 84.5167 306.606 83.8967 307.716 82.6327C307.716 82.6547 307.692 82.6747 307.682 82.6947C308.042 79.3607 297.068 86.1507 299.24 89.6407C300.104 91.7587 302.718 91.9987 304.284 93.3907C304.584 93.9207 303.788 93.9807 303.466 93.7807Z" fill="#231F20"/>
<path d="M298.612 86.9243L298.63 86.9383C298.608 86.9226 298.582 86.9123 298.554 86.9083H298.524C296.282 86.2363 293.408 84.9403 292.978 82.3803C292.762 80.0803 295.16 79.2063 297.076 79.3923C294.692 76.3923 299.142 73.9923 301.818 74.7923C300.566 72.2903 304.3 71.5483 305.804 72.8843C305.618 70.4663 308.938 71.8323 310.186 72.3203L310.114 72.2863C311.032 72.8863 317.1 75.1123 314.462 76.3403C314.364 76.3561 314.264 76.3471 314.17 76.3143C314.076 76.2815 313.992 76.2258 313.924 76.1523C312.68 74.9123 310.988 74.1783 309.46 73.3343L309.534 73.3663C308.733 73.0044 307.875 72.7857 306.998 72.7203C307.142 73.4103 307.826 74.9563 306.542 74.8303C305.504 73.9903 304.268 73.0203 302.874 73.6643C303.074 74.4643 304.152 75.0263 303.988 75.9543C303.906 76.4283 303.286 76.7663 302.93 76.3543C301.458 75.8223 299.746 75.5763 298.374 76.5003C297.94 76.7683 297.274 77.1543 297.614 77.7443C297.842 78.6463 299.326 79.5763 298.538 80.5043C297.468 80.8783 296.138 80.5743 295.034 80.9643C292.422 83.0123 297.472 85.3803 298.808 86.5643C299.112 86.6463 298.852 87.1163 298.612 86.9243Z" fill="#231F20"/>
<path d="M307.573 172.15C306.249 172.088 304.955 171.734 303.675 171.406L303.761 171.43C301.839 171.398 302.249 169.63 303.361 169.802C304.069 170.097 304.794 170.349 305.533 170.554L305.453 170.534C305.765 170.612 306.077 170.692 306.387 170.774C311.813 172.128 303.689 166.574 302.987 165.336C300.839 163.136 298.787 160.556 297.787 157.63C297.823 155.958 302.587 162.924 303.365 163.252C305.273 165.302 307.671 166.97 309.291 169.252C310.075 170.524 309.091 172.268 307.573 172.15Z" fill="#231F20"/>
<path d="M303.427 160.881C302.695 160.621 301.895 159.843 302.417 159.045C301.417 154.175 307.991 150.817 311.973 152.831C313.527 155.549 310.555 158.683 308.251 159.941C306.873 160.865 305.061 161.439 303.427 160.881ZM305.671 159.465C308.313 159.013 311.803 156.823 311.405 153.763C308.035 152.671 303.017 154.683 303.069 158.679C304.101 159.233 304.267 159.625 305.671 159.465Z" fill="#231F20"/>
<path d="M282.878 167.057C281.804 166.805 278.536 167.545 278.378 166.177C277.838 165.759 278.21 164.841 278.334 164.279C279.146 161.339 282.134 159.701 285.03 159.465C287.914 158.887 290.62 160.383 292.806 162.119C293.526 162.919 292.354 163.845 291.82 164.405C289.474 166.757 286.046 167.129 282.878 167.057ZM284.788 165.615C287.408 165.637 290.112 165.001 291.854 162.899C290.436 162.345 289.214 161.347 287.74 160.939C284.294 160.221 279.788 161.553 278.892 165.339C280.84 165.273 282.824 165.649 284.788 165.615Z" fill="#231F20"/>
<path d="M284.716 164.55C281.88 163.706 283.716 159.21 286.316 160.518C288.972 161.776 287.236 165.052 284.716 164.55ZM285.394 162.83C285.37 162.816 285.344 162.794 285.314 162.806L285.394 162.83Z" fill="#231F20"/>
<path d="M306.467 157.455C303.957 156.789 304.725 153.197 307.249 153.469C310.415 153.771 309.201 157.923 306.467 157.455Z" fill="#231F20"/>
<path d="M284.71 168.512C284.426 168.386 283.056 168.478 283.266 168.066C283.93 167.846 284.684 168.094 285.382 167.984C286.156 167.942 286.88 167.654 287.6 167.394C289.12 168.07 285.2 168.742 284.71 168.512Z" fill="#231F20"/>
<path d="M308.122 161.181C307.68 161.181 307.908 160.437 308.27 160.679C309.258 160.189 310.082 159.449 310.834 158.653C310.888 158.588 310.964 158.544 311.048 158.533C311.131 158.521 311.217 158.541 311.286 158.589C311.878 159.461 308.918 161.363 308.122 161.181Z" fill="#231F20"/>
<path d="M288.97 174.911C288.544 174.623 289.804 171.029 289.902 172.489C289.914 172.545 289.909 172.603 289.888 172.657C289.867 172.71 289.831 172.756 289.784 172.789C289.476 173.209 289.766 175.525 288.97 174.911Z" fill="#231F20"/>
<path d="M291.415 174.519C290.603 174.341 291.661 171.133 292.187 171.223C292.187 172.131 291.657 173.045 291.813 173.995C291.834 174.056 291.839 174.122 291.828 174.185C291.817 174.249 291.791 174.309 291.752 174.361C291.713 174.412 291.662 174.454 291.603 174.481C291.544 174.509 291.48 174.521 291.415 174.519Z" fill="#231F20"/>
<path d="M294.473 173.451C293.673 172.747 294.371 170.381 295.055 169.737C295.373 169.649 295.477 170.119 295.233 170.271C294.986 170.969 294.887 171.71 294.943 172.447C295.085 172.851 295.091 173.581 294.473 173.451Z" fill="#231F20"/>
<path d="M310 166.502C309.034 166.424 310.07 162.79 310.75 162.852C311.254 163.318 310.168 164.378 310.35 165.094C310.35 165.076 310.35 165.058 310.35 165.04C310.222 165.516 310.702 166.398 310 166.502Z" fill="#231F20"/>
<path d="M312.164 165.026C311.506 164.69 312.744 161.506 313.342 161.914C313.354 161.954 313.35 161.997 313.331 162.034C313.312 162.071 313.279 162.1 313.24 162.114C312.64 162.736 313.036 165.416 312.164 165.026Z" fill="#231F20"/>
<path d="M314.483 164.254C314.315 163.288 314.535 161.894 315.221 161.154C315.361 161.12 315.381 161.336 315.261 161.372C315.235 161.411 315.213 161.452 315.195 161.496C315.196 161.49 315.196 161.484 315.195 161.478C315.028 161.947 314.948 162.442 314.959 162.94C314.959 162.94 314.959 162.926 314.959 162.92C314.919 163.316 315.237 164.624 314.483 164.254Z" fill="#231F20"/>
<path d="M304.616 154.338C304.526 153.91 304.844 153.406 304.902 152.956C304.902 152.968 304.902 152.98 304.902 152.99C305.226 151.672 305.654 150.36 305.73 148.99C305.74 148.928 305.77 148.871 305.814 148.826C305.857 148.781 305.914 148.751 305.976 148.738C306.896 149.106 305.146 153.222 304.976 154.172L304.964 154.202C304.908 154.334 304.738 154.466 304.616 154.338Z" fill="#231F20"/>
<path d="M306.811 152.736C306.84 152.544 306.889 152.356 306.959 152.174C306.958 152.184 306.958 152.194 306.959 152.204C307.243 151.038 307.529 149.864 307.501 148.662C307.515 148.583 307.556 148.51 307.617 148.456C307.677 148.402 307.754 148.37 307.835 148.364C308.389 148.492 307.985 149.284 308.003 149.678C307.883 150.122 307.349 153.162 306.811 152.736Z" fill="#231F20"/>
<path d="M308.758 152.198C308.753 152.175 308.753 152.151 308.758 152.128C308.781 152.02 308.811 151.913 308.846 151.808C308.846 151.808 308.846 151.808 308.846 151.818C308.925 151.521 308.987 151.219 309.034 150.914L309.07 150.666V150.624V150.638C309.304 150.114 308.87 147.89 309.92 148.594C310.07 148.95 309.326 152.818 308.758 152.198Z" fill="#231F20"/>
<path d="M277.602 163.758C276.898 163.57 274.602 163.514 274.732 162.558C275.092 161.758 277.026 163.176 277.812 163.12C279.946 163.016 279.002 163.822 277.602 163.758Z" fill="#231F20"/>
<path d="M278.983 162.281C278.375 162.242 277.772 162.143 277.183 161.985C276.772 161.867 276.37 161.716 275.983 161.533C275.583 161.453 275.347 160.933 275.765 160.697C276.211 160.617 276.603 161.097 277.029 161.205L276.989 161.185C277.328 161.332 277.678 161.453 278.035 161.545H278.013H278.051L278.185 161.581L278.147 161.571C278.819 161.853 279.793 161.723 280.347 162.109C280.053 162.455 279.399 162.235 278.983 162.281Z" fill="#231F20"/>
<path d="M281.951 160.971C280.371 160.673 278.785 160.371 277.211 160.059C276.637 159.831 276.921 158.871 277.519 158.957C279.069 159.403 280.589 160.019 282.163 160.377C282.575 160.467 282.325 161.171 281.951 160.971Z" fill="#231F20"/>
<path d="M274.071 157.244C273.407 155.948 274.233 154.17 274.683 152.866C275.959 149.444 280.193 148.266 283.533 148.584C284.223 148.556 286.455 149.712 284.963 150.172C284.132 149.808 283.218 149.677 282.319 149.792H282.403C281.855 149.828 281.31 149.904 280.773 150.018L280.859 149.998C279.021 150.512 276.829 151.108 275.899 152.936L275.913 152.914L275.851 153.018L275.899 152.938C275.261 154.037 274.825 155.241 274.611 156.494C274.676 156.576 274.708 156.679 274.7 156.784C274.692 156.888 274.644 156.985 274.567 157.056V157.042C274.548 157.088 274.52 157.13 274.485 157.165C274.449 157.2 274.407 157.228 274.361 157.247C274.315 157.266 274.266 157.275 274.216 157.275C274.166 157.274 274.117 157.264 274.071 157.244Z" fill="#231F20"/>
<path d="M296.48 148.91C295.48 145.824 297.79 141.842 300.992 141.146C302.006 141.02 303.16 140.58 304.13 141.04C304.231 141.105 304.306 141.203 304.343 141.318C304.379 141.433 304.375 141.556 304.33 141.668C304.056 142.298 303.172 141.916 302.64 142.188L302.722 142.17L301.8 142.398L301.864 142.382C298.91 142.896 296.942 145.838 296.98 148.726C296.894 148.922 296.666 149.064 296.48 148.91Z" fill="#231F20"/>
<path d="M245.183 304.999C244.435 304.881 244.615 303.895 245.207 303.665C246.131 302.865 246.619 301.665 247.195 300.615C249.705 295.929 250.965 290.815 251.767 285.579C254.083 274.523 256.153 263.417 258.211 252.305C259.031 247.587 260.011 242.905 260.679 238.157C260.803 237.725 260.821 236.675 261.431 236.941C261.631 238.439 261.267 240.035 261.247 241.563C261.247 241.535 261.247 241.509 261.247 241.481C261.247 241.581 261.233 241.681 261.227 241.781C259.483 257.371 255.919 272.693 252.863 288.059V288.035C252.794 288.379 252.723 288.722 252.651 289.065V289.043L252.609 289.243C252.609 289.215 252.621 289.189 252.625 289.161C251.901 291.783 251.445 294.533 250.205 296.977L250.249 296.885L250.135 297.119C250.149 297.087 250.165 297.057 250.181 297.025C248.581 299.599 247.953 303.483 245.183 304.999Z" fill="white"/>
<path d="M260.504 319.059C259.48 318.301 262.092 315.981 262.386 314.973C264.042 312.127 264.986 308.949 266.092 305.867C266.089 305.882 266.084 305.896 266.078 305.909L266.116 305.801C266.116 305.817 266.104 305.833 266.1 305.847C270.642 292.143 274.62 278.135 275.742 263.685C277 252.653 277.3 241.523 275.652 230.513C275.362 230.399 275.542 229.883 275.838 229.913C277.326 230.113 277.422 235.245 277.838 236.603C279.396 247.921 277.998 259.369 276.638 270.637C275.118 281.381 272.284 291.889 268.78 302.149C267.6 305.545 263.648 318.399 260.504 319.059Z" fill="white"/>
<path d="M310.498 271.676C309.426 271.614 305.448 271.368 305.498 269.988L305.48 270.04C305.532 269.802 305.848 269.618 306.056 269.788C308.068 270.492 310.286 270.426 312.376 270.142H312.29C313.598 269.976 314.89 269.708 316.156 269.342H316.142C318.208 268.715 320.203 267.876 322.096 266.84L322.064 266.858L322.148 266.81L322.098 266.838C323.646 265.776 324.394 267.672 321.566 268.752C318.178 270.568 314.354 271.672 310.498 271.676Z" fill="white"/>
<path d="M284.121 269.288C282.553 269.178 281.015 268.802 279.573 268.176L279.319 268.054C278.999 267.892 277.847 267.42 278.651 267.134C281.263 268.104 284.081 268.586 286.821 267.832C286.889 267.818 286.959 267.819 287.026 267.834C287.094 267.849 287.157 267.878 287.213 267.919C287.268 267.96 287.315 268.012 287.349 268.072C287.383 268.132 287.404 268.199 287.411 268.268C287.277 269.542 285.253 269.11 284.321 269.284H284.109L284.121 269.288Z" fill="white"/>
<path d="M304.111 236.121C304.157 235.165 305.379 235.277 306.019 234.905C307.251 234.353 308.419 233.663 309.587 232.999C310.577 232.441 311.535 231.83 312.459 231.169L312.427 231.193L312.715 230.979L312.915 230.833L312.865 230.869L312.843 230.885C314.197 229.848 315.431 228.664 316.525 227.355L316.483 227.407C316.627 227.233 316.773 227.061 316.919 226.889L316.889 226.925C317.725 225.925 318.523 224.865 319.089 223.673L319.077 223.693C319.395 223.179 319.477 222.385 320.057 222.093C320.429 221.983 320.501 222.545 320.183 222.653C320.168 222.68 320.154 222.709 320.141 222.737L320.161 222.695C318.089 228.361 313.411 232.675 308.161 235.453C307.245 235.877 304.495 237.739 304.111 236.121Z" fill="white"/>
<path d="M298.692 232.702C298.322 232.388 298.602 231.714 299.07 231.702C300.296 231.642 301.511 231.436 302.688 231.09H302.666L303.148 230.958L303.096 230.972C303.696 230.992 306.516 229.428 306.354 230.432C305.53 231.398 302.722 231.868 301.418 232.412L301.462 232.4C300.584 232.58 299.568 232.998 298.692 232.702Z" fill="white"/>
<path d="M334.632 227.858C333.61 227.566 334.548 226.22 334.664 225.55C335.31 223.608 335.902 221.648 336.492 219.69C336.536 219.212 337.092 217.992 337.432 218.974C337.266 220.032 336.938 221.062 336.702 222.108C336.224 223.15 335.686 227.93 334.632 227.858Z" fill="white"/>
<path d="M338.549 219.149C338.869 216.169 339.621 213.257 339.583 210.239C339.584 210.222 339.584 210.205 339.583 210.187C339.583 210.147 339.583 210.105 339.583 210.065C339.899 208.945 339.463 204.935 340.195 204.563C340.228 204.568 340.26 204.58 340.288 204.599C340.316 204.617 340.34 204.641 340.358 204.67C340.375 204.699 340.386 204.731 340.39 204.764C340.394 204.798 340.39 204.832 340.379 204.863C340.165 205.911 340.337 206.993 340.321 208.053C340.357 211.453 340.277 214.811 339.697 218.171V218.091C339.683 218.277 339.671 218.463 339.657 218.649V218.567C339.865 219.399 338.761 220.257 338.549 219.149Z" fill="white"/>
<path d="M252.359 244.477C252.007 243.643 254.433 242.543 254.931 241.765L254.973 241.727L254.945 241.753C255.826 240.94 256.608 240.026 257.273 239.029L257.257 239.053C257.435 238.777 257.605 238.497 257.759 238.209C257.751 238.175 257.75 238.14 257.758 238.106C257.765 238.072 257.78 238.04 257.802 238.013C257.824 237.986 257.851 237.964 257.882 237.949C257.914 237.934 257.948 237.926 257.983 237.927C258.867 238.255 256.819 240.641 256.473 241.163L256.489 241.145C255.735 241.855 253.339 245.209 252.359 244.477Z" fill="white"/>
<path d="M244.708 256.399C244.458 256.369 244.55 255.975 244.776 255.999C245.014 255.996 245.248 255.938 245.46 255.829H245.484H245.474C247.61 254.829 249.362 253.151 250.978 251.465C251.562 251.047 252.09 249.751 252.888 250.017C253.588 250.817 249.73 253.603 249.056 254.231L249.08 254.215C247.756 255.145 246.354 256.229 244.708 256.399Z" fill="white"/>
<path d="M269.588 259.413C268.954 258.681 270.484 257.679 270.838 257.035L270.812 257.065L270.91 256.949L270.898 256.963C271.554 256.21 272.119 255.381 272.58 254.495C273.252 253.823 273.694 249.977 274.528 250.459C274.29 252.933 273.028 255.693 271.394 257.713C270.8 258.199 270.424 259.523 269.588 259.413Z" fill="white"/>
<path d="M269.637 265.631C269.211 265.031 270.037 264.645 270.377 264.283C271.254 263.422 272.054 262.485 272.767 261.483C273.405 260.857 273.615 259.065 274.245 258.813C274.505 258.839 274.533 259.141 274.413 259.327C274.325 260.399 270.743 266.497 269.637 265.631Z" fill="white"/>
<path d="M349.858 131.999C349.802 130.737 349.9 129.463 349.6 128.221C349.599 128.239 349.599 128.257 349.6 128.275C349.078 127.005 350.566 126.791 350.298 127.755C350.6 128.369 351.532 133.945 349.858 131.999Z" fill="white"/>
<path d="M352.477 130.468C352.103 129.812 352.382 128.836 352.344 128.08V128.068C352.344 127.986 352.345 127.906 352.361 127.824C352.361 127.756 352.361 127.69 352.377 127.624C352.615 126.516 352.469 128.56 352.505 128.824C352.369 129.27 353.161 130.488 352.477 130.468Z" fill="white"/>
<path d="M253.255 189.785C252.361 188.333 258.765 184.619 259.795 183.335C263.211 179.501 265.559 174.609 266.715 169.619L266.699 169.697C267.523 165.671 267.499 161.553 267.199 157.473V157.511C267.185 157.269 267.169 157.025 267.155 156.783C266.207 147.921 266.773 149.183 267.681 156.943C268.191 161.421 268.433 165.969 267.587 170.423V170.387C266.091 176.677 263.231 183.291 257.629 186.921C256.691 187.323 253.783 190.705 253.255 189.785Z" fill="white"/>
<path d="M232.787 213.764C230.951 213.084 233.885 208.588 234.721 207.632C239.407 202.186 245.721 198.388 252.433 195.962C257.223 193.854 261.201 192.362 262.767 186.866C262.861 186.636 263.101 186.188 263.387 186.442C263.565 186.816 263.039 187.184 263.013 187.59C263.014 187.583 263.014 187.577 263.013 187.57C261.527 194.206 254.477 196.202 249.077 198.816C245.077 200.74 241.323 203.192 238.105 206.262L238.185 206.186C236.657 207.676 235.049 209.22 234.235 211.236C233.755 212.028 233.971 213.686 232.787 213.764Z" fill="white"/>
<path d="M234.938 222.282C234.898 220.782 235.428 219.32 235.878 217.906C235.866 217.936 235.856 217.966 235.846 217.996C236.259 216.838 236.8 215.73 237.46 214.692C237.684 214.27 241.214 209.47 240.816 211.576L240.832 211.558C240.832 211.546 240.846 211.534 240.854 211.524C239.054 213.702 237.494 216.168 236.794 218.94C236.517 219.947 236.343 220.979 236.276 222.022C236.326 222.798 235.068 223.198 234.938 222.282Z" fill="white"/>
<path d="M224.365 244.035C222.389 243.167 225.697 241.775 226.247 240.967C232.223 236.011 226.349 227.657 229.915 221.611C229.959 221.525 230.035 221.46 230.126 221.428C230.218 221.397 230.318 221.402 230.405 221.443C230.861 221.843 230.115 222.359 230.065 222.809C229.491 224.575 229.287 226.44 229.465 228.289C229.665 231.757 231.019 235.407 229.503 238.759C228.357 240.861 226.615 243.123 224.365 244.035Z" fill="white"/>
<path d="M228.421 252.381C228.001 251.871 228.453 251.293 228.895 250.981C229.647 250.221 230.324 249.39 230.917 248.499L230.899 248.527C231.039 248.313 231.179 248.097 231.321 247.883C231.307 247.902 231.294 247.921 231.283 247.941C232.019 246.791 232.587 245.517 232.643 244.141C232.643 244.157 232.643 244.175 232.643 244.191L232.661 243.943C232.662 243.959 232.662 243.975 232.661 243.991C232.691 243.478 232.691 242.963 232.661 242.449V242.491C232.661 242.201 232.519 241.759 232.901 241.663C233.551 241.687 233.257 244.559 233.263 245.151C233.359 246.265 229.651 253.749 228.421 252.381Z" fill="white"/>
<path d="M265.703 200.139C265.065 199.319 266.953 198.415 267.155 197.539C267.677 197.087 267.993 194.189 268.613 194.739C268.769 195.713 266.965 200.683 265.703 200.139Z" fill="white"/>
<path d="M316.58 153.715C316.598 153.073 316.706 152.439 316.756 151.801V151.817C317.46 146.143 316.206 143.095 311.51 139.805H311.524H311.54C311.51 139.785 311.48 139.765 311.452 139.743L311.472 139.757L311.354 139.677L311.388 139.701C306.046 136.501 298.212 137.513 292.4 138.949L292.456 138.933C290.126 139.601 287.782 140.221 285.444 140.853H285.472L285 140.999L285.042 140.987L284.974 141.005H285.002C283.674 141.361 282.376 141.805 281.056 142.189H281.092L280.446 142.367C278.22 142.885 275.818 143.229 273.556 142.783H273.576L273.388 142.727C273.172 142.635 272.664 142.527 272.776 142.213C272.786 142.191 272.801 142.172 272.821 142.158C272.841 142.144 272.864 142.136 272.888 142.134C272.912 142.132 272.936 142.136 272.958 142.147C272.98 142.157 272.998 142.173 273.012 142.193C273.06 142.239 273.117 142.275 273.18 142.299H273.164C276.578 143.163 280.174 141.899 283.406 140.809C290.018 138.823 296.606 136.197 303.606 136.393H303.734C308.934 135.993 313.898 138.523 316.866 142.769C318.482 145.215 318.356 148.335 318.128 151.143V151.041L318.098 151.477C318.098 151.459 318.098 151.439 318.098 151.419C317.866 152.331 318.308 154.045 317.17 154.357C317.087 154.358 317.006 154.342 316.93 154.309C316.854 154.277 316.787 154.229 316.731 154.168C316.675 154.108 316.633 154.036 316.607 153.958C316.581 153.88 316.572 153.797 316.58 153.715Z" fill="white"/>
<path d="M328.673 174.799C322.807 170.931 320.503 168.577 320.055 161.241V161.271C320.055 161.007 319.833 160.035 320.349 160.327C320.415 160.777 320.475 161.247 320.567 161.703V161.667C321.113 163.955 321.529 166.407 323.071 168.267L323.087 168.287C324.631 170.779 327.515 171.713 329.617 173.587C330.263 174.145 329.381 175.357 328.673 174.799Z" fill="white"/>
<path d="M326.095 179.543C325.221 178.343 324.427 177.057 323.195 176.193C322.811 176.103 322.925 175.517 323.275 175.461C323.699 175.485 324.029 175.899 324.375 176.125C324.975 176.795 327.539 178.609 326.831 179.511C326.787 179.564 326.732 179.608 326.67 179.639C326.608 179.67 326.54 179.688 326.47 179.691C326.401 179.694 326.332 179.682 326.267 179.657C326.202 179.631 326.144 179.592 326.095 179.543Z" fill="white"/>
<path d="M345.987 226.049C344.273 225.533 346.037 222.943 346.403 221.883C346.383 221.927 346.361 221.969 346.339 222.013C346.389 221.915 346.437 221.813 346.487 221.715C346.465 221.757 346.443 221.801 346.423 221.845C350.573 212.735 359.991 209.307 355.763 197.679V197.689C355.563 197.209 356.379 196.781 356.495 197.385C356.759 198.965 357.555 200.421 357.651 202.041C357.939 205.139 357.397 208.359 355.727 211.019C353.757 214.171 350.957 216.745 349.249 220.073C348.579 221.343 347.891 222.609 347.391 223.959C347.099 224.735 347.093 226.069 345.987 226.049Z" fill="white"/>
<path d="M349.61 249.616C348.624 248.502 351.24 247.062 351.392 245.738C351.378 245.776 351.364 245.814 351.352 245.852C353.592 239.958 348.29 231.342 350.968 226.234C351.378 226.484 350.578 227.882 350.674 228.42C350.675 228.409 350.675 228.398 350.674 228.386C350.649 228.676 350.638 228.966 350.642 229.256C350.643 229.244 350.643 229.232 350.642 229.22C350.67 229.848 350.751 230.472 350.884 231.086V231.07C350.884 231.084 350.884 231.1 350.884 231.114C350.884 231.128 350.884 231.102 350.884 231.096C351.926 236.438 355.028 242.444 352.084 247.668C351.496 248.38 350.736 250.198 349.61 249.616Z" fill="white"/>
<path d="M149.864 326.087C145.738 325.979 141.608 325.873 137.48 325.687H137.44C132.228 325.477 127.04 325.069 121.814 325.069H121.934C109.486 324.935 97.0515 325.537 84.6035 325.847H84.7195H84.0315H84.1475C81.1195 325.805 78.0895 325.917 75.0615 325.825H75.0835C74.3915 325.825 73.6975 325.825 73.0055 325.813H73.1175C58.9175 325.131 54.7635 321.859 54.8515 307.275C54.7702 298.325 54.7429 289.379 54.7695 280.437C53.0995 279.939 54.1135 274.757 54.0555 273.237C54.0315 269.325 53.6555 265.425 53.6655 261.515C52.6235 255.453 51.9135 249.257 52.3495 243.087C52.5175 241.959 51.4695 239.833 52.8895 239.371C52.5375 231.771 50.5535 223.995 52.1355 216.329C52.5015 213.095 53.4255 209.489 55.8455 207.179C57.0835 206.245 58.5795 205.733 59.8675 204.867C60.5975 203.965 63.1135 201.949 63.2515 204.221C66.1275 201.821 68.0195 209.511 69.3615 211.249C70.8295 214.341 73.2115 216.889 75.4875 219.403C83.3555 227.693 94.6535 231.641 105.414 234.657C112.398 237.017 119.552 238.843 126.814 240.121C131.378 241.045 135.774 242.653 140.402 243.285C140.788 233.713 141.162 224.047 139.802 214.533C139.304 212.017 138.264 209.659 137.346 207.275C136.176 205.007 136.318 204.239 137.866 202.239C139.994 198.891 142.586 195.861 144.666 192.469C145.442 191.447 146.302 193.007 145.444 193.375L145.294 193.693C149.58 194.377 150.694 201.739 152.528 205.221C153.91 210.191 155.23 215.197 155.94 220.309C156.49 227.319 156.482 234.383 156.612 241.415C171.646 234.851 168.662 227.863 172.742 250.717C175.206 266.729 176.908 282.849 176.542 299.075C176.632 303.455 176.696 307.839 176.542 312.217C176.292 314.071 176.942 316.377 175.834 317.953C175.662 319.003 174.546 319.141 173.834 318.523L173.954 318.585C169.592 316.985 165.154 315.385 160.588 314.425C157.988 313.689 155.41 312.735 152.676 312.867H152.698C151.616 312.867 150.53 312.857 149.448 312.813C150.352 316.123 151.059 319.484 151.564 322.879C151.93 324.363 152 326.469 149.864 326.087ZM57.4635 314.487C57.4215 314.241 57.3835 313.995 57.3475 313.749C57.3995 314.001 57.4275 314.253 57.4715 314.497L57.4635 314.487Z" fill="#4B6DED"/>
<path d="M107.335 126.314C106.959 124.16 107.401 121.848 107.399 119.65C107.349 119.61 107.31 119.557 107.287 119.496C107.191 118.778 107.637 118.072 107.759 117.366C107.959 116.566 107.813 115.596 108.359 114.94C108.603 113.516 108.881 112.072 108.783 110.622C108.783 110.644 108.783 110.668 108.783 110.69C108.351 105.766 103.131 103.978 99.7132 101.376L99.7592 101.412C96.2632 98.6124 92.8512 95.3484 90.7272 91.3704C87.7712 84.6584 87.5752 76.6724 90.3272 69.8584C95.7972 57.7524 111.439 52.0444 124.025 52.4004C135.533 52.8884 148.079 55.3444 154.025 66.3824C159.377 77.2884 156.117 92.7164 145.025 98.7124L145.093 98.6724C139.199 102.15 132.709 104.434 126.473 107.21L126.535 107.182C119.635 109.614 114.443 114.996 110.987 121.312C110.079 122.108 108.657 127.926 107.335 126.314ZM108.713 122.422C111.263 117.422 114.257 112.458 118.897 109.126L118.823 109.18C118.855 109.158 118.885 109.134 118.915 109.11L118.871 109.144L119.089 108.978L119.043 109.014L119.145 108.936C126.975 103.862 136.411 101.844 144.383 96.9784L144.309 97.0204L144.279 97.0384C145.272 96.4592 146.226 95.8165 147.135 95.1144L147.039 95.1864C155.463 88.5124 157.143 74.9344 151.639 65.9284C151.663 65.9624 151.685 65.9964 151.709 66.0284C150.867 64.7757 149.906 63.607 148.839 62.5384C148.865 62.5684 148.895 62.5964 148.923 62.6264C144.781 58.5304 139.323 56.1124 133.585 55.3504C128.545 54.6224 123.409 53.8664 118.317 54.4664C107.285 56.1004 94.2752 61.4764 91.1532 73.2444C89.5712 79.4064 90.0992 86.5364 93.4792 92.0204C95.6552 94.8624 98.1372 97.5284 100.965 99.7344C107.205 103.838 112.101 106.77 109.485 115.196C109.437 117.6 108.695 120 108.713 122.422Z" fill="#4B6DED"/>
<path d="M111.598 89.4262C110.452 88.3342 111.488 85.6262 111.616 84.1722C112.28 80.3522 115.74 77.8322 116.672 74.1722C117.756 68.3522 112.072 66.2422 107.872 69.3502C103.58 73.9842 106.832 79.1502 111.484 73.1502C110.454 70.6302 113.284 69.9902 113.22 72.6322C112.62 75.7382 107.034 80.3282 104.572 76.7082C101.588 70.5322 108.048 63.9562 114.444 65.7702C118.686 66.6902 119.796 71.9382 118.644 75.5802C117.812 78.2182 115.72 80.2002 114.532 82.6702C113.198 84.2462 114.178 90.6142 111.598 89.4262Z" fill="#4B6DED"/>
<path d="M112.759 95.438C111.673 94.494 113.099 92.402 114.311 93.386C115.399 94.33 113.971 96.424 112.759 95.438Z" fill="#4B6DED"/>
<path d="M121.75 85.9832C119.488 83.9292 123.392 72.8452 123.712 69.5832C123.808 68.8772 123.94 68.0352 124.648 67.6912C125.088 66.9272 126.292 67.2912 125.992 68.1912C126.054 71.3212 124.618 74.4212 124.108 77.5192C123.87 79.1192 123.676 80.7352 123.54 82.3512C123.328 83.5712 123.726 86.3992 121.75 85.9832Z" fill="#4B6DED"/>
<path d="M128.513 87.0568C127.039 85.6448 129.991 75.1148 130.409 72.6568C130.991 71.1468 130.767 69.1388 131.907 67.9408C132.729 67.3408 133.765 68.2128 133.507 69.1408V69.1288C132.899 72.1008 131.997 75.0008 131.397 77.9728C131.137 79.8668 130.879 81.7588 130.527 83.6368C130.155 84.7888 130.457 87.7548 128.513 87.0568Z" fill="#4B6DED"/>
<path d="M121.121 92.8013C121.213 92.4573 121.051 92.1213 121.019 91.7833C120.891 91.0833 121.869 90.4333 122.307 91.1373C122.615 91.8033 121.991 92.8793 121.337 93.0913H121.359C121.323 93.0914 121.288 93.0835 121.255 93.0682C121.223 93.0529 121.194 93.0306 121.171 93.0028C121.149 92.975 121.132 92.9425 121.124 92.9077C121.115 92.8728 121.114 92.8365 121.121 92.8013Z" fill="#4B6DED"/>
<path d="M126.745 94.1729C126.443 93.9229 126.501 93.5289 126.505 93.1729C126.409 92.3189 126.065 90.9889 127.205 90.7069C128.541 90.5749 128.149 92.1689 128.031 92.9909C128.209 93.7409 127.519 94.7549 126.745 94.1729Z" fill="#4B6DED"/>
<path d="M120.826 93.6104C120.094 93.2424 120.288 92.1744 120.474 91.5284C120.652 91.0544 121.32 90.8804 121.616 91.3544C122.902 91.6984 122.018 94.0624 120.826 93.6104Z" fill="#4B6DED"/>
<path d="M127.181 93.6361C126.095 92.6921 127.519 90.5981 128.733 91.5821C129.817 92.5261 128.399 94.6201 127.181 93.6361Z" fill="#4B6DED"/>
<path d="M101.561 182.623C97.8411 181.899 101.015 177.121 103.109 176.151H103.093L103.173 176.103L103.133 176.127C104.365 175.527 107.179 173.645 108.295 174.945C110.111 174.885 109.981 177.045 108.895 177.955L108.959 177.875C107.067 180.075 104.501 182.213 101.561 182.623Z" fill="#4B6DED"/>
<path d="M124.251 173.657C121.567 173.323 122.945 170.003 124.507 169.057C126.189 167.805 131.425 165.107 132.049 168.503C132.175 170.895 126.487 174.063 124.251 173.657Z" fill="#4B6DED"/>
<path d="M53.8826 290.854C52.8046 289.814 51.7586 288.738 50.4826 287.93C49.3346 287.278 47.9426 287.082 46.9926 286.086C46.1346 284.898 43.9686 283.306 43.9926 281.886C37.8846 276.588 32.4146 271.668 32.9386 262.854C32.5766 258.38 34.0786 254.2 36.2526 250.358C37.4214 247.762 38.7867 245.26 40.3366 242.872L40.2806 242.97C40.7306 242.202 41.1226 241.408 41.4946 240.598C41.4946 240.598 41.4946 240.612 41.4946 240.62C43.3926 236.439 44.0853 231.81 43.4946 227.256C43.4946 227.282 43.4946 227.308 43.4946 227.334C40.3186 209.658 48.9446 202.204 60.2546 190.686C63.8766 186.44 66.8786 181.118 67.0546 175.426C67.1766 170.084 66.5426 164.78 66.0686 159.472C65.9566 153.83 67.3246 147.756 70.7666 143.2C73.7846 137.432 85.8226 133.858 91.9886 132.494C96.5986 131.494 101.299 131.198 106.003 131.154C108.803 130.818 111.403 131.982 114.031 132.786C120.383 134.634 126.731 137.2 131.059 142.446C138.547 150.692 136.781 163.28 142.999 172.18C145.723 175.93 149.031 179.308 150.745 183.704C152.345 187.304 152.703 191.386 154.499 194.904C158.847 201.052 158.381 208.77 157.699 215.904C157.559 217.614 157.361 219.32 157.183 221.026C157.027 221.992 157.309 224.226 155.845 223.844C154.611 224.244 154.893 222.43 154.629 221.708C154.243 219.432 153.857 217.154 153.585 214.858C152.807 207.908 151.361 200.77 146.763 195.258L146.817 195.33C146.153 194.238 144.561 193.73 144.277 192.444C138.931 188.958 130.755 185.034 124.371 187.244C123.531 188.57 129.069 187.822 129.983 188.504C139.927 192.304 129.883 191.646 130.983 193.504L130.943 193.434C131.299 194.314 133.115 194.598 132.495 195.728C131.527 196.564 126.907 197.222 130.509 198.402C131.475 198.884 130.769 199.982 129.981 200.19C130.967 201.894 132.285 203.88 134.397 204.178C134.225 202.996 134.299 201.558 135.913 202.264C136.513 202.644 137.577 202.53 137.829 203.264C137.935 203.464 137.867 203.74 137.813 203.948C137.305 205.148 138.113 206.386 138.413 207.562C139.47 210.313 140.285 213.15 140.851 216.042C140.967 217.58 142.051 223.688 140.623 224.294C140.423 224.894 139.799 224.928 139.295 224.708C137.141 224.308 134.988 223.896 132.835 223.472C128.469 222.308 124.065 222.774 123.329 217.142C122.369 211.3 120.759 205.394 120.833 199.46C121.033 198.128 122.515 198.354 123.519 198.408C125.006 198.414 126.491 198.29 127.957 198.036C127.567 196.416 129.407 195.494 130.671 195.036C128.913 193.612 130.071 191.362 132.017 190.912C130.948 190.31 129.796 189.868 128.599 189.6C126.685 189.08 121.679 189.634 123.655 186.25C126.905 183.976 132.179 185.222 135.715 186.372C135.415 179.786 132.223 173.66 130.619 167.316C128.357 160.882 127.635 154.01 125.153 147.648C125.165 147.678 125.177 147.706 125.187 147.736C124.745 146.632 124.221 145.562 123.619 144.536L123.639 144.57C123.463 144.259 123.27 143.958 123.063 143.668C122.943 143.516 122.827 143.362 122.705 143.214C119.573 142.662 116.451 141.73 113.229 142.014C108.249 142.252 103.383 143.496 98.5146 144.508C94.2366 145.08 88.2186 147.294 84.2686 145.198C84.4821 145.739 84.6611 146.293 84.8046 146.856C84.8226 146.926 84.8406 146.996 84.8566 147.066C86.0186 151.51 84.7986 156.052 84.1426 160.478C83.4006 166.578 83.0086 172.84 84.4526 178.878C84.4426 178.84 84.4326 178.804 84.4246 178.766C85.0366 182.722 90.5426 190.41 82.3666 185.292C74.7666 188.972 79.6266 199.636 86.6626 194.892C88.3266 193.092 88.6206 198.654 89.1166 199.558V199.548C90.3166 204.674 90.5846 209.968 91.7786 215.098C91.7966 216.194 93.3166 217.91 92.0106 218.616C90.8106 218.642 89.5706 216.392 88.5006 215.704C84.9226 211.98 80.4726 209.408 75.7446 207.422C72.7574 205.917 69.5467 204.904 66.2366 204.422C63.3526 204.95 60.2366 204.99 57.8506 206.934C53.7106 210.766 52.7506 216.704 52.7146 222.106C52.5358 229.566 52.7615 237.03 53.3906 244.466C53.6126 253.762 54.5066 263.028 54.8006 272.322C55.1586 278.138 54.5326 283.992 55.1106 289.79C55.4306 290.632 54.7586 291.684 53.8826 290.854ZM40.8246 277.2L40.8446 277.218L40.4906 276.888L40.8146 277.192L40.7906 277.17L40.8246 277.2ZM44.5586 224.158C44.5577 224.176 44.5577 224.194 44.5586 224.212C44.5346 224.012 44.5126 223.8 44.4926 223.612C44.5206 223.8 44.5386 223.976 44.5586 224.162V224.158Z" fill="#231F20"/>
<path d="M119.536 179.082C117.936 179.032 116.558 178.204 115.056 177.77C114.298 177.556 113.17 177.17 113.522 176.17C114.578 174.17 119.322 178.678 121.424 176.996C117.236 172.396 113.572 167.118 111.334 161.256L111.316 161.214C110.404 159.55 111.544 159.084 111.492 160C112.05 161.658 112.922 163.2 113.794 164.704L113.764 164.648C115.522 167.558 117.622 170.248 119.62 173.002C120.584 174.462 122.8 175.564 122.654 177.496C122.166 178.642 120.704 179.16 119.536 179.082Z" fill="#231F20"/>
<path d="M118.615 188.801C118.367 186.449 120.863 184.031 123.093 183.569C123.603 183.517 123.867 184.169 123.649 184.569C123.325 185.089 122.567 185.041 122.087 185.369C119.271 186.721 119.363 189.527 118.615 188.801Z" fill="#231F20"/>
<path d="M98.8111 183.974C98.4251 182.704 99.3351 181.162 99.5451 179.848C99.5582 179.801 99.5809 179.757 99.6118 179.719C99.6426 179.681 99.681 179.649 99.7245 179.627C99.7681 179.604 99.8158 179.59 99.8647 179.587C99.9137 179.583 99.9628 179.59 100.009 179.606C100.633 180.18 99.4271 181.948 99.3891 182.788V182.766C99.3891 182.78 99.3891 182.796 99.3751 182.812C99.1751 183.142 99.4231 184.156 98.8111 183.974Z" fill="#231F20"/>
<path d="M101.552 181.913C101.498 181.863 101.461 181.799 101.443 181.728C101.425 181.657 101.428 181.583 101.452 181.513C101.822 180.129 102.13 178.687 102.57 177.313C102.61 177.22 102.685 177.145 102.778 177.104C102.872 177.064 102.978 177.06 103.074 177.095C103.732 177.639 102.902 178.695 102.774 179.363C102.384 179.801 102.212 182.385 101.552 181.913Z" fill="#231F20"/>
<path d="M106.02 179.402C106.062 178.28 106.724 177.118 106.906 175.966V175.976C106.924 175.914 106.94 175.854 106.956 175.792C106.956 175.81 106.956 175.826 106.942 175.842C107.26 174.432 108.164 175.27 107.454 176.268C107.068 177.24 106.7 178.222 106.278 179.18V179.16L106.238 179.256C106.228 179.34 106.136 179.492 106.02 179.402Z" fill="#231F20"/>
<path d="M123.883 173.681C123.063 173.517 124.015 168.621 124.893 169.049C125.713 169.575 123.915 171.865 124.233 172.973C124.463 173.231 124.263 173.767 123.883 173.681Z" fill="#231F20"/>
<path d="M126.497 171.905C126.453 170.603 126.935 169.177 127.437 167.971C127.491 167.883 127.578 167.82 127.678 167.794C127.778 167.768 127.885 167.782 127.975 167.833C128.575 168.515 127.469 169.453 127.403 170.233C127.133 170.601 127.173 172.481 126.497 171.905Z" fill="#231F20"/>
<path d="M129.798 170.4C129.556 169.902 129.862 166.638 130.624 166.828C131.524 167.34 130.024 169.2 130.152 170.114C130.362 170.352 129.976 170.686 129.798 170.4Z" fill="#231F20"/>
<path d="M119.425 163.523C116.529 163.507 118.097 158.923 118.903 157.417C120.181 154.867 123.587 152.273 126.423 153.897C127.675 153.433 127.731 155.897 127.601 156.673C127.601 156.651 127.601 156.627 127.601 156.605C127.719 160.907 123.399 163.677 119.425 163.523ZM119.813 162.323C123.813 162.421 127.765 159.061 126.305 154.893L126.353 154.955C126.281 154.867 126.226 154.766 126.189 154.659C125.137 154.307 123.989 154.583 123.015 155.075L123.031 155.065C120.343 156.375 119.091 159.345 118.975 162.203C119.243 162.303 119.529 162.343 119.813 162.319V162.323Z" fill="#231F20"/>
<path d="M122.831 159.095C119.741 157.957 121.041 153.595 124.197 154.451C126.921 155.377 125.675 159.981 122.831 159.095Z" fill="#231F20"/>
<path d="M94.0732 172.481C92.5112 172.435 91.0412 171.681 89.9032 170.645L89.9212 170.663C89.0592 169.367 90.8352 167.117 91.7432 166.163C95.5172 162.847 101.827 162.715 105.601 166.055C105.927 170.271 97.5552 173.019 94.0732 172.481ZM95.3672 171.047C98.8652 170.847 102.779 169.791 104.731 166.647C103.873 166.263 103.001 165.907 102.113 165.603C98.1332 164.187 92.6292 165.489 90.4692 169.331C90.6932 169.381 90.8572 169.563 91.0452 169.685L90.9652 169.625C92.2144 170.612 93.7768 171.117 95.3672 171.047Z" fill="#231F20"/>
<path d="M95.2866 169.214C93.7846 169.084 92.9406 166.91 94.3926 166.104C94.6986 164.904 96.0186 164.204 97.1926 164.504C100.729 165.62 99.5246 170.064 95.2866 169.214Z" fill="#231F20"/>
<path d="M90.1563 168.184C90.0983 168.118 89.9423 168.068 89.9983 167.96C90.1063 167.832 90.4123 168.246 90.1563 168.184Z" fill="#231F20"/>
<path d="M89.0305 169.135C87.9413 168.984 86.8864 168.646 85.9125 168.135C85.6245 167.837 85.8745 167.191 86.3125 167.295C86.5876 167.42 86.8547 167.562 87.1125 167.719L87.0625 167.693C88.2505 168.393 89.0625 168.533 90.3545 168.493C90.6145 169.083 89.4285 169.133 89.0305 169.135Z" fill="#231F20"/>
<path d="M90.8791 166.683C89.5611 166.447 88.1011 166.069 86.9471 165.449C86.6571 165.049 86.9911 164.323 87.5191 164.513C88.8371 165.031 90.0811 165.753 91.4611 166.099C92.3351 166.509 91.3791 166.801 90.8791 166.683Z" fill="#231F20"/>
<path d="M93.6814 164.613C92.4234 164.291 91.2974 163.613 90.0814 163.189C89.2094 162.485 90.0334 161.275 91.4114 162.623C91.7474 163.097 94.6874 164.141 93.9514 164.645C93.8602 164.649 93.769 164.638 93.6814 164.613Z" fill="#231F20"/>
<path d="M119.632 156.899C119.612 156.875 119.597 156.848 119.588 156.819C119.684 155.119 119.336 153.317 119.73 151.655C119.93 151.055 120.74 151.369 120.588 151.943C120.312 153.185 120.362 154.471 120.174 155.729V155.715C120.076 156.035 120.168 157.143 119.632 156.899Z" fill="#231F20"/>
<path d="M122.241 154.2C122.067 153.43 122.139 152.614 122.009 151.83V151.884C121.969 151.388 121.685 150.266 122.469 150.284C122.581 150.323 122.676 150.402 122.733 150.506C122.791 150.61 122.807 150.733 122.779 150.848C122.545 151.4 122.735 154.28 122.241 154.2Z" fill="#231F20"/>
<path d="M124.533 153.964C124.519 153.944 124.51 153.922 124.507 153.898C124.499 153.864 124.494 153.829 124.491 153.794C124.491 153.794 124.491 153.812 124.491 153.822C124.439 152.568 124.317 151.294 124.447 150.044C124.464 149.928 124.523 149.822 124.611 149.746C124.7 149.669 124.813 149.627 124.931 149.626C125.835 149.962 125.035 151.314 125.093 152.026C124.945 152.402 125.099 154.244 124.533 153.964Z" fill="#231F20"/>
<path d="M110.798 149.482C109.524 148.87 112.068 146.682 112.622 146.116C115.576 143.988 119.72 142.346 123.272 143.872C123.704 144.006 124.106 144.382 123.922 144.872C123.502 145.812 122.356 144.82 121.63 144.836C118.608 144.582 115.548 145.888 113.058 147.516C112.198 148.016 111.692 149.104 110.798 149.482Z" fill="#231F20"/>
<path d="M84.2099 162.176C83.7199 161.132 84.6399 159.84 85.1159 158.902C87.1159 155.268 90.6919 153.048 94.2959 151.24L94.2199 151.282C95.0199 150.844 95.8499 150.458 96.6539 150.022L96.5739 150.064C97.4879 149.78 98.4019 148.028 99.0099 148.316C99.1665 148.398 99.2878 148.534 99.3511 148.699C99.4145 148.864 99.4155 149.046 99.3539 149.212C98.3999 150.934 96.3959 151.688 94.7539 152.612L94.8359 152.568C90.8359 154.546 86.7939 157.106 84.8639 161.312L84.8879 161.256C84.7937 161.498 84.7123 161.744 84.6439 161.994C84.6373 162.041 84.6186 162.085 84.5896 162.123C84.5606 162.161 84.5224 162.19 84.4786 162.208C84.4349 162.227 84.3871 162.233 84.34 162.228C84.2929 162.222 84.2481 162.204 84.2099 162.176Z" fill="#231F20"/>
<path d="M168.607 330.624C164.731 328.742 160.977 326.448 156.629 325.746C154.965 325.634 153.311 325.392 151.643 325.346C151.075 325.346 150.025 325.386 150.157 324.546C150.221 323.596 154.915 324.654 155.913 324.458C158.913 324.78 161.849 325.78 164.535 327.134C166.485 327.824 168.055 329.418 170.135 329.696C169.595 327.79 167.935 326.678 166.661 325.31C165.905 322.074 171.823 328.01 174.419 326.814C173.245 324.98 171.371 323.814 169.619 322.614C168.647 321.814 169.545 320.684 170.619 321.312C173.433 321.512 176.113 322.43 178.893 322.776C174.395 317.838 163.129 315.596 156.623 314.376C154.611 314.126 152.594 313.914 150.573 313.74C149.549 313.41 147.451 314.042 147.461 312.474C147.729 310.6 150.919 312.19 152.213 311.976C157.117 312.376 162.013 313.176 166.695 314.726L166.617 314.7L167.391 314.958L167.279 314.92L167.763 315.082L167.653 315.044C171.757 316.522 176.253 317.934 179.301 321.204C183.057 326.334 174.657 322.804 172.501 322.79C177.391 326.554 176.167 329.952 170.199 327.15C171.541 329.188 171.997 331.82 168.607 330.624Z" fill="#231F20"/>
<path d="M138.733 307.678C137.547 292.54 138.017 277.26 138.911 262.11V262.122C139.619 256.598 139.453 250.922 140.277 245.448C140.877 244.92 140.901 246.048 140.877 246.422C140.857 250.84 140.791 255.264 140.477 259.672V259.598C139.647 275.424 139.057 291.306 139.863 307.14C140.113 307.862 139.027 308.542 138.733 307.678Z" fill="white"/>
<path d="M160.141 308.661C159.781 306.035 159.477 303.403 159.373 300.751V300.775C159.34 300.186 159.306 299.594 159.273 299.001C159.273 299.037 159.273 299.071 159.273 299.107C159.273 298.923 159.253 298.739 159.241 298.555C159.241 298.577 159.241 298.599 159.241 298.621C158.347 287.621 157.259 276.659 156.933 265.621C156.713 258.895 156.377 252.133 156.521 245.421C156.503 245.003 156.971 243.821 157.339 244.621C157.393 246.563 157.569 248.509 157.695 250.451V250.435C157.715 250.775 157.733 251.113 157.753 251.453C157.754 251.446 157.754 251.44 157.753 251.433V251.525C157.753 251.503 157.753 251.481 157.753 251.459V251.559C157.753 251.539 157.753 251.517 157.753 251.497C157.929 255.595 158.015 259.697 158.255 263.795C158.255 263.779 158.255 263.761 158.255 263.745V263.853V263.827C158.275 264.151 158.295 264.477 158.313 264.805V264.785L158.373 265.835V265.801C158.733 273.273 159.153 280.725 159.891 288.169C159.892 288.156 159.892 288.144 159.891 288.131C160.173 293.117 160.677 298.083 160.855 303.075C160.655 304.449 162.185 308.527 160.927 309.097C160.847 309.124 160.762 309.134 160.678 309.126C160.594 309.118 160.512 309.093 160.438 309.052C160.364 309.011 160.3 308.955 160.249 308.888C160.197 308.82 160.161 308.743 160.141 308.661Z" fill="white"/>
<path d="M81.3991 306.134C79.1791 293.17 79.5991 279.902 79.3271 266.788C79.2151 261.688 78.8971 256.588 78.8291 251.494C78.7431 247.694 77.8011 243.762 78.6411 240.03C79.4131 239.508 79.1391 241.116 79.1911 241.514C79.1911 243.44 79.3911 245.356 79.5671 247.27C80.8031 260.834 80.7331 274.47 81.0551 288.07C81.4651 292.28 81.4211 296.514 81.9371 300.716C82.0702 302.331 82.2938 303.936 82.6071 305.526C82.8531 306.222 81.7531 306.944 81.3991 306.134Z" fill="white"/>
<path d="M146.096 311.628C145.142 311.428 144.212 311.12 143.276 310.85H143.298L142.98 310.762H143L142.91 310.738C141.148 310.23 139.378 309.738 137.55 309.554H137.566L137.004 309.478L137.098 309.49L135.936 309.338L135.844 309.326L135.644 309.3H135.612H135.628L135.428 309.274L135.52 309.286L135.32 309.258H135.354C134.058 309.086 132.768 308.876 131.474 308.698H131.534L131.056 308.634H131.07C118.84 307.152 106.532 306.526 94.2098 306.518C90.2398 306.188 86.1298 307.194 82.2418 306.19C81.3198 305.854 81.9978 304.37 82.8158 305.006L82.7978 304.994C82.8123 305.003 82.8258 305.013 82.8378 305.024L82.8198 305.008C82.8102 305.001 82.8015 304.993 82.7938 304.984C85.3758 305.542 88.1458 305.126 90.7838 305.072C93.5838 305.02 96.3838 305.224 99.1938 305.2C111.216 305.43 123.228 306.2 135.136 307.888L135.044 307.876L135.708 307.966H135.684C138.442 308.262 141.17 308.714 143.818 309.566H143.792C144.792 309.986 146.058 309.966 146.938 310.532C147.304 311.084 146.67 311.766 146.096 311.628Z" fill="white"/>
<path d="M96.4402 287.332C94.8264 287.192 93.2286 286.906 91.6662 286.478H91.6942L91.5582 286.44L91.6482 286.466L91.5262 286.43H91.5442L91.4562 286.404L91.4902 286.414L91.3222 286.368L91.4102 286.394C89.2302 285.862 87.3002 284.624 85.7542 283.016C85.3542 282.53 82.6802 279.758 84.2522 279.75H84.2102C88.9202 286.364 97.9843 286.804 105.314 285.178C106.789 284.777 108.239 284.293 109.658 283.728C110.366 283.552 111.38 282.488 111.952 283.354C112.272 284.712 108.908 285.316 107.952 285.824C104.29 287.2 100.326 287.554 96.4402 287.332Z" fill="white"/>
<path d="M131.455 286.941C131.163 286.898 130.876 286.831 130.595 286.741H130.621C129.241 286.263 127.135 285.923 126.621 284.385C126.915 283.673 127.851 285.125 128.421 285.163C128.713 285.286 129.01 285.394 129.313 285.487L129.261 285.473L129.397 285.511H129.359C129.485 285.541 129.611 285.583 129.737 285.617L129.683 285.601C130.311 285.955 132.191 285.615 132.125 286.539C132.083 286.677 131.991 286.794 131.867 286.868C131.744 286.942 131.597 286.968 131.455 286.941Z" fill="white"/>
<path d="M82.84 248.113C82.124 247.835 82.896 246.913 82.942 246.405C83.436 244.561 84.088 242.671 84.104 240.751C85.68 238.601 83.97 248.801 82.84 248.113Z" fill="white"/>
<path d="M87.6119 247.135C87.5709 247.128 87.532 247.111 87.4984 247.087C87.4647 247.063 87.4371 247.031 87.4178 246.994C87.3984 246.957 87.3878 246.917 87.3868 246.875C87.3858 246.834 87.3943 246.792 87.4119 246.755C88.0089 245.32 88.3962 243.807 88.5619 242.263C89.5519 240.955 88.2959 247.601 87.6119 247.135Z" fill="white"/>
<path d="M61.4576 210.023C61.2576 209.187 64.6816 208.707 65.2136 209.061C65.5316 209.371 65.0736 209.661 64.7636 209.519C63.9056 209.311 61.7496 210.733 61.4576 210.023Z" fill="white"/>
<path d="M71.5234 227.831C70.7874 227.177 73.5754 225.231 74.0154 224.581L73.9774 224.617C75.0094 223.311 75.5774 224.941 74.5774 224.975C73.7974 225.491 72.2454 228.073 71.5234 227.831Z" fill="white"/>
<path d="M100.09 243.025C99.7085 242.123 99.395 241.195 99.1516 240.247C98.8436 240.213 98.9076 239.887 99.0116 239.685L98.9996 239.719C99.7656 238.627 99.9696 241.145 100.346 241.565C100.462 242.055 101.21 242.717 100.676 243.143C100.631 243.176 100.579 243.2 100.524 243.213C100.469 243.225 100.411 243.226 100.356 243.215C100.301 243.204 100.248 243.181 100.202 243.148C100.157 243.115 100.118 243.073 100.09 243.025Z" fill="white"/>
<path d="M106.743 242.738C106.68 242.108 106.68 241.473 106.743 240.844C106.742 240.852 106.742 240.861 106.743 240.87C106.675 240.558 107.045 240.224 107.301 240.494C107.429 240.802 107.279 241.182 107.337 241.516C107.275 241.99 107.799 242.732 107.207 242.986C107.16 243.005 107.11 243.014 107.06 243.011C107.009 243.009 106.96 242.995 106.916 242.972C106.871 242.948 106.833 242.915 106.803 242.874C106.773 242.834 106.752 242.787 106.743 242.738Z" fill="white"/>
<path d="M165.18 246.224C164.022 245.72 162.58 245.436 161.648 244.6C161.546 244.236 162.048 243.938 162.318 244.16C163.098 244.714 166.33 244.656 165.918 245.932C165.846 246.057 165.734 246.154 165.6 246.207C165.466 246.26 165.318 246.266 165.18 246.224Z" fill="white"/>
<path d="M163.836 248.55C163.284 248.326 161.476 247.788 162.018 246.996C162.544 246.656 162.938 247.528 163.508 247.532C163.888 247.66 164.696 247.638 164.484 248.248C164.432 248.368 164.337 248.466 164.217 248.521C164.098 248.577 163.962 248.587 163.836 248.55Z" fill="white"/>
<path d="M66.6535 191.4C64.1935 189.874 73.3595 177.762 74.7055 175.64C77.7975 170.96 80.0595 165.628 80.5255 160C80.8375 156.228 81.6015 152.464 81.1255 148.674C81.1875 147.924 80.5455 146.638 81.3255 146.196C81.8475 146.196 81.4855 147.496 81.6955 147.892C82.4175 153.646 81.8435 159.572 80.9695 165.292C79.6115 171.382 76.0895 176.604 72.6235 181.676L72.6555 181.628L72.3195 182.138V182.122L72.2475 182.232L72.2635 182.208L72.2495 182.23L72.2675 182.202C70.8815 184.202 69.5415 186.23 68.6155 188.49C67.9855 189.37 68.0115 191.414 66.6535 191.4Z" fill="white"/>
<path d="M61.0105 202.648C59.6325 201.132 62.3725 200.774 63.4005 200.588C65.6165 199.854 67.7605 198.756 69.4305 197.1L69.3745 197.152C73.3425 194.07 73.8425 188.996 74.9445 184.452C75.3305 183.358 75.5165 181.792 76.4305 181.08C76.7885 181.328 76.2085 181.902 76.1865 182.256C75.0665 186.056 75.3865 190.21 73.7665 193.876C71.9825 197.504 68.7125 200.394 64.9525 201.848L64.9825 201.834C63.7505 202.272 62.3165 202.83 61.0105 202.648Z" fill="white"/>
<path d="M52.265 208.824C50.665 208.384 55.959 203.054 56.443 204.164C55.3753 204.977 54.4609 205.973 53.743 207.106C53.249 207.624 53.199 209.018 52.265 208.824Z" fill="white"/>
<path d="M44.4668 251.6C43.4208 250.8 44.7828 249.714 45.1968 248.946C46.0308 247.62 46.8228 246.264 47.5428 244.872C49.6188 240.272 49.8768 234.964 49.0388 230.044L49.0208 229.956L49.0328 230.014C48.9068 229.396 48.7828 228.782 48.6628 228.164C48.6628 228.19 48.6628 228.218 48.6788 228.242C48.2468 225.642 47.4608 223.004 47.7408 220.338C47.8988 219.798 47.7628 218.714 48.3688 218.524C48.4006 218.535 48.4297 218.552 48.4542 218.574C48.4787 218.597 48.498 218.625 48.5108 218.655C48.5235 218.686 48.5294 218.719 48.528 218.753C48.5267 218.786 48.5181 218.819 48.5028 218.848L48.5148 218.812C47.5008 224.136 51.0208 229.116 50.9628 234.444C51.3975 239.536 50.0847 244.624 47.2408 248.87C46.4828 249.764 45.8988 252 44.4668 251.6Z" fill="white"/>
<path d="M46.8107 274.024C43.9327 270.77 44.0847 264.866 45.0107 260.824C45.6647 257.856 47.9487 255.58 48.6787 252.664V252.712C48.6987 252.61 48.7207 252.512 48.7407 252.406C48.7407 252.42 48.7407 252.436 48.7407 252.452C48.9407 251.942 48.7147 250.984 49.3167 250.77C49.6527 250.77 49.6507 251.132 49.5687 251.37C49.5687 251.37 49.5687 251.37 49.5687 251.356C49.5567 251.418 49.5427 251.482 49.5307 251.544C49.5297 251.528 49.5297 251.512 49.5307 251.496C49.1607 255.134 46.3827 257.908 45.8227 261.496C45.8227 261.472 45.8227 261.448 45.8387 261.422C45.2833 264.717 45.5899 268.101 46.7287 271.244C46.9704 271.809 47.3442 272.308 47.8187 272.7C48.5287 273.306 47.5987 274.616 46.8107 274.024Z" fill="white"/>
<path d="M129.905 154.624C129.031 153.146 129.441 151.024 128.333 149.534C128.335 149.542 128.339 149.549 128.343 149.556C128.111 149.114 127.879 148.674 127.649 148.23L127.699 148.33L127.373 147.7C127.389 147.734 127.407 147.766 127.423 147.798C124.849 141.654 117.691 140.118 111.697 139.63C111.393 139.602 109.943 139.57 110.729 139.16C111.085 139.228 111.448 139.264 111.811 139.266C118.297 139.302 126.239 140.3 128.983 147.142L128.931 147.044C129.669 147.972 132.643 155.272 129.905 154.624Z" fill="white"/>
<path d="M145.571 183.612C144.497 181.012 142.391 179.312 140.315 177.55C136.675 174.302 134.297 169.873 133.599 165.044C133.277 163.032 133.101 161 132.947 158.968C132.971 158.652 132.747 158.078 133.133 157.952C133.161 157.952 133.188 157.957 133.213 157.969C133.238 157.98 133.26 157.997 133.278 158.018C133.296 158.039 133.308 158.064 133.315 158.091C133.322 158.117 133.323 158.145 133.317 158.172C133.382 159.848 133.577 161.517 133.901 163.162C133.9 163.154 133.9 163.146 133.901 163.138C133.931 163.29 133.959 163.442 133.989 163.594C134.671 167.238 136.297 170.736 138.789 173.492C140.937 175.776 143.639 177.578 145.429 180.158C145.873 181.134 147.463 182.832 146.449 183.772C146.382 183.821 146.305 183.856 146.224 183.874C146.142 183.893 146.058 183.894 145.976 183.88C145.894 183.865 145.816 183.833 145.747 183.787C145.677 183.741 145.617 183.682 145.571 183.612Z" fill="white"/>
<path d="M141.054 184.8C140.942 183.922 139.016 181.9 140.098 181.364C140.376 181.332 140.402 181.616 140.436 181.812C140.436 181.796 140.426 181.782 140.422 181.768C140.48 181.913 140.547 182.054 140.622 182.19C140.808 182.508 141.012 182.81 141.222 183.108C141.484 183.46 141.766 183.804 141.994 184.18C142.358 184.74 141.398 185.496 141.054 184.8Z" fill="white"/>
</svg>
