<svg width="161" height="278" viewBox="0 0 161 278" fill="none" xmlns="http://www.w3.org/2000/svg">
<path d="M112.037 277.641C103.419 277.701 94.8186 277.161 86.2366 276.475C80.8786 276.291 75.5166 276.309 70.1686 275.943C60.5686 275.721 50.8906 273.911 41.3006 274.805C20.6306 278.327 20.3866 266.145 22.0826 249.585C22.6326 241.323 22.2666 233.035 22.8066 224.771C22.8066 224.723 22.8066 224.675 22.8066 224.625C23.0726 223.343 22.5726 221.693 23.4526 220.645C23.8846 210.659 24.3666 200.673 25.2346 190.717C25.9426 186.583 26.0206 182.361 26.8806 178.253C28.5506 173.215 29.9906 167.853 32.9726 163.413C32.3006 162.341 33.3886 161.465 34.1966 162.573C34.6846 162.421 35.0506 162.773 35.1366 163.229C37.1066 164.553 39.4226 165.189 41.5826 166.123C43.1386 166.807 43.9826 167.047 43.5666 169.037C43.2346 169.875 42.2146 169.731 41.5806 170.193C40.9706 172.193 42.2826 174.271 43.3086 175.917C45.5086 178.819 46.0566 182.631 48.4586 185.391C52.3186 184.257 55.6226 181.773 59.4746 180.621C58.6166 178.279 57.5726 176.021 56.5426 173.745C56.1426 171.125 58.4366 172.107 59.8726 172.721H59.8606C62.8866 173.629 65.9506 174.425 69.0606 175.029C76.8766 177.251 84.7026 179.897 92.8906 180.289C97.1686 180.187 101.365 177.925 104.383 174.975C106.243 172.809 106.541 169.687 106.825 166.943C106.825 166.959 106.825 166.975 106.825 166.991V166.911V166.921C106.824 166.913 106.824 166.904 106.825 166.895C107.103 165.633 106.303 163.169 108.137 162.961C109.723 158.865 112.391 155.389 114.503 151.581C116.503 147.711 118.675 143.909 120.303 139.869C122.073 135.295 123.801 130.709 125.303 126.037C127.847 119.437 130.789 113.009 133.231 106.377C133.215 106.429 133.197 106.481 133.179 106.533C134.779 100.395 138.835 93.9732 135.323 87.7892C133.123 82.2492 129.267 77.6512 125.181 73.3892C119.199 66.3572 111.707 60.6492 104.035 55.5732C99.6646 52.8292 94.2346 51.4252 90.7306 47.5112C90.3586 45.7812 92.4766 43.8232 93.2866 42.3472C95.9726 38.0932 98.3966 33.6712 100.957 29.3472C101.581 23.3972 113.797 36.7172 115.585 38.0992C121.175 43.3352 127.117 48.2152 132.653 53.5212L132.575 53.4412C138.521 59.9872 144.461 66.4952 150.943 72.5292L150.839 72.4212C155.713 77.6992 159.667 84.5612 160.073 91.8572C160.343 96.4572 158.711 100.857 157.655 105.275C155.887 112.833 153.055 120.075 150.703 127.463C148.503 133.063 145.629 138.361 143.439 143.963C144.239 144.993 142.897 146.085 142.571 147.065C141.879 148.653 141.171 150.233 140.333 151.751C137.037 160.847 130.807 168.463 127.069 177.339L126.983 177.593C126.983 177.593 126.983 177.579 126.983 177.571C125.639 181.825 123.521 185.807 122.407 190.143C122.123 192.835 122.207 195.561 121.899 198.261L121.911 198.081C121.601 202.805 121.951 207.695 120.369 212.233C119.219 215.233 117.445 217.923 115.847 220.703C114.873 222.519 115.017 224.591 114.773 226.575C113.815 234.759 114.347 243.031 114.539 251.247C115.351 259.099 116.257 266.985 115.469 274.883V274.871C115.531 277.609 114.533 277.915 112.037 277.641Z" fill="#4B6DED"/>
<path d="M46.8791 46.8725C44.2431 45.3705 45.1751 41.5645 43.8231 39.2025C41.8231 36.0745 37.5611 34.5085 36.9971 30.4285C35.2631 19.9965 49.5071 15.4505 54.0771 24.9805C55.9851 29.8445 52.4011 31.8985 51.5191 35.8465C51.3191 38.7965 53.4711 42.4465 51.3371 44.9845C50.1431 46.0705 48.5451 47.0285 46.8791 46.8725ZM47.5991 44.7025C54.1231 44.6125 47.7331 36.9925 50.7711 32.7425C52.1111 30.5425 53.4071 27.6545 51.6991 25.2905C50.3231 23.5585 48.2491 21.9085 45.9291 22.0425C41.2171 21.5225 37.4291 26.7945 39.3171 31.1145C40.6531 34.3685 44.5731 35.7905 45.2891 39.3645C47.3591 39.3345 46.3071 43.4485 47.6011 44.7025H47.5991Z" fill="#4B6DED"/>
<path d="M46.6112 45.6961C46.1732 44.5301 45.8652 42.3641 46.6292 41.2961C45.8492 38.7741 45.6691 36.0621 44.7431 33.5961C41.7151 32.1221 40.2691 25.1761 44.3431 27.5961C44.4451 26.5961 45.5292 25.8281 46.3731 26.5961C46.4687 26.4091 46.6126 26.251 46.7898 26.1383C46.967 26.0255 47.1711 25.9622 47.381 25.9548C47.5909 25.9475 47.7989 25.9964 47.9836 26.0965C48.1682 26.1966 48.3228 26.3442 48.4312 26.5241C49.2312 28.1561 48.3952 30.1041 48.6312 31.8541C48.8912 34.6541 49.3752 37.4421 49.8092 40.2281C50.0552 41.6081 50.9672 46.3441 48.2352 44.8161C48.1668 44.8273 48.0967 44.816 48.0352 44.7841C48.2592 45.5741 47.1992 46.3641 46.6112 45.6961ZM48.2911 41.9281C47.9531 38.0001 47.0652 34.0781 47.3252 30.1281C47.3242 30.1434 47.3242 30.1588 47.3252 30.1741L47.3552 29.7301V29.8341L47.3931 29.3061V29.4081C47.4111 29.1501 47.4312 28.8921 47.4492 28.6341V28.7041C47.4492 28.3041 47.5652 27.8341 47.3812 27.4561C47.2472 28.0341 47.4711 28.9161 46.6951 29.0961C45.9511 29.2221 45.9591 28.2721 45.5931 27.8621C45.4771 28.6341 45.8052 30.5141 44.4732 30.0881C43.9752 29.7421 43.9492 28.9821 43.3512 28.7181C43.4912 31.1521 45.8991 31.4541 46.4471 33.4781C47.2671 36.1981 46.9071 39.4601 48.2911 41.9281Z" fill="#4B6DED"/>
<path d="M29.0686 34.3842C27.6686 33.4762 31.6686 32.5162 32.2986 32.4922C33.3406 32.4922 33.0986 34.1682 32.1386 34.0922H32.1646C31.1146 34.0082 30.1006 34.2982 29.0686 34.3842Z" fill="#4B6DED"/>
<path d="M33.3412 25.9972C32.7412 25.7872 28.6012 26.1332 29.4712 25.0492C30.7192 24.6132 32.2212 24.7532 33.5572 24.6152C34.3892 24.7152 34.1192 26.0612 33.3412 25.9972Z" fill="#4B6DED"/>
<path d="M37.2355 19.4926C36.7515 18.8106 36.5975 17.9546 36.2115 17.2186L36.2355 17.2646C36.1475 17.0926 36.0615 16.9166 35.9675 16.7486C35.3675 16.2926 36.1935 15.8066 36.5875 16.4566C37.0675 17.3506 38.8455 18.4786 38.0275 19.5286C37.9738 19.5796 37.9104 19.6192 37.8411 19.6451C37.7717 19.6709 37.6978 19.6825 37.6239 19.6792C37.5499 19.6758 37.4774 19.6576 37.4107 19.6255C37.3439 19.5934 37.2844 19.5483 37.2355 19.4926Z" fill="#4B6DED"/>
<path d="M44.6502 16.3711C43.7902 15.7011 44.5642 14.3591 44.4762 13.4331V13.4451C44.8062 12.4611 45.1822 14.6171 45.3142 14.8691V14.8571C45.3142 14.8811 45.3302 14.9071 45.3402 14.9311C45.6702 15.5091 45.5302 16.5991 44.6502 16.3711Z" fill="#4B6DED"/>
<path d="M51.3409 17.8364C50.8109 17.7704 50.9589 16.9444 51.4189 16.9204C52.4689 16.0624 53.1729 14.6544 54.3869 14.0684C55.6449 14.1504 54.7749 15.4204 54.1049 15.7444L54.1169 15.7344C53.1489 16.3524 52.3449 17.3564 51.3409 17.8364Z" fill="#4B6DED"/>
<path d="M56.3437 23.3971C55.7437 23.0311 56.6617 22.5971 56.9637 22.3971C57.7337 22.0251 58.3418 21.2751 59.1818 21.0871C60.2018 20.9791 60.1678 22.6191 59.1818 22.4871C58.2458 22.7971 57.3077 23.2691 56.3437 23.3971Z" fill="#4B6DED"/>
<path d="M59.281 31.9746C58.881 31.8806 56.247 31.7486 57.217 31.0206L57.185 31.0406C57.959 30.7426 58.861 30.2406 59.703 30.4706C60.449 30.7846 60.057 32.0546 59.281 31.9746Z" fill="#4B6DED"/>
<path d="M53.8707 65.5687C53.2467 62.6827 50.9307 60.1687 48.6967 58.2607C45.7387 55.9227 42.0127 54.9887 38.6287 53.4467C32.6427 51.1967 26.5387 49.0207 21.4187 45.0707C16.4947 41.1647 11.9867 35.3767 12.2007 28.8007C12.4427 16.8347 21.9747 5.74871 33.2007 2.28471C44.1387 -0.715288 56.6827 1.03471 66.0587 7.52271C70.6827 11.4527 71.6987 17.8907 71.2587 23.6527V23.6167C71.2587 23.6647 71.2587 23.7127 71.2587 23.7607V23.7387C70.5067 31.7267 65.8067 38.7387 61.7947 45.4767C58.5547 49.9327 55.6167 55.1007 55.2207 60.6967C55.2217 60.6861 55.2217 60.6754 55.2207 60.6647C55.0467 62.0867 55.2587 63.5047 55.4447 64.9127C55.6307 65.7987 54.2787 66.5367 53.8707 65.5687ZM31.4707 48.1507C38.9547 51.7307 49.5747 53.4247 53.4027 61.5767C53.4807 56.5767 55.6407 51.8287 58.1427 47.5767L58.1247 47.6067C60.7362 43.9253 63.0757 40.0584 65.1247 36.0367C67.9587 31.0367 70.0207 25.4987 69.4647 19.6647V19.6767C69.4647 19.6547 69.4647 19.6347 69.4647 19.6127V19.7307V19.6967C69.4647 19.7327 69.4647 19.7687 69.4647 19.8047V19.7307V19.7527C69.4194 18.6432 69.2857 17.539 69.0647 16.4507C69.0647 16.4967 69.0827 16.5407 69.0907 16.5847C68.1047 11.2727 64.2587 7.90072 59.3707 6.08272C53.1547 3.30672 46.2287 2.51271 39.4847 3.11471C27.6847 4.01871 17.2507 13.3747 14.6627 24.8467C12.1347 35.8847 22.3687 44.2467 31.4687 48.1507H31.4707Z" fill="#4B6DED"/>
<path d="M76.1866 128.719C71.8626 126.865 81.0446 120.201 83.4266 121.141C87.9846 123.151 78.7286 130.221 76.1866 128.719Z" fill="#4B6DED"/>
<path d="M95.6935 119.799C92.8355 116.799 100.169 112.881 102.715 113.509C106.811 115.699 98.0695 121.829 95.6935 119.799Z" fill="#4B6DED"/>
<path d="M18.8002 226.965C15.6502 227.125 13.2342 224.779 11.5862 222.345C9.30421 219.129 9.0022 215.059 9.1282 211.235V211.261C9.1282 211.175 9.1282 211.087 9.1282 211.001V211.025C9.1282 210.955 9.1282 210.885 9.1282 210.815V210.861C9.8522 205.647 6.7282 205.073 3.3282 202.399C0.172203 199.359 -0.367791 194.497 1.18421 190.525C3.77221 183.873 11.5842 183.087 12.8322 175.539C13.5162 171.361 13.0582 167.047 14.1002 162.905C15.4362 155.951 20.7602 150.669 27.0362 147.809L26.9482 147.859C31.5022 145.475 35.4802 142.155 38.2082 137.757C40.2082 135.235 41.6082 132.275 41.4982 128.993C41.9202 120.487 39.0782 111.555 42.6502 103.457C43.2502 101.939 44.9962 96.7007 46.9542 97.2787C53.7002 90.4587 63.8842 89.5047 72.9302 88.3107C77.7682 87.6707 82.5302 86.5347 87.3702 85.9487C93.7142 85.1967 100.724 86.3687 105.77 90.4847C111.398 95.3327 112.032 103.457 112.696 110.393C112.77 117.449 113.896 122.923 120.548 126.583C121.598 127.349 123.348 127.687 123.636 129.111C125.45 129.253 122.436 136.911 121.984 138.093C122 138.059 122.014 138.023 122.03 137.989L121.81 138.507C121.824 138.473 121.838 138.437 121.854 138.403C119.384 144.35 116.558 150.143 113.392 155.751L113.254 155.985C112.364 157.585 111.24 159.045 110.414 160.681C109.64 161.881 109.06 163.701 107.674 164.269C106.074 166.399 99.8202 169.251 97.2102 167.935C94.4882 165.889 95.4582 161.757 94.7622 158.787C94.7622 158.833 94.7722 158.879 94.7782 158.925C94.7662 158.811 94.7522 158.695 94.7402 158.579C94.7402 158.625 94.7402 158.673 94.7542 158.719C94.6082 155.719 94.2762 149.529 96.3202 147.293C98.2142 147.115 100.188 147.643 102.12 147.375C103.834 146.955 109.464 146.497 108.696 143.959C108.172 140.895 107.852 137.683 106.308 134.929C106.198 134.962 106.086 134.989 105.972 135.009C105.13 136.047 103.154 136.149 101.96 136.863C98.0082 138.331 93.2642 139.137 89.2842 137.415C87.3082 136.483 84.3482 134.625 85.0522 132.079C85.4302 131.427 86.3102 131.445 86.9522 131.217C88.9922 130.817 91.0022 130.311 93.0202 129.817C98.1182 128.393 103.22 126.797 108.13 124.855C106.33 121.515 105.028 117.873 103.53 114.377L103.562 114.455C103.2 113.557 102.8 112.677 102.442 111.777L102.454 111.809C101.406 108.609 99.8542 105.665 98.1302 102.791C97.1802 100.839 96.1702 98.9147 94.7542 97.2527L94.8102 97.3247L94.6322 97.0967C89.5522 89.3647 77.1922 94.2007 70.1722 96.6347H70.1882C66.3322 97.9467 62.7122 100.663 58.4862 100.399C61.4022 105.247 60.3482 111.031 59.5862 116.319C59.1482 120.179 58.8662 124.093 59.3862 127.959C59.3862 127.925 59.3862 127.893 59.3862 127.861C59.3422 131.107 62.5862 133.735 59.1862 134.331L59.2742 134.281C56.9042 135.897 56.1342 140.481 58.6242 142.293L58.5502 142.243C60.4982 143.749 63.0102 143.285 65.2922 143.493H65.1962C67.6462 144.219 68.0462 155.471 68.1762 157.997C68.2942 160.037 68.4462 162.079 68.6662 164.111C68.6662 165.089 69.7022 167.417 67.9982 167.311C63.4242 164.243 58.5982 161.553 53.2882 159.939C46.0042 156.509 37.3902 156.257 32.9302 164.049C25.9682 174.545 27.2762 187.871 25.5162 199.825C25.5162 199.791 25.5262 199.757 25.5322 199.725C24.6782 206.033 23.8062 212.357 23.5322 218.725C23.2962 221.197 23.2342 223.725 22.9862 226.165C22.0462 227.265 20.1282 226.757 18.8002 226.965Z" fill="#231F20"/>
<path d="M113.82 222.523C112.654 222.423 113.178 221.021 113.984 220.747C115.044 220.161 115.784 219.197 116.696 218.415C121.672 213.777 119.096 199.173 120.544 192.389L120.526 192.509C121.796 185.109 125.958 178.619 129.536 172.145C131.508 168.163 133.4 164.131 135.312 160.119C135.294 160.161 135.276 160.201 135.26 160.241C135.998 158.393 136.876 156.605 137.672 154.783C137.686 154.745 137.704 154.709 137.72 154.671V154.683L137.764 154.579V154.589C139.666 149.891 141.526 145.155 143.69 140.575C143.308 140.145 143.718 139.341 144.304 139.647C145.536 140.847 146.724 142.149 147.872 143.447C149.396 145.481 150.772 147.713 151.168 150.265C153.84 162.665 140.114 167.151 142.556 181.723V181.701C143.27 186.801 144.214 192.003 143.534 197.157C142.212 205.757 137.702 213.557 129.682 217.407L129.706 217.393L129.666 217.415C129.652 217.421 129.64 217.428 129.628 217.437H129.614H129.6C127.16 219.037 124.362 219.837 121.576 220.587C120.554 220.735 119.31 221.821 118.352 221.231C116.78 221.429 115.334 222.157 113.82 222.523ZM142.07 189.067C142.05 188.867 142.028 188.667 142.008 188.467V188.495C142.009 188.479 142.009 188.463 142.008 188.447C142.026 188.649 142.048 188.859 142.07 189.067Z" fill="#231F20"/>
<path d="M47.718 187.344C46.81 182.784 42.268 179.872 40.918 175.44C40.43 173.876 39.718 172.176 40.068 170.524C40.51 168.862 42.65 167.924 43.778 169.524C43.406 167.342 46.122 164.01 47.68 166.946C47.856 164.992 50.114 162.946 51.55 165.146C53.078 162.794 55.688 164.708 55.906 166.932C56.2596 169.368 57.0323 171.725 58.19 173.898C58.8918 175.513 59.7204 177.071 60.668 178.556C61.34 179.51 62.548 181.514 60.656 181.832C59.828 181.8 59.684 180.788 59.284 180.232C57.628 177.654 56.458 174.832 55.324 171.988C54.3 170.136 55.276 166.566 53.228 165.56H53.26C52.402 165.602 52.372 166.63 52.292 167.278C52.2 167.862 51.406 168.214 51.034 167.666C50.792 166.688 50.116 164.428 49.034 166.18C48.402 167.046 48.906 168.968 47.966 169.34C46.912 169.214 47.166 167.522 46.412 166.922L46.46 166.968C46.4167 166.923 46.3698 166.882 46.32 166.846L46.374 166.882C46.2943 166.821 46.2009 166.78 46.102 166.764L46.164 166.782C44.024 167.2 44.834 170.04 44.964 171.56C44.844 172.178 44.08 172.228 43.8 171.696C39.832 166.678 42.08 175.414 43.316 177.026C45.116 180.166 48.092 183.148 48.39 186.876C48.566 187.246 47.974 187.816 47.718 187.344Z" fill="#231F20"/>
<path d="M90.4655 46.7807C81.3175 44.9387 83.7455 38.0027 90.3855 34.5807C92.0675 33.3807 96.5195 32.7307 95.4855 36.0407C94.7315 37.2187 93.3895 37.8727 92.3595 38.7847C93.2055 38.7847 95.8495 37.7707 95.8295 39.1427C95.6575 40.3067 94.1735 39.6487 93.3735 39.8647C92.4355 39.9947 89.8255 40.5427 90.7855 38.7887C91.8935 37.5167 93.6055 36.8967 94.7155 35.6327C94.7155 35.6547 94.6915 35.6747 94.6815 35.6947C95.0415 32.3607 84.0675 39.1507 86.2395 42.6407C87.1035 44.7587 89.7175 44.9987 91.2835 46.3907C91.5835 46.9207 90.7875 46.9807 90.4655 46.7807Z" fill="#231F20"/>
<path d="M85.6125 39.9243L85.6305 39.9383C85.6078 39.9226 85.5818 39.9123 85.5545 39.9083H85.5245C83.2825 39.2363 80.4085 37.9403 79.9785 35.3803C79.7625 33.0803 82.1605 32.2063 84.0765 32.3923C81.6925 29.3923 86.1424 26.9923 88.8184 27.7923C87.5664 25.2903 91.3005 24.5483 92.8045 25.8843C92.6185 23.4663 95.9385 24.8323 97.1865 25.3203L97.1144 25.2863C98.0324 25.8863 104.1 28.1123 101.462 29.3403C101.364 29.3561 101.264 29.3471 101.17 29.3143C101.076 29.2815 100.992 29.2258 100.924 29.1523C99.6805 27.9123 97.9885 27.1783 96.4605 26.3343L96.5345 26.3663C95.7334 26.0044 94.8751 25.7857 93.9985 25.7203C94.1425 26.4103 94.8264 27.9563 93.5424 27.8303C92.5044 26.9903 91.2685 26.0203 89.8745 26.6643C90.0745 27.4643 91.1524 28.0263 90.9884 28.9543C90.9064 29.4283 90.2865 29.7663 89.9305 29.3543C88.4585 28.8223 86.7465 28.5763 85.3745 29.5003C84.9405 29.7683 84.2744 30.1543 84.6144 30.7443C84.8424 31.6463 86.3264 32.5763 85.5384 33.5043C84.4684 33.8783 83.1385 33.5743 82.0345 33.9643C79.4225 36.0123 84.4725 38.3803 85.8085 39.5643C86.1125 39.6463 85.8525 40.1163 85.6125 39.9243Z" fill="#231F20"/>
<path d="M94.5731 125.15C93.2491 125.088 91.9551 124.734 90.6751 124.406L90.7611 124.43C88.8391 124.398 89.2491 122.63 90.3611 122.802C91.0688 123.097 91.7942 123.349 92.5331 123.554L92.4531 123.534C92.7651 123.612 93.0771 123.692 93.3871 123.774C98.8131 125.128 90.6891 119.574 89.9871 118.336C87.8391 116.136 85.7871 113.556 84.7871 110.63C84.8231 108.958 89.5871 115.924 90.3651 116.252C92.2731 118.302 94.6711 119.97 96.2911 122.252C97.0751 123.524 96.0911 125.268 94.5731 125.15Z" fill="#231F20"/>
<path d="M90.4274 113.881C89.6954 113.621 88.8954 112.843 89.4174 112.045C88.4174 107.175 94.9914 103.817 98.9734 105.831C100.527 108.549 97.5554 111.683 95.2514 112.941C93.8734 113.865 92.0614 114.439 90.4274 113.881ZM92.6714 112.465C95.3134 112.013 98.8034 109.823 98.4054 106.763C95.0354 105.671 90.0174 107.683 90.0694 111.679C91.1014 112.233 91.2674 112.625 92.6714 112.465Z" fill="#231F20"/>
<path d="M69.8783 120.057C68.8043 119.805 65.5363 120.545 65.3783 119.177C64.8383 118.759 65.2103 117.841 65.3343 117.279C66.1463 114.339 69.1343 112.701 72.0303 112.465C74.9143 111.887 77.6203 113.383 79.8063 115.119C80.5263 115.919 79.3542 116.845 78.8202 117.405C76.4742 119.757 73.0463 120.129 69.8783 120.057ZM71.7882 118.615C74.4082 118.637 77.1123 118.001 78.8543 115.899C77.4363 115.345 76.2142 114.347 74.7402 113.939C71.2942 113.221 66.7882 114.553 65.8922 118.339C67.8402 118.273 69.8242 118.649 71.7882 118.615Z" fill="#231F20"/>
<path d="M71.716 117.55C68.88 116.706 70.716 112.21 73.316 113.518C75.972 114.776 74.236 118.052 71.716 117.55ZM72.394 115.83C72.37 115.816 72.344 115.794 72.314 115.806L72.394 115.83Z" fill="#231F20"/>
<path d="M93.4666 110.455C90.9566 109.789 91.7246 106.197 94.2486 106.469C97.4146 106.771 96.2006 110.923 93.4666 110.455Z" fill="#231F20"/>
<path d="M71.7099 121.512C71.4259 121.386 70.0559 121.478 70.2659 121.066C70.9299 120.846 71.6839 121.094 72.3819 120.984C73.1559 120.942 73.8799 120.654 74.5999 120.394C76.1199 121.07 72.1999 121.742 71.7099 121.512Z" fill="#231F20"/>
<path d="M95.1221 114.181C94.6801 114.181 94.9081 113.437 95.2701 113.679C96.2581 113.189 97.0821 112.449 97.8341 111.653C97.8876 111.588 97.9638 111.544 98.0476 111.533C98.1314 111.521 98.2166 111.541 98.2861 111.589C98.8781 112.461 95.9181 114.363 95.1221 114.181Z" fill="#231F20"/>
<path d="M75.9705 127.911C75.5445 127.623 76.8045 124.029 76.9025 125.489C76.9139 125.545 76.9088 125.603 76.8879 125.657C76.867 125.71 76.831 125.756 76.7845 125.789C76.4765 126.209 76.7665 128.525 75.9705 127.911Z" fill="#231F20"/>
<path d="M78.4155 127.519C77.6035 127.341 78.6615 124.133 79.1875 124.223C79.1875 125.131 78.6575 126.045 78.8135 126.995C78.8336 127.056 78.8385 127.122 78.8278 127.185C78.8171 127.249 78.791 127.309 78.7519 127.361C78.7127 127.412 78.6617 127.454 78.6031 127.481C78.5445 127.509 78.4801 127.521 78.4155 127.519Z" fill="#231F20"/>
<path d="M81.4726 126.451C80.6726 125.747 81.3706 123.381 82.0546 122.737C82.3726 122.649 82.4766 123.119 82.2326 123.271C81.986 123.969 81.8872 124.71 81.9426 125.447C82.0846 125.851 82.0906 126.581 81.4726 126.451Z" fill="#231F20"/>
<path d="M97.0003 119.502C96.0343 119.424 97.0703 115.79 97.7503 115.852C98.2543 116.318 97.1683 117.378 97.3503 118.094C97.3503 118.076 97.3503 118.058 97.3503 118.04C97.2223 118.516 97.7023 119.398 97.0003 119.502Z" fill="#231F20"/>
<path d="M99.1641 118.026C98.5061 117.69 99.7441 114.506 100.342 114.914C100.354 114.954 100.35 114.997 100.331 115.034C100.312 115.071 100.279 115.1 100.24 115.114C99.6401 115.736 100.036 118.416 99.1641 118.026Z" fill="#231F20"/>
<path d="M101.483 117.254C101.315 116.288 101.535 114.894 102.221 114.154C102.361 114.12 102.381 114.336 102.261 114.372C102.235 114.411 102.213 114.452 102.195 114.496C102.196 114.49 102.196 114.484 102.195 114.478C102.028 114.947 101.948 115.442 101.959 115.94C101.959 115.94 101.959 115.926 101.959 115.92C101.919 116.316 102.237 117.624 101.483 117.254Z" fill="#231F20"/>
<path d="M91.6155 107.338C91.5255 106.91 91.8436 106.406 91.9016 105.956C91.9016 105.968 91.9016 105.98 91.9016 105.99C92.2256 104.672 92.6536 103.36 92.7296 101.99C92.7404 101.928 92.7697 101.871 92.8136 101.826C92.8575 101.781 92.9139 101.751 92.9756 101.738C93.8956 102.106 92.1456 106.222 91.9756 107.172L91.9636 107.202C91.9076 107.334 91.7375 107.466 91.6155 107.338Z" fill="#231F20"/>
<path d="M93.8105 105.736C93.8396 105.544 93.8892 105.356 93.9585 105.174C93.9576 105.184 93.9576 105.194 93.9585 105.204C94.2425 104.038 94.5285 102.864 94.5005 101.662C94.5154 101.583 94.5562 101.51 94.6167 101.456C94.6771 101.402 94.7537 101.37 94.8345 101.364C95.3885 101.492 94.9845 102.284 95.0025 102.678C94.8825 103.122 94.3485 106.162 93.8105 105.736Z" fill="#231F20"/>
<path d="M95.7577 105.198C95.7526 105.175 95.7526 105.151 95.7577 105.128C95.7812 105.02 95.8105 104.913 95.8457 104.808C95.8457 104.808 95.8457 104.808 95.8457 104.818C95.9246 104.521 95.9874 104.219 96.0337 103.914L96.0697 103.666V103.624V103.638C96.3037 103.114 95.8697 100.89 96.9197 101.594C97.0697 101.95 96.3257 105.818 95.7577 105.198Z" fill="#231F20"/>
<path d="M64.6019 116.758C63.8979 116.57 61.6019 116.514 61.7319 115.558C62.0919 114.758 64.0259 116.176 64.8119 116.12C66.9459 116.016 66.0019 116.822 64.6019 116.758Z" fill="#231F20"/>
<path d="M65.9831 115.281C65.3748 115.242 64.7719 115.143 64.1831 114.985C63.7717 114.867 63.3704 114.716 62.9831 114.533C62.5831 114.453 62.3471 113.933 62.7651 113.697C63.2111 113.617 63.6031 114.097 64.0291 114.205L63.9891 114.185C64.3279 114.332 64.6776 114.453 65.0351 114.545H65.0131H65.0511L65.1851 114.581L65.1471 114.571C65.8191 114.853 66.7931 114.723 67.3471 115.109C67.0531 115.455 66.3991 115.235 65.9831 115.281Z" fill="#231F20"/>
<path d="M68.951 113.971C67.371 113.673 65.785 113.371 64.211 113.059C63.637 112.831 63.921 111.871 64.519 111.957C66.069 112.403 67.589 113.019 69.163 113.377C69.575 113.467 69.325 114.171 68.951 113.971Z" fill="#231F20"/>
<path d="M61.071 110.244C60.407 108.948 61.233 107.17 61.683 105.866C62.959 102.444 67.193 101.266 70.533 101.584C71.223 101.556 73.455 102.712 71.963 103.172C71.1324 102.808 70.2185 102.677 69.319 102.792H69.403C68.8549 102.828 68.3102 102.904 67.773 103.018L67.859 102.998C66.021 103.512 63.829 104.108 62.899 105.936L62.913 105.914L62.851 106.018L62.899 105.938C62.261 107.037 61.8248 108.241 61.611 109.494C61.6765 109.576 61.7083 109.679 61.7002 109.784C61.692 109.888 61.6444 109.985 61.567 110.056V110.042C61.548 110.088 61.52 110.13 61.4847 110.165C61.4494 110.2 61.4074 110.228 61.3612 110.247C61.3151 110.266 61.2657 110.275 61.2158 110.275C61.166 110.274 61.1168 110.264 61.071 110.244Z" fill="#231F20"/>
<path d="M83.4798 101.91C82.4798 98.824 84.7898 94.842 87.9918 94.146C89.0058 94.02 90.1598 93.58 91.1298 94.04C91.2309 94.1052 91.3061 94.2035 91.3426 94.3181C91.3791 94.4326 91.3746 94.5563 91.3298 94.668C91.0558 95.298 90.1718 94.916 89.6398 95.188L89.7218 95.17L88.7998 95.398L88.8638 95.382C85.9098 95.896 83.9418 98.838 83.9798 101.726C83.8938 101.922 83.6658 102.064 83.4798 101.91Z" fill="#231F20"/>
<path d="M32.1828 257.999C31.4348 257.881 31.6148 256.895 32.2068 256.665C33.1308 255.865 33.6188 254.665 34.1948 253.615C36.7048 248.929 37.9648 243.815 38.7668 238.579C41.0828 227.523 43.1528 216.417 45.2108 205.305C46.0308 200.587 47.0108 195.905 47.6788 191.157C47.8028 190.725 47.8208 189.675 48.4308 189.941C48.6308 191.439 48.2668 193.035 48.2468 194.563C48.2468 194.535 48.2468 194.509 48.2468 194.481C48.2468 194.581 48.2328 194.681 48.2268 194.781C46.4828 210.371 42.9188 225.693 39.8628 241.059V241.035C39.7935 241.379 39.7228 241.722 39.6508 242.065V242.043L39.6088 242.243C39.6088 242.215 39.6208 242.189 39.6248 242.161C38.9008 244.783 38.4448 247.533 37.2048 249.977L37.2488 249.885L37.1348 250.119C37.1488 250.087 37.1648 250.057 37.1808 250.025C35.5808 252.599 34.9528 256.483 32.1828 257.999Z" fill="white"/>
<path d="M47.5043 272.059C46.4803 271.301 49.0923 268.981 49.3863 267.973C51.0423 265.127 51.9863 261.949 53.0923 258.867C53.0885 258.882 53.0838 258.896 53.0783 258.909L53.1163 258.801C53.1163 258.817 53.1043 258.833 53.1003 258.847C57.6423 245.143 61.6203 231.135 62.7423 216.685C64.0003 205.653 64.3003 194.523 62.6523 183.513C62.3623 183.399 62.5423 182.883 62.8383 182.913C64.3263 183.113 64.4223 188.245 64.8383 189.603C66.3963 200.921 64.9983 212.369 63.6383 223.637C62.1183 234.381 59.2843 244.889 55.7803 255.149C54.6003 258.545 50.6483 271.399 47.5043 272.059Z" fill="white"/>
<path d="M97.4985 224.676C96.4265 224.614 92.4485 224.368 92.4985 222.988L92.4805 223.04C92.5325 222.802 92.8485 222.618 93.0565 222.788C95.0685 223.492 97.2865 223.426 99.3765 223.142H99.2905C100.598 222.976 101.89 222.708 103.156 222.342H103.142C105.208 221.715 107.203 220.876 109.096 219.84L109.064 219.858L109.148 219.81L109.098 219.838C110.646 218.776 111.394 220.672 108.566 221.752C105.178 223.568 101.354 224.672 97.4985 224.676Z" fill="white"/>
<path d="M71.1209 222.288C69.5527 222.178 68.0147 221.802 66.5729 221.176L66.3189 221.054C65.9989 220.892 64.8469 220.42 65.6509 220.134C68.2629 221.104 71.0809 221.586 73.8209 220.832C73.8887 220.818 73.9586 220.819 74.0261 220.834C74.0936 220.849 74.1572 220.878 74.2128 220.919C74.2685 220.96 74.3148 221.012 74.349 221.072C74.3831 221.132 74.4042 221.199 74.4109 221.268C74.2769 222.542 72.2529 222.11 71.3209 222.284H71.1089L71.1209 222.288Z" fill="white"/>
<path d="M91.1113 189.121C91.1573 188.165 92.3793 188.277 93.0193 187.905C94.2513 187.353 95.4193 186.663 96.5873 185.999C97.5766 185.441 98.5353 184.83 99.4593 184.169L99.4273 184.193L99.7153 183.979L99.9153 183.833L99.8653 183.869L99.8433 183.885C101.197 182.848 102.431 181.664 103.525 180.355L103.483 180.407C103.627 180.233 103.773 180.061 103.919 179.889L103.889 179.925C104.725 178.925 105.523 177.865 106.089 176.673L106.077 176.693C106.395 176.179 106.477 175.385 107.057 175.093C107.429 174.983 107.501 175.545 107.183 175.653C107.168 175.68 107.154 175.709 107.141 175.737L107.161 175.695C105.089 181.361 100.411 185.675 95.1613 188.453C94.2453 188.877 91.4953 190.739 91.1113 189.121Z" fill="white"/>
<path d="M85.6921 185.702C85.3221 185.388 85.6021 184.714 86.0701 184.702C87.2961 184.642 88.5105 184.436 89.6881 184.09H89.6661L90.1482 183.958L90.0961 183.972C90.6961 183.992 93.5162 182.428 93.3542 183.432C92.5302 184.398 89.7221 184.868 88.4181 185.412L88.4622 185.4C87.5842 185.58 86.5681 185.998 85.6921 185.702Z" fill="white"/>
<path d="M121.632 180.858C120.61 180.566 121.548 179.22 121.664 178.55C122.31 176.608 122.902 174.648 123.492 172.69C123.536 172.212 124.092 170.992 124.432 171.974C124.266 173.032 123.938 174.062 123.702 175.108C123.224 176.15 122.686 180.93 121.632 180.858Z" fill="white"/>
<path d="M125.549 172.149C125.869 169.169 126.621 166.257 126.583 163.239C126.584 163.222 126.584 163.205 126.583 163.187C126.583 163.147 126.583 163.105 126.583 163.065C126.899 161.945 126.463 157.935 127.195 157.563C127.228 157.568 127.26 157.58 127.288 157.599C127.316 157.617 127.34 157.641 127.358 157.67C127.375 157.699 127.386 157.731 127.39 157.764C127.394 157.798 127.39 157.832 127.379 157.863C127.165 158.911 127.337 159.993 127.321 161.053C127.357 164.453 127.277 167.811 126.697 171.171V171.091C126.683 171.277 126.671 171.463 126.657 171.649V171.567C126.865 172.399 125.761 173.257 125.549 172.149Z" fill="white"/>
<path d="M39.359 197.477C39.007 196.643 41.433 195.543 41.931 194.765L41.973 194.727L41.945 194.753C42.8261 193.94 43.6076 193.026 44.273 192.029L44.257 192.053C44.435 191.777 44.605 191.497 44.759 191.209C44.7507 191.175 44.7503 191.14 44.7578 191.106C44.7652 191.072 44.7803 191.04 44.8019 191.013C44.8236 190.986 44.8511 190.964 44.8825 190.949C44.9139 190.934 44.9482 190.926 44.983 190.927C45.867 191.255 43.819 193.641 43.473 194.163L43.489 194.145C42.735 194.855 40.339 198.209 39.359 197.477Z" fill="white"/>
<path d="M31.708 209.399C31.458 209.369 31.55 208.975 31.776 208.999C32.014 208.996 32.2481 208.938 32.46 208.829H32.484H32.474C34.61 207.829 36.362 206.151 37.978 204.465C38.562 204.047 39.09 202.751 39.888 203.017C40.588 203.817 36.73 206.603 36.056 207.231L36.08 207.215C34.756 208.145 33.354 209.229 31.708 209.399Z" fill="white"/>
<path d="M56.5877 212.413C55.9537 211.681 57.4837 210.679 57.8377 210.035L57.8117 210.065L57.9097 209.949L57.8977 209.963C58.5545 209.21 59.1191 208.381 59.5797 207.495C60.2517 206.823 60.6937 202.977 61.5277 203.459C61.2897 205.933 60.0277 208.693 58.3937 210.713C57.7997 211.199 57.4237 212.523 56.5877 212.413Z" fill="white"/>
<path d="M56.6369 218.631C56.2109 218.031 57.0369 217.645 57.3769 217.283C58.2543 216.422 59.0541 215.485 59.7668 214.483C60.4048 213.857 60.6148 212.065 61.2448 211.813C61.5048 211.839 61.5329 212.141 61.4129 212.327C61.3249 213.399 57.7429 219.497 56.6369 218.631Z" fill="white"/>
<path d="M136.858 84.9986C136.802 83.7366 136.9 82.4626 136.6 81.2206C136.599 81.2386 136.599 81.2566 136.6 81.2746C136.078 80.0046 137.566 79.7906 137.298 80.7546C137.6 81.3686 138.532 86.9446 136.858 84.9986Z" fill="white"/>
<path d="M139.477 83.4676C139.103 82.8116 139.382 81.8356 139.344 81.0796V81.0676C139.344 80.9856 139.345 80.9056 139.361 80.8236C139.361 80.7556 139.361 80.6896 139.377 80.6236C139.615 79.5156 139.469 81.5596 139.505 81.8236C139.369 82.2696 140.161 83.4876 139.477 83.4676Z" fill="white"/>
<path d="M40.2552 142.785C39.3612 141.333 45.7652 137.619 46.7952 136.335C50.2112 132.501 52.5592 127.609 53.7152 122.619L53.6992 122.697C54.5232 118.671 54.4992 114.553 54.1992 110.473V110.511C54.1852 110.269 54.1692 110.025 54.1552 109.783C53.2072 100.921 53.7732 102.183 54.6812 109.943C55.1912 114.421 55.4332 118.969 54.5872 123.423V123.387C53.0912 129.677 50.2312 136.291 44.6292 139.921C43.6912 140.323 40.7832 143.705 40.2552 142.785Z" fill="white"/>
<path d="M19.7868 166.764C17.9508 166.084 20.8848 161.588 21.7208 160.632C26.4068 155.186 32.7208 151.388 39.4328 148.962C44.2228 146.854 48.2008 145.362 49.7668 139.866C49.8608 139.636 50.1008 139.188 50.3868 139.442C50.5648 139.816 50.0388 140.184 50.0128 140.59C50.0136 140.583 50.0136 140.577 50.0128 140.57C48.5268 147.206 41.4768 149.202 36.0768 151.816C32.0768 153.74 28.3228 156.192 25.1048 159.262L25.1848 159.186C23.6568 160.676 22.0488 162.22 21.2348 164.236C20.7548 165.028 20.9708 166.686 19.7868 166.764Z" fill="white"/>
<path d="M21.9377 175.282C21.8977 173.782 22.4277 172.32 22.8777 170.906C22.8657 170.936 22.8557 170.966 22.8457 170.996C23.259 169.838 23.8004 168.73 24.4597 167.692C24.6837 167.27 28.2137 162.47 27.8157 164.576L27.8317 164.558C27.8317 164.546 27.8457 164.534 27.8537 164.524C26.0537 166.702 24.4937 169.168 23.7937 171.94C23.5167 172.947 23.3432 173.979 23.2757 175.022C23.3257 175.798 22.0677 176.198 21.9377 175.282Z" fill="white"/>
<path d="M11.3651 197.035C9.38909 196.167 12.6971 194.775 13.2471 193.967C19.2231 189.011 13.3491 180.657 16.9151 174.611C16.9593 174.525 17.035 174.46 17.1263 174.428C17.2176 174.397 17.3175 174.402 17.4051 174.443C17.8611 174.843 17.1151 175.359 17.0651 175.809C16.4912 177.575 16.2869 179.44 16.4651 181.289C16.6651 184.757 18.0191 188.407 16.5031 191.759C15.3571 193.861 13.6151 196.123 11.3651 197.035Z" fill="white"/>
<path d="M15.421 205.381C15.001 204.871 15.453 204.293 15.895 203.981C16.6472 203.221 17.3243 202.39 17.917 201.499L17.899 201.527C18.039 201.313 18.179 201.097 18.321 200.883C18.3072 200.902 18.2945 200.921 18.283 200.941C19.019 199.791 19.587 198.517 19.643 197.141C19.643 197.157 19.643 197.175 19.643 197.191L19.661 196.943C19.662 196.959 19.662 196.975 19.661 196.991C19.691 196.478 19.691 195.963 19.661 195.449V195.491C19.661 195.201 19.519 194.759 19.901 194.663C20.551 194.687 20.257 197.559 20.263 198.151C20.359 199.265 16.651 206.749 15.421 205.381Z" fill="white"/>
<path d="M52.7033 153.139C52.0653 152.319 53.9533 151.415 54.1553 150.539C54.6773 150.087 54.9933 147.189 55.6133 147.739C55.7693 148.713 53.9653 153.683 52.7033 153.139Z" fill="white"/>
<path d="M103.58 106.715C103.598 106.073 103.706 105.439 103.756 104.801V104.817C104.46 99.1429 103.206 96.0949 98.5097 92.8049H98.5237H98.5397C98.5097 92.7849 98.4797 92.7649 98.4517 92.7429L98.4717 92.7569L98.3537 92.6769L98.3877 92.7009C93.0457 89.5009 85.2117 90.5129 79.3997 91.9489L79.4557 91.9329C77.1257 92.6009 74.7817 93.2209 72.4437 93.8529H72.4717L71.9997 93.9989L72.0417 93.9869L71.9737 94.0049H72.0017C70.6737 94.3609 69.3757 94.8049 68.0557 95.1889H68.0917L67.4457 95.3669C65.2197 95.8849 62.8177 96.2289 60.5557 95.7829H60.5757L60.3877 95.7269C60.1717 95.6349 59.6637 95.5269 59.7757 95.2129C59.7857 95.191 59.8014 95.1722 59.8211 95.1583C59.8408 95.1444 59.8638 95.1361 59.8878 95.134C59.9119 95.132 59.936 95.1364 59.9577 95.1467C59.9795 95.1571 59.9981 95.173 60.0117 95.1929C60.0599 95.2393 60.117 95.2754 60.1797 95.2989H60.1637C63.5777 96.1629 67.1737 94.8989 70.4057 93.8089C77.0177 91.8229 83.6057 89.1969 90.6057 89.3929H90.7337C95.9337 88.9929 100.898 91.5229 103.866 95.7689C105.482 98.2149 105.356 101.335 105.128 104.143V104.041L105.098 104.477C105.098 104.459 105.098 104.439 105.098 104.419C104.866 105.331 105.308 107.045 104.17 107.357C104.087 107.358 104.006 107.342 103.93 107.309C103.854 107.277 103.787 107.229 103.731 107.168C103.675 107.108 103.633 107.036 103.607 106.958C103.581 106.88 103.572 106.797 103.58 106.715Z" fill="white"/>
<path d="M115.673 127.799C109.807 123.931 107.503 121.577 107.055 114.241V114.271C107.055 114.007 106.833 113.035 107.349 113.327C107.415 113.777 107.475 114.247 107.567 114.703V114.667C108.113 116.955 108.529 119.407 110.071 121.267L110.087 121.287C111.631 123.779 114.515 124.713 116.617 126.587C117.263 127.145 116.381 128.357 115.673 127.799Z" fill="white"/>
<path d="M113.095 132.543C112.221 131.343 111.427 130.057 110.195 129.193C109.811 129.103 109.925 128.517 110.275 128.461C110.699 128.485 111.029 128.899 111.375 129.125C111.975 129.795 114.539 131.609 113.831 132.511C113.787 132.564 113.732 132.608 113.67 132.639C113.608 132.67 113.54 132.688 113.47 132.691C113.401 132.694 113.332 132.682 113.267 132.657C113.202 132.631 113.144 132.592 113.095 132.543Z" fill="white"/>
<path d="M132.987 179.049C131.273 178.533 133.037 175.943 133.403 174.883C133.383 174.927 133.361 174.969 133.339 175.013C133.389 174.915 133.437 174.813 133.487 174.715C133.465 174.757 133.443 174.801 133.423 174.845C137.573 165.735 146.991 162.307 142.763 150.679V150.689C142.563 150.209 143.379 149.781 143.495 150.385C143.759 151.965 144.555 153.421 144.651 155.041C144.939 158.139 144.397 161.359 142.727 164.019C140.757 167.171 137.957 169.745 136.249 173.073C135.579 174.343 134.891 175.609 134.391 176.959C134.099 177.735 134.093 179.069 132.987 179.049Z" fill="white"/>
<path d="M136.61 202.616C135.624 201.502 138.24 200.062 138.392 198.738C138.378 198.776 138.364 198.814 138.352 198.852C140.592 192.958 135.29 184.342 137.968 179.234C138.378 179.484 137.578 180.882 137.674 181.42C137.675 181.409 137.675 181.398 137.674 181.386C137.649 181.676 137.638 181.966 137.642 182.256C137.643 182.244 137.643 182.232 137.642 182.22C137.67 182.848 137.751 183.472 137.884 184.086V184.07C137.884 184.084 137.884 184.1 137.884 184.114C137.884 184.128 137.884 184.102 137.884 184.096C138.926 189.438 142.028 195.444 139.084 200.668C138.496 201.38 137.736 203.198 136.61 202.616Z" fill="white"/>
</svg>
