<svg width="368" height="400" viewBox="0 0 368 400" fill="none" xmlns="http://www.w3.org/2000/svg">
<path d="M87.6472 399.997C78.5927 400.051 69.5382 399.417 60.4837 399.417C58.2201 399.495 55.9565 399.52 53.6885 399.557C51.9639 399.773 45.5783 400.385 48.3636 397.173C49.3165 393.044 50.638 390.255 47.1521 386.71C42.6248 382.974 34.8401 382.162 33.1629 375.647C31.7637 366.732 43.1444 362.209 42.8986 353.657C42.6313 350.096 41.4456 346.5 38.5524 344.228L38.6861 344.355C36.3449 342.048 33.4474 340.461 30.4551 339.159L30.5414 339.198C25.8136 336.934 20.2537 335.455 16.8475 331.221C13.1589 326.422 14.4998 318.976 19.2469 315.38C27.0899 308.934 37.315 306.524 46.8567 303.685C61.8958 299.496 77.3122 296.387 92.9161 295.419H92.9053C93.3042 295.407 93.7008 295.366 94.0997 295.363C102.076 294.872 110.008 295.624 117.682 297.888L117.544 297.851C121.91 299.145 126.383 300.343 130.503 302.301C137.684 306.416 143.613 313.699 143.675 322.275C143.639 328.613 139.579 333.858 138.238 339.894C135.375 353.493 157.227 351.665 159.812 362.932C161.189 369.671 157.526 376.199 155.343 382.397C153.926 385.764 152.443 389.125 151.604 392.693C151.419 393.771 151.257 395.202 149.979 395.495C132.329 398.162 114.431 398.897 96.6134 399.766H96.65C93.6469 399.872 90.6482 400.008 87.6472 399.997ZM64.5216 396.763C74.6885 397.175 84.8748 397.697 95.0525 397.291H95.0331H95.1603H95.0461L95.8804 397.252H95.7079C100.589 397.037 105.467 396.862 110.34 396.526C123.167 395.7 136.093 395.222 148.754 392.887C149.699 387.456 152.43 382.578 154.284 377.44C154.258 377.509 154.234 377.58 154.209 377.656C162.256 358.083 152.816 360.612 139.65 351.355C134.578 348.08 134.209 341.595 136.399 336.447C137.693 332.286 140.28 328.589 140.916 324.217C142.015 316.184 136.445 308.945 130.007 304.791C125.668 302.29 120.647 301.141 115.887 299.669C108.692 297.577 101.251 297.062 93.7957 297.472C93.8453 297.472 93.8905 297.472 93.9401 297.472C76.4132 298.423 59.132 302.096 42.3165 307.016C33.0163 310.187 10.546 315.844 18.8977 329.533L18.8632 329.49C22.8019 333.847 29.0086 334.955 34.0381 337.637C38.6538 340.009 43.4936 343.566 44.7397 348.873C48.2947 360.194 38.5891 363.483 35.7197 372.372C34.4046 379.055 43.3017 380.512 47.4776 383.418C52.2398 386.361 52.7874 392.32 50.4677 397.035C55.133 396.979 59.8327 396.644 64.5216 396.763Z" fill="#231F20"/>
<path d="M49.0742 399.599C39.4247 399.676 30.1568 396.365 20.5051 396.399C14.0376 396.184 6.78108 397.861 0.902122 394.472C-1.24078 393.053 1.06812 390.563 1.36131 388.696C5.94246 376.747 8.77092 364.254 11.6576 351.812C12.8562 346.265 13.96 340.686 14.6132 335.044C15.0013 331.164 14.7296 326.99 15.3721 323.243C17.0666 322.491 16.312 327.999 16.491 328.939C16.9221 338.58 14.7512 348.087 12.6665 357.443C10.2822 367.983 7.58952 378.474 3.65512 388.556L3.66806 388.522L3.60985 388.679L3.62278 388.649C3.26276 389.641 2.89411 390.63 2.53409 391.622L2.59014 391.469C2.48882 391.751 2.37456 392.034 2.28617 392.331C8.27723 396.128 19.6536 392.954 26.9101 394.207L27.0761 394.224H27.0201H27.1278H27.0783L27.2443 394.241H27.2249C32.2609 394.78 37.2258 395.832 42.2359 396.552C44.2732 397.057 49.3308 395.985 50.4992 397.262C51.1158 398.234 50.2039 399.64 49.0742 399.599Z" fill="#231F20"/>
<path d="M147.143 394.708C147.255 391.906 152.78 392.927 154.718 392.813C157.305 392.979 159.892 392.613 162.479 392.52C160.086 384.239 158.724 375.767 157.98 367.198C157.788 365.926 157.708 364.632 157.359 363.388C157.092 362.657 156.781 361.681 157.635 361.215C158.252 360.816 159.168 361.403 158.819 362.136C160.576 367.036 160.597 372.356 161.481 377.442C161.983 379.626 162.669 381.767 163.042 383.981C163.555 386.645 164.309 389.254 164.963 391.886C166.172 394.743 162.667 395.079 160.662 395.012H160.688C157.551 395.331 154.421 395.228 151.277 395.26C149.967 394.917 147.628 396.573 147.143 394.708Z" fill="#231F20"/>
<path d="M146.174 353.432C144.57 352.231 144.904 346.628 144.481 344.522C143.684 338.809 143.188 333.068 142.686 327.327C142.254 323.944 141.233 320.676 140.732 317.306L140.752 317.403C140.666 316.144 139.167 312.538 140.885 312.126C140.996 312.148 141.095 312.21 141.164 312.3C141.232 312.391 141.265 312.503 141.256 312.615V312.602C141.741 316.895 143.442 321.01 144.274 325.244C145.29 330.998 145.464 336.871 146.555 342.625C146.905 345.212 147.038 347.811 147.482 350.386C147.922 351.651 148.166 353.766 146.174 353.432Z" fill="#231F20"/>
<path d="M140.177 343.758C140.231 342.389 139.329 339.552 140.034 338.573C140.778 338.299 140.407 339.382 140.588 339.772C140.588 339.752 140.588 339.733 140.588 339.716C140.664 340.753 141.847 343.46 140.864 344.068C140.8 344.1 140.729 344.117 140.657 344.117C140.585 344.118 140.513 344.104 140.448 344.074C140.382 344.044 140.324 344.001 140.277 343.946C140.23 343.891 140.196 343.827 140.177 343.758Z" fill="#231F20"/>
<path d="M141.842 338.066C141.842 337.419 141.159 335.716 141.937 335.479C142.584 335.565 142.446 337.059 142.799 337.596C143.086 338.184 142.086 338.77 141.842 338.066Z" fill="#231F20"/>
<path d="M142.92 345.959C142.998 345.214 142.172 343.556 143.373 343.493C143.985 343.763 143.733 345.002 144.019 345.595C144.196 346.276 143.062 346.772 142.92 345.959Z" fill="#231F20"/>
<path d="M157.775 381.14C157.436 380.126 157.296 379.057 157.361 377.99C157.439 377.647 157.952 377.458 158.157 377.788C158.288 378.365 158.269 379.014 158.502 379.598C158.62 380.161 159.185 380.942 158.502 381.34C158.442 381.379 158.375 381.404 158.304 381.415C158.234 381.425 158.162 381.421 158.094 381.402C158.025 381.383 157.962 381.35 157.907 381.305C157.852 381.26 157.807 381.203 157.775 381.14Z" fill="#231F20"/>
<path d="M153.635 386.491C153.419 385.439 153.562 384.335 153.564 383.273C153.628 382.593 154.736 382.484 154.683 383.262V383.221C154.452 384.325 155.616 386.224 154.486 386.886C154.405 386.923 154.317 386.942 154.228 386.941C154.139 386.941 154.051 386.921 153.97 386.884C153.889 386.847 153.817 386.792 153.759 386.724C153.702 386.656 153.659 386.577 153.635 386.491Z" fill="#231F20"/>
<path d="M157.656 388.385C157.611 387.706 157.632 387.024 157.718 386.348C157.824 385.503 159.171 385.626 158.844 386.521C158.654 387.277 159.385 388.515 158.365 388.862C158.287 388.885 158.205 388.89 158.124 388.878C158.043 388.865 157.967 388.835 157.899 388.79C157.831 388.744 157.774 388.685 157.732 388.615C157.69 388.545 157.664 388.467 157.656 388.385Z" fill="#231F20"/>
<path d="M19.4222 343.614C18.0641 343.431 18.9027 341.771 18.9911 340.917C19.3781 339.105 19.656 337.272 19.8232 335.427C19.8222 335.446 19.8222 335.465 19.8232 335.485C19.8232 335.448 19.8232 335.411 19.8232 335.377C19.8232 335.392 19.8232 335.407 19.8232 335.424C19.8707 334.683 20.0259 330.395 21.3582 332.15C21.2396 333.999 21.6061 343.604 19.4222 343.614Z" fill="#231F20"/>
<path d="M17.1219 353.958C15.9362 353.796 16.6304 352.326 16.818 351.587C17.3871 350.127 17.4647 348.323 18.4456 347.087C18.5222 347.014 18.6188 346.965 18.7232 346.946C18.8276 346.927 18.9352 346.94 19.0326 346.982C19.13 347.024 19.2128 347.094 19.2706 347.183C19.3284 347.272 19.3586 347.376 19.3575 347.482C19.2605 347.913 19.0148 348.28 18.9716 348.732C18.4219 349.981 18.6396 353.861 17.1219 353.958Z" fill="#231F20"/>
<path d="M26.2448 342.283C25.0548 342.109 25.8503 340.705 26.0077 339.987C26.3806 338.825 26.5747 337.579 27.1093 336.48C27.4241 335.799 28.4977 336.193 27.9393 336.864C27.368 338.056 27.6526 342.396 26.2448 342.283Z" fill="#231F20"/>
<path d="M23.8891 347.879C22.7853 347.765 23.2553 346.532 23.5442 345.87C23.9753 345.105 23.9042 343.462 25.0382 343.471C25.9566 343.747 25.2257 344.84 25.1589 345.463C24.9239 346.316 25.1007 347.826 23.8891 347.879Z" fill="#231F20"/>
<path d="M20.2378 361.988C18.981 361.557 20.0977 360.032 20.2766 359.2C20.9536 357.172 21.6219 355.141 22.3678 353.136C22.6092 351.627 24.6292 352.09 23.4974 353.328C22.8399 354.742 21.8245 362.553 20.2378 361.988Z" fill="#231F20"/>
<path d="M14.359 372.1C13.1475 371.669 14.3202 370.214 14.4798 369.41C15.1136 368.358 14.9799 366.029 16.3467 365.76C16.7951 365.786 16.9029 366.363 16.6291 366.654C16.0815 367.963 16.0427 372.059 14.359 372.1Z" fill="#231F20"/>
<path d="M16.5274 360.665C16.4459 360.649 16.3689 360.615 16.3016 360.566C16.2344 360.517 16.1784 360.454 16.1375 360.382C16.0966 360.31 16.0718 360.229 16.0646 360.146C16.0575 360.064 16.0683 359.98 16.0962 359.902C16.495 359.227 16.4713 357.763 17.4565 357.746C17.5391 357.766 17.6159 357.806 17.6806 357.861C17.7454 357.916 17.7963 357.985 17.8294 358.064C17.8625 358.142 17.8768 358.227 17.8712 358.312C17.8656 358.397 17.8402 358.479 17.7971 358.552C17.4716 359.253 17.5643 360.71 16.5274 360.665Z" fill="#231F20"/>
<path d="M36.1261 348.042C34.9598 347.88 35.7596 346.554 35.9277 345.886C36.2425 345.308 36.8547 340.788 37.8098 342.047C37.5274 343.788 37.1803 345.528 36.9992 347.29C36.9648 347.497 36.8586 347.687 36.6991 347.824C36.5395 347.962 36.3367 348.039 36.1261 348.042Z" fill="#231F20"/>
<path d="M30.5481 360.488C29.0584 360.003 31.0655 357.31 31.0741 356.189C31.5355 355.26 31.1862 352.99 32.6393 353.132C33.5598 353.419 32.3181 356.151 32.3202 357.013C31.8287 358.086 32.1111 360.449 30.5481 360.488Z" fill="#231F20"/>
<path d="M29.171 355.457C27.843 354.996 29.074 353.338 29.171 352.415C29.5676 351.053 29.8479 349.662 30.1691 348.282C30.7404 345.911 31.3376 343.557 31.8291 341.168C31.9994 340.651 31.9585 339.405 32.7604 339.59C32.8223 339.626 32.8711 339.68 32.8998 339.746C32.9285 339.812 32.9356 339.884 32.92 339.954C32.5405 341.888 31.2837 356.233 29.171 355.457Z" fill="#231F20"/>
<path d="M24.2988 371.777C22.6302 371.365 24.5619 369.052 24.6826 368.013C24.6696 368.047 24.6567 368.08 24.6459 368.112C25.3056 367.118 25.9912 361.787 27.2911 362.373C27.9789 362.427 26.3361 366.517 26.2736 367.291C25.6894 368.429 25.7131 371.645 24.2988 371.777Z" fill="#231F20"/>
<path d="M18.8827 386.167C17.6388 385.792 18.6671 384.401 18.9776 383.662C19.7127 382.381 19.9326 380.728 20.8876 379.615C22.3773 379.227 20.9113 381.987 20.8531 382.653C20.2323 383.735 20.4694 386.124 18.8827 386.167Z" fill="#231F20"/>
<path d="M11.805 383.892C10.7271 383.172 12.2793 381.736 12.3785 380.773C12.8334 380.001 12.8096 378.037 13.9221 378.063C14.6249 378.511 13.5189 380.249 13.5017 381.01C13.105 381.924 13.1848 384.043 11.805 383.892Z" fill="#231F20"/>
<path d="M28.5214 383.665C27.3163 383.256 28.7931 381.712 28.9849 380.964C29.3407 380.449 29.4506 379.379 30.0973 379.239C30.134 379.996 29.5562 380.934 29.4635 381.77V381.74C29.4598 381.76 29.4547 381.781 29.4484 381.8C29.4494 381.79 29.4494 381.78 29.4484 381.77C29.2372 382.385 29.3924 383.583 28.5214 383.665Z" fill="#231F20"/>
<path d="M39.8244 349.551C39.9581 348.531 40.9885 345.097 41.9436 344.786C42.4459 344.724 42.5364 345.433 42.1592 345.648C41.7495 346.903 41.2968 348.171 41.1459 349.486C41.0985 350.253 39.8071 350.437 39.8244 349.551Z" fill="#231F20"/>
<path d="M36.4214 360.864C35.2249 360.486 36.581 358.149 36.8526 357.35C36.4451 357.481 36.8332 356.944 36.9065 356.796C38.3056 354.051 37.5856 358.253 37.2924 359.059C37.0811 359.682 37.2989 360.812 36.4214 360.864Z" fill="#231F20"/>
<path d="M27.4986 395.227C26.8152 394.325 27.7142 393.159 27.9082 392.208C29.2987 387.862 30.8574 383.572 32.304 379.245C33.0736 377.415 33.4789 373.209 35.3221 372.388C35.8589 372.429 36.1047 373.231 35.5916 373.498C34.1774 379.381 32.7653 385.269 30.7259 390.982C29.9972 392.264 29.7385 396.632 27.4986 395.227Z" fill="#231F20"/>
<path d="M28.4837 394.004C26.6512 393.53 29.3094 389.199 29.4581 387.862C30.5231 384.874 31.573 381.876 32.2478 378.771L32.2348 378.836C32.4504 377.887 33.662 370.915 35.225 372.815C33.8409 378.48 33.2136 384.21 30.9629 389.716C30.2364 391.005 30.3248 393.937 28.4837 394.004Z" fill="#231F20"/>
<path d="M34.3632 387.635C32.7937 386.967 34.9237 384.477 35.0703 383.311L35.0336 383.408C35.2341 382.94 35.301 382.382 35.661 382.004C37.2692 381.235 36.2129 383.901 36.0706 384.624C35.6739 385.613 35.8097 387.665 34.3632 387.635Z" fill="#231F20"/>
<path d="M35.7222 394.076C34.2994 393.86 36.9963 389.79 37.3132 388.925C37.3938 388.823 37.5119 388.756 37.6415 388.741C37.7711 388.725 37.9015 388.762 38.0042 388.842C38.1068 388.923 38.1732 389.041 38.1888 389.171C38.2043 389.3 38.1678 389.431 38.0872 389.533C37.8047 389.939 37.712 390.452 37.5245 390.907C36.951 391.803 36.9855 394.046 35.7222 394.076Z" fill="#231F20"/>
<path d="M42.3598 389.107C41.187 388.508 42.7521 386.932 42.9483 386.059C43.1639 385.774 43.1509 385.011 43.6317 385.108C44.0909 385.416 43.2889 389.579 42.3598 389.107Z" fill="#231F20"/>
<path d="M46.0803 393.552C45.0434 393.16 46.8327 391.157 46.8996 390.355C46.9233 390.198 47.0957 390.04 47.2617 390.139C47.5204 390.702 46.9685 391.489 46.9405 392.123L46.9535 392.067C46.7896 392.586 46.8758 393.619 46.0803 393.552Z" fill="#231F20"/>
<path d="M30.4043 321.2C30.1068 320.646 29.792 320.1 29.4859 319.55C29.2057 319.188 29.2057 318.524 29.7791 318.505C30.4582 318.917 30.9756 319.742 31.4908 320.38C31.9177 321.008 30.8635 321.879 30.4043 321.2Z" fill="#231F20"/>
<path d="M34.1396 319.884C33.3872 319.565 33.3656 318.478 32.9431 317.849C32.8866 317.826 32.8356 317.791 32.7935 317.747C32.7513 317.703 32.719 317.651 32.6986 317.593C32.6783 317.536 32.6703 317.475 32.6753 317.414C32.6802 317.353 32.698 317.294 32.7275 317.241C33.5726 315.609 36.317 320.016 34.1396 319.884Z" fill="#231F20"/>
<path d="M37.8021 318.139C37.7546 317.177 38.0392 316.239 38.3992 315.364L38.3647 315.431L38.3539 315.463C38.7851 314.579 39.6474 315.185 39.3499 316.013V315.929C39.2465 316.763 39.4987 317.723 39.0783 318.479C38.7161 319.02 37.7827 318.859 37.8021 318.139Z" fill="#231F20"/>
<path d="M44.0017 318.629C43.0251 318.11 44.1138 316.904 44.42 316.258C44.6873 315.717 45.3901 314.865 45.9441 315.583C45.9312 315.566 45.9183 315.551 45.9075 315.533C46.3193 316.165 45.5755 316.749 45.3642 317.318C45.0667 317.859 44.8166 318.868 44.0017 318.629Z" fill="#231F20"/>
<path d="M86.7018 309.976C86.428 309.545 85.9171 308.998 86.2038 308.467C86.4194 308.036 87.1416 308.036 87.2171 308.556C87.3745 308.847 87.756 308.987 87.7948 309.338C87.8832 309.903 87.1222 310.431 86.7018 309.976Z" fill="#231F20"/>
<path d="M91.0093 309.497C90.0931 309.262 90.6924 308.204 90.8218 307.607C90.8038 307.486 90.8114 307.364 90.8441 307.247C90.8769 307.13 90.934 307.021 91.0118 306.927C91.0895 306.834 91.1862 306.758 91.2954 306.705C91.4045 306.651 91.5238 306.621 91.6453 306.617C92.8526 306.669 92.0743 309.763 91.0093 309.497Z" fill="#231F20"/>
<path d="M95.0795 309.518C94.1826 309.303 95.2627 307.115 95.9267 307.328C96.8688 307.511 95.9332 309.9 95.0795 309.518Z" fill="#231F20"/>
<path d="M86.3873 360.792C85.6199 360.374 84.6627 359.96 84.2315 359.18C84.1862 357.802 85.6242 358.761 86.258 359.087L86.23 359.074C86.7775 359.29 87.6873 359.538 87.3359 360.318C87.2646 360.5 87.1281 360.65 86.9529 360.738C86.7776 360.825 86.5761 360.845 86.3873 360.792Z" fill="#231F20"/>
<path d="M88.9008 359.527C88.4567 359.204 88.599 358.521 88.4503 358.044C88.3468 357.421 88.0989 356.805 88.1441 356.164C88.2562 355.489 89.2221 355.647 89.0216 356.35C89.0216 356.328 89.0216 356.307 89.0216 356.287C89.11 357.223 90.867 359.73 88.9008 359.527Z" fill="#231F20"/>
<path d="M92.1459 360.369C90.6368 360.073 93.0082 356.514 93.6722 356.133C94.3578 355.943 94.638 356.876 94.1357 357.262C93.476 358.198 93.5342 360.293 92.1459 360.369Z" fill="#231F20"/>
<path d="M95.2747 361.202C94.2723 360.316 96.0358 359.229 96.4389 358.423C96.579 358.113 96.8485 357.804 97.2279 357.876C98.1916 358.21 97.243 359.21 96.9498 359.727C96.5014 360.288 96.2082 361.594 95.2747 361.202Z" fill="#231F20"/>
<path d="M56.6869 381.797C56.135 381.15 53.9964 379.764 55.512 379.1C55.6017 379.085 55.694 379.097 55.7764 379.136C55.8589 379.174 55.9276 379.237 55.9733 379.316C56.5015 379.863 57.2 380.215 57.698 380.795C58.196 381.375 57.2776 382.39 56.6869 381.797Z" fill="#231F20"/>
<path d="M59.012 380.178C58.6649 379.333 58.1303 377.832 58.5226 377.009C59.3117 377.393 59.6113 378.608 60.1524 379.318C60.5901 379.984 59.5035 380.887 59.012 380.178Z" fill="#231F20"/>
<path d="M62.3371 380.593C60.8906 380.317 62.6196 377.092 63.6307 377.359C64.452 377.655 63.6975 378.517 63.6544 379.084C63.4905 379.731 63.1973 380.716 62.3371 380.593Z" fill="#231F20"/>
<path d="M65.9316 381.155C65.2461 380.508 66.1106 379.773 66.6215 379.365C66.9729 379.036 67.5162 378.275 67.9344 378.962C68.1608 379.678 66.7832 381.827 65.9316 381.155Z" fill="#231F20"/>
<path d="M127.454 374.262C126.725 373.749 126.161 373.038 125.628 372.322C125.642 372.341 125.658 372.359 125.676 372.374C125.616 372.309 125.572 372.231 125.545 372.148C125.518 372.064 125.51 371.975 125.52 371.888C125.53 371.8 125.559 371.716 125.604 371.641C125.65 371.566 125.711 371.501 125.783 371.451C126.538 370.97 126.881 372.177 127.534 372.402C127.941 372.714 128.629 372.973 128.638 373.564C128.646 374.154 127.95 374.627 127.454 374.262Z" fill="#231F20"/>
<path d="M129.339 372.298C128.733 371.961 128.026 369.079 129.406 369.495C129.789 369.991 129.863 370.735 130.223 371.3C130.449 371.832 129.884 372.485 129.339 372.298Z" fill="#231F20"/>
<path d="M131.962 373.073C130.923 372.771 131.704 371.551 131.962 370.917C132.322 370.365 132.258 369.289 133.09 369.255C133.56 369.255 133.754 369.83 133.51 370.191C133.103 371.109 133.318 373.079 131.962 373.073Z" fill="#231F20"/>
<path d="M135.048 374.023C134.311 373.344 135.264 372.6 135.727 372.102C136.229 371.648 136.637 370.645 137.439 370.809C137.995 371.012 137.87 371.816 137.411 372.055C136.691 372.687 136.266 374.668 135.048 374.023Z" fill="#231F20"/>
<path d="M186.441 335.605C176.582 334.502 173.372 325.904 178.061 317.654C181.907 311.348 190.364 310.563 196.853 312.667C203.564 314.642 204.733 311.827 209.719 308.356C214.395 305.359 220.904 303.613 225.845 306.963C229.124 308.983 233.326 310.539 236.915 308.381C242.029 305.637 249.622 300.996 254.735 305.909L254.718 305.894C257.12 308.129 260.875 309.013 263.964 307.834C266.907 307.023 270.104 307.588 272.855 308.8C281.334 312.803 282.556 323.774 273.549 328.019C261.548 335.133 253.532 321.161 243.251 330.455C239.489 333.258 234.197 334.551 229.866 332.324C227.356 331.166 225.149 328.84 222.219 328.94C219.386 329.155 217.062 330.992 214.533 332.1C210.127 333.782 205.72 330.332 201.234 330.998C199.861 331.214 198.785 332.382 197.446 332.57C194.353 335.019 190.371 336.243 186.441 335.605ZM190.578 332.391C195.137 332.471 198.302 328.196 202.726 328.105C206.749 327.864 210.89 331.009 214.762 329.183L214.587 329.269L214.982 329.075L214.807 329.162C229.999 319.691 229.391 338.432 244.433 326.648C247.093 324.809 250.499 324.434 253.651 324.753H253.584L253.752 324.77H253.731H253.78H253.746C258.142 325.07 262.067 327.801 266.53 327.433C274.854 327.126 281.703 319.706 274.267 312.754L274.317 312.799C267.653 307.357 264.368 311.831 258.077 310.328C253.034 309.235 252.939 305.018 247.147 306.418C240.972 307.345 235.926 313.65 229.337 311.132C225.524 310.031 222.288 306.691 218.039 307.577C210.006 308.698 207.285 315.256 201.488 315.808C197.435 316.045 193.615 314.131 189.573 314.349C183.489 314.349 179.21 318.835 179.29 324.889C179.594 329.819 184.49 332.102 188.877 332.404L188.661 332.38C189.293 332.408 189.933 332.413 190.578 332.391Z" fill="#231F20"/>
<path d="M209.75 314.952C209.714 314.895 209.691 314.829 209.684 314.761C210.602 312.333 215.875 310.406 218.376 310.449C219.111 310.555 220.101 310.397 220.633 310.997C221.034 311.643 220.446 312.538 219.713 312.506C216.6 312.217 213.029 312.764 210.596 314.84C210.43 315.151 209.953 315.272 209.75 314.952Z" fill="#231F20"/>
<path d="M227.141 314.396C226.46 314.11 224.748 313.497 225.848 312.646C226.626 312.478 228.575 312.495 228.277 313.724C228.15 314.181 227.617 314.58 227.141 314.396Z" fill="#231F20"/>
<path d="M209.319 325.996C204.333 325.334 204.193 320.919 206.058 322.667L206.017 322.631C208.936 325.147 213.101 324.157 216.451 323.193C217.152 323.034 218.199 322.059 218.721 322.963C219.165 325.302 211.044 326.287 209.319 325.996Z" fill="#231F20"/>
<path d="M222.645 322.576C222.285 321.93 223.736 321.296 224.221 321.335C225.012 321.781 224.19 322.598 223.529 322.538H223.595C223.272 322.544 222.901 322.96 222.645 322.576Z" fill="#231F20"/>
<path d="M253.796 315.388C249.161 313.864 245.311 311.182 240.43 313.965L240.488 313.937C240.221 314.105 239.783 314.265 239.656 313.847C239.671 312.997 241.165 312.754 241.763 312.286C247.286 309.483 250.578 313.06 255.597 313.853C257.071 313.881 263.431 311.424 263.573 313.661C263.54 313.88 263.431 314.08 263.265 314.226C263.099 314.372 262.886 314.454 262.665 314.459C259.624 313.888 256.795 315.957 253.796 315.388Z" fill="#231F20"/>
<path d="M264.018 324.691C262.725 324.531 258.57 324.044 259.418 322.087C259.702 321.612 260.358 321.347 260.836 321.709C264.253 324.492 273.28 321.446 269.505 316.477C269.074 315.858 267.349 315.352 267.634 314.597C267.661 314.527 267.702 314.463 267.755 314.409C267.807 314.355 267.87 314.312 267.939 314.282C268.008 314.253 268.082 314.237 268.158 314.236C268.233 314.236 268.308 314.25 268.377 314.278C272.148 314.925 273.515 319.146 271.055 321.994C269.326 323.906 266.549 324.758 264.018 324.691Z" fill="#231F20"/>
<path d="M251.61 321.523L251.638 321.542C249.987 320.805 248.122 321.575 246.447 321.402C244.507 318.8 250.564 319.822 251.683 320.259C252.839 320.462 252.712 321.846 251.61 321.523Z" fill="#231F20"/>
<path d="M187.043 328.232C181.604 326.876 182.701 320.805 187.079 318.854C187.605 318.712 188.683 317.878 188.944 318.688C189.045 319.445 186.446 319.706 185.81 321.415C184.415 323.636 185.667 325.427 187.965 326.141C189.009 326.738 188.142 328.465 187.043 328.232Z" fill="#231F20"/>
<path d="M325.27 351.445C316.963 351.417 311.188 340.914 302.481 344.833L302.552 344.807L302.384 344.865H302.403H302.375H302.392C299.113 346.116 296.08 347.966 292.807 349.233C293.2 349.589 292.674 350.311 292.21 350.044C287.618 351.275 282.22 350.906 278.197 348.239C276.725 347.468 274.519 346.112 274.963 344.184C271.945 338.008 278.023 332.17 284.018 331.741C288.716 330.904 293.344 332.963 298.031 332.312C305.499 331.42 304.772 324.639 310.75 321.35L310.61 321.444C315.286 318.278 321.575 318.053 326.624 320.468H326.611L326.74 320.524C330.189 321.91 332.789 325.118 336.76 325.202C341.889 326.064 346.065 322.315 350.989 321.848C357.961 321.08 368.072 325.748 367.358 333.849C366.166 340.884 358.383 344.025 351.918 343.136C347.08 343.024 340.885 339.073 337.258 343.999L337.284 343.971L337.269 343.988L337.388 343.857L337.172 344.102C337.181 344.094 337.189 344.085 337.196 344.074L337.08 344.208L337.092 344.191C334.247 347.961 330.347 351.725 325.27 351.445ZM326.699 348.858C330.631 348.511 333.337 345.521 335.683 342.649C340.734 335.858 349.129 341.384 355.876 340.709C360.141 340.603 364.804 337.809 365.347 333.293C365.33 327.808 359.028 324.808 354.32 323.995C348.909 323.051 344.513 327.151 339.302 327.444C331.509 328.181 329.364 323.057 322.702 321.408C317.865 320.213 312.469 321.794 309.093 325.474C306.721 328.311 305.492 332.357 301.704 333.703C296.446 336.259 290.8 333.884 285.32 334.104C279.178 334.272 274.041 339.049 278.385 344.95C282.388 347.873 287.87 347.994 292.465 346.437C301.562 342.718 307.148 338.443 316.416 344.999C319.52 347.036 322.838 349.1 326.699 348.865V348.858Z" fill="#231F20"/>
<path d="M288.335 350.512C283.476 349.781 275.831 347.278 275.318 341.576C275.454 340.968 276.396 341.167 275.98 341.755C276.646 343.059 277.422 344.342 278.673 345.164L278.595 345.114L278.867 345.291C285.183 348.979 289.939 350.366 296.45 346.153C297.077 345.795 298.058 345.256 298.487 346.153C299.444 348.389 289.993 350.948 288.335 350.512Z" fill="#231F20"/>
<path d="M292.778 348.981C292.171 347.709 298.994 345.229 300.108 344.298C301.163 343.981 303.361 342.278 304.088 343.632C304.134 343.84 304.111 344.058 304.024 344.252C303.936 344.446 303.787 344.607 303.601 344.71C300.077 346.338 296.464 347.764 292.778 348.981Z" fill="#231F20"/>
<path d="M333.379 330.695C329.82 330.589 327.11 328.06 324.004 326.661C319.228 324.721 312.642 325.583 310.023 330.449C309.633 330.88 308.829 330.576 308.98 329.964V329.977C309.852 328.15 311.226 326.609 312.942 325.535C314.657 324.461 316.644 323.898 318.668 323.912H318.793C322.563 323.58 326.192 325.294 329.191 327.429L329.171 327.416C330.766 328.709 332.741 328.953 334.671 329.308C335.634 330.169 334.345 331.04 333.379 330.695Z" fill="#231F20"/>
<path d="M339.584 330.741C339.107 330.611 337.781 331.012 337.889 330.23C338.165 329.784 338.831 330.21 339.273 330.073H339.247C341.81 329.857 344.305 329.061 346.752 328.305L346.663 328.335C347.114 328.137 347.838 327.973 347.933 328.645C348.412 329.973 340.631 330.853 339.584 330.741Z" fill="#231F20"/>
<path d="M322.33 343.647C319.417 343.18 316.805 341.589 314.258 340.172C313.612 339.724 312.318 339.612 312.635 338.54C313.122 337.1 314.748 337.969 315.595 338.568C317.158 339.558 318.87 340.276 320.502 341.138C324.703 343.268 328.75 340.442 332.076 338.027C332.723 337.482 335.683 336.003 335.726 337.49C335.688 337.59 335.614 337.672 335.518 337.721C335.422 337.769 335.312 337.78 335.209 337.751C334.31 337.536 333.497 338.301 332.837 338.829L332.747 338.907L332.796 338.864C329.938 341.528 326.521 344.255 322.33 343.647Z" fill="#231F20"/>
<path d="M296.952 340.734C296.053 338.413 302.398 337.322 304.008 337.623C305.614 337.731 305.23 339.212 304.206 338.936C302.232 338.607 300.11 339.415 298.435 340.424C298.015 340.73 297.426 341.239 296.952 340.734Z" fill="#231F20"/>
<path d="M285.12 343.674C282.71 343.65 278.961 340.77 280.865 338.312C281.531 338.133 280.888 339.248 281.634 339.832L281.585 339.765L281.936 340.229L281.917 340.201L282.005 340.317L281.949 340.244C282.829 341.322 284.295 341.74 285.627 341.934C286.737 342.186 286.114 343.874 285.12 343.674Z" fill="#231F20"/>
<path d="M360.03 335.556C358.812 335.173 359.957 333.832 359.886 332.985C360.039 330.223 356.751 329.082 354.455 329.264C354.399 329.27 354.343 329.264 354.29 329.246C354.236 329.229 354.187 329.2 354.146 329.161C354.105 329.123 354.073 329.076 354.052 329.024C354.031 328.972 354.021 328.916 354.024 328.86C354.196 327.567 359.689 328.725 360.108 329.848C361.035 330.79 361.638 331.986 361.384 333.332C361.261 334.162 361.19 335.666 360.03 335.556Z" fill="#231F20"/>
<path d="M157.976 255.636C151.77 255.436 149.633 251.143 145.673 247.336L145.753 247.409C142.907 244.902 141.525 244.978 138.244 246.476C134.708 247.123 130.914 247.392 127.536 245.907C121.372 242.79 121.056 234.186 125.218 229.27C127.48 226.647 130.824 225.198 134.146 224.448C139.634 223.256 144.925 225.323 150.222 226.407C153.171 226.606 156.441 226.164 158.104 223.443C161.294 219.539 165.649 216.26 170.922 216.417C179.479 215.4 182.926 222.339 191.094 222.068C197.713 221.33 201.524 214.669 208.061 213.66L207.875 213.694C218.469 211.357 234.489 221.887 225.676 233.045C222.328 237.122 216.744 236.208 212.349 238.17C207.078 240.246 205.437 246 201.311 249.38C195.49 254.142 187.684 249.774 182.663 245.846C178.5 242.811 174.505 244.928 171.931 248.785C168.471 252.754 163.517 256.419 157.976 255.636ZM160.382 253.03C166.363 252.844 169.782 247.401 173.684 243.695C178.116 240.394 182.954 242.373 186.703 245.616C191.118 248.479 197.782 250.967 201.554 245.831C207.319 237.273 210.365 235.393 220.526 233.543C230.011 229.814 224.361 218.937 216.606 217.144C212.131 215.484 206.983 215.85 203.01 218.586C200.789 220.108 198.913 222.175 196.361 223.169C189.678 226.75 183.167 223.616 177.377 219.936C170.379 217.174 163.579 219.17 159.285 225.366C157.196 228.548 153.011 229.096 149.491 228.93C143.912 227.951 138.186 225.513 132.544 227.582C121.066 230.984 123.164 246.554 135.903 244.516C138.087 244.536 139.783 243.046 141.814 242.561C150.105 242.837 151.065 253.786 160.382 253.03Z" fill="#231F20"/>
<path d="M156.591 249.769C150.837 249.318 149.593 243.998 145.29 241.393L145.398 241.464C143.533 240.253 141.183 239.507 138.962 239.955L139.031 239.942C133.323 242.583 140.042 234.637 149.017 241.363C151.777 244.043 153.79 247.512 158.108 247.645C159.223 247.975 161.219 246.587 161.64 248.167C161.512 250.245 158.078 249.896 156.591 249.769Z" fill="#231F20"/>
<path d="M164.823 244.356C164.81 244.291 164.817 244.224 164.844 244.164C164.871 244.103 164.916 244.053 164.974 244.02C165.62 243.468 165.95 242.692 166.412 242.004C166.412 242.019 166.392 242.032 166.383 242.045L166.509 241.864L166.444 241.957C167.306 240.905 168.14 239.607 169.52 239.232C170.232 239.016 171.473 238.563 171.631 239.663C171.73 241.081 169.954 240.881 169.106 241.459C168.216 241.84 165.461 244.975 164.823 244.356Z" fill="#231F20"/>
<path d="M188.551 229.83C184.66 229.563 181.786 226.825 178.475 225.158C174.31 223.58 168.321 222.299 164.967 226.02C164.4 227.098 163.138 226.02 164.087 225.249C168.888 219.788 178.199 221.025 183.412 225.287C185.21 226.365 187.077 227.368 189.161 227.736C190.489 228.049 189.759 230.065 188.551 229.83Z" fill="#231F20"/>
<path d="M195.579 227.138C195.573 227.069 195.591 226.999 195.631 226.941C195.67 226.883 195.728 226.84 195.795 226.819C197.094 226.383 198.367 225.871 199.606 225.287L199.52 225.33C202.196 223.672 203.991 220.697 207.113 219.638C208.353 219.347 211.582 217.784 211.826 219.837C211.657 221.876 208.161 220.945 206.746 222.085C204.638 223.098 203.082 224.961 201.062 226.121C199.723 226.571 196.752 227.611 195.579 227.138Z" fill="#231F20"/>
<path d="M219.49 226.344C219.626 225.266 218.94 223.85 217.83 223.587H217.858C217.095 223.455 217.513 222.293 218.188 222.477H218.154C219.814 222.813 221.603 224.277 221.458 226.113C221.51 227.314 219.51 227.745 219.49 226.344Z" fill="#231F20"/>
<path d="M194.053 242.282C193.191 242.265 193.014 241.113 193.599 240.613C194.183 240.113 195.017 240.398 195.688 240.107C197.71 239.425 199.4 238.134 200.862 236.61C202.56 234.833 204.557 233.342 206.926 232.594C207.605 232.466 209.153 231.669 209.381 232.66C209.358 233.307 208.674 233.253 208.204 233.29C207.098 233.631 206.046 234.129 205.081 234.769L205.117 234.745L205.089 234.762H205.104C205.078 234.782 205.05 234.799 205.022 234.816H205.04C201.584 237.511 199.029 242.273 194.053 242.282Z" fill="#231F20"/>
<path d="M129.395 233.706C128.964 231.813 133.604 229.162 135.197 229.341C136.229 230.281 134.867 230.951 133.972 231.065C132.679 231.576 131.252 232.057 130.307 233.118C130.277 233.547 129.846 234.213 129.395 233.706Z" fill="#231F20"/>
<path d="M250.392 141.161C242.432 141.976 237.995 133.758 230.722 132.355C228.152 131.95 226.289 134.019 224.039 134.875C221.419 135.885 218.636 136.404 215.829 136.408C207.156 136.514 198.867 128.675 204.429 120.185L204.408 120.215C204.468 120.131 204.526 120.047 204.584 119.961L204.483 120.11C204.567 119.985 204.653 119.862 204.74 119.737L204.668 119.842C209.657 113.052 216.31 113.364 223.773 114.884C226.037 115.1 228.678 114.712 230.163 112.821C233.992 107.735 239.906 103.12 246.634 104.198C249.462 104.857 251.838 106.7 254.686 107.343C257.849 108.479 260.843 107.164 263.458 105.388C267.367 103.253 271.639 101.636 276.132 101.479C287.588 100.582 297.089 112.321 290.902 122.882C286.4 128.703 281.77 128.377 275.302 126.724C272.931 126.554 270.4 127.334 268.854 129.203C264.663 135.563 258.418 141.142 250.392 141.161ZM251.157 138.902C267.181 137.96 264.622 121.289 279.523 125.512C290.128 128.009 294.634 113.685 287.133 107.364C283.423 103.648 277.889 102.738 272.881 103.758C263.415 105.295 260.627 112.84 250.372 107.703C245.672 104.555 239.724 106.194 235.728 109.734C233.315 111.642 231.953 114.746 229.167 116.173C223.405 119.03 216.81 114.233 211.078 117.221C206.298 119.232 202.519 125.691 206.818 129.99C211.181 134.263 217.813 134.235 223.314 132.478C224.177 131.514 225.658 131.253 226.82 130.753L226.673 130.803C227.491 130.475 228.342 130.235 229.21 130.087L229.053 130.117C237.776 128.703 242.426 139.987 251.157 138.902Z" fill="#231F20"/>
<path d="M244.767 132.889C238.439 131.531 236.904 127.499 228.956 127.327H228.992H228.91H228.941C227.102 127.085 225.302 127.657 223.648 128.405C222.988 128.922 222.355 128.372 223.185 127.973C225.556 126.609 228.106 125.785 230.857 126.106C233.513 126.272 236.4 126.613 238.687 128.066C240.679 129.383 242.839 130.528 245.155 131.147C246.183 131.393 245.7 132.953 244.767 132.889Z" fill="#231F20"/>
<path d="M250.361 132.757C249.54 132.574 249.979 131.407 250.715 131.61C253.392 131.287 256.611 130.564 258.044 128.051C258.553 127.212 258.986 126.326 259.737 125.666C260.642 124.713 261.983 125.996 261.132 126.973C258.711 131.248 255.276 133.104 250.361 132.757Z" fill="#231F20"/>
<path d="M264.012 123.591C262.719 122.514 268.727 118.89 268.971 120.879C268.945 122.389 266.457 122.009 265.478 122.82C264.916 122.947 264.631 123.848 264.012 123.591Z" fill="#231F20"/>
<path d="M255.238 114.429C251.802 113.897 248.719 111.791 245.171 111.948C243.989 111.97 242.892 112.452 241.833 112.873C241.096 112.793 241.374 111.795 241.98 111.728C244.111 110.618 246.552 110.253 248.915 110.689C251.231 111.347 253.58 111.967 255.827 112.83C256.732 113.203 256.116 114.595 255.238 114.429Z" fill="#231F20"/>
<path d="M260.612 112.704C259.672 112.775 259.659 111.589 260.552 111.727C263.809 111.548 265.913 108.961 268.744 107.778C268.841 107.75 268.942 107.742 269.042 107.755C269.142 107.767 269.238 107.799 269.326 107.848C269.413 107.898 269.49 107.965 269.552 108.044C269.613 108.124 269.658 108.215 269.684 108.312C269.93 109.472 268.477 109.63 267.765 110.128C265.558 111.44 263.318 112.943 260.612 112.704Z" fill="#231F20"/>
<path d="M279.855 122.346C278.865 122.162 274.211 122.275 274.799 120.742C275.23 118.875 279.018 121.82 281.842 120.58C282.767 120.294 283.612 119.796 284.309 119.125L284.205 119.211C288.732 115.923 285.93 111.107 281.868 109.036H281.883C280.329 108.348 278.447 107.837 276.789 108.402C276.244 108.604 276.142 107.755 276.647 107.647C281.487 105.856 288.14 108.846 288.456 114.363C288.638 118.819 284.095 122.432 279.855 122.346Z" fill="#231F20"/>
<path d="M208.775 126.422C207.312 124.525 207.754 120.804 210.196 119.987H210.155C210.964 119.892 210.778 121.131 210.078 121.065C208.648 122.74 209.608 124.173 210.412 125.738C210.431 126.551 209.291 127.176 208.775 126.422Z" fill="#231F20"/>
<path d="M119.957 215.211C119.911 215.193 119.868 215.169 119.827 215.14H119.838C119.807 215.116 119.779 215.089 119.754 215.058C119.772 215.085 119.795 215.109 119.821 215.129C119.142 213.43 120.013 211.212 120.037 209.367C120.422 206.327 120.645 203.266 121.155 200.243C122.154 192.312 123.361 184.721 132.939 184.107C134.925 183.945 136.05 183.352 136.507 181.328C137.248 179.368 137.861 177.361 138.342 175.322C139.741 169.852 140.248 163.572 144.061 159.153C150.188 152.785 159.553 152.226 163.492 161.169C167.357 168.714 165.507 178.56 170.427 185.568C173.074 187.384 175.998 181.636 181.493 184.682C187.529 188.912 187.652 197.475 188.687 204.124C188.702 206.745 189.894 209.619 189.077 212.126C188.534 212.907 187.15 212.682 187.199 211.624C187.253 209.427 186.842 207.241 186.678 205.053C185.863 196.876 184.675 180.08 172.492 187.474C165.162 189.317 164.807 172.248 163.643 167.522C161.616 156.29 153.295 152.028 144.887 160.927C141.627 165.957 141.457 172.334 139.797 177.973C136.994 187.578 136.606 184.583 128.671 187.459C123.234 190.061 123.206 204.997 121.462 210.828C121.037 211.764 121.201 215.588 119.957 215.211Z" fill="#231F20"/>
<path d="M145.662 169.814C144.755 169.633 145.675 166.729 145.718 165.964C145.753 165.835 145.833 165.722 145.944 165.647C146.055 165.572 146.189 165.539 146.322 165.555C147.061 165.88 146.305 166.969 146.425 167.6V167.529C146.246 168.232 146.585 169.638 145.662 169.814Z" fill="#231F20"/>
<path d="M148.826 164.752C148.51 164.2 148.826 162.012 149.738 162.182C150.333 162.312 150.126 162.913 150.025 163.327C150.118 164.073 149.818 165.455 148.826 164.752Z" fill="#231F20"/>
<path d="M149.093 171.857C148.733 171.26 149.153 170.479 149.018 169.809C149.018 169.837 149.018 169.865 149.018 169.893C148.977 169.309 148.765 168.28 149.623 168.239C150.356 168.36 150.055 169.397 150.251 169.934C150.447 170.744 150.337 172.657 149.093 171.857Z" fill="#231F20"/>
<path d="M153.149 163.117C153.103 162.495 153.167 161.87 153.339 161.27C153.464 160.711 154.369 160.808 154.188 161.421C154.154 161.88 154.298 162.346 154.356 162.803C154.494 163.52 153.268 163.954 153.149 163.117Z" fill="#231F20"/>
<path d="M153.585 168.657C153.46 167.95 153.493 166.253 154.603 166.951C154.874 167.352 154.603 167.889 154.765 168.346C154.89 169.051 153.7 169.474 153.585 168.657Z" fill="#231F20"/>
<path d="M153.868 176.398C153.918 175.348 153.092 173.3 154.681 173.13C155.858 173.242 155.179 175.247 155.416 176.105C155.468 176.978 154.004 177.405 153.868 176.398Z" fill="#231F20"/>
<path d="M130.429 200.075C129.371 199.901 130.089 198.5 130.153 197.818C130.369 197.23 130.38 195.895 131.231 195.986C131.792 196.277 131.214 197.003 131.263 197.495C131.097 198.325 131.68 199.948 130.429 200.075Z" fill="#231F20"/>
<path d="M132.512 193.279C132.168 192.848 132.715 190.774 133.401 190.89C133.907 191.013 133.646 191.63 133.64 191.996C133.75 192.68 133.377 193.926 132.512 193.279Z" fill="#231F20"/>
<path d="M136.747 193.415C136.35 192.656 137.004 191.724 137.004 190.907C137.001 190.835 137.014 190.762 137.042 190.695C137.07 190.627 137.111 190.567 137.164 190.517C137.217 190.467 137.281 190.429 137.349 190.405C137.418 190.381 137.491 190.372 137.564 190.379C138.114 190.571 137.741 191.354 137.866 191.798C137.997 192.552 137.853 194.143 136.747 193.415Z" fill="#231F20"/>
<path d="M133.92 199.819C133.958 198.595 134.311 197.4 134.944 196.351C136.237 195.37 135.16 199.054 135.364 199.643C135.39 200.527 133.926 200.837 133.92 199.819Z" fill="#231F20"/>
<path d="M132.42 208.279C132.549 207.113 132.293 204.638 133.86 204.511C133.966 204.536 134.064 204.585 134.148 204.654C134.232 204.724 134.299 204.811 134.344 204.91C134.389 205.009 134.411 205.117 134.408 205.225C134.406 205.334 134.378 205.44 134.328 205.537C134.08 206.285 134.242 207.149 134.216 207.939C134.285 208.952 132.573 209.448 132.42 208.279Z" fill="#231F20"/>
<path d="M140.008 201.979C139.491 201.563 140.084 198.508 140.912 198.719C141.412 199.105 140.834 199.978 141.026 200.558C141.231 201.255 140.948 202.486 140.008 201.979Z" fill="#231F20"/>
<path d="M144.59 202.85C144.792 202.031 144.085 200.379 145.193 200.136C145.918 200.22 145.551 202.005 145.795 202.621C145.92 203.385 144.624 203.764 144.59 202.85Z" fill="#231F20"/>
<path d="M144.213 210.23C144.243 209.275 143.762 207.236 145.215 207.242C146.205 207.617 145.502 209.113 145.698 209.948C145.741 210.789 144.347 211.198 144.213 210.23Z" fill="#231F20"/>
<path d="M165.268 197.941C165.359 197.016 164.928 194.828 166.131 194.632C166.192 194.644 166.249 194.67 166.299 194.707C166.349 194.744 166.391 194.791 166.421 194.846C166.451 194.9 166.469 194.96 166.474 195.023C166.478 195.085 166.469 195.147 166.447 195.205C166.208 196.022 166.376 196.895 166.359 197.734C166.394 198.348 165.363 198.642 165.268 197.941Z" fill="#231F20"/>
<path d="M168.549 193.882C168.414 193.125 168.082 192.157 168.597 191.483C168.873 191.179 169.459 191.209 169.58 191.629V191.601C169.72 192.06 169.735 192.561 169.847 193.033V193.003L169.867 193.1V193.087C170.278 193.938 168.953 194.91 168.549 193.882Z" fill="#231F20"/>
<path d="M174.853 195.838C174.206 195.06 174.48 193.784 174.09 192.85C173.874 192.178 175.008 191.604 175.241 192.378C175.308 193.294 176.672 196.153 174.853 195.838Z" fill="#231F20"/>
<path d="M174.33 202.074C174.546 201.169 173.974 199.183 175.246 199.043C175.315 199.058 175.379 199.088 175.435 199.13C175.491 199.171 175.538 199.224 175.572 199.285C175.606 199.346 175.628 199.414 175.634 199.483C175.641 199.553 175.633 199.623 175.611 199.69C175.462 200.421 175.677 201.169 175.697 201.904C175.744 202.738 174.334 203.044 174.33 202.074Z" fill="#231F20"/>
<path d="M168.896 206.68C167.986 202.31 171.267 202.515 170.286 204.332C170.133 205.257 170.907 206.794 169.719 207.23C169.629 207.256 169.533 207.262 169.44 207.248C169.347 207.234 169.258 207.199 169.179 207.147C169.101 207.094 169.035 207.025 168.986 206.945C168.937 206.864 168.906 206.774 168.896 206.68Z" fill="#231F20"/>
<path d="M163.103 210.539C162.71 210.086 163.023 209.362 163.012 208.814V208.874C163.012 208.301 163.95 208.107 163.952 208.769C163.954 209.431 164.28 211.028 163.103 210.539Z" fill="#231F20"/>
<path d="M176.96 208.186C176.85 207.194 177.262 204.827 178.635 206.056C178.92 206.653 178.519 207.349 178.635 207.996C178.668 209.003 176.982 209.367 176.96 208.186Z" fill="#231F20"/>
<path d="M338.322 297.106C336.966 295.868 337.585 291.442 337.057 289.502C336.121 284.212 335.763 278.423 333.082 273.691C330.042 269.789 324.458 270.421 320.451 268.226C313.696 264.05 314.496 252.057 311.866 245.159C306.668 231.34 294.046 237.109 292.123 219.905C292.136 219.966 292.147 220.024 292.157 220.082C290.331 210.622 291.81 200.835 289.926 191.356C289.234 185.996 288.587 180.619 286.35 175.637C285.291 172.8 283.978 169.952 281.631 167.952L281.643 167.965C273.772 160.094 261.195 169.105 258.065 177.593C254.644 186.567 257.591 196.312 256.39 205.599C255.349 217.76 245.132 221.71 242.696 231.579C241.883 235.654 241.769 239.849 240.812 243.898C238.923 252.2 232.935 258.452 227.068 264.251C220.601 270.867 214.685 279.044 214.306 288.612C214.933 289.407 213.62 290.686 212.892 289.886C212.245 288.696 212.588 287.187 212.633 285.885C213.927 273.706 223.08 264.742 231.027 256.24C234.97 251.975 237.755 246.605 238.559 240.823C239.225 236.637 239.333 232.291 240.866 228.296C244.194 220.494 252.641 215.434 253.585 206.5C255.094 193.378 249.935 178.218 261.631 168.316C270.114 160.555 280.99 159.824 286.805 171.002C289.258 176.092 291.116 181.49 291.657 187.137C292.576 192.742 293.447 198.347 293.505 204.036C294.001 211.655 293.335 219.989 297.107 226.888C299.405 230.898 304.107 232.31 307.671 234.927C312.914 238.939 315.128 245.491 316.079 251.803V251.781C317.217 256.201 317.566 261.459 320.765 264.932C322.259 266.34 324.273 266.842 326.237 267.183C331.12 268.181 336.229 270.768 337.132 276.147C338.567 281.521 339.582 286.999 340.168 292.531C340.45 294.219 341.222 297.921 338.322 297.106Z" fill="#231F20"/>
<path d="M266.745 185.325C266.39 183.419 266.92 181.259 268.386 179.953C269.751 179.705 268.817 181.123 268.602 181.733L268.638 181.638C268.155 182.716 268.244 183.878 268.304 185.027C268.369 185.922 266.881 186.353 266.745 185.325Z" fill="#231F20"/>
<path d="M265.964 196.537C265.464 195.923 265.567 190.432 266.77 190.678C266.837 190.694 266.9 190.724 266.955 190.767C267.009 190.81 267.053 190.864 267.085 190.925C267.116 190.987 267.134 191.054 267.136 191.123C267.139 191.192 267.127 191.261 267.1 191.325C266.854 192.372 267.958 197.439 265.964 196.537Z" fill="#231F20"/>
<path d="M273.994 189.741C273.909 189.069 273.935 188.387 274.072 187.723V187.743C274.251 187.193 274.309 186.167 275.096 186.234C275.168 186.25 275.236 186.281 275.295 186.325C275.355 186.37 275.404 186.426 275.44 186.491C275.476 186.556 275.497 186.628 275.503 186.701C275.51 186.775 275.5 186.849 275.475 186.919C274.788 187.898 275.799 189.679 274.689 190.192C274.613 190.214 274.534 190.22 274.456 190.209C274.378 190.198 274.303 190.17 274.237 190.127C274.171 190.084 274.115 190.027 274.073 189.961C274.031 189.894 274.004 189.819 273.994 189.741Z" fill="#231F20"/>
<path d="M272.1 205.687C272 205.597 271.923 205.484 271.875 205.359C271.827 205.233 271.809 205.098 271.822 204.965C271.821 204.974 271.821 204.983 271.822 204.993C271.845 203.738 271.5 200.235 273.361 200.356C274.26 200.744 273.462 201.673 273.464 202.337C273.305 203.423 274.118 206.431 272.1 205.687Z" fill="#231F20"/>
<path d="M267.219 211.69C267.344 210.689 267.465 208.527 268.887 208.745C269.965 209.31 268.717 210.582 268.887 211.491C268.926 212.515 267.242 212.884 267.219 211.69Z" fill="#231F20"/>
<path d="M260.498 204.141C260.606 203.063 260.772 199.892 262.309 200.178C263.072 200.825 261.878 201.787 262.027 202.63C261.908 203.376 262.242 204.628 261.212 204.803C261.12 204.812 261.028 204.802 260.94 204.773C260.853 204.744 260.773 204.696 260.705 204.634C260.637 204.571 260.584 204.495 260.548 204.41C260.513 204.325 260.496 204.233 260.498 204.141Z" fill="#231F20"/>
<path d="M260.523 188.524C259.538 188.356 260.2 187.015 260.252 186.368C260.454 185.765 260.385 184.48 261.33 184.663C261.976 185.004 261.444 185.92 261.452 186.491C261.252 187.17 261.511 188.46 260.523 188.524Z" fill="#231F20"/>
<path d="M268.372 174.202C266.954 174.094 268.804 169.963 269.864 170.804C270.448 171.326 269.72 171.904 269.481 172.391C269.058 172.964 269.31 174.165 268.372 174.202Z" fill="#231F20"/>
<path d="M275.583 174.927C275.547 173.975 275.731 173.029 276.121 172.161C276.182 172.006 276.298 171.88 276.446 171.805C276.595 171.73 276.765 171.713 276.926 171.755C277.687 172.124 276.926 172.993 276.857 173.564C276.641 174.191 277.042 175.289 276.154 175.457C276.08 175.465 276.006 175.458 275.935 175.435C275.865 175.412 275.8 175.374 275.746 175.323C275.692 175.273 275.649 175.211 275.621 175.143C275.593 175.074 275.58 175.001 275.583 174.927Z" fill="#231F20"/>
<path d="M281.262 188.867C281.201 187.742 280.615 185.353 282.167 185.107C282.247 185.126 282.322 185.162 282.387 185.212C282.452 185.263 282.505 185.326 282.543 185.399C282.581 185.472 282.602 185.553 282.606 185.635C282.609 185.717 282.595 185.799 282.564 185.875C282.563 185.865 282.563 185.855 282.564 185.845C282.016 186.946 283.497 188.807 282.066 189.41C281.977 189.434 281.884 189.437 281.794 189.422C281.703 189.406 281.617 189.372 281.541 189.32C281.465 189.269 281.401 189.202 281.353 189.124C281.305 189.046 281.274 188.958 281.262 188.867Z" fill="#231F20"/>
<path d="M280.232 199.8C280.355 198.938 280.254 197.164 281.431 197.148C282.464 197.545 281.369 198.856 281.513 199.647C281.541 200.43 280.248 200.71 280.232 199.8Z" fill="#231F20"/>
<path d="M290.006 247.761C289.978 246.569 290.084 245.364 289.868 244.182C289.823 244.053 289.807 243.916 289.821 243.78C289.835 243.644 289.879 243.513 289.949 243.395C290.019 243.278 290.114 243.178 290.227 243.101C290.34 243.024 290.469 242.973 290.603 242.951C291.918 242.77 291.323 246.67 291.446 247.593C291.472 248.468 290.034 248.787 290.006 247.761Z" fill="#231F20"/>
<path d="M282.844 249.689C282.926 248.456 282.568 244.681 284.305 244.698C285.517 245.119 284.34 246.613 284.474 247.501C284.28 248.404 284.862 249.887 283.725 250.269C283.629 250.297 283.528 250.304 283.429 250.289C283.33 250.274 283.235 250.237 283.151 250.182C283.067 250.127 282.996 250.054 282.943 249.969C282.89 249.884 282.856 249.789 282.844 249.689Z" fill="#231F20"/>
<path d="M288.008 236.926C287.989 235.742 287.165 234.11 288.177 233.179C288.351 233.032 288.575 232.959 288.802 232.976C289.03 232.992 289.241 233.097 289.392 233.267L289.364 233.231C289.78 234.179 289.494 235.413 289.768 236.465C289.949 237.512 288.224 238.148 288.008 236.926Z" fill="#231F20"/>
<path d="M286.852 256.708C286.724 255.684 286.515 251.447 288.41 253.097C288.389 254.175 288.261 255.309 288.326 256.427C288.365 257.26 286.99 257.669 286.852 256.708Z" fill="#231F20"/>
<path d="M287.993 266.902C288.241 265.68 287.271 263.416 288.799 262.918C290.293 262.918 289.22 265.753 289.401 266.736C289.42 267.592 288.021 267.902 287.993 266.902Z" fill="#231F20"/>
<path d="M277.227 261.898C277.227 260.604 276.796 257.174 278.305 256.754C278.368 256.768 278.428 256.796 278.48 256.835C278.532 256.874 278.575 256.923 278.606 256.98C278.637 257.037 278.656 257.1 278.662 257.164C278.667 257.229 278.659 257.294 278.637 257.355C278.158 258.716 278.298 260.186 278.357 261.6C278.46 262.277 277.341 262.685 277.227 261.898Z" fill="#231F20"/>
<path d="M300.202 251.936C300.001 250.817 299.26 248.306 300.922 248.097C301.007 248.116 301.087 248.152 301.156 248.204C301.226 248.256 301.284 248.322 301.326 248.398C301.368 248.474 301.394 248.558 301.401 248.645C301.408 248.732 301.397 248.819 301.368 248.901C301.116 249.707 301.409 250.569 301.528 251.38C301.776 252.165 300.495 252.837 300.202 251.936Z" fill="#231F20"/>
<path d="M298.713 267.76C298.747 266.641 298.003 264.366 299.441 263.98C300.519 264.248 299.612 265.83 299.892 266.639C299.924 267.201 300.136 268.025 299.407 268.221C299.331 268.243 299.251 268.248 299.172 268.236C299.094 268.224 299.019 268.195 298.953 268.152C298.887 268.108 298.831 268.05 298.789 267.982C298.748 267.914 298.722 267.838 298.713 267.76Z" fill="#231F20"/>
<path d="M249.004 258.622C247.797 258.264 249.455 255.791 249.605 254.957C249.849 254.295 250.886 254.591 250.573 255.293C249.991 256.095 249.974 258.495 249.004 258.622Z" fill="#231F20"/>
<path d="M252.035 246.465C250.685 246.482 251.64 242.968 252.809 243.358C253.611 243.518 253.468 244.436 253.164 244.973C252.968 245.579 252.869 246.482 252.035 246.465Z" fill="#231F20"/>
<path d="M258.006 238.853C257.743 237.688 257.385 234.757 259.198 234.951C259.963 235.464 258.931 236.21 259.125 236.891C259.066 237.658 259.771 238.797 258.829 239.228C258.512 239.357 258.077 239.223 258.006 238.853Z" fill="#231F20"/>
<path d="M256.173 252.124C256.156 251.141 256.324 248.824 257.755 249.196C258.553 249.843 257.434 251.031 257.691 251.943C257.723 252.87 256.199 253.204 256.173 252.124Z" fill="#231F20"/>
<path d="M255.078 266.791C255.317 265.527 254.366 262.069 255.724 261.58C255.813 261.571 255.903 261.583 255.985 261.616C256.068 261.649 256.142 261.702 256.2 261.769C256.258 261.837 256.299 261.918 256.319 262.004C256.339 262.091 256.338 262.182 256.315 262.268C256.227 263.723 256.531 265.167 256.473 266.627C256.498 267.47 255.099 267.776 255.078 266.791Z" fill="#231F20"/>
<path d="M245.047 267.549C244.049 267.247 244.814 265.969 244.978 265.303C245.193 264.725 245.346 263.794 246.161 263.903C246.252 263.924 246.337 263.964 246.412 264.02C246.486 264.075 246.548 264.146 246.594 264.228C246.639 264.309 246.667 264.399 246.675 264.492C246.683 264.584 246.672 264.678 246.642 264.766C246.142 265.632 246.334 267.543 245.047 267.549Z" fill="#231F20"/>
<path d="M240.514 263.495C239.57 263.193 240.341 262.005 240.466 261.365C240.79 260.675 240.921 259.25 241.975 259.5C243.017 260.082 241.76 261.343 241.613 262.149C241.415 262.688 241.281 263.604 240.514 263.495Z" fill="#231F20"/>
<path d="M236.611 279.035C235.805 278.281 236.995 273.538 238.387 275.269C238.582 276.021 237.905 276.718 237.894 277.485C238.002 278.272 237.642 279.617 236.611 279.035Z" fill="#231F20"/>
<path d="M243.596 285.338C243.724 284.196 244.179 280.973 245.752 281.273C247.003 281.954 245.498 283.392 245.394 284.357C245.282 285.032 245.304 286 244.42 286.106C244.314 286.118 244.206 286.107 244.104 286.074C244.003 286.04 243.909 285.985 243.831 285.912C243.753 285.839 243.691 285.75 243.651 285.651C243.61 285.552 243.592 285.445 243.596 285.338Z" fill="#231F20"/>
<path d="M260.268 278.696C260.216 277.715 260.024 275.626 261.387 275.57C261.473 275.592 261.555 275.631 261.626 275.685C261.696 275.739 261.755 275.808 261.798 275.886C261.842 275.964 261.868 276.05 261.876 276.139C261.884 276.228 261.874 276.318 261.846 276.402C261.643 276.987 261.564 277.607 261.613 278.224C261.613 278.192 261.613 278.159 261.613 278.127C261.891 278.998 260.507 279.757 260.268 278.696Z" fill="#231F20"/>
<path d="M355.51 232.217C353.796 225.534 356.12 218.551 354.102 211.952C354.102 211.968 354.113 211.983 354.119 212C349.978 202.73 341.786 213.343 340.693 190.459C340.693 190.519 340.693 190.582 340.693 190.642C340.693 190.528 340.693 190.426 340.677 190.299C340.677 190.362 340.677 190.422 340.677 190.485C340.66 190.116 340.641 189.75 340.624 189.381C340.624 189.441 340.624 189.504 340.624 189.564C340.164 184.632 340.658 177.647 335.143 175.474C327.551 175.525 325.186 184.159 324.58 190.368L324.599 190.153C324.576 198.92 323.101 206.289 317.916 213.548C316.278 216.238 315.519 219.369 315.062 222.469C315.277 222.861 314.749 223.374 314.37 223.096L314.417 223.128C312.626 216.577 318.028 210.543 319.986 204.523C322.04 199.041 321.014 193.076 322.053 187.419C323.118 182.409 324.856 177.09 329.538 174.361C334.219 171.774 337.961 172.251 340.93 176.916C342.501 179.41 342.551 182.521 342.937 185.373C343.618 190.547 342.833 202.389 348.717 204.388C357.17 206.817 357.689 213.166 357.167 220.875C356.877 224.358 357.053 227.865 357.691 231.301C358.09 232.599 355.992 233.705 355.51 232.217Z" fill="#231F20"/>
<path d="M331.987 192.258C332.086 190.937 331.864 189.535 332.293 188.263C332.472 187.718 333.371 187.556 333.535 188.19C333.456 188.897 333.44 189.61 333.485 190.32C333.399 191.17 333.843 192.676 332.702 192.922C332.61 192.932 332.517 192.922 332.429 192.893C332.342 192.864 332.261 192.816 332.193 192.753C332.125 192.69 332.072 192.614 332.036 192.528C332.001 192.443 331.984 192.351 331.987 192.258Z" fill="#231F20"/>
<path d="M326.141 201.311C325.412 200.162 326.25 198.534 326.589 197.336C326.958 196.32 328.546 196.773 328.07 197.849C327.27 198.819 328.107 202.092 326.141 201.311Z" fill="#231F20"/>
<path d="M327.157 186.167C327.157 185.544 327.457 184.986 327.666 184.412C327.661 184.428 327.655 184.444 327.648 184.46C327.741 183.569 329.082 183.526 328.787 184.529C328.356 185.242 328.851 186.577 327.817 186.779C327.732 186.79 327.645 186.781 327.564 186.755C327.482 186.729 327.407 186.685 327.344 186.626C327.282 186.568 327.232 186.497 327.2 186.417C327.167 186.338 327.153 186.253 327.157 186.167Z" fill="#231F20"/>
<path d="M335.697 183.484C335.503 182.541 334.731 180.485 336.327 180.48C337.178 180.83 336.973 182.184 337.267 182.958C337.437 183.833 335.988 184.471 335.697 183.484Z" fill="#231F20"/>
<path d="M336.608 198.512C336.623 197.988 336.608 197.464 336.595 196.94C336.595 196.962 336.595 196.983 336.595 197.005C336.578 196.026 336.116 194.011 337.63 194.049C337.74 194.068 337.843 194.114 337.931 194.183C338.018 194.252 338.088 194.342 338.132 194.444C338.179 195.778 338.147 197.114 338.037 198.445C337.983 199.271 336.606 199.473 336.608 198.512Z" fill="#231F20"/>
<path d="M331.279 205.025C331.327 204.054 331.215 201.933 332.666 202.138C333.636 202.634 332.581 203.819 332.747 204.647V204.634C332.918 205.604 331.368 206.187 331.279 205.025Z" fill="#231F20"/>
<path d="M323.212 218.247C323.391 217.169 323.275 214.448 324.807 214.534C325.696 214.965 324.762 215.998 324.713 216.69C324.45 217.384 324.758 218.63 323.827 218.827C323.746 218.837 323.665 218.829 323.588 218.804C323.512 218.779 323.441 218.737 323.383 218.681C323.324 218.626 323.278 218.558 323.249 218.483C323.219 218.408 323.207 218.327 323.212 218.247Z" fill="#231F20"/>
<path d="M335.676 224.763C334.57 223.858 334.782 221.84 335.126 220.57C335.484 219.276 337.47 219.649 336.909 221.033C336.299 222.174 337.86 224.966 335.676 224.763Z" fill="#231F20"/>
<path d="M341.936 226.206C341.364 221.957 344.909 220.84 344.283 223.447C343.839 224.175 343.751 225.02 343.796 225.857C343.861 226.902 342.119 227.422 341.936 226.206Z" fill="#231F20"/>
<path d="M106.184 90.9845C104.475 90.6029 105.357 88.1625 104.958 86.9014C103.328 85.2759 114.739 84.4998 115.914 84.0578C126.236 82.525 136.58 81.1345 146.958 79.9617H146.908L148.079 79.8324L147.947 79.8475C151.862 79.4163 155.784 79.0541 159.705 78.6812C159.634 78.1185 159.72 77.254 160.466 77.2928C170.48 75.5854 180.763 75.6371 190.863 74.6347C191.036 73.283 192.935 73.3045 193.992 73.1816C194.556 73.2485 195.335 73.0458 195.66 73.6451C196.486 76.0424 196.432 78.6553 196.581 81.1625C196.454 82.9583 197.43 85.5389 196.173 86.9833C195.145 87.7227 192.802 88.9731 192.724 86.7957C192.636 86.7592 192.556 86.7066 192.487 86.6405C184.685 86.5866 176.892 86.8324 169.092 87.0544C167.522 86.6879 159.447 88.3479 159.981 86.2503C149.064 86.4767 138.207 87.7184 127.353 88.708L127.476 88.6929C123.793 89.096 120.133 89.691 116.442 90.0122L116.567 89.9993C113.12 90.4024 109.658 90.9285 106.184 90.9845ZM162.021 86.1447C162.115 86.1447 162.21 86.1317 162.303 86.1253L162.021 86.1447ZM193.239 75.2685L193.317 75.5768C193.317 75.4668 193.317 75.3612 193.302 75.2469L193.239 75.2685Z" fill="#FFCE26"/>
<path d="M107.426 363.562C106.591 350.575 106.438 337.476 105.382 324.449C98.8649 325.499 92.6841 326.74 86.0032 327.251C80.3743 327.273 74.5514 328.114 69.0066 328.099C69.2329 333.973 69.2804 339.798 69.7654 345.729C70.0328 349.053 70.1427 353.22 70.341 356.926C70.5092 359.498 71.2637 363.734 67.6894 364.019C64.779 363.879 65.2964 360.505 65.0722 358.427C64.8049 354.605 64.751 351.211 64.4254 347.518C63.326 330.731 63.0349 313.672 61.7328 296.554C61.3447 287.862 60.2776 279.196 59.7925 270.529C59.2514 260.412 58.2274 250.299 57.71 240.192C56.7377 227.624 57.1128 215.012 56.6881 202.396C56.2333 191.757 55.1791 181.088 54.8945 170.583C54.2995 162.127 54.5302 152.463 54.099 143.697C52.9413 128.486 51.512 113.628 50.8652 98.2759C51.5982 97.9741 52.3075 97.6184 53.0211 97.2605L52.909 97.3187C53.9265 96.7884 54.9635 96.2882 56.0241 95.8506C56.5566 109.171 57.5095 122.473 58.6413 135.751C59.6632 145.631 59.3894 156.662 59.8658 166.827C60.3229 177.606 61.1723 188.06 61.8492 198.893C62.2394 210.614 62.1575 222.372 62.8948 234.113C71.9493 232.806 81.1418 234.788 90.1187 233.268C90.2803 235.111 90.3148 236.963 90.4291 238.808C82.3555 239.101 74.2603 239.455 66.2061 239.765C65.4473 240.412 64.378 240.643 63.423 240.884C64.4729 254.576 65.3136 267.987 66.2967 281.556C78.1926 278.579 90.7999 279.573 102.853 277.587C102.334 265.163 103.448 251.435 103.392 239.121C103.487 230.019 102.726 219.072 102.773 210.409C102.142 191.106 102.81 171.576 101.68 152.351C101.165 146.284 101.137 140.097 101.129 134.007C101.053 125.521 99.9924 115.583 99.5979 106.817C101.385 106.27 103.198 105.819 104.975 105.235C105.783 118.17 106.76 131.163 106.684 144.014C108.139 162.071 107.827 180.308 108.217 198.656C108.752 220.277 109.616 240.968 108.62 262.561C108.254 287.784 110.748 312.221 112.261 337.489C112.505 345.317 112.964 353.011 113.124 360.854C113.831 364.284 109.312 367.844 107.426 363.562ZM66.8615 287.728C67.5751 299.801 68.3534 311.915 68.8233 324.005C80.7386 321.454 93.1498 322.379 104.944 319.046C103.651 306.79 103.254 294.726 102.924 282.397C98.2375 282.947 93.5184 283.162 88.8101 283.389H88.8381C81.3703 283.518 73.9801 284.467 66.5425 284.111C66.661 285.322 66.7731 286.519 66.8615 287.728Z" fill="#FFCE26"/>
<path d="M94.5153 235.336C94.4484 234.461 94.3924 233.583 94.332 232.708C99.3616 231.454 98.8205 237.955 94.7826 238.559C94.6856 237.486 94.5993 236.41 94.5153 235.336Z" fill="#FFCE26"/>
<path d="M97.2164 67.3516C96.2096 54.2398 95.7267 41.6346 94.6294 28.8829C94.1767 19.63 92.4735 10.0883 94.1831 0.947565C98.3719 -3.90737 98.2059 11.3775 98.7319 13.3026C101.058 32.0045 101.519 50.0618 102.949 68.8563C101.157 69.6389 99.1092 69.8416 97.4794 70.9906C97.3867 69.8545 97.3005 68.6451 97.2164 67.3516Z" fill="#FFCE26"/>
<path d="M50.2489 84.3989C50.1886 72.3262 48.9425 60.6567 48.2246 48.6875C48.009 35.0044 47.3213 21.3365 46.3598 7.70081C45.9287 2.11288 54.3364 2.13013 51.8594 7.93364C53.653 20.7522 52.8553 33.6139 53.0796 46.4498C53.8319 58.7811 55.3604 71.2979 55.3626 83.6142C53.4892 83.8492 51.8421 84.8258 50.2576 85.7937C50.2533 85.3238 50.2504 84.8588 50.2489 84.3989Z" fill="#FFCE26"/>
<path d="M61.8904 201.281C59.8811 201.428 58.0357 199.395 59.9372 197.819C62.2202 196.562 65.0853 196.657 67.6055 196.105C73.5362 195.068 79.5423 194.639 85.4838 193.733C85.6671 195.65 85.9775 197.575 86.648 199.386C78.4601 200.542 70.1472 201.027 61.8904 201.281Z" fill="#FFCE26"/>
<path d="M90.4904 198.543C90.4645 198.38 90.4365 198.216 90.4106 198.054C90.4106 198.117 90.43 198.179 90.4408 198.242L90.3891 197.931C90.3891 197.994 90.4106 198.056 90.4192 198.119C90.1794 196.385 89.6702 194.699 88.9102 193.122C91.5122 192.859 94.1467 192.52 96.7466 192.421C99.6958 192.966 99.118 197.295 96.6237 198.108C94.6835 198.755 92.6096 198.656 90.6025 198.854L90.4904 198.543Z" fill="#FFCE26"/>
<path d="M58.3856 157.629C58.1258 157.663 57.8615 157.631 57.6173 157.536C57.3732 157.44 57.157 157.285 56.9887 157.084C56.8204 156.883 56.7055 156.643 56.6547 156.386C56.6038 156.129 56.6185 155.863 56.6976 155.613C57.7863 153.065 61.6172 153.386 63.9304 152.746C64.0102 153.268 63.993 153.798 64.0253 154.324C64.0955 155.298 64.2397 156.265 64.4565 157.217C62.4343 157.338 60.41 157.506 58.3856 157.629Z" fill="#FFCE26"/>
<path d="M66.9863 152.186C69.666 152.186 69.4957 156.016 67.2989 156.745C67.1911 155.226 67.0869 153.706 66.9863 152.186Z" fill="#FFCE26"/>
<path d="M65.9199 152.343H65.963C65.963 152.414 65.9738 152.481 65.963 152.558C65.9566 152.476 65.9372 152.41 65.9199 152.343Z" fill="#FFCE26"/>
<path d="M55.4468 109.626C52.3316 104.157 70.6583 104.034 73.7714 103.281C73.8921 104.965 74.2457 106.625 74.3297 108.313C70.7855 108.796 67.2155 109.037 63.6627 109.371C61.1015 109.412 57.6953 111.21 55.4468 109.626Z" fill="#FFCE26"/>
<path d="M77.64 107.143C77.6329 106.963 77.6062 106.785 77.5602 106.61C77.5602 106.647 77.5753 106.684 77.584 106.72C77.3253 105.427 77.0385 104.133 76.7949 102.84C80.2982 102.148 80.3111 107.236 77.3059 107.844C77.4086 107.758 77.4916 107.651 77.5492 107.53C77.6069 107.409 77.6378 107.277 77.64 107.143Z" fill="#FFCE26"/>
<path d="M76.9648 103.724C76.9648 103.754 76.9778 103.782 76.9821 103.812C76.9756 103.784 76.9713 103.754 76.9648 103.724Z" fill="#FFCE26"/>
<path d="M62.1942 69.0758C59.1329 68.6576 55.759 68.7481 52.8982 67.6249C51.7772 66.6656 52.7883 64.9107 54.1184 64.8547C57.3069 64.32 60.5364 64.8008 63.7442 64.6887C70.548 64.0656 77.3842 63.8263 84.1772 63.1171C88.0815 62.4315 91.9964 61.9486 95.9438 61.6209C98.1406 60.4481 100.687 62.1189 99.5785 64.6261C98.1039 67.5516 94.0251 66.4931 91.3303 66.9976C81.7088 68.567 71.9299 68.9184 62.1942 69.0758Z" fill="#FFCE26"/>
<path d="M54.1014 69.005C52.9868 69.0157 52.2883 67.7546 53.0235 66.8642C54.2997 65.7863 56.3521 66.0385 57.9258 65.5707C65.9908 64.2772 74.1226 63.1023 82.3083 63.1368C87.284 62.9514 92.1109 61.4509 97.1103 61.4121C99.6973 61.5522 99.016 65.4392 96.7416 65.5815C94.7345 65.7367 92.7102 65.7001 90.7053 66.0127C84.8436 67.3256 78.8762 66.8621 72.9369 67.2889C66.6289 67.5304 60.3878 68.7355 54.1014 69.005Z" fill="#FFCE26"/>
<path d="M54.6826 27.7079C53.0765 27.9385 50.7266 26.5265 52.2681 24.8686C53.346 23.8597 54.993 23.9395 56.3641 23.6678C59.7682 23.1935 63.1981 22.9542 66.613 22.5899C75.8615 21.512 85.0777 20.3845 94.3866 20.0913C98.5366 18.5822 99.1682 24.5819 95.3157 25.164C93.9231 25.2092 92.5326 25.2136 91.1377 25.3019H91.2757C79.05 25.5585 66.9213 27.4836 54.6826 27.7079Z" fill="#FFCE26"/>
<path d="M97.7635 92.7888C93.2773 92.4589 95.4719 88.5375 98.8415 89.3524C100.626 89.8482 100.146 93.1617 97.7635 92.7888ZM98.1193 91.8337C98.2907 91.8163 98.4589 91.7757 98.6194 91.713C97.8864 91.5686 97.5544 90.6502 97.8735 90.0142C97.7204 90.0638 97.5695 90.1242 97.4186 90.1845C96.9185 90.3786 96.3773 90.5898 96.0561 91.0469C96.4679 91.7626 97.3733 91.8618 98.1193 91.8381V91.8337Z" fill="#231F20"/>
<path d="M98.1777 93.6723C98.0376 93.405 98.4386 93.4934 98.5744 93.4007H98.555C98.8301 93.284 99.0797 93.1148 99.2901 92.9027V92.9134L99.3505 92.8552L99.3311 92.8746C99.4923 92.7227 99.6309 92.5484 99.7428 92.3572C99.9821 92.0188 100.362 92.4801 100.071 92.7151C99.5251 93.1096 98.9064 93.9181 98.1777 93.6723Z" fill="#231F20"/>
<path d="M95.8827 97.4403C95.2963 97.1924 95.8827 96.4206 95.9646 95.9981C95.9193 95.651 96.3052 95.2565 96.6458 95.4527C96.7105 95.4989 96.764 95.5591 96.8024 95.6288C96.8408 95.6985 96.863 95.7758 96.8676 95.8552C96.8721 95.9346 96.8588 96.0141 96.8287 96.0876C96.7985 96.1612 96.7522 96.2271 96.6933 96.2805C96.426 96.6341 96.4109 97.4166 95.8827 97.4403Z" fill="#231F20"/>
<path d="M97.666 96.8519C97.112 96.619 97.8018 95.8559 97.9096 95.4829C97.9001 95.4551 97.9009 95.4248 97.9119 95.3975C97.9228 95.3702 97.9432 95.3477 97.9692 95.3342C97.9953 95.3206 98.0254 95.3168 98.054 95.3236C98.0826 95.3303 98.1079 95.347 98.1252 95.3708C98.2093 95.5713 98.0757 95.802 98.0304 95.996C97.9032 96.2633 98.0476 96.7958 97.666 96.8519Z" fill="#231F20"/>
<path d="M99.2383 96.3694C98.7403 96.4018 99.2383 95.0889 99.4301 94.9789C99.7729 94.925 99.5875 96.4664 99.2383 96.3694Z" fill="#231F20"/>
<path d="M89.2585 285.953C86.1476 284.27 94.6201 279.764 95.726 278.317C93.7405 269.478 94.7192 260.29 94.0811 251.292C93.3524 229.734 92.8717 207.845 86.4818 187.078C77.0651 190.109 67.1138 191.472 58.0011 195.458L58.1218 195.408C54.9743 196.978 51.6543 198.401 48.7267 200.326C47.5625 203.831 48.5003 207.748 49.5782 211.176L49.5459 211.083C51.5875 216.708 54.5905 221.895 57.2293 227.252C59.4153 231.818 61.4741 236.464 64.3435 240.653C64.7337 241.882 63.2829 242.785 62.7417 243.757C61.1551 245.628 59.7818 242.354 58.5422 241.554C56.9404 245.527 53.6743 248.927 49.5718 250.296L49.6774 250.253C45.5813 252.409 44.4452 251.178 47.3254 247.487C48.4895 245.762 49.3605 243.895 50.3759 242.097C46.6916 234.983 43.0978 227.804 39.476 220.649C36.9644 216.518 35.1643 212.025 33.2047 207.625C31.9586 204.745 30.5832 201.904 30.0205 198.787C25.254 184.028 52.6719 179.524 62.233 175.143C62.249 175.151 62.2655 175.158 62.2826 175.163L62.2481 175.15L62.2912 175.165C62.2993 175.333 62.3643 175.494 62.4755 175.62C62.5867 175.747 62.7376 175.832 62.9034 175.861C69.3278 178.696 76.69 179.095 83.6469 179.496C85.3866 179.656 87.4713 179.783 89.0666 179.102C90.856 177.11 92.5706 175.057 94.2105 172.942C94.6696 175.353 94.6783 178.052 95.7627 180.246C99.6604 181.382 104.076 181.201 108.113 180.82C108.915 192.108 107.76 203.486 107.551 214.796C107.154 224.857 107.234 234.951 107.12 245.023C107.368 250.956 107.307 256.895 107.611 262.828C107.827 269.42 108.596 276.004 108.172 282.603C107.991 284.543 105.326 283.955 103.961 284.255C102.607 283.838 102.817 281.894 102.469 280.769C99.1559 284.283 93.9453 285.662 89.2585 285.953ZM61.9441 242.334C61.9441 242.334 61.9441 242.334 61.957 242.321C61.8643 242.231 61.7781 242.134 61.694 242.035C61.7759 242.138 61.86 242.24 61.9441 242.337V242.334Z" fill="#231F20"/>
<path d="M76.7511 115.426C76.7296 115.368 76.7186 115.307 76.7188 115.245C76.9882 115.202 77.2577 115.15 77.5272 115.111C77.3827 115.374 76.9688 115.87 76.7511 115.426Z" fill="#231F20"/>
<path d="M97.9159 113.778C97.7801 113.655 97.6421 113.537 97.502 113.42C98.1927 113.323 98.8892 113.274 99.5866 113.271C99.6556 113.388 99.7225 113.506 99.7893 113.625C99.5608 113.677 99.3279 113.724 99.0951 113.761C98.7394 113.81 98.3794 113.836 98.0172 113.89C97.9913 113.849 97.9547 113.813 97.9159 113.778Z" fill="#231F20"/>
<path d="M48.2802 97.5154C48.0126 97.1189 47.7057 96.7505 47.3639 96.4159C48.721 95.699 50.1197 95.0641 51.5527 94.5144L51.4428 94.5597C53.1782 93.844 55.1292 93.6844 56.8 92.807L56.703 92.7941L56.7785 92.8049C56.0476 92.6259 55.3319 92.8049 54.6226 92.8911C53.0036 92.0439 55.7393 91.1212 56.3818 90.6361C55.4397 90.4572 54.5666 91.1169 53.6676 91.022C52.5724 90.1165 54.3898 89.5517 55.0883 89.3167H55.0775L55.1357 89.293H55.1163C55.5087 89.1033 56.0002 88.974 56.2568 88.601C56.1867 88.5264 56.1043 88.4644 56.0131 88.4177L56.0714 88.4479C55.0603 88.1935 54.0017 88.8899 52.9863 88.9589C51.0935 87.84 54.9266 87.1113 55.388 86.2792C51.3953 86.2792 48.4354 89.5991 45.2792 91.6278C44.8481 91.9468 44.4169 92.2745 44.0224 92.6324C43.7821 92.3418 43.522 92.0681 43.2441 91.8132C45.8564 89.4227 48.7822 87.3991 51.9408 85.7984C53.4067 84.9857 58.2293 84.4079 55.7954 87.2558C56.9595 87.1717 57.7033 88.6096 56.772 89.4116C58.1345 89.4267 57.8499 91.0414 56.9186 91.5221C59.4107 92.0245 57.408 94.3528 55.8773 94.6783C53.3636 95.7131 50.8391 96.7112 48.3966 97.9228C48.3941 97.7792 48.3539 97.6387 48.2802 97.5154Z" fill="#231F20"/>
<path d="M146.37 85.8921C146.122 83.7363 144.984 80.8733 146.706 79.0926C147.377 78.6032 148.338 78.683 148.728 79.4785C148.98 78.3704 150.643 77.9586 150.97 79.2306C151.574 78.2087 152.725 77.4326 153.055 79.1077C154.301 77.1265 155.737 78.6765 155.45 80.4616C154.984 83.0593 155.202 85.7606 155.403 88.3778C154.961 88.3035 154.513 88.2818 154.066 88.3131C153.527 85.3316 153.993 82.2897 154.417 79.3901C154.417 79.4138 154.417 79.4354 154.433 79.4591C154.43 79.3861 154.409 79.3149 154.371 79.2523C154.333 79.1897 154.28 79.1377 154.217 79.1012C153.441 79.5324 153.305 80.4486 153.204 81.2463C152.059 82.7812 152.535 79.4979 152.171 79.015C151.555 79.5885 151.108 80.412 151.309 81.2722C151.468 81.768 150.914 82.4665 150.479 81.9469C150.095 81.2247 150.64 79.8924 149.92 79.4095H149.983C148.717 79.5389 149.983 83.9907 148.314 82.7338C148.034 82.1237 148.47 79.7825 147.385 80.1619C146.622 83.0766 148.092 86.1594 148.174 89.1323C147.78 89.1395 147.388 89.1806 147.001 89.2552C146.732 88.1299 146.549 87.0067 146.37 85.8921Z" fill="#231F20"/>
<path d="M102.124 181.061C93.5895 180.63 95.769 180.957 94.2103 172.935C92.5661 175.051 90.8515 177.104 89.0665 179.095C87.4734 179.776 85.3865 179.649 83.6467 179.489C76.6899 179.095 69.3277 178.689 62.9033 175.854C62.0043 175.639 62.2415 174.647 62.8386 174.216C63.622 173.173 64.2274 172.007 64.6301 170.767C66.7084 165.772 66.7472 161.242 66.2599 155.963C65.7145 149.555 64.1666 143.215 62.7869 136.937C51.2726 136.506 33.5236 138.015 24.2859 130.168C16.7189 122.131 19.8211 111.971 26.5991 104.598C31.1155 99.4388 36.2141 94.5062 42.4983 91.6325C43.8824 91.6109 44.7124 94.0039 45.8032 94.7886C46.5686 95.9592 49.6622 97.6106 47.7111 98.958C45.4928 101.403 42.5479 103.257 40.1851 105.609L40.2132 105.579C17.4217 125.119 53.2991 118.317 64.1429 117.352C70.4789 116.77 76.6985 115.901 83.0474 115.118C86.8568 115.146 90.4462 114.672 94.206 114.624H94.1801C96.157 114.409 98.2482 114.612 100.158 114.049C107.057 112.708 114.26 112.607 121.204 113.43H121.117C127.585 113.917 134.026 114.577 140.507 114.724C143.512 114.583 146.681 115.541 149.602 114.724V114.693C149.9 111.345 149.387 108.603 148.984 105.436C148.363 100.786 147.58 96.1834 145.75 91.8244C144.795 89.5715 147.431 88.97 149.135 89.0326C151.18 88.9161 155.102 87.3553 156.622 88.9485C157.331 88.9075 157.428 91.4126 157.915 92.0809C160.744 99.1046 161.666 106.391 162.94 113.838V113.801C163.73 119.434 163.652 127.383 157.217 129.539C151.827 131.638 145.965 132.266 140.252 132.738L139.867 132.766H139.905C135.072 133.477 130.31 133.337 125.438 133.264C121.822 133.203 118.123 133.464 114.456 133.225C114.221 140.542 111.039 147.717 112.608 154.999C113.669 160.009 115.148 164.741 116.847 169.559C117.812 171.81 117.924 174.498 118.759 176.747C120.699 179.668 110.834 180.53 109.142 180.688C108.998 180.788 108.831 180.851 108.656 180.869C108.482 180.888 108.306 180.863 108.143 180.796C106.171 181.147 104.131 181.063 102.124 181.061ZM96.8189 178.754H96.8361C96.8159 178.715 96.7993 178.674 96.7866 178.631L96.8189 178.754ZM46.284 134.626H46.2948C46.049 134.626 45.8054 134.626 45.5704 134.626H46.284ZM105.569 114.607L106.014 114.573C105.873 114.586 105.725 114.59 105.578 114.607H105.569Z" fill="#FFCE26"/>
<path d="M71.473 117.415C70.3951 115.717 75.7372 115.658 76.7181 115.244C76.9876 115.201 77.2571 115.15 77.5266 115.111C78.0612 115.035 78.6045 115.016 79.1327 114.947C85.2682 114.266 91.4209 114.43 97.5111 113.418C100.831 113.022 104.175 113.188 107.503 113.291C108.211 113.384 109.211 113.002 109.709 113.645C109.762 113.751 109.792 113.867 109.797 113.985C109.802 114.104 109.782 114.222 109.738 114.332C109.695 114.442 109.628 114.542 109.543 114.624C109.458 114.707 109.357 114.77 109.245 114.811C104.556 115.05 99.8157 114.759 95.1333 115.337L95.2216 115.324C88.323 116.169 81.3208 115.803 74.4373 116.943C74.1354 116.986 73.8336 117.027 73.5296 117.064C72.8376 117.079 72.1046 117.624 71.473 117.415Z" fill="#FFCE26"/>
<path d="M76.811 114.78C76.9101 113.465 77.5504 112.331 78.8849 111.945C78.7749 110.821 78.7943 109.692 78.79 108.564C76.5566 109.623 74.8686 107.37 76.6622 105.635C74.8966 105.958 74.4827 103.843 76.0004 103.138C75.6971 103.089 75.4187 102.94 75.2084 102.717C74.998 102.493 74.8674 102.206 74.837 101.9C74.8065 101.594 74.8778 101.287 75.0398 101.026C75.2019 100.765 75.4456 100.565 75.733 100.456C76.4984 100.064 77.3823 100.083 78.1864 99.8095C77.1882 93.9046 78.0419 87.3595 81.5344 82.3774C84.1861 78.609 88.8513 76.9986 93.3268 77.6346C97.175 78.3223 97.9403 75.9983 98.4167 72.7624C98.9643 70.4147 102.646 69.6644 102.711 72.6567C104.744 71.1584 106.891 72.6999 105.65 75.0282C106.76 74.6487 108.079 75.0713 108.105 76.4036C108.105 76.3799 108.105 76.3583 108.105 76.3346L108.124 76.5006V76.4316C108.237 77.8372 107.327 79.0811 106.352 79.9995L106.372 79.9823C104.922 81.417 103.139 82.4689 101.183 83.0436C102.067 85.4861 101.829 88.1809 102.59 90.6472C103.063 92.3179 104.82 92.7211 106.122 93.5382C106.725 94.4328 105.423 95.1723 104.695 95.4073C104.168 95.6466 103.617 95.8384 103.082 96.0346L102.787 96.1532C102.95 104.184 106.236 104.509 97.037 106.49L97.1232 106.471C96.9206 106.518 96.7201 106.568 96.5196 106.631C96.5886 108.025 96.58 109.433 96.7352 110.813C97.8795 111.376 98.8612 112.222 99.5874 113.271C98.8891 113.274 98.1918 113.325 97.5005 113.424C94.7453 111.229 90.7743 112.71 87.5427 112.697C84.7401 113.411 78.8568 112.29 77.5245 115.116C77.2551 115.155 76.9856 115.206 76.7161 115.25C76.7243 115.089 76.7563 114.931 76.811 114.78ZM85.0958 94.2625C82.9659 94.6161 82.7568 97.9835 84.1085 99.305C85.0894 99.7362 84.324 101.297 84.2658 102.108C83.7032 104.518 82.2609 106.736 80.0641 107.943C79.9269 109.154 79.8822 110.374 79.9305 111.591C85.07 110.968 90.3194 110.418 95.5064 110.513C95.5387 108.965 95.1722 107.279 95.4783 105.798C97.466 104.388 100.258 104.645 102.446 103.599C102.59 102.325 100.937 95.3102 102.509 95.3943C103.496 95.0365 104.817 94.9761 105.527 94.159C102.567 93.2838 100.616 91.1797 100.568 87.9955C100.568 87.9265 100.553 87.8554 100.547 87.7799C100.547 87.8058 100.547 87.8317 100.547 87.8575C100.532 87.7109 100.517 87.5622 100.504 87.4134C99.5087 87.9356 98.4588 88.3456 97.3733 88.6358L97.4552 88.6185C96.442 88.9354 93.2233 89.1273 94.4522 87.325C96.2631 86.4282 98.3176 85.6198 100.379 85.9302C100.29 85.0679 100.288 84.2055 100.096 83.3561C96.733 84.6496 93.4303 86.2062 90.0176 87.4242C90.0284 90.2268 90.6191 92.9884 90.9425 95.7608C91.5483 98.9946 91.0567 98.6992 88.0342 99.402C86.4195 98.5591 87.4263 94.1633 85.0958 94.2582V94.2625Z" fill="#241F20"/>
<path d="M62.507 133.5C61.6446 132.029 62.8217 131.382 62.9381 132.299C63.0359 132.535 63.1634 132.758 63.3175 132.963C63.6495 133.448 62.8109 134.073 62.507 133.5Z" fill="white"/>
<path d="M114.854 129.739C114.446 129.013 115.106 127.633 115.429 126.919C116.494 126.328 116.026 128.131 116.11 128.674V128.581C116.348 129.334 115.61 130.392 114.854 129.739Z" fill="white"/>
<path d="M94.1745 170.466C93.4932 168.526 94.3275 166.118 94.0796 164.025C94.1206 163.268 93.4329 161.27 94.7975 161.545C95.7547 163.333 95.3149 165.698 95.4313 167.696C95.4119 168.636 95.8215 171.137 94.1745 170.466Z" fill="white"/>
<path d="M102.333 114.173C101.665 114.216 100.158 113.658 101.353 113.076C102.151 113.171 102.958 113.163 103.754 113.052C103.823 113.044 103.892 113.051 103.958 113.073C104.024 113.094 104.084 113.13 104.135 113.177C104.185 113.224 104.225 113.282 104.251 113.346C104.278 113.41 104.29 113.479 104.287 113.548C104.196 114.475 102.98 114.154 102.333 114.173Z" fill="white"/>
<path d="M159.378 83.134C158.891 82.6533 159.253 81.7651 159.162 81.1356C159.132 81.0792 159.118 81.0154 159.122 80.9514C159.126 80.8874 159.147 80.8258 159.184 80.7734C159.615 79.9111 159.995 81.0946 159.988 81.5495C160.096 82.1272 160.396 83.4164 159.378 83.134Z" fill="white"/>
<path d="M191.741 84.8681C191.493 83.0011 191.741 81.1471 191.676 79.2801C191.855 78.4458 190.935 75.3867 192.323 75.6476C193.341 77.9521 192.733 80.7914 192.97 83.2792C192.969 83.2699 192.969 83.2605 192.97 83.2512C192.97 83.2835 192.97 83.3159 192.97 83.346V83.3331C192.931 83.9928 193.166 85.1462 192.302 85.3229C192.167 85.3368 192.032 85.2967 191.927 85.2114C191.822 85.1261 191.755 85.0027 191.741 84.8681Z" fill="white"/>
<path d="M85.6904 82.3145C84.8475 81.7777 86.6066 80.8679 87.0486 80.6049C87.6457 80.3591 87.8743 81.2516 87.359 81.4953C86.8007 81.7324 86.307 82.2886 85.6904 82.3145Z" fill="white"/>
<path d="M87.1288 83.9733C87.0835 83.936 87.0479 83.8883 87.025 83.8342C87.0021 83.7802 86.9926 83.7214 86.9973 83.6629C87.0004 83.6022 87.0135 83.5425 87.0361 83.4861C87.4673 82.8393 88.1356 82.3025 88.7413 81.8239C89.304 81.52 89.6037 82.3478 89.0884 82.6108H89.0992C88.7737 82.8393 88.4826 83.1153 88.1744 83.3675L88.1895 83.3546L88.1399 83.3955H88.1528C87.8143 83.5896 87.6031 84.2794 87.1288 83.9733Z" fill="white"/>
<path d="M88.987 84.6959C88.0902 83.9952 89.8127 83.1868 90.3021 82.7772C90.3906 82.7207 90.4975 82.7004 90.6006 82.7204C90.7037 82.7405 90.7952 82.7994 90.8561 82.885C91.1429 83.5662 90.1124 83.8659 89.7567 84.2927C89.6801 84.3559 89.608 84.4243 89.5411 84.4976V84.4846L89.5174 84.5105C89.5384 84.4872 89.5572 84.4619 89.5734 84.435L89.6057 84.3725C89.5581 84.4913 89.4696 84.5892 89.3561 84.6485C89.2427 84.7078 89.1118 84.7246 88.987 84.6959Z" fill="white"/>
<path d="M39.0924 200.039C38.0512 199.607 36.6758 199.252 36.154 198.167C35.9385 197.521 37.0767 197.027 37.1953 197.814C37.7364 198.676 40.041 198.553 39.7952 199.683C39.7412 199.817 39.6401 199.928 39.5108 199.993C39.3815 200.059 39.2328 200.075 39.0924 200.039Z" fill="white"/>
<path d="M41.1643 197.694C40.6922 197.088 38.8058 195.596 39.2456 194.87C39.8622 194.654 40.2416 196.083 40.7849 196.379C41.022 196.782 41.9943 197.146 41.5977 197.672C41.5707 197.702 41.538 197.727 41.5016 197.744C41.4652 197.761 41.4257 197.771 41.3855 197.773C41.3452 197.775 41.3049 197.769 41.267 197.756C41.229 197.742 41.1942 197.721 41.1643 197.694Z" fill="white"/>
<path d="M90.7335 186.546C90.2204 186.507 90.4036 185.727 90.8563 185.764C91.4686 185.947 92.6931 185.1 92.9367 185.884C92.6888 186.635 91.3953 186.428 90.7335 186.546Z" fill="white"/>
<path d="M93.0763 190.084C92.5157 189.907 91.0972 190.274 91.1835 189.394C91.5327 188.624 92.6171 189.304 93.266 189.232C93.7769 189.332 93.5376 190.127 93.0763 190.084Z" fill="white"/>
</svg>
