<svg width="94" height="94" viewBox="0 0 94 94" fill="none" xmlns="http://www.w3.org/2000/svg">
<circle cx="47.2948" cy="46.623" r="46.623" fill="#002049"/>
<path d="M72.7027 42.1654C72.7027 33.3498 67.4853 28.4922 61.5482 28.4922C56.1509 28.4922 52.013 32.81 52.013 38.0275C52.013 43.4248 55.6112 47.2029 60.6487 47.2029C61.5482 47.2029 62.8076 47.023 62.9875 47.023C62.4478 52.7801 57.2304 59.9766 51.4732 63.7547L58.1299 69.152C66.4058 63.215 72.7027 53.14 72.7027 42.1654ZM43.917 42.1654C43.917 33.3498 38.6996 28.4922 32.7625 28.4922C27.3652 28.4922 23.0473 32.81 23.0473 38.0275C23.0473 43.4248 26.8255 47.2029 31.863 47.2029C32.7625 47.2029 34.0219 47.023 34.2018 47.023C33.4822 52.7801 28.4446 59.9766 22.6875 63.7547L29.3442 69.152C37.6201 63.215 43.917 53.14 43.917 42.1654Z" fill="white"/>
</svg>
