<svg width="256" height="237" viewBox="0 0 256 237" fill="none" xmlns="http://www.w3.org/2000/svg">
<path d="M227.719 208.37L228.55 208.434C228.12 208.474 227.691 208.516 227.263 208.558C227.414 208.494 227.566 208.431 227.719 208.37Z" fill="#231F20"/>
<path d="M151.639 206.483C148.3 206.208 144.959 205.969 141.604 205.969C139.531 205.9 128.2 206.609 129.09 203.296C132.426 193.829 135.882 184.03 135.225 173.86C135.267 173.815 135.296 173.761 135.311 173.702C135.326 173.643 135.325 173.582 135.31 173.523C135.295 173.464 135.265 173.41 135.224 173.366C135.182 173.321 135.13 173.288 135.072 173.269C135.026 173.202 134.962 173.148 134.887 173.116C134.053 171.311 131.711 170.439 130.554 168.76C126.115 163.402 130.079 156.854 130.632 150.937C129.54 147.079 125.734 144.704 123.799 141.293C121.457 140.528 129.334 132.602 130.228 131.353L130.14 131.45C131.319 130.17 132.412 128.815 133.413 127.393C134.168 126.539 134.622 125.071 135.844 124.842C137.896 125.019 139.99 125.09 142.041 125.439C143.049 125.552 143.505 126.051 143.777 126.969C144.371 128.264 145.234 129.383 146.124 130.49C148.212 133.398 148.084 137.191 148.337 140.611C148.719 144.588 149.541 148.51 150.786 152.307C158.286 144.976 166.22 138.012 172.866 129.871C174.55 127.549 175.249 124.727 176.425 122.142C176.768 121.182 177.046 120.2 177.255 119.203C177.217 118.953 177.259 118.698 177.375 118.474C177.49 118.25 177.674 118.068 177.899 117.954C178.761 117.579 179.691 118.186 180.532 118.393C182.719 119.071 184.946 119.617 187.141 120.26C190.232 121.222 193.434 121.724 196.556 122.556C197.267 122.748 198.26 122.621 198.621 123.403C195.031 129.761 192.456 136.64 190.989 143.793C188.776 148.691 188.361 154.154 187.091 159.331C186.549 162.691 185.485 165.896 184.511 169.158C183.344 173.666 182.479 178.287 182.497 182.954C182.497 182.929 182.497 182.903 182.497 182.879V182.966V182.954C182.498 182.959 182.498 182.965 182.497 182.971C182.497 182.971 182.497 182.971 182.497 182.98V182.972C182.387 184.618 182.171 186.255 182.127 187.905V187.893C182.126 187.902 182.126 187.911 182.127 187.919C182.127 187.919 182.127 187.91 182.127 187.905C182.127 187.942 182.127 187.977 182.127 188.011V188C182.127 192.624 182.454 197.246 182.701 201.862C182.701 201.862 182.701 201.85 182.701 201.844C182.768 202.744 182.843 203.642 182.975 204.535C177.841 204.943 172.704 205.254 167.564 205.467C162.251 205.794 156.964 206.534 151.639 206.483Z" fill="#5271F2"/>
<path d="M140.807 112.174C138.664 112.232 138.474 109.56 140.309 108.874C141.446 108.468 143.445 108.442 143.543 110.036C143.664 111.501 142.105 112.336 140.807 112.174Z" fill="#F54E5A"/>
<path d="M154.085 111.05C152.239 111.171 150.58 109.05 152.084 107.553C153.661 106.319 156.84 106.1 157.881 108.115C158.766 110.296 155.703 111.084 154.085 111.05Z" fill="#F54E5A"/>
<path d="M135.925 53.4897C135.898 52.2912 136.782 51.1662 137.558 50.3197C138.618 49.2788 140.151 49.5115 141.462 49.1595C142.16 48.737 142.913 47.7283 143.778 48.4814C145.083 50.2876 142.003 51.4922 140.563 51.5274C137.695 51.0162 137.029 55.3587 135.925 53.4897Z" fill="#5271F2"/>
<path d="M136.378 55.369C135.233 54.7567 136.184 53.3409 136.846 52.7225C136.937 51.3709 138.731 51.2393 139.703 50.7326C140.721 50.503 142.654 49.3703 143.234 50.7188C143.32 50.6428 143.402 50.5615 143.479 50.4755C143.312 50.0362 142.867 49.7361 142.738 49.2815C142.839 47.1937 145.75 50.2122 144.586 51.2025C143.234 53.2092 140.74 53.373 138.691 54.1567C137.921 54.5333 137.37 55.7211 136.378 55.369Z" fill="#5271F2"/>
<path d="M178.262 40.4572C176.234 40.4863 174.951 38.5316 173.128 37.9346C171.986 37.3713 169.891 38.4842 169.51 36.8371C169.257 34.1891 172.628 33.6227 174.63 33.4697C176.084 33.4192 177.195 34.3881 178.185 35.3187C179.197 36.0963 180.44 36.479 181.553 37.0974C183.656 38.2699 179.649 40.8965 178.262 40.4572Z" fill="#5271F2"/>
<path d="M61.968 73.83C60.6914 73.458 61.2807 71.8401 61.919 71.1283C62.5909 70.1594 63.7298 69.7217 64.8104 69.3727C65.6431 69.0834 72.0046 67.5358 71.9801 68.7114C74.0358 70.4839 70.1188 72.385 68.6922 72.9192C67.486 73.4198 66.1865 73.1779 64.9267 73.2713C63.9318 73.406 62.9889 74.0244 61.968 73.83Z" fill="#5271F2"/>
<path d="M109.748 38.4327C109.311 38.3225 109.135 37.9735 109.066 37.5679C108.14 36.7413 110.152 30.937 111.066 30.1701C112.406 28.9456 113.616 30.2451 113.362 31.7651C113.172 33.5514 111.992 38.5551 109.748 38.4327Z" fill="#5271F2"/>
<path d="M78.0094 115.754C75.8511 115.709 72.0398 114.133 73.6378 111.454C74.6771 109.933 76.3547 111.396 77.7339 111.37C80.0957 111.569 83.8168 107.881 85.7775 109.864C86.5429 109.851 87.1551 110.539 86.9332 111.293C86.6561 112.432 85.2648 112.539 84.4122 113.081C82.459 114.387 80.5579 116.219 78.0094 115.754Z" fill="#5271F2"/>
<path d="M171.512 7.26523C168.945 6.01773 172.678 3.46609 173.849 2.58137C175.296 1.77623 177.042 2.18339 178.544 1.57418C179.297 1.33846 179.811 0.418526 180.676 0.63129C181.806 1.0063 181.63 2.58902 181.255 3.46763C180.269 5.31668 177.8 5.52944 175.923 5.63353C173.532 5.6672 172.981 7.41217 171.512 7.26523Z" fill="#5271F2"/>
<path d="M180.401 48.1259C178.575 47.8596 177.252 46.4422 178.61 44.7584C178.612 44.6061 178.657 44.4575 178.741 44.3304C178.825 44.2033 178.944 44.1032 179.083 44.0421H179.063C179.15 44.0011 179.243 43.9767 179.339 43.9701C180.649 44.2288 181.968 44.2763 183.211 43.6747C185.067 42.9231 188.515 40.5537 189.779 43.1864L189.763 43.1528C190.92 45.3998 186.899 46.2141 185.397 46.6549C183.724 47.1264 182.253 48.5438 180.401 48.1259Z" fill="#5271F2"/>
<path d="M108.239 39.3048C107.261 39.0232 106.338 38.1675 106.22 37.1236C106.102 36.0797 107.311 35.6955 107.7 34.8582C108.879 32.7 108.949 29.6447 111.424 28.437C112.036 28.1508 112.921 27.938 113.4 28.5473C114.651 28.2503 114.675 29.8039 115.084 30.583C115.649 31.7234 114.328 32.3693 113.643 33.0321C112.762 34.1296 112.707 35.6894 111.891 36.8588C111.101 38.0543 109.86 39.6691 108.239 39.3048ZM109.004 37.1619C111.113 35.6863 110.741 32.504 112.945 31.1127C112.742 30.6718 112.387 30.2524 112.402 29.7442C110.082 31.353 110.803 35.0511 108.676 36.9384C108.773 37.0286 108.883 37.1021 109.004 37.1558V37.1619Z" fill="#5271F2"/>
<path d="M122.355 31.9834C118.477 30.269 122.183 29.3613 123.287 27.5153C123.899 26.1745 123.55 24.4724 124.511 23.2846C124.971 21.662 128.064 22.6294 127.199 24.2795C126.51 25.7765 126.979 27.5077 126.267 28.9848C125.534 30.3654 124.159 32.4854 122.355 31.9834ZM123.193 30.1343C123.686 29.7932 124.083 29.3309 124.346 28.7919C123.997 29.2783 123.59 29.7195 123.132 30.1052L123.193 30.1343Z" fill="#5271F2"/>
<path d="M232.13 68.2576C230.488 67.2673 223.846 65.3601 227.096 62.8651C227.512 61.9742 228.881 62.2727 229.698 62.1533C231.731 62.6125 233.093 64.5504 234.928 65.4443C235.773 66.5586 233.295 68.8255 232.13 68.2576ZM231.34 65.2943C230.872 64.8856 230.393 64.4876 229.902 64.1049C229.826 64.2085 229.734 64.2998 229.631 64.3759C229.987 64.5641 230.342 64.757 230.702 64.9453H230.688C230.904 65.057 231.125 65.1703 231.34 65.2943Z" fill="#5271F2"/>
<path d="M230.756 65.9021C230.239 65.4429 229.57 65.0143 229.308 64.3485C229.288 63.2648 230.199 63.5479 230.788 64.0117C231.073 64.151 231.471 64.3179 231.376 64.7005C232.293 65.0863 231.566 66.4608 230.756 65.9021Z" fill="#5271F2"/>
<path d="M124.16 51.6957C122.603 50.2017 125.395 49.7272 126.137 48.893C127.186 47.8093 127.755 44.6928 129.733 45.4C130.511 44.8811 131.663 45.9878 131.349 46.8006C131.068 47.3929 130.373 47.6134 129.949 48.0925C128.446 49.7073 126.843 53.0595 124.16 51.6957ZM129.087 46.7975C129.136 46.7531 129.186 46.7087 129.24 46.6659C129.235 46.6539 129.23 46.6416 129.226 46.6291C129.175 46.6793 129.129 46.7336 129.087 46.7914V46.7975Z" fill="#231F20"/>
<path d="M163.125 29.2146C162.93 29.1971 162.748 29.1086 162.613 28.9659C162.479 28.8232 162.401 28.6361 162.395 28.44C162.507 27.1466 164.18 26.7134 165.265 26.5374C166.223 26.6675 168.048 25.5685 168.406 26.5818C168.697 29.3202 164.907 28.8441 163.125 29.2146Z" fill="#231F20"/>
<path d="M131.283 21.7045C131.103 21.6534 130.945 21.5456 130.832 21.3972C130.718 21.2488 130.656 21.0678 130.654 20.881C129.694 19.4238 129.96 17.7554 130.386 16.1696C130.481 15.2512 130.629 14.094 129.995 13.3578C129.865 13.2358 129.762 13.088 129.692 12.9238C129.622 12.7596 129.587 12.5826 129.59 12.4042C129.546 12.2552 129.562 12.0951 129.634 11.9575C129.706 11.8199 129.828 11.7156 129.976 11.6664C131.44 10.3485 132.924 12.9307 133.121 14.2165C133.332 15.5757 132.634 16.8814 132.735 18.2375C132.888 19.0764 133.654 20.2473 132.547 20.7555C132.504 21.3448 131.871 21.8591 131.283 21.7045Z" fill="#231F20"/>
<path d="M68.7131 87.266C66.2013 86.2987 67.8131 85.0665 69.0545 83.8756C69.7815 82.5393 71.4117 77.3855 73.5286 78.4662C74.2511 78.1601 75.0884 78.8228 74.7532 79.5943C74.5266 80.0979 74.1608 80.5326 73.945 81.0469C73.2408 83.2098 71.6107 87.912 68.7131 87.266ZM70.5392 84.6501L70.5821 84.5965H70.5729L70.5392 84.6501Z" fill="#231F20"/>
<path d="M95.6885 125.356C94.3828 124.993 95.1864 123.406 95.1374 122.461C94.9767 120.668 94.6446 117.214 96.4217 116.186C96.5022 116.073 96.606 115.978 96.7263 115.909C96.8465 115.84 96.9802 115.797 97.1183 115.784C97.2564 115.772 97.3957 115.789 97.5267 115.834C97.6577 115.88 97.7773 115.953 97.8773 116.049C98.5937 117.06 97.738 118.486 98.1238 119.656C98.3243 121.636 98.436 125.335 95.6885 125.356Z" fill="#231F20"/>
<path d="M219.888 89.3261C218.798 89.1731 217.915 87.9822 218.651 86.9827C219.654 85.7 221.645 85.824 222.591 84.4464C223.969 82.4213 225.374 79.7763 228.057 79.4135C229.159 79.1747 229.66 80.8018 228.48 81.0161C229.677 82.608 226.237 83.7713 225.548 85.1719C224.244 87.0409 222.498 89.7012 219.888 89.3261Z" fill="#231F20"/>
<path d="M240.869 53.8046C238.42 53.8261 237.043 51.6097 235.129 50.4571C234.248 49.9979 233.054 49.9014 232.486 48.9983C231.847 47.8411 233.145 46.3028 234.387 46.7819C237.343 45.7824 238.938 49.0198 241.29 50.0667C241.997 50.4693 242.801 50.7081 243.462 51.1826C244.797 52.7607 242.294 54.0756 240.869 53.8046Z" fill="#231F20"/>
<path d="M82.7019 236.885C76.2731 237.064 69.9974 235.536 64.216 232.774C60.5684 231.315 58.1591 227.24 53.9345 227.323C42.4299 226.616 31.0218 230.611 19.5586 229.086C16.1697 228.35 12.8803 227.161 9.61843 225.999C6.29534 224.774 3.76514 222.019 2.41355 218.794C1.73852 216.689 -1.91519 209.533 1.31453 208.714C7.88724 209.138 14.3696 207.45 20.9561 207.508C29.1483 207.263 37.3083 208.747 45.4637 207.364C46.128 207.23 46.6454 207.964 46.1449 208.491C43.63 209.734 40.512 209.689 37.7415 210.052C33.053 210.309 28.3676 209.671 23.6761 209.823C19.652 209.896 15.6233 210.071 11.6328 210.617C8.56074 211.027 5.45959 211.516 2.35539 211.229C3.6886 216.864 6.029 222.985 12.2711 224.471L12.1425 224.424C15.6233 225.561 19.0688 227.026 22.7669 227.242C32.7653 227.548 42.5861 224.889 52.5844 225.079C57.7703 224.684 59.8765 227.355 63.7048 230.078C67.7258 232.236 72.1541 233.843 76.6772 234.517C86.1888 235.728 95.6576 234.087 104.953 232.16C114.489 231.045 123.764 228.356 133.317 227.438L133.191 227.448C138.475 227.03 143.767 226.453 149.072 226.573C154.474 226.793 159.826 227.664 165.187 228.324C175.921 230.02 187.213 233.452 197.865 229.582H197.853C222.012 219.239 223.172 214.735 251.707 214.289C252.354 211.31 253.057 208.338 253.71 205.361C241.924 205.7 230.138 205.587 218.339 205.607C209.033 205.76 199.774 206.899 190.471 207.124C182.589 207.325 174.705 206.948 166.826 207.124C157.162 207.928 147.475 208.116 137.783 208.349C136.191 208.364 134.601 208.382 133.009 208.349C132.091 208.361 130.597 208.376 130.835 207.054C131.024 206.125 131.925 205.88 132.761 206.048C133.955 206.095 135.15 206.069 136.344 206.062C140.121 206.062 143.889 205.838 147.664 205.766C154.233 205.847 160.762 205.154 167.311 204.779C173.932 204.64 180.555 204.932 187.178 204.839C201.729 204.661 216.216 202.682 230.791 203.317C236.068 203.328 241.353 203.424 246.622 203.201C249.209 203.12 251.806 202.961 254.393 203.048C256.611 203.057 256.029 205.482 255.579 206.917C254.736 209.723 254.522 212.769 253.381 215.459C252.363 217.044 250.193 216.417 248.601 216.634C237.217 216.787 225.702 218.257 215.538 223.71C198.81 231.789 192.849 235.888 173.508 231.976C165.242 230.375 156.875 229.104 148.467 228.651C143.352 228.552 138.253 229.127 133.161 229.51C124.015 230.358 115.155 232.991 106.022 233.995C98.2995 235.353 90.6002 237.258 82.7019 236.885Z" fill="#231F20"/>
<path d="M155.325 105.697C154.692 105.703 154.074 105.498 153.571 105.115C153.067 104.731 152.705 104.19 152.543 103.578C152.543 103.601 152.557 103.626 152.565 103.65C152.399 103.138 152.377 102.59 152.501 102.066C152.625 101.542 152.891 101.062 153.269 100.679C153.785 99.9001 154.494 99.2174 155.377 98.8638L155.311 98.8929C161.743 96.5142 162.073 105.631 155.325 105.697ZM156.202 104.615C157.997 104.396 160.166 102.482 158.981 100.604C157.543 98.599 154.291 99.923 153.552 101.94C152.868 103.568 154.636 105.008 156.202 104.615Z" fill="#231F20"/>
<path d="M154.894 104.842C152.955 104.587 154.686 101.823 156.009 102.464C157.412 103.08 156.257 105.468 154.894 104.842Z" fill="#231F20"/>
<path d="M157.165 99.0225C156.78 98.2816 158.15 97.6234 158.495 97.0326C158.763 96.8137 159.02 96.1341 159.433 96.4509C159.499 96.5252 159.535 96.6204 159.537 96.7194C159.539 96.8184 159.505 96.9148 159.442 96.9913C159.092 97.2867 157.443 99.3592 157.165 99.0225Z" fill="#231F20"/>
<path d="M158.889 99.7311C158.616 99.0683 159.675 98.5203 159.894 97.9142C160.181 97.1779 161.185 97.5024 160.669 98.2203L160.678 98.208C160.208 98.6611 159.481 99.6071 158.889 99.7311Z" fill="#231F20"/>
<path d="M159.673 100.518C160.06 99.8578 160.758 99.3879 161.292 98.8338C161.641 98.5613 162.094 98.9317 162.001 99.3328C161.94 99.7093 161.542 99.8731 161.265 100.066C160.916 100.208 159.703 101.382 159.673 100.518Z" fill="#231F20"/>
<path d="M150.423 97.9254C149.514 96.3228 152.796 93.1344 154.369 92.8313C156.116 92.1379 158.759 91.8195 159.867 93.6992C159.919 93.8007 159.936 93.916 159.917 94.028C159.898 94.1401 159.844 94.2432 159.762 94.3222C159.726 94.3599 159.684 94.3903 159.637 94.4116C159.59 94.4329 159.539 94.4446 159.487 94.4462C159.436 94.4478 159.384 94.4391 159.336 94.4207C159.288 94.4023 159.244 94.3745 159.206 94.339C157.297 92.8083 153.651 94.339 152.153 95.9539L152.216 95.8865C152.194 95.9095 152.173 95.934 152.15 95.9569L152.162 95.9447L152.121 95.9891L152.134 95.9753C151.66 96.5248 151.216 97.1172 150.951 97.7938C150.927 97.8391 150.894 97.8789 150.853 97.9105C150.813 97.9421 150.766 97.9649 150.716 97.9773C150.667 97.9897 150.615 97.9915 150.564 97.9826C150.514 97.9736 150.466 97.9541 150.423 97.9254Z" fill="#231F20"/>
<path d="M143.917 112.233C140.855 111.774 144.325 108.366 144.835 106.912L144.824 106.931C145.435 105.659 145.731 104.259 145.685 102.85C145.685 102.87 145.685 102.888 145.685 102.908C145.685 102.461 145.625 102.016 145.591 101.572C146.02 100.627 146.367 102.392 146.415 102.74C146.416 102.73 146.416 102.721 146.415 102.712L146.424 102.769C146.424 102.792 146.424 102.815 146.436 102.836C146.436 102.818 146.436 102.799 146.425 102.779L146.439 102.864C146.946 105.874 145.215 108.542 143.771 111.028C145.946 111.53 146.582 108.695 147.742 107.485C149.018 107.085 148.244 109.207 147.716 109.524C146.897 110.849 145.677 112.484 143.917 112.233Z" fill="#231F20"/>
<path d="M139.304 112.469C138.906 111.898 139.496 110.958 139.854 110.45C139.878 110.416 139.909 110.388 139.945 110.367C139.98 110.346 140.02 110.333 140.061 110.329C140.102 110.324 140.143 110.329 140.182 110.341C140.222 110.354 140.258 110.375 140.289 110.402C140.595 110.809 139.983 111.186 139.868 111.565C139.868 111.579 139.854 111.593 139.846 111.607L139.855 111.59C139.734 111.816 139.638 112.055 139.571 112.303C139.562 112.415 139.419 112.531 139.304 112.469Z" fill="#231F20"/>
<path d="M140.41 112.557C139.896 112.129 141.563 108.804 141.609 110.609C141.22 110.987 141.018 113.04 140.41 112.557Z" fill="#231F20"/>
<path d="M141.827 112.005C141.709 111.479 142.058 110.892 142.222 110.387C142.233 110.357 142.25 110.329 142.272 110.306C142.294 110.282 142.32 110.264 142.35 110.251C142.379 110.237 142.411 110.23 142.443 110.23C142.475 110.229 142.507 110.235 142.537 110.246C142.891 110.612 142.258 111.174 142.205 111.601C142.205 111.59 142.205 111.58 142.217 111.57C142.194 111.633 142.171 111.697 142.151 111.762C142.216 111.938 141.975 112.181 141.827 112.005Z" fill="#231F20"/>
<path d="M152.467 109.787C152.502 109.328 152.686 108.904 152.828 108.475L152.847 108.422C152.87 108.359 152.892 108.298 152.914 108.235V108.25C153.139 107.864 153.208 106.896 153.811 107.036C153.895 107.086 153.958 107.166 153.986 107.26C154.015 107.354 154.007 107.455 153.964 107.543C153.786 107.932 153.613 108.321 153.457 108.717V108.708C153.453 108.72 153.448 108.732 153.445 108.745C153.424 108.803 153.402 108.862 153.379 108.921V108.905C153.142 109.282 153.309 109.961 152.848 110.13C152.8 110.137 152.75 110.134 152.703 110.12C152.656 110.106 152.613 110.082 152.576 110.049C152.54 110.016 152.511 109.976 152.492 109.93C152.473 109.885 152.465 109.836 152.467 109.787Z" fill="#231F20"/>
<path d="M154.531 109.619C154.49 109.61 154.452 109.592 154.419 109.566C154.386 109.541 154.36 109.508 154.341 109.471C154.323 109.433 154.313 109.392 154.313 109.351C154.312 109.309 154.321 109.268 154.339 109.23L154.33 109.25C154.56 108.803 155.054 107.141 155.639 107.335C155.701 107.388 155.742 107.462 155.754 107.543C155.766 107.623 155.748 107.706 155.703 107.774C155.323 108.171 154.924 109.559 154.531 109.619Z" fill="#231F20"/>
<path d="M156.603 108.549C156.534 107.839 157.128 107.195 157.397 106.559C157.881 105.973 158.306 106.781 157.887 107.218L157.901 107.19L157.843 107.302C157.843 107.291 157.853 107.28 157.859 107.271L157.832 107.322C157.501 107.68 157.236 109.328 156.603 108.549Z" fill="#231F20"/>
<path d="M169.135 131.001C168.578 126.409 169.093 121.745 169.096 117.13C169.123 114.786 169.096 112.441 169.183 110.099C169.336 109.181 168.803 108.07 169.391 107.274C169.139 106.019 170.094 105.673 170.937 105.065C172.601 103.877 173.345 101.988 170.631 101.766C170.504 102.207 170.11 102.639 169.618 102.592C169.278 102.843 168.956 103.195 168.532 103.29C167.961 104.252 167.655 106.495 166.757 106.991C166.493 107.488 166.275 108.858 165.471 108.356C164.54 108.26 165.232 106.978 165.292 106.407C165.688 105.085 165.916 103.724 166.146 102.365C166.113 102.282 166.103 102.191 166.118 102.103C166.133 102.014 166.173 101.932 166.232 101.864C166.405 98.0102 166.778 93.4656 164.328 90.2221C160.348 86.025 153.307 86.4414 148.634 89.2104C147.951 89.8303 146.691 89.9849 147.593 88.7757C147.332 88.8636 147.077 88.9658 146.827 89.0818L146.87 89.0634C145.745 89.2165 141.75 93.9799 142.693 90.4135C140.974 92.4401 139.151 94.707 138.383 97.277C139.607 96.0066 141.801 96.0999 143.168 97.0949C143.65 97.4898 144.623 98.2521 144.086 98.9118C144.008 98.9921 143.902 99.0389 143.79 99.0423C143.678 99.0458 143.569 99.0055 143.486 98.9301C142.13 97.525 139.492 97.4944 138.34 99.1735C138.34 100.534 138.429 101.897 138.395 103.257C140.016 100.083 144.325 100.934 144.495 104.555C144.759 107.562 140.446 109.193 138.444 107.139C138.793 113.687 139.096 122.282 147.965 121.169C150.619 120.338 149.437 124.168 149.629 125.636C149.338 127.088 150.394 131.137 148.458 131.351C146.927 131.272 147.561 129.443 147.634 128.46C147.83 126.641 148.012 124.82 148.205 123.002C148.205 123.041 148.205 123.081 148.194 123.122C148.216 122.907 148.236 122.692 148.246 122.476C144.712 123.098 140.229 122.561 138.787 118.751C138.787 118.758 138.794 118.766 138.797 118.775C138.785 118.751 138.776 118.726 138.764 118.702C136.994 114.46 137.195 109.701 137.178 105.188C136.607 105.214 134.882 106.141 134.815 105.221C134.847 104.424 136.531 104.944 137.128 104.806C137.149 104.79 137.173 104.779 137.199 104.774C137.21 104.58 137.224 104.384 137.239 104.188C136.578 104.062 134.876 104.281 135.176 103.195C135.557 102.455 136.298 103.305 136.834 103.406L136.867 103.42H136.846L137.288 103.586C137.302 103.383 137.317 103.179 137.328 102.974C136.913 102.581 135.776 102.16 136.218 101.456C136.707 100.925 137.036 101.814 137.369 102.082C137.391 101.456 137.398 100.83 137.411 100.202C137.378 100.215 137.343 100.224 137.308 100.227C136.797 100.175 137.023 99.5195 137.172 99.2179C137.81 97.7209 137.617 95.9484 138.159 94.381C139.078 91.8309 140.333 89.2058 142.54 87.5312L142.479 87.5833L142.907 87.222C147.029 84.0841 152.5 82.6545 157.602 82.2198C164.546 82.2045 170.394 84.975 171.165 92.5182C171.528 95.0836 171.565 97.7316 171.004 100.273C175.61 100.969 173.636 105.282 170.741 106.897C170.812 108.719 170.651 110.537 170.784 112.357V112.343L170.793 112.691C170.793 112.718 170.793 112.746 170.793 112.774C170.614 117.539 170.782 122.307 170.611 127.07C170.432 128.18 171.168 131.203 169.777 131.468C169.634 131.468 169.495 131.424 169.379 131.34C169.264 131.256 169.179 131.137 169.135 131.001ZM142.154 104.877C142.672 105.233 142.659 105.965 142.396 106.478C145.591 105.083 142.165 100.96 139.652 103.195L139.711 103.144C139.603 103.234 139.501 103.33 139.405 103.432C139.003 104.705 138.742 105.804 140.301 106.404C140.186 105.912 140.467 105.313 140.966 105.166C141.234 104.82 141.761 104.606 142.154 104.877ZM168.196 88.0899C168.218 88.0797 168.242 88.071 168.266 88.0639C168.194 87.9552 168.122 87.8465 168.052 87.7348C168.096 87.8527 168.144 87.9705 168.196 88.0899Z" fill="#231F20"/>
<path d="M163.388 84.976C162.775 84.9086 162.489 84.1816 162.684 83.6504C162.52 83.664 162.355 83.6369 162.204 83.5714C162.053 83.506 161.921 83.4043 161.819 83.2754C161.882 83.7606 161.413 84.4678 160.943 83.9688C160.484 82.331 160.963 80.4681 161.292 78.8227C161.993 76.2885 163.175 73.913 164.775 71.826C166.676 68.2335 174.759 65.3711 175.03 71.4004C175.139 76.343 168.004 83.2264 163.646 84.9637C163.561 84.9817 163.474 84.9858 163.388 84.976Z" fill="#231F20"/>
<path d="M165.835 108.374C165.602 107.88 166.308 107.473 166.466 107.024C167.537 105.365 168.149 103.412 169.383 101.864C169.72 101.214 170.621 101.252 170.292 102.097C170.052 102.46 169.732 102.769 169.489 103.133C168.809 103.953 166.828 108.849 165.835 108.374Z" fill="#231F20"/>
<path d="M169.362 132.282C169.198 132.286 169.037 132.245 168.897 132.162C168.756 132.079 168.641 131.958 168.566 131.814C168.145 131.021 168.778 130.168 169.574 129.985C170.646 129.29 171.717 128.595 172.789 127.878C173.802 127.266 175.027 124.806 176.295 125.325C176.684 125.61 176.723 126.181 176.472 126.571C174.552 128.858 172.114 131.136 169.362 132.282Z" fill="#231F20"/>
<path d="M147.685 131.21C147.612 131.184 147.532 131.157 147.468 131.128C146.694 131.189 146.185 130.42 145.497 130.183C144.54 129.611 143.442 129.182 142.588 128.473C142.17 127.918 142.538 127.024 143.201 126.874C145.013 126.673 146.302 128.251 147.64 129.211L147.532 129.147C147.992 129.346 148.342 129.759 148.232 130.283C149.691 130.743 148.798 131.807 147.685 131.21Z" fill="#231F20"/>
<path d="M196.699 124.306C195.378 123.413 197.005 121.007 197.111 119.724C198.59 115.085 200.1 110.462 201.213 105.717C204.848 94.6288 207.336 83.1779 211.234 72.18L211.179 72.333C213.198 66.3267 215.494 60.4305 217.688 54.4961C219.494 50.2898 220.575 45.785 222.636 41.6936C226.31 35.7806 227.994 28.9691 230.859 22.701L230.845 22.727L230.919 22.5862C232.186 18.8146 233.5 19.0932 236.688 17.4416C236.13 17.4439 235.573 17.4807 235.02 17.5518L235.085 17.5441C233.815 17.4645 230.284 19.3809 230.02 17.4339C230.053 16.3961 233.466 15.0598 234.404 14.1047C232.459 14.6665 230.787 15.8068 229.047 16.7773C227.404 17.5855 226.478 16.0839 227.669 14.7996C228.923 13.145 230.196 11.5026 231.576 9.94893C229.155 11.38 227.05 13.2881 225.389 15.5573C225.214 15.8068 224.969 16.1084 224.623 16.0425C222.543 15.0124 228.497 9.61371 228.516 7.72486C228.516 7.76159 228.516 7.79833 228.505 7.83507C228.505 7.76925 228.519 7.70343 228.52 7.63608C224.759 10.0989 222.805 14.544 220.455 18.2559L220.487 18.1947L220.203 18.7381C220.213 18.7182 220.224 18.6967 220.235 18.6784C219.714 19.6963 219.214 20.7233 218.684 21.7397L218.758 21.5989C211.463 36.2643 204.87 51.3536 200.021 67.017C196.898 76.0602 192.963 84.8034 189.856 93.8574C189.856 93.8344 189.872 93.813 189.88 93.7915L189.716 94.2354C189.707 94.2599 189.698 94.2829 189.69 94.3059L189.699 94.2798C187.546 100.765 185.087 107.137 182.776 113.566C182.423 114.071 181.128 120.035 180.434 118.141C180.517 117.881 180.281 117.529 180.587 117.359C181.532 113.286 182.738 109.277 184.198 105.359L184.154 105.478C188.046 93.5191 192.213 81.6533 196.966 70.0033C202.275 53.0129 209.058 36.5076 217.102 20.6177L217.071 20.6774C219.17 16.3404 221.685 12.2177 224.582 8.36774C225.77 7.29627 227.155 5.81152 228.84 5.75488C230.991 6.52022 229.463 9.22798 228.563 10.4632C229.635 9.88311 232.339 7.09575 233.094 9.12696C233.158 10.1816 232.068 10.8796 231.528 11.6801C230.642 12.7914 229.815 13.9516 229.018 15.1303C231.135 13.8322 233.443 12.4654 235.985 12.375C238.105 13.4649 234.642 15.5022 233.719 16.2431C235.228 15.8573 240.08 15.2787 238.037 18.1044C236.578 19.7774 233.166 19.6978 233.088 22.3581C230.18 29.2951 228.083 36.6209 224.086 43.0712C221.025 50.3939 218.617 58.0013 215.588 65.3501L215.643 65.197C214.533 68.3778 213.526 71.5922 212.303 74.7347L212.323 74.6842C210.042 81.7253 208.149 88.9072 206.2 96.0462C204.896 100.791 203.174 105.408 202.101 110.217C201.276 113.738 199.958 117.105 198.984 120.565C198.406 121.725 198.588 124.797 196.699 124.306Z" fill="#231F20"/>
<path d="M122.679 139.102C116.897 130.469 112.576 121.02 107.911 111.761C105.615 106.779 102.63 102.165 100.201 97.2596L100.238 97.3422C100.135 97.1157 100.034 96.8907 99.9314 96.6657C99.939 96.6856 99.9482 96.7039 99.9559 96.7238C96.9695 90.3302 94.1056 83.9029 91.7759 77.2368C89.9238 73.029 88.188 68.7539 86.9528 64.3195C85.1466 59.0877 84.9354 53.4395 82.8613 48.3178C81.5174 45.6591 81.5664 42.5304 80.0571 39.9696C79.3117 38.1174 77.7228 36.8133 76.832 35.0561C75.511 31.9626 77.807 31.1988 80.0648 33.1519C78.0963 28.8048 81.225 27.5405 83.6879 31.2891C82.5536 25.3868 84.2695 23.7 86.6543 30.1503C86.815 28.6609 86.6543 26.994 87.562 25.7205C88.4896 24.7103 89.6973 25.9746 89.8412 26.9986C90.3463 30.2697 90.08 33.7137 91.7132 36.7184C92.953 40.6216 95.6792 43.7779 97.369 47.4775C99.4431 52.1889 101.43 56.9233 103.894 61.4525C108.587 71.03 112.939 80.814 118.742 89.7975C121.56 95.1304 125.122 99.9949 128.079 105.241C130.422 109.234 133.095 113.117 134.814 117.428C135.489 119.431 136.221 121.407 136.98 123.382C137.199 124.242 138.406 126.107 136.915 126.215C134.122 122.808 133.52 118.023 130.963 114.412C130.989 114.455 131.016 114.496 131.042 114.538C129.844 112.732 128.899 110.774 127.71 108.962L127.793 109.092C121.875 99.6015 115.954 90.1328 110.689 80.2645C106.904 72.7642 103.553 65.0389 99.688 57.5708C97.4701 53.0308 95.9547 48.1617 93.1995 43.8881C91.2004 40.7747 89.5626 37.3245 88.7192 33.7198C88.26 31.531 88.5171 29.264 88.2217 27.0706C87.787 28.5783 87.8957 30.1931 87.7487 31.7437C86.6513 35.0959 84.9507 28.4222 84.2726 27.5971C84.317 29.0666 84.6247 30.5314 84.9706 31.9565C85.0946 32.4876 85.4681 32.9774 85.4298 33.5346C85.4121 33.6856 85.3535 33.8288 85.2603 33.9489C85.167 34.0689 85.0427 34.1611 84.9008 34.2155C84.7588 34.2699 84.6047 34.2844 84.4551 34.2575C84.3056 34.2305 84.1662 34.1632 84.0522 34.0627C82.8567 33.1121 82.4679 31.3672 80.9679 30.7427C81.199 32.3147 82.4541 33.4764 82.8184 34.9903C82.4786 38.1174 79.2642 34.5127 78.0167 33.8913C78.4346 35.0132 79.3836 35.8077 80.0893 36.746C80.9434 37.8848 81.5801 39.169 82.3225 40.3798C83.3083 42.6528 83.5914 45.1861 84.7211 47.4209C86.2135 50.5741 86.5334 54.0778 87.3018 57.4407C88.6978 63.1348 90.3631 68.7676 92.7617 74.1372C94.3934 77.6823 95.4725 81.4431 96.994 85.0341C98.5553 88.7781 100.469 92.363 102.035 96.107C104.161 100.393 106.78 104.414 108.851 108.73C113.313 117.324 117.225 126.229 122.446 134.397C123.026 135.774 125.409 137.715 124.159 139.176C124.062 139.278 123.945 139.359 123.814 139.411C123.683 139.464 123.543 139.487 123.402 139.48C123.261 139.474 123.124 139.436 122.999 139.371C122.874 139.305 122.765 139.214 122.679 139.102Z" fill="#231F20"/>
<path d="M180.096 119.804C178.207 119.274 180.212 116.259 180.296 114.957C181.195 112.104 182.184 109.268 183.358 106.517C184.396 103.51 186.257 104.987 184.934 105.959C184.077 107.756 183.587 109.707 183.044 111.622C183.405 112.981 182.403 114.419 182.184 115.778C181.598 116.921 181.703 119.778 180.096 119.804Z" fill="#231F20"/>
<path d="M118.718 81.4633C118.068 80.1117 117.855 78.5871 117.207 77.2279C116.927 76.634 115.83 75.1462 117.148 75.1309H117.129C118.545 76.6156 118.998 78.8795 119.894 80.7224C120.218 81.4189 119.173 82.2424 118.718 81.4633Z" fill="#231F20"/>
<path d="M123.317 85.0297C122.979 84.996 122.911 84.6134 122.78 84.3624C122.79 84.3853 122.801 84.4067 122.81 84.4297C122.748 83.8802 119.703 78.6315 121.194 79.3448C121.518 80.1576 125.161 85.0955 123.317 85.0297Z" fill="#231F20"/>
<path d="M87.9679 85.2734C86.6852 83.3049 86.2842 80.8926 85.1606 78.8338C84.7749 78.7129 84.8667 78.0869 85.2372 78.0088C86.0285 78.1175 86.1923 79.4415 86.5887 80.0415C87.2408 81.56 87.8561 83.1029 88.7837 84.4805C89.1832 84.9948 88.4485 85.8443 87.9679 85.2734Z" fill="#231F20"/>
<path d="M88.5616 91.5263C87.9845 91.3044 87.9248 90.4625 87.5958 89.9849C86.8748 88.4971 86.0528 87.0552 85.4191 85.5276C85.0962 84.975 85.7498 84.3245 85.8584 85.1878C85.8584 85.1755 85.8508 85.1633 85.8477 85.1511C85.8829 85.2551 85.9232 85.3572 85.9686 85.4572C86.656 86.8323 87.4169 88.1695 88.2478 89.463C88.5739 90.0262 89.8259 91.3059 88.5616 91.5263Z" fill="#231F20"/>
<path d="M191.698 71.2045H191.715H191.678H191.695L191.652 71.1938C191.618 71.1826 191.587 71.1672 191.557 71.1479C191.118 70.7484 191.448 70.0412 191.592 69.5637C191.589 69.5731 191.586 69.5823 191.582 69.5912L191.618 69.4948L191.609 69.5177L191.667 69.3647L191.643 69.432C191.666 69.3677 191.689 69.3034 191.713 69.2391L191.689 69.3065C192.301 67.7115 193.088 66.1885 193.599 64.5614C193.83 64.0655 193.809 63.0032 194.579 63.1272C195.691 63.7762 193.304 67.4345 192.988 68.4769C192.702 69.1856 192.223 69.8912 192.148 70.6504C192.227 70.9183 191.995 71.2581 191.698 71.2045Z" fill="#231F20"/>
<path d="M190.576 66.7718C190.6 66.6143 190.643 66.4602 190.703 66.3126C190.698 66.3246 190.694 66.3369 190.69 66.3493C191.609 64.2492 192.33 62.042 193.462 60.0445C193.908 59.3909 194.592 60.2481 194.075 60.7134C193.795 61.108 193.536 61.5167 193.299 61.9379C192.55 63.4456 191.745 64.9289 191.122 66.4917C191.026 66.6861 191.073 67.0335 190.796 67.0611C190.761 67.0603 190.727 67.0517 190.696 67.0358C190.665 67.0199 190.637 66.9973 190.616 66.9695C190.595 66.9417 190.58 66.9095 190.573 66.8753C190.566 66.841 190.567 66.8057 190.576 66.7718Z" fill="#231F20"/>
<path d="M217.085 70.4578C217.171 69.0801 218.282 68.0087 218.849 66.7841C219.121 66.3494 219.294 65.4065 219.989 65.6667C221.122 66.7382 217.959 69.0342 217.846 70.3215C217.901 70.8236 217.14 71.0165 217.085 70.4578Z" fill="#231F20"/>
<path d="M220.4 71.9738C219.601 71.2988 220.948 69.8309 221.181 69.0334L221.173 69.0503C221.758 68.1028 222.153 66.8889 223.027 66.1848C223.684 65.9537 224.037 66.8522 223.639 67.3038C222.84 68.4165 222.057 69.5462 221.48 70.7937C221.209 71.2345 221.126 72.2386 220.4 71.9738Z" fill="#231F20"/>
<path d="M146.24 119.591C143.566 119.564 141.284 117.124 140.844 114.601C140.113 113.187 144.518 112.337 145.468 111.924C147.677 111.226 150.031 111.399 152.288 111.006H152.275L152.329 110.981L152.3 110.994C153.065 110.75 152.949 111.895 152.952 112.359C152.934 116.028 150.149 119.812 146.24 119.591ZM147.544 118.332C149.163 118.085 150.564 116.974 151.378 115.576V115.587C151.389 115.567 151.4 115.547 151.409 115.527L151.398 115.55C151.887 114.402 152.199 113.135 152.121 111.877C150.1 112.301 148.02 112.292 146.021 112.823L146.085 112.803C144.792 113.216 143.468 113.556 142.231 114.133C143.029 116.453 144.795 118.835 147.544 118.332Z" fill="#231F20"/>
<path d="M42.3995 209.849C41.8454 209.316 41.7872 208.362 41.4046 207.669C41.3817 207.675 41.358 207.676 41.3348 207.672C41.3115 207.669 41.2892 207.66 41.2691 207.648C41.2491 207.636 41.2316 207.62 41.2178 207.601C41.204 207.582 41.1941 207.56 41.1887 207.537C40.4739 207.289 40.4448 206.374 40.1402 205.783C39.5157 204.168 38.9371 202.535 38.2514 200.943C33.8384 191.067 30.5092 180.767 26.7499 170.636C25.6356 168.314 25.6493 165.471 24.1768 163.374C24.0789 163.292 23.9998 163.189 23.9448 163.073C23.8898 162.957 23.8602 162.831 23.858 162.703C23.8559 162.575 23.8811 162.448 23.9322 162.33C23.9832 162.212 24.0588 162.107 24.1539 162.021C25.0723 161.265 26.3688 161.319 27.4877 161.15C30.069 160.722 32.6721 160.439 35.2849 160.301C45.7884 159.688 56.3103 159.895 66.8168 159.479C72.6997 159.188 78.5939 159.209 84.4746 159.541C85.7405 159.751 86.6604 158.776 87.4028 160.324C87.4197 160.348 87.4334 160.374 87.4503 160.399C91.3214 169.019 92.7786 178.488 95.2414 187.565C96.2685 191.021 97.4823 194.418 98.5859 197.85C98.7298 198.921 100.375 200.805 98.9579 201.436C99.0329 201.713 99.111 201.992 99.1752 202.269C109.944 202.007 120.729 201.001 131.497 201.647H131.422C136.418 201.943 141.429 201.78 146.358 202.734H146.332L146.485 202.76L146.351 202.739H146.37L146.031 202.683C147.668 202.979 149.331 203.014 150.99 203.051C151.142 203.891 151.47 204.689 151.951 205.394C152.104 206.313 152.238 207.231 152.508 208.128C145.818 209.392 138.775 208.964 131.955 209.037C122.381 209.083 112.807 209.072 103.235 209.005C96.9359 208.743 90.6387 209.232 84.3415 209.151C77.5116 209.29 70.6756 209.106 63.8534 209.477C56.7205 209.789 49.4881 209.366 42.3995 209.849Z" fill="#231F20"/>
<path d="M99.1619 203.651C99.1011 203.611 99.0491 203.559 99.0088 203.498C98.3429 203.25 98.3154 201.038 97.9113 200.296C97.8554 200.271 97.8083 200.23 97.7761 200.177C97.7439 200.125 97.7281 200.065 97.7307 200.004C97.322 199.376 98.6674 198.661 98.8481 199.805C99.1802 200.746 99.4251 201.712 99.8369 202.624C100.194 203.123 99.8078 203.983 99.1619 203.651Z" fill="#231F20"/>
<path d="M103.978 203.598C103.491 203.177 103.384 202.475 103.185 201.89C103.692 201.947 104.204 201.918 104.701 201.803C105.018 202.485 105.18 204.076 103.978 203.598Z" fill="#231F20"/>
<path d="M121.917 202.124C121.764 201.939 121.789 201.689 121.832 201.468C122.29 201.491 122.75 201.439 123.192 201.314C123.085 201.839 122.468 202.684 121.917 202.124Z" fill="#231F20"/>
<path d="M58.0007 187.439C57.0578 187.286 55.9756 187.122 55.2118 186.521C53.9873 184.9 54.2322 182.541 55.2455 180.872C55.9496 179.28 58.8472 177.788 59.9554 179.662C64.8474 181.025 62.5407 187.918 58.0007 187.439ZM58.7783 185.979C62.9432 185.169 61.7968 180.315 57.7298 181.25C56.3797 181.802 55.5868 184.027 56.5665 185.151C57.1787 185.498 58.2502 185.21 58.5288 185.983C58.6114 185.98 58.6941 185.98 58.7783 185.98V185.979Z" fill="white"/>
<path d="M131.93 146.9C131.048 146.577 132.069 144.979 132.109 144.298C132.301 143.925 132.614 141.332 133.239 142.331C133.063 143.205 132.948 146.929 131.93 146.9Z" fill="white"/>
<path d="M135.556 143.758C134.763 143.605 136.561 141.052 136.446 140.164C137.177 138.808 136.405 144.305 135.556 143.758Z" fill="white"/>
<path d="M143.705 137.285C143.246 136.376 144.754 136.049 145.389 136.24C145.772 136.359 145.574 136.962 145.213 136.936C145.231 136.939 145.25 136.939 145.268 136.936C145.232 136.941 145.197 136.948 145.162 136.956L145.208 136.946L145.003 137.004L145.051 136.985L144.916 137.034L144.967 137.018C144.541 137.1 144.096 137.723 143.705 137.285Z" fill="white"/>
<path d="M143.929 141.052C142.942 139.959 145.391 140.015 145.977 139.734C146.023 139.72 146.072 139.715 146.12 139.721C146.168 139.727 146.214 139.743 146.256 139.767C146.297 139.792 146.333 139.825 146.361 139.864C146.39 139.903 146.409 139.948 146.419 139.995C146.383 140.914 144.936 140.644 144.322 141.024L144.361 141.01L144.305 141.03C144.247 141.059 144.184 141.075 144.119 141.079C144.055 141.083 143.99 141.073 143.929 141.052Z" fill="white"/>
<path d="M174.544 139.754C173.779 139.626 171.517 138.349 172.888 137.646C172.967 137.646 173.043 137.674 173.102 137.725C173.162 137.776 173.201 137.847 173.213 137.925C173.435 138.248 173.845 138.36 174.192 138.491L174.136 138.472C174.584 138.625 175.437 138.648 175.219 139.341C175.132 139.61 174.831 139.846 174.544 139.754Z" fill="white"/>
<path d="M171.617 143.58C171.246 143.251 171.066 142.317 171.711 142.213C172.132 142.213 171.953 142.651 172.073 142.885C172.532 143.2 172.065 143.988 171.617 143.58Z" fill="white"/>
<path d="M164.028 80.5294C164.038 80.5682 164.055 80.605 164.078 80.6381C163.592 79.1518 165.229 75.048 166.39 74.0393C167.571 73.9934 166.642 75.2271 166.321 75.7032L166.359 75.6328L166.286 75.7644V75.7552L166.218 75.8761C166.223 75.8688 166.227 75.8611 166.23 75.8532L166.218 75.8761L166.226 75.8624C165.483 77.1941 164.793 78.5961 164.588 80.1238C164.949 80.4911 164.216 81.0682 164.028 80.5294Z" fill="white"/>
<path d="M165.924 78.8511C165.297 78.4164 166.287 77.5301 166.486 77.0326C166.906 76.5979 167.193 75.4025 167.92 75.5938C168.444 76.2061 167.253 76.8046 167.031 77.3648L167.06 77.325C166.569 77.7 166.564 78.871 165.924 78.8511Z" fill="white"/>
<path d="M164.163 87.8954C163.025 87.4775 165.388 85.8565 165.624 86.8025C165.734 87.3964 165.053 87.4393 164.664 87.6229C164.511 87.7347 164.39 87.9383 164.163 87.8954Z" fill="white"/>
<path d="M164.968 89.4737C164.641 89.0604 165.784 88.1512 166.073 88.6318C166.387 88.9839 165.169 89.8441 164.968 89.4737Z" fill="white"/>
<path d="M166.277 91.0979C166.277 90.5438 167.171 90.406 167.148 91.0382C167.149 91.5907 166.252 91.73 166.277 91.0979Z" fill="white"/>
<path d="M163.211 171.889C160.58 171.756 156.248 169.737 156.006 166.804C156.082 166.317 156.835 166.362 156.704 166.894V166.885V166.865C157.469 169.206 160.46 170.364 162.709 170.791H162.644C165.176 171.098 167.29 169.463 169.073 167.874L169.058 167.886L169.583 167.441L169.54 167.478L169.62 167.41H169.609L169.966 167.104L169.952 167.115C170.515 166.637 171.087 166.169 171.668 165.71C172.28 165.237 172.846 166.169 172.303 166.605C171.884 166.974 171.466 167.346 171.04 167.707L171.054 167.695C168.784 169.602 166.393 172.011 163.211 171.889Z" fill="white"/>
<path d="M173.805 168.788C173.206 168.395 176.281 165.815 176.604 164.984C176.657 164.913 176.734 164.863 176.821 164.844C176.907 164.825 176.998 164.839 177.076 164.882C177.558 165.54 176.14 166.546 175.799 167.12C175.272 167.498 174.458 169.1 173.805 168.788Z" fill="white"/>
<path d="M178.955 168.004C178.519 167.628 179.16 167.132 179.339 166.78C179.636 166.474 179.898 165.688 180.431 165.936C180.976 166.506 179.893 167.087 179.665 167.589C179.514 167.827 179.278 168.197 178.955 168.004Z" fill="white"/>
<path d="M172.87 190.954C172.12 189.751 174.766 189.045 175.51 188.505C176.614 188.289 176.276 189.637 175.418 189.772C174.644 189.948 173.488 191.424 172.87 190.954Z" fill="white"/>
</svg>
