<svg width="555" height="183" viewBox="0 0 555 183" fill="none" xmlns="http://www.w3.org/2000/svg">
<path d="M145.237 126.778C135.964 122.805 125.639 122.006 115.866 124.505C104.255 127.225 92.9098 133.619 81.601 141.016C79.1846 142.599 76.7682 144.243 74.3518 145.85C70.2318 148.666 66.1239 151.422 61.9918 153.984C60.2117 155.096 58.4357 156.164 56.6637 157.187C38.5406 167.606 19.451 168.005 0.0351562 158.324C1.09838 158.686 2.17368 158.988 3.22481 159.254L4.43302 159.532C5.64122 159.774 6.84941 159.979 7.97304 160.124C9.52852 160.313 11.0941 160.406 12.6609 160.402H13.6516C13.9899 160.402 14.3161 160.402 14.6544 160.402H14.884H15.5727H15.9834H16.2613H16.5634H16.648L17.397 160.33L17.8682 160.269C18.279 160.269 18.6898 160.161 19.0764 160.088C19.4631 160.016 19.7168 159.992 20.043 159.919L20.5746 159.822L21.0821 159.714C21.2512 159.714 21.4204 159.641 21.5895 159.605H21.8432H22.0849C22.6527 159.472 23.2931 159.327 23.8005 159.17C24.308 159.012 25.0933 158.807 25.7336 158.602C26.374 158.396 26.9418 158.215 27.5459 157.997L28.3071 157.719L28.5971 157.61L28.8991 157.502L29.5878 157.224C30.4215 156.897 31.243 156.547 32.0767 156.172L33.152 155.677L34.6744 154.939L35.8826 154.287L37.0908 153.61L37.3686 153.465L37.864 153.187L38.3473 152.909C38.7702 152.667 39.193 152.425 39.5555 152.171L39.7367 152.075L40.4616 151.628C44.8813 148.908 49.1338 145.925 53.1961 142.696C54.2593 141.862 55.3346 141.003 56.3978 140.133L57.4852 139.239C58.2021 138.659 58.9149 138.066 59.6237 137.462C61.0494 136.27 62.4711 135.061 63.8887 133.836L66.0152 131.987C67.4408 130.778 68.8544 129.509 70.2801 128.24L72.4065 126.367L75.6687 123.49L78.7979 120.758L81.6614 118.281L84.1986 116.129L85.9747 114.655L87.3279 113.543C88.089 112.926 88.8502 112.334 89.6234 111.706L91.4357 110.291L92.511 109.47L92.8977 109.167C93.3447 108.829 93.7918 108.491 94.2388 108.176C94.6858 107.862 95.2174 107.439 95.7128 107.089L95.9786 106.907L97.4768 105.735L98.4554 105.07L99.5549 104.333C100.159 103.922 100.763 103.523 101.379 103.124L102.745 102.266C103.385 101.867 104.025 101.492 104.666 101.118L105.874 100.441L106.381 100.163C106.84 99.897 107.312 99.6553 107.771 99.4135C108.23 99.1718 108.786 98.8817 109.293 98.6279L109.498 98.5312L110.707 97.939L111.25 97.6852C111.77 97.4434 112.289 97.2259 112.797 97.0083L114.198 96.4161L115.008 96.1018L116.458 95.57C116.627 95.4989 116.8 95.4383 116.977 95.3887C117.569 95.1712 118.185 94.9778 118.765 94.7965C119.031 94.724 119.285 94.6393 119.551 94.5789C120.251 94.3734 120.952 94.1921 121.653 94.0229L122.354 93.8658L123.26 93.6724L124.19 93.5032L125.133 93.3461L126.075 93.2131H126.546L127.162 93.1406H127.319H127.501H128.371C128.709 93.1406 129.059 93.1406 129.41 93.0681C133.765 92.8564 138.125 93.3669 142.313 94.5789L145.237 126.778Z" fill="#FEBB37"/>
<path d="M140.224 73.5596C138.291 81.8631 132.878 88.837 129.35 94.1068C129 94.1068 128.65 94.1068 128.311 94.1793H127.441H127.26H127.103L126.487 94.2518H126.016L125.073 94.3848L124.131 94.5419L123.201 94.7111L122.294 94.9045L121.594 95.0616C120.893 95.2308 120.192 95.4121 119.491 95.6176C119.226 95.678 118.972 95.7626 118.706 95.8352C118.114 96.0165 117.498 96.2098 116.918 96.4274C116.741 96.477 116.568 96.5375 116.398 96.6087L114.948 97.1405L114.139 97.4548L112.737 98.047C112.23 98.2646 111.711 98.4821 111.191 98.7238L110.647 98.9777L109.439 99.5699L109.234 99.6666C108.726 99.9204 108.219 100.174 107.711 100.452C107.204 100.73 106.781 100.936 106.322 101.202L105.814 101.48L104.606 102.156C103.966 102.531 103.326 102.906 102.685 103.305L101.32 104.163C100.716 104.55 100.112 104.948 99.4956 105.371C98.3598 106.133 97.2121 106.919 96.0884 107.789C95.5085 108.2 94.9286 108.603 94.3486 108.997L92.6451 110.412L91.5697 111.233L89.7574 112.648C88.9842 113.252 88.223 113.856 87.4619 114.485L86.1087 115.597C85.5166 116.08 84.9005 116.564 84.3326 117.071L81.7954 119.223L78.9319 121.7L75.8027 124.432L72.5405 127.309L70.4141 129.182L66.1492 132.929L64.0469 134.742C62.6292 135.975 61.2076 137.183 59.7819 138.368C59.0731 138.972 58.3603 139.564 57.6434 140.145L56.556 141.039C55.4928 141.909 54.4175 142.767 53.3543 143.601C49.292 146.831 45.0395 149.814 40.6198 152.533L39.7136 153.077C39.3029 153.331 38.88 153.573 38.5054 153.814L38.0222 154.092L37.2489 154.516L36.0407 155.192L34.8325 155.845L33.3102 156.582L32.2349 157.078C31.4012 157.453 30.5796 157.803 29.746 158.129L28.7552 158.516L28.4653 158.625L27.7041 158.903C27.1 159.12 26.4959 159.326 25.8918 159.507C25.2877 159.689 24.6111 159.906 23.9587 160.075C23.3062 160.245 22.6538 160.414 22.0014 160.559H21.7477C21.5785 160.559 21.4094 160.643 21.2402 160.668L20.7086 160.776L20.177 160.873L19.2104 161.042C18.8117 161.115 18.4009 161.175 18.0022 161.224L16.794 161.357H16.5282H16.2262L15.5375 161.417H14.8488H14.6193C14.293 161.417 13.9547 161.417 13.6164 161.417H12.6257C11.0589 161.42 9.49337 161.327 7.93789 161.139C6.72968 160.994 5.5819 160.788 4.39786 160.547L3.18966 160.269C2.12644 160.003 1.06322 159.689 0 159.338C18.6547 162.36 34.458 145.33 50.2613 129.412C63.5515 116.044 76.4068 99.6545 89.7212 86.4076C91.2556 84.8847 92.79 83.3981 94.3486 81.9718C98.7029 77.9447 103.387 74.2898 108.352 71.0456C116.495 65.7517 124.94 62.4883 133.869 62.4883C135.619 62.4881 137.368 62.6133 139.1 62.863C139.1 62.863 140.683 71.5774 140.224 73.5596Z" fill="#5271F2"/>
<g style="mix-blend-mode:soft-light" opacity="0.5">
<path d="M145.239 126.778C135.966 122.806 125.641 122.007 115.868 124.506C104.257 127.226 92.9121 133.619 81.6033 141.016C79.1869 142.6 76.7705 144.244 74.3541 145.851C70.2341 148.667 66.1262 151.423 61.9941 153.985L81.7724 118.016L108.353 69.8386C116.496 64.5446 124.942 61.2813 133.87 61.2813C135.621 61.281 137.369 61.4062 139.102 61.6559C139.102 61.6559 140.648 70.3704 140.189 72.3526C138.256 80.656 132.843 87.63 129.315 92.8997C133.67 92.688 138.03 93.1985 142.219 94.4106L145.239 126.778Z" fill="#102242"/>
</g>
<path d="M277.502 96.7658C247.853 91.7862 228.582 102.809 209.202 118.159C207.197 119.742 205.179 121.386 203.161 123.054C186.5 136.785 170.806 148.255 149.432 150.237L148.345 150.334H147.801C141.472 150.738 135.117 150.393 128.869 149.306C122.938 141.723 117.682 133.634 113.162 125.133C114.121 125.552 115.134 125.836 116.171 125.979C117.985 126.321 119.816 126.571 121.656 126.728L122.465 126.813H123.009H123.504H123.891C124.314 126.813 124.713 126.886 125.099 126.898H125.22H125.679L126.887 126.97H127.02C129.658 127.08 132.3 127.044 134.934 126.861L135.925 126.789C137.326 126.68 138.691 126.523 140.033 126.33C140.427 126.281 140.83 126.221 141.241 126.148H141.41H141.555C142.195 126.04 142.836 125.931 143.464 125.798L144.986 125.484L145.602 125.339C146.074 125.242 146.533 125.121 146.992 125.012L147.91 124.77L148.744 124.541L149.529 124.311L149.904 124.202C150.931 123.888 151.945 123.562 152.96 123.199C153.697 122.945 154.422 122.679 155.147 122.389C155.872 122.099 156.355 121.918 156.984 121.652H157.056C158.264 121.144 159.473 120.601 160.62 120.045H160.681L162.408 119.186C163.617 118.582 164.764 117.978 165.924 117.289C166.516 116.963 167.133 116.624 167.664 116.286L169.368 115.246C169.948 114.896 170.576 114.533 171.083 114.171C177.804 109.716 184.259 104.873 190.415 99.6666C211.945 81.8993 232.025 67.9031 264.755 73.3783L277.502 96.7658Z" fill="#FEBB37"/>
<path d="M264.828 73.5C232.098 68.0247 212.017 81.9606 190.487 99.7883C184.331 104.995 177.876 109.838 171.156 114.292C170.588 114.655 170.02 115.017 169.44 115.368L167.737 116.407C167.169 116.746 166.528 117.084 165.997 117.411C164.789 118.063 163.665 118.704 162.481 119.308L160.753 120.166H160.693C159.485 120.722 158.276 121.266 157.129 121.774H157.056C156.452 122.028 155.848 122.281 155.22 122.511C154.591 122.741 153.77 123.067 153.033 123.321C152.018 123.683 151.003 124.01 149.976 124.324L149.601 124.433L148.816 124.662L147.982 124.892L147.064 125.134C146.605 125.243 146.146 125.363 145.675 125.46L145.059 125.605L143.536 125.919C142.908 126.052 142.268 126.161 141.627 126.27H141.482H141.313C140.91 126.342 140.508 126.403 140.105 126.451C138.764 126.645 137.399 126.802 135.997 126.911L135.006 126.983C132.372 127.166 129.731 127.202 127.093 127.092H126.96L125.752 127.019H125.292H125.172H124.592H124.35H123.939H123.553H123.057H122.514L121.704 126.935C119.916 126.741 118.079 126.5 116.219 126.185C115.182 126.043 114.17 125.758 113.21 125.339C108.713 117.113 105.042 108.461 102.252 99.5103H102.337C103.098 102.411 107.677 103.596 112.606 103.994H112.969C116.93 104.242 120.905 104.186 124.857 103.825H125.304L125.957 103.753C132.152 103.004 138.217 101.414 143.983 99.0268C143.983 99.0268 143.983 99.0268 143.983 98.9422C150.517 96.1699 156.725 92.6839 162.493 88.5477C167.652 84.9218 172.726 80.9211 177.873 76.6666C187.14 69.0279 196.141 62.0781 205.988 57.0864C215.976 51.8741 227.079 49.1617 238.344 49.1818C242.997 49.1978 247.64 49.6021 252.226 50.3904C256.399 58.0452 260.599 65.7484 264.828 73.5Z" fill="#5271F2"/>
<path d="M124.336 127.055L125.158 127.116H124.578L123.539 127.031L124.336 127.055Z" fill="#345BB7"/>
<path d="M143.913 98.7969C143.913 98.7969 143.913 98.7969 143.913 98.8815C138.147 101.269 132.082 102.859 125.887 103.607L125.234 103.68H124.787C120.834 104.041 116.86 104.097 112.898 103.849C123.488 104.578 134.102 102.849 143.913 98.7969Z" fill="#345BB7"/>
<path d="M143.908 99.2182C143.908 99.2182 143.908 99.2182 143.908 99.3028C138.142 101.69 132.077 103.28 125.882 104.029L125.229 104.101H124.782C120.83 104.462 116.855 104.518 112.894 104.27H112.531C107.602 103.872 103.023 102.687 102.261 99.7863C102.19 99.5425 102.149 99.2908 102.141 99.0369V98.5413C102.18 97.3121 102.496 96.1076 103.065 95.0174C103.634 93.9272 104.441 92.9793 105.427 92.2442C108.109 90.2258 113.884 87.4096 118.886 84.5693L119.998 83.9408L122.765 82.3212L123.514 81.8619C127.035 79.7708 130.345 77.342 133.397 74.6099C133.579 74.454 133.752 74.2886 133.916 74.1144C134.436 73.6188 134.931 73.1112 135.378 72.6035L135.777 72.1443C135.874 72.0234 135.982 71.9146 136.067 71.7937C136.152 71.6729 136.272 71.5278 136.381 71.407L136.623 71.0685C136.76 70.9 136.885 70.7223 136.997 70.5367C137.125 70.3713 137.242 70.1977 137.348 70.017C137.456 69.8599 137.541 69.7028 137.638 69.5456V69.4731L137.916 68.9534C138.012 68.7822 138.097 68.6045 138.169 68.4216C138.361 68.0301 138.526 67.6263 138.665 67.2129C138.724 67.0553 138.773 66.8938 138.81 66.7295C138.893 66.4611 138.954 66.1861 138.991 65.9076C139.023 65.7685 139.043 65.627 139.051 65.4845V65.2307C139.063 65.0335 139.063 64.8357 139.051 64.6385C139.075 64.1895 139.047 63.7393 138.967 63.2969C139.426 64.3001 145.056 83.4089 143.908 99.2182Z" fill="#0D3A82"/>
<g style="mix-blend-mode:soft-light" opacity="0.5">
<path d="M277.5 96.7663C247.851 91.7866 228.58 102.81 209.201 118.16C207.195 119.743 205.177 121.387 203.16 123.055C186.499 136.785 170.804 148.255 149.431 150.237L148.343 150.334H147.8C141.47 150.739 135.116 150.394 128.867 149.307L141.529 126.342L162.455 88.3661C167.614 84.7401 172.689 80.7395 177.836 76.485C187.103 68.8463 196.104 61.8965 205.951 56.9047C215.939 51.6924 227.041 48.9801 238.306 49.0001C242.959 49.0162 247.603 49.4205 252.189 50.2088C256.409 57.9684 260.634 65.7239 264.863 73.4754L277.5 96.7663Z" fill="#102242"/>
</g>
<path d="M409.762 126.778C419.035 122.805 429.36 122.006 439.133 124.505C450.744 127.225 462.089 133.619 473.398 141.016C475.814 142.599 478.231 144.243 480.647 145.85C484.767 148.666 488.875 151.422 493.007 153.984C494.787 155.096 496.563 156.164 498.335 157.187C516.458 167.606 535.548 168.005 554.964 158.324C553.9 158.686 552.825 158.988 551.774 159.254L550.566 159.532C549.358 159.774 548.149 159.979 547.026 160.124C545.47 160.313 543.905 160.406 542.338 160.402H541.347C541.009 160.402 540.683 160.402 540.344 160.402H540.115H539.426H539.015H538.737H538.435H538.351L537.602 160.33L537.131 160.269C536.72 160.269 536.309 160.161 535.922 160.088C535.536 160.016 535.282 159.992 534.956 159.919L534.424 159.822L533.917 159.714C533.748 159.714 533.578 159.641 533.409 159.605H533.156H532.914C532.346 159.472 531.766 159.327 531.198 159.17C530.63 159.012 529.905 158.807 529.265 158.602C528.625 158.396 528.057 158.215 527.453 157.997L526.692 157.719L526.402 157.61L526.1 157.502L525.411 157.224C524.577 156.897 523.756 156.547 522.922 156.172L521.847 155.677L520.349 154.685L519.08 154.033L517.872 153.356L517.594 153.211L517.099 152.933L516.615 152.655C516.192 152.413 515.769 152.171 515.407 151.918L515.226 151.821L514.501 151.374C510.081 148.654 505.829 145.671 501.766 142.442C500.703 141.608 499.628 140.75 498.565 139.879L497.477 138.985C496.768 138.405 496.056 137.813 495.339 137.208C493.913 136.016 492.491 134.807 491.074 133.582L488.947 131.733C487.522 130.524 486.108 129.255 484.682 127.986L482.556 126.113L479.294 123.236L476.165 120.505L473.229 118.015L470.691 115.863L468.915 114.389L467.562 113.277C466.801 112.66 466.04 112.068 465.267 111.44L463.454 110.026L462.379 109.204L461.992 108.902C461.545 108.563 461.098 108.225 460.651 107.91C460.204 107.596 459.673 107.173 459.177 106.823L458.911 106.641L457.522 105.735L456.543 105.07L455.444 104.333C454.84 103.922 454.236 103.523 453.62 103.124L452.254 102.266C451.614 101.867 450.974 101.492 450.333 101.118L449.125 100.441L448.618 100.163C448.158 99.897 447.687 99.6553 447.228 99.4135C446.769 99.1718 446.213 98.8817 445.706 98.6279L445.5 98.5312L444.292 97.939L443.748 97.6852C443.229 97.4434 442.709 97.2259 442.202 97.0083L440.8 96.4161L439.991 96.1018L438.541 95.57C438.372 95.4989 438.198 95.4383 438.022 95.3887C437.43 95.1712 436.813 94.9778 436.233 94.7965C435.968 94.724 435.714 94.6393 435.448 94.5789C434.747 94.3734 434.047 94.1921 433.346 94.0229L432.645 93.8658L431.739 93.6724L430.809 93.5032L429.866 93.3461L428.924 93.2131H428.453L427.836 93.1406H427.679H427.498H426.628C426.29 93.1406 425.94 93.1406 425.589 93.0681C421.234 92.8564 416.874 93.3669 412.686 94.5789L409.762 126.778Z" fill="#FEBB37"/>
<path d="M414.777 73.5596C416.71 81.8631 422.123 88.837 425.651 94.1068C426.001 94.1068 426.352 94.1068 426.69 94.1793H427.56H427.741H427.898L428.514 94.2518H428.985L429.928 94.3848L430.87 94.5419L431.8 94.7111L432.707 94.9045L433.407 95.0616C434.108 95.2308 434.809 95.4121 435.51 95.6176C435.775 95.678 436.029 95.7626 436.295 95.8352C436.887 96.0165 437.503 96.2098 438.083 96.4274C438.26 96.477 438.433 96.5375 438.603 96.6087L440.053 97.1405L440.862 97.4548L442.264 98.047C442.771 98.2646 443.291 98.4821 443.81 98.7239L444.354 98.9777L445.562 99.5699L445.767 99.6666C446.275 99.9204 446.782 100.174 447.29 100.452C447.797 100.73 448.22 100.936 448.679 101.202L449.187 101.48L450.395 102.156C451.035 102.531 451.675 102.906 452.316 103.305L453.681 104.163C454.285 104.55 454.889 104.948 455.505 105.371C456.641 106.133 457.789 106.919 458.913 107.789C459.493 108.2 460.073 108.603 460.652 108.997L462.38 110.291L463.455 111.113L465.268 112.527C466.041 113.131 466.802 113.735 467.563 114.364L468.917 115.476C469.509 115.959 470.125 116.443 470.693 116.95L473.23 119.102L476.093 121.58L479.223 124.311L482.485 127.188L484.611 129.061L488.876 132.808L491.003 134.657C492.42 135.89 493.842 137.099 495.267 138.283C495.976 138.888 496.689 139.48 497.406 140.06L498.493 140.954C499.557 141.825 500.632 142.683 501.695 143.517C505.757 146.746 510.01 149.729 514.43 152.449L515.336 152.993C515.746 153.246 516.169 153.488 516.544 153.73L517.027 154.008L517.8 154.431L519.009 155.108L520.277 155.76L521.8 156.498L522.875 156.993C523.709 157.368 524.53 157.718 525.364 158.045L526.354 158.432L526.645 158.54L527.406 158.818C528.01 159.036 528.614 159.241 529.218 159.423C529.822 159.604 530.499 159.822 531.151 159.991C531.804 160.16 532.456 160.329 533.108 160.474H533.362C533.531 160.474 533.7 160.559 533.87 160.583L534.401 160.692L534.933 160.788L535.899 160.958C536.298 161.03 536.709 161.091 537.108 161.139L538.316 161.272H538.473H538.775L539.464 161.332H540.152H540.382C540.708 161.332 541.046 161.332 541.385 161.332H542.375C543.942 161.335 545.508 161.243 547.063 161.054C548.271 160.909 549.48 160.704 550.603 160.462L551.811 160.184C552.875 159.918 553.938 159.604 555.001 159.253C536.346 162.275 520.543 145.245 504.74 129.327C491.45 115.959 478.594 99.5699 465.28 86.323C463.745 84.8001 462.211 83.3135 460.652 81.8872C456.295 77.8894 451.611 74.2629 446.649 71.0456C438.506 65.7517 430.061 62.4883 421.132 62.4883C419.382 62.4881 417.633 62.6133 415.901 62.863C415.901 62.863 414.318 71.5774 414.777 73.5596Z" fill="#5271F2"/>
<g style="mix-blend-mode:soft-light" opacity="0.5">
<path d="M409.762 126.778C419.035 122.806 429.36 122.007 439.133 124.506C450.744 127.226 462.089 133.619 473.398 141.016C475.814 142.6 478.231 144.244 480.647 145.851C484.767 148.667 488.875 151.423 493.007 153.985L473.229 118.016L446.648 69.8386C438.505 64.5446 430.06 61.2813 421.131 61.2813C419.38 61.281 417.632 61.4062 415.899 61.6559C415.899 61.6559 414.353 70.3704 414.812 72.3526C416.745 80.656 422.158 87.63 425.686 92.8997C421.331 92.688 416.971 93.1985 412.782 94.4106L409.762 126.778Z" fill="#102242"/>
</g>
<path d="M277.5 96.7678C307.149 91.7881 326.42 102.811 345.8 118.161C347.805 119.744 349.823 121.388 351.841 123.056C368.502 136.786 384.196 148.257 405.57 150.239L406.657 150.336H407.201C413.53 150.74 419.885 150.395 426.133 149.308C432.064 141.725 437.32 133.636 441.84 125.135C440.881 125.554 439.868 125.838 438.831 125.981C437.017 126.323 435.186 126.573 433.346 126.73L432.537 126.815H431.993H431.933H431.437H431.051C430.628 126.815 430.229 126.888 429.842 126.9H429.734H429.275L428.066 126.972H427.933C425.296 127.082 422.654 127.046 420.02 126.863L419.029 126.791C417.627 126.682 416.262 126.525 414.921 126.332C414.526 126.283 414.124 126.223 413.713 126.15H413.544H413.399C412.758 126.041 412.118 125.933 411.49 125.8L409.967 125.485L409.351 125.34C408.88 125.244 408.421 125.123 407.962 125.014L407.044 124.772L406.21 124.543L405.425 124.313L405.05 124.204C404.023 123.89 403.008 123.564 401.993 123.201C401.256 122.947 400.531 122.681 399.806 122.391C399.082 122.101 398.598 121.92 397.97 121.654H397.897C396.689 121.146 395.481 120.603 394.333 120.047H394.273L392.545 119.188C391.337 118.584 390.189 117.98 389.029 117.291C388.437 116.964 387.821 116.626 387.289 116.288L385.586 115.248C385.006 114.898 384.378 114.535 383.87 114.172C377.15 109.718 370.695 104.875 364.539 99.6686C343.009 81.9013 322.928 67.905 290.198 73.3803L277.5 96.7678Z" fill="#FEBB37"/>
<path d="M290.174 73.5C322.904 68.0247 342.984 81.9606 364.515 99.7883C370.671 104.995 377.125 109.838 383.846 114.292C384.414 114.655 384.982 115.017 385.562 115.368L387.265 116.407C387.833 116.746 388.473 117.084 389.005 117.411C390.213 118.063 391.337 118.704 392.521 119.308L394.249 120.166H394.309C395.517 120.722 396.725 121.266 397.873 121.774H397.946C398.55 122.028 399.154 122.281 399.782 122.511C400.41 122.741 401.232 123.067 401.969 123.321C402.984 123.683 403.999 124.01 405.026 124.324L405.4 124.433L406.186 124.662L407.019 124.892L407.937 125.134C408.397 125.243 408.856 125.363 409.327 125.46L409.943 125.605L411.465 125.919C412.094 126.052 412.734 126.161 413.374 126.27H413.519H413.688C414.091 126.342 414.494 126.403 414.897 126.451C416.238 126.645 417.603 126.802 419.005 126.911L419.995 126.983C422.629 127.166 425.271 127.202 427.909 127.092H428.042L429.25 127.019H429.709H429.83H430.41H430.652H431.062H431.449H431.944H432.005H432.549L433.358 126.935C435.146 126.741 436.983 126.5 438.843 126.185C439.88 126.043 440.892 125.758 441.852 125.339C446.349 117.113 450.02 108.461 452.81 99.5103H452.726C451.964 102.411 447.385 103.596 442.456 103.994H442.093C438.132 104.242 434.157 104.186 430.205 103.825H429.758L429.105 103.753C422.91 103.004 416.845 101.414 411.079 99.0268C411.079 99.0268 411.079 99.0268 411.079 98.9422C404.545 96.1699 398.337 92.6839 392.569 88.5477C387.41 84.9218 382.336 80.9211 377.189 76.6666C367.922 69.0279 358.921 62.0781 349.074 57.0864C339.086 51.8741 327.983 49.1617 316.718 49.1818C312.065 49.1978 307.422 49.6021 302.836 50.3904C298.631 58.0452 294.411 65.7484 290.174 73.5Z" fill="#5271F2"/>
<path d="M430.665 127.055L429.844 127.116H430.424L431.463 127.031L430.665 127.055Z" fill="#345BB7"/>
<path d="M411.092 98.7969C411.092 98.7969 411.092 98.7969 411.092 98.8815C416.858 101.269 422.923 102.859 429.118 103.607L429.771 103.68H430.218C434.17 104.041 438.145 104.097 442.106 103.849C431.517 104.578 420.903 102.849 411.092 98.7969Z" fill="#345BB7"/>
<path d="M411.092 99.2424C411.092 99.2424 411.092 99.2424 411.092 99.327C416.858 101.714 422.922 103.304 429.118 104.053L429.77 104.125H430.217C434.17 104.486 438.145 104.543 442.106 104.295H442.469C447.398 103.896 451.977 102.711 452.738 99.8104C452.81 99.5667 452.85 99.3149 452.859 99.0611V98.5655C452.82 97.3363 452.504 96.1318 451.935 95.0416C451.366 93.9514 450.558 93.0035 449.573 92.2684C446.891 90.25 441.055 87.4338 436.113 84.5934L435.002 83.9649L432.151 82.3212L431.401 81.8619C427.88 79.7708 424.57 77.342 421.518 74.6099C421.337 74.454 421.163 74.2886 420.999 74.1144C420.479 73.6188 419.984 73.1112 419.537 72.6035L419.138 72.1443C419.042 72.0234 418.933 71.9146 418.848 71.7937C418.764 71.6729 418.643 71.5278 418.534 71.407L418.292 71.0685C418.156 70.9 418.03 70.7223 417.918 70.5367C417.79 70.3713 417.673 70.1977 417.568 70.017C417.459 69.8599 417.374 69.7028 417.278 69.5456V69.4731L417 68.9534C416.903 68.7822 416.818 68.6045 416.746 68.4216C416.554 68.0301 416.389 67.6263 416.251 67.2129C416.191 67.0553 416.143 66.8938 416.106 66.7295C416.022 66.4611 415.962 66.1861 415.924 65.9076C415.892 65.7685 415.872 65.627 415.864 65.4846V65.2307C415.852 65.0335 415.852 64.8357 415.864 64.6385C415.84 64.1895 415.869 63.7393 415.949 63.2969C415.574 64.3242 409.944 83.4331 411.092 99.2424Z" fill="#0D3A82"/>
<g style="mix-blend-mode:soft-light" opacity="0.5">
<path d="M277.5 96.7663C307.149 91.7866 326.42 102.81 345.8 118.16C347.805 119.743 349.823 121.387 351.841 123.055C368.502 136.785 384.196 148.255 405.57 150.237L406.657 150.334H407.201C413.53 150.739 419.885 150.394 426.133 149.307L413.471 126.342L392.545 88.3661C387.386 84.7401 382.312 80.7395 377.165 76.485C367.898 68.8463 358.897 61.8965 349.05 56.9047C339.062 51.6924 327.959 48.9801 316.694 49.0001C312.041 49.0162 307.398 49.4205 302.812 50.2088C298.591 57.9684 294.367 65.7239 290.138 73.4754L277.5 96.7663Z" fill="#102242"/>
</g>
<path d="M310.813 162.922L310.815 162.921L339.745 146.399C341.615 145.331 342.77 143.342 342.77 141.188V12C342.77 6.47717 338.293 2 332.77 2H221.869C216.346 2 211.869 6.47715 211.869 12V141.219C211.869 143.386 213.038 145.385 214.926 146.448L215.907 144.705L214.926 146.448L244.543 163.116L244.546 163.117C253.254 167.998 261.27 172.433 267.172 175.637C270.121 177.239 272.55 178.538 274.277 179.432C275.138 179.878 275.84 180.232 276.35 180.475C276.601 180.595 276.833 180.7 277.025 180.778C277.118 180.815 277.239 180.862 277.367 180.9C277.43 180.919 277.533 180.948 277.657 180.969L277.66 180.969C277.738 180.983 278.044 181.035 278.419 180.96C278.675 180.909 278.896 180.808 278.916 180.799L278.917 180.798C278.996 180.763 279.079 180.724 279.157 180.685C279.317 180.607 279.522 180.501 279.762 180.375C280.246 180.12 280.921 179.755 281.76 179.295C283.441 178.374 285.811 177.057 288.693 175.442C294.46 172.21 302.295 167.778 310.813 162.922Z" fill="#5271F2" stroke="#FEBB37" stroke-width="4"/>
<mask id="path-20-outside-1_536_5013" maskUnits="userSpaceOnUse" x="222.986" y="13" width="108" height="152" fill="black">
<rect fill="white" x="222.986" y="13" width="108" height="152"/>
<path d="M282.315 82.625C281.443 73.3428 280.293 43.9491 280.293 30.9381V24.7103H274.742V33.1198C274.742 48.9472 273.394 79.0153 272.363 86.7505C271.57 92.5816 270.816 94.4063 267.406 98.9284C264.948 102.221 262.886 106.188 261.696 109.996C260.824 112.693 260.07 117.374 260.388 117.731C260.506 117.85 261.696 117.929 263.044 117.929H265.463L265.939 115.152C266.772 110.313 268.873 105.791 272.759 100.674C274.861 97.8574 276.249 94.803 276.883 91.6296C277.121 90.3999 277.399 89.3685 277.518 89.3685C277.636 89.3685 278.033 90.7569 278.469 92.4626C279.342 96.231 280.135 97.8177 282.95 101.427C286.439 105.989 289.413 113.09 289.413 116.898V117.969L294.766 117.731L294.647 115.946C294.33 110.868 291.475 103.927 287.51 98.6111C286.201 96.9054 284.972 95.1203 284.695 94.6443C283.902 93.0973 282.752 87.3058 282.315 82.625Z"/>
<path d="M256.898 61.2045C254.598 52.914 250.99 46.6861 244.407 39.8236C242.901 38.2369 240.799 36.2139 239.768 35.3412L237.865 33.7545V128.243H260.824L261.3 129.909C261.855 132.051 263.996 136.375 265.661 138.834C268.596 143.158 275.376 148.87 277.557 148.87C278.985 148.87 283.545 145.578 286.479 142.444C289.374 139.35 292.11 134.867 293.379 131.059L294.37 128.243H317.17V33.7545L313.919 36.6502C304.362 45.2978 298.851 55.0957 296.947 66.9563C296.075 72.3908 295.322 78.9756 294.965 84.2911C294.921 84.9475 294.88 85.5478 294.842 86.0971C294.558 90.2559 294.473 91.4921 295.045 92.0312C295.287 92.2592 295.646 92.3624 296.158 92.5094C296.314 92.5542 296.484 92.6031 296.67 92.6609C299.049 93.4543 300.12 94.2476 301.269 96.1517C302.221 97.6987 302.34 99.9201 301.547 101.784C301.071 102.975 299.009 105.117 297.582 105.91C297.027 106.188 297.066 106.505 297.82 108.528C298.811 111.265 299.327 111.344 301.944 109.321C304.481 107.417 305.116 106.624 306.385 104.046C307.812 101.031 307.812 97.5797 306.385 94.5253C305.235 92.0263 304.085 90.7172 301.706 89.1305L300.04 88.0198L300.278 84.2117C301.151 71.9544 303.173 61.5615 305.631 56.2064C307.098 53.1123 310.786 47.2415 311.619 46.7258C311.896 46.5671 312.015 58.9434 312.015 84.7671V123.086H286.241V128.243H287.431C288.105 128.243 288.62 128.322 288.62 128.441C288.62 128.52 288.263 129.552 287.788 130.702C286.757 133.36 283.981 137.525 281.919 139.548L280.293 141.095V131.694C280.293 121.063 280.61 119.476 283.227 116.779L284.615 115.351L281.364 111.067L279.421 113.09L277.518 115.113L275.614 113.09L273.671 111.067L270.499 115.351L272.006 116.977C274.266 119.476 274.464 120.547 274.623 131.416L274.821 141.135L273.751 140.143C271.133 137.723 267.525 132.13 266.613 129.116C266.375 128.322 266.494 128.243 267.763 128.243H269.19V123.086H256.303C246.35 123.086 243.337 122.967 243.218 122.57C243.099 122.332 243.059 105.037 243.099 84.2117L243.218 46.3291L245.161 48.9075C248.492 53.39 251.148 59.3798 252.338 65.0126C253.171 69.138 254.44 78.8169 254.757 83.9737L255.034 88.0595L253.686 88.8925C247.104 92.9783 245.676 101.388 250.633 107.021C252.338 108.925 254.876 110.789 255.827 110.789C256.145 110.789 256.779 109.758 257.255 108.488C258.048 106.346 258.048 106.188 257.414 105.831C257.017 105.593 255.946 104.68 255.034 103.768C253.131 101.864 252.536 99.5234 253.329 97.1434C253.924 95.279 256.343 93.2163 258.603 92.5816L260.467 92.0263V89.5669C260.467 83.2597 258.365 66.52 256.898 61.2045Z"/>
<path fill-rule="evenodd" clip-rule="evenodd" d="M330.652 132.468C330.652 133.903 329.884 135.228 328.638 135.94L304.64 149.663C293.643 155.941 283.77 161.422 279.784 163.626C278.612 164.274 277.208 164.289 276.024 163.664C271.963 161.52 261.853 156.141 250.593 149.822L226.023 135.975C224.765 135.266 223.986 133.934 223.986 132.49V22C223.986 17.5817 227.568 14 231.986 14H322.652C327.07 14 330.652 17.5817 330.652 22V132.468ZM229.141 131.615V19.1568L325.299 19.3551L325.418 75.3262C325.497 119.833 325.378 131.416 325.021 131.734C324.744 131.932 313.998 138.16 301.111 145.498L277.716 158.906L274.9 157.359C273.354 156.526 262.449 150.377 250.633 143.713L229.141 131.615Z"/>
</mask>
<path d="M282.315 82.625C281.443 73.3428 280.293 43.9491 280.293 30.9381V24.7103H274.742V33.1198C274.742 48.9472 273.394 79.0153 272.363 86.7505C271.57 92.5816 270.816 94.4063 267.406 98.9284C264.948 102.221 262.886 106.188 261.696 109.996C260.824 112.693 260.07 117.374 260.388 117.731C260.506 117.85 261.696 117.929 263.044 117.929H265.463L265.939 115.152C266.772 110.313 268.873 105.791 272.759 100.674C274.861 97.8574 276.249 94.803 276.883 91.6296C277.121 90.3999 277.399 89.3685 277.518 89.3685C277.636 89.3685 278.033 90.7569 278.469 92.4626C279.342 96.231 280.135 97.8177 282.95 101.427C286.439 105.989 289.413 113.09 289.413 116.898V117.969L294.766 117.731L294.647 115.946C294.33 110.868 291.475 103.927 287.51 98.6111C286.201 96.9054 284.972 95.1203 284.695 94.6443C283.902 93.0973 282.752 87.3058 282.315 82.625Z" fill="#FEBB37"/>
<path d="M256.898 61.2045C254.598 52.914 250.99 46.6861 244.407 39.8236C242.901 38.2369 240.799 36.2139 239.768 35.3412L237.865 33.7545V128.243H260.824L261.3 129.909C261.855 132.051 263.996 136.375 265.661 138.834C268.596 143.158 275.376 148.87 277.557 148.87C278.985 148.87 283.545 145.578 286.479 142.444C289.374 139.35 292.11 134.867 293.379 131.059L294.37 128.243H317.17V33.7545L313.919 36.6502C304.362 45.2978 298.851 55.0957 296.947 66.9563C296.075 72.3908 295.322 78.9756 294.965 84.2911C294.921 84.9475 294.88 85.5478 294.842 86.0971C294.558 90.2559 294.473 91.4921 295.045 92.0312C295.287 92.2592 295.646 92.3624 296.158 92.5094C296.314 92.5542 296.484 92.6031 296.67 92.6609C299.049 93.4543 300.12 94.2476 301.269 96.1517C302.221 97.6987 302.34 99.9201 301.547 101.784C301.071 102.975 299.009 105.117 297.582 105.91C297.027 106.188 297.066 106.505 297.82 108.528C298.811 111.265 299.327 111.344 301.944 109.321C304.481 107.417 305.116 106.624 306.385 104.046C307.812 101.031 307.812 97.5797 306.385 94.5253C305.235 92.0263 304.085 90.7172 301.706 89.1305L300.04 88.0198L300.278 84.2117C301.151 71.9544 303.173 61.5615 305.631 56.2064C307.098 53.1123 310.786 47.2415 311.619 46.7258C311.896 46.5671 312.015 58.9434 312.015 84.7671V123.086H286.241V128.243H287.431C288.105 128.243 288.62 128.322 288.62 128.441C288.62 128.52 288.263 129.552 287.788 130.702C286.757 133.36 283.981 137.525 281.919 139.548L280.293 141.095V131.694C280.293 121.063 280.61 119.476 283.227 116.779L284.615 115.351L281.364 111.067L279.421 113.09L277.518 115.113L275.614 113.09L273.671 111.067L270.499 115.351L272.006 116.977C274.266 119.476 274.464 120.547 274.623 131.416L274.821 141.135L273.751 140.143C271.133 137.723 267.525 132.13 266.613 129.116C266.375 128.322 266.494 128.243 267.763 128.243H269.19V123.086H256.303C246.35 123.086 243.337 122.967 243.218 122.57C243.099 122.332 243.059 105.037 243.099 84.2117L243.218 46.3291L245.161 48.9075C248.492 53.39 251.148 59.3798 252.338 65.0126C253.171 69.138 254.44 78.8169 254.757 83.9737L255.034 88.0595L253.686 88.8925C247.104 92.9783 245.676 101.388 250.633 107.021C252.338 108.925 254.876 110.789 255.827 110.789C256.145 110.789 256.779 109.758 257.255 108.488C258.048 106.346 258.048 106.188 257.414 105.831C257.017 105.593 255.946 104.68 255.034 103.768C253.131 101.864 252.536 99.5234 253.329 97.1434C253.924 95.279 256.343 93.2163 258.603 92.5816L260.467 92.0263V89.5669C260.467 83.2597 258.365 66.52 256.898 61.2045Z" fill="#FEBB37"/>
<path fill-rule="evenodd" clip-rule="evenodd" d="M330.652 132.468C330.652 133.903 329.884 135.228 328.638 135.94L304.64 149.663C293.643 155.941 283.77 161.422 279.784 163.626C278.612 164.274 277.208 164.289 276.024 163.664C271.963 161.52 261.853 156.141 250.593 149.822L226.023 135.975C224.765 135.266 223.986 133.934 223.986 132.49V22C223.986 17.5817 227.568 14 231.986 14H322.652C327.07 14 330.652 17.5817 330.652 22V132.468ZM229.141 131.615V19.1568L325.299 19.3551L325.418 75.3262C325.497 119.833 325.378 131.416 325.021 131.734C324.744 131.932 313.998 138.16 301.111 145.498L277.716 158.906L274.9 157.359C273.354 156.526 262.449 150.377 250.633 143.713L229.141 131.615Z" fill="#FEBB37"/>
<path d="M282.315 82.625C281.443 73.3428 280.293 43.9491 280.293 30.9381V24.7103H274.742V33.1198C274.742 48.9472 273.394 79.0153 272.363 86.7505C271.57 92.5816 270.816 94.4063 267.406 98.9284C264.948 102.221 262.886 106.188 261.696 109.996C260.824 112.693 260.07 117.374 260.388 117.731C260.506 117.85 261.696 117.929 263.044 117.929H265.463L265.939 115.152C266.772 110.313 268.873 105.791 272.759 100.674C274.861 97.8574 276.249 94.803 276.883 91.6296C277.121 90.3999 277.399 89.3685 277.518 89.3685C277.636 89.3685 278.033 90.7569 278.469 92.4626C279.342 96.231 280.135 97.8177 282.95 101.427C286.439 105.989 289.413 113.09 289.413 116.898V117.969L294.766 117.731L294.647 115.946C294.33 110.868 291.475 103.927 287.51 98.6111C286.201 96.9054 284.972 95.1203 284.695 94.6443C283.902 93.0973 282.752 87.3058 282.315 82.625Z" stroke="#FEBB37" stroke-width="0.578588" mask="url(#path-20-outside-1_536_5013)"/>
<path d="M256.898 61.2045C254.598 52.914 250.99 46.6861 244.407 39.8236C242.901 38.2369 240.799 36.2139 239.768 35.3412L237.865 33.7545V128.243H260.824L261.3 129.909C261.855 132.051 263.996 136.375 265.661 138.834C268.596 143.158 275.376 148.87 277.557 148.87C278.985 148.87 283.545 145.578 286.479 142.444C289.374 139.35 292.11 134.867 293.379 131.059L294.37 128.243H317.17V33.7545L313.919 36.6502C304.362 45.2978 298.851 55.0957 296.947 66.9563C296.075 72.3908 295.322 78.9756 294.965 84.2911C294.921 84.9475 294.88 85.5478 294.842 86.0971C294.558 90.2559 294.473 91.4921 295.045 92.0312C295.287 92.2592 295.646 92.3624 296.158 92.5094C296.314 92.5542 296.484 92.6031 296.67 92.6609C299.049 93.4543 300.12 94.2476 301.269 96.1517C302.221 97.6987 302.34 99.9201 301.547 101.784C301.071 102.975 299.009 105.117 297.582 105.91C297.027 106.188 297.066 106.505 297.82 108.528C298.811 111.265 299.327 111.344 301.944 109.321C304.481 107.417 305.116 106.624 306.385 104.046C307.812 101.031 307.812 97.5797 306.385 94.5253C305.235 92.0263 304.085 90.7172 301.706 89.1305L300.04 88.0198L300.278 84.2117C301.151 71.9544 303.173 61.5615 305.631 56.2064C307.098 53.1123 310.786 47.2415 311.619 46.7258C311.896 46.5671 312.015 58.9434 312.015 84.7671V123.086H286.241V128.243H287.431C288.105 128.243 288.62 128.322 288.62 128.441C288.62 128.52 288.263 129.552 287.788 130.702C286.757 133.36 283.981 137.525 281.919 139.548L280.293 141.095V131.694C280.293 121.063 280.61 119.476 283.227 116.779L284.615 115.351L281.364 111.067L279.421 113.09L277.518 115.113L275.614 113.09L273.671 111.067L270.499 115.351L272.006 116.977C274.266 119.476 274.464 120.547 274.623 131.416L274.821 141.135L273.751 140.143C271.133 137.723 267.525 132.13 266.613 129.116C266.375 128.322 266.494 128.243 267.763 128.243H269.19V123.086H256.303C246.35 123.086 243.337 122.967 243.218 122.57C243.099 122.332 243.059 105.037 243.099 84.2117L243.218 46.3291L245.161 48.9075C248.492 53.39 251.148 59.3798 252.338 65.0126C253.171 69.138 254.44 78.8169 254.757 83.9737L255.034 88.0595L253.686 88.8925C247.104 92.9783 245.676 101.388 250.633 107.021C252.338 108.925 254.876 110.789 255.827 110.789C256.145 110.789 256.779 109.758 257.255 108.488C258.048 106.346 258.048 106.188 257.414 105.831C257.017 105.593 255.946 104.68 255.034 103.768C253.131 101.864 252.536 99.5234 253.329 97.1434C253.924 95.279 256.343 93.2163 258.603 92.5816L260.467 92.0263V89.5669C260.467 83.2597 258.365 66.52 256.898 61.2045Z" stroke="#FEBB37" stroke-width="0.578588" mask="url(#path-20-outside-1_536_5013)"/>
<path fill-rule="evenodd" clip-rule="evenodd" d="M330.652 132.468C330.652 133.903 329.884 135.228 328.638 135.94L304.64 149.663C293.643 155.941 283.77 161.422 279.784 163.626C278.612 164.274 277.208 164.289 276.024 163.664C271.963 161.52 261.853 156.141 250.593 149.822L226.023 135.975C224.765 135.266 223.986 133.934 223.986 132.49V22C223.986 17.5817 227.568 14 231.986 14H322.652C327.07 14 330.652 17.5817 330.652 22V132.468ZM229.141 131.615V19.1568L325.299 19.3551L325.418 75.3262C325.497 119.833 325.378 131.416 325.021 131.734C324.744 131.932 313.998 138.16 301.111 145.498L277.716 158.906L274.9 157.359C273.354 156.526 262.449 150.377 250.633 143.713L229.141 131.615Z" stroke="#FEBB37" stroke-width="0.578588" mask="url(#path-20-outside-1_536_5013)"/>
</svg>
