<svg width="10" height="17" viewBox="0 0 10 17" fill="none" xmlns="http://www.w3.org/2000/svg">
<path d="M0.615983 0.545671C0.381644 0.78008 0.25 1.09797 0.25 1.42942C0.25 1.76088 0.381644 2.07876 0.615983 2.31317L6.80348 8.50067L0.615983 14.6882C0.388286 14.9239 0.262292 15.2397 0.26514 15.5674C0.267988 15.8952 0.39945 16.2087 0.63121 16.4404C0.86297 16.6722 1.17649 16.8037 1.50423 16.8065C1.83198 16.8094 2.14773 16.6834 2.38348 16.4557L9.45473 9.38442C9.68907 9.15001 9.82072 8.83213 9.82072 8.50067C9.82072 8.16922 9.68907 7.85133 9.45473 7.61692L2.38348 0.545671C2.14907 0.311332 1.83119 0.179688 1.49973 0.179688C1.16828 0.179688 0.850393 0.311332 0.615983 0.545671V0.545671Z" fill="white"/>
</svg>
