<svg width="123" height="27" viewBox="0 0 123 27" fill="none" xmlns="http://www.w3.org/2000/svg">
<g filter="url(#filter0_d_1107_152)">
<path d="M119 5.33385C119 5.16816 118.866 5.03385 118.7 5.03385H118.422C118.256 5.03385 118.122 5.16816 118.122 5.33385V7.79637C118.122 7.96206 117.987 8.09637 117.822 8.09637H116.881C116.715 8.09637 116.581 7.96206 116.581 7.79637V6.83484C116.581 6.66915 116.447 6.53484 116.281 6.53484H116C115.834 6.53484 115.7 6.66915 115.7 6.83484V7.79637C115.7 7.96206 115.565 8.09637 115.4 8.09637H114.459C114.293 8.09637 114.159 7.96206 114.159 7.79637V3.4122C114.159 3.24651 114.025 3.1122 113.859 3.1122H113.581C113.415 3.1122 113.281 3.24651 113.281 3.4122V7.79637C113.281 7.96206 113.146 8.09637 112.981 8.09637H112.04C111.874 8.09637 111.74 7.96206 111.74 7.79637V6.83484C111.74 6.66915 111.606 6.53484 111.44 6.53484H111.162C110.996 6.53484 110.862 6.66915 110.862 6.83484V7.79637C110.862 7.96206 110.728 8.09637 110.562 8.09637H109.621C109.455 8.09637 109.321 7.96206 109.321 7.79637V7.19176C109.321 7.02607 109.187 6.89176 109.021 6.89176H108.74C108.574 6.89176 108.44 7.02607 108.44 7.19176V7.79637C108.44 7.96206 108.306 8.09637 108.14 8.09637H107.199C107.033 8.09637 106.899 7.96206 106.899 7.79637V4.57538C106.899 4.4097 106.765 4.27538 106.599 4.27538H106.321C106.155 4.27538 106.021 4.4097 106.021 4.57538V7.79637C106.021 7.96206 105.887 8.09637 105.721 8.09637H104.78C104.614 8.09637 104.48 7.96206 104.48 7.79637V5.33385C104.48 5.16816 104.346 5.03385 104.18 5.03385H103.899C103.733 5.03385 103.599 5.16816 103.599 5.33385V7.79637C103.599 7.96206 103.465 8.09637 103.299 8.09637H99.3815C99.2158 8.09637 99.0815 7.96206 99.0815 7.79637V7.41165C99.0815 7.24596 98.9471 7.11165 98.7815 7.11165H98.5002C98.3345 7.11165 98.2002 7.24596 98.2002 7.41165V7.79637C98.2002 7.96206 98.0658 8.09637 97.9002 8.09637H96.9594C96.7937 8.09637 96.6594 7.96206 96.6594 7.79637V5.33385C96.6594 5.16816 96.5251 5.03385 96.3594 5.03385H96.0812C95.9155 5.03385 95.7812 5.16816 95.7812 5.33385V7.79637C95.7812 7.96206 95.6469 8.09637 95.4812 8.09637H94.5405C94.3748 8.09637 94.2405 7.96206 94.2405 7.79637V6.83484C94.2405 6.66915 94.1062 6.53484 93.9405 6.53484H93.6623C93.4966 6.53484 93.3623 6.66915 93.3623 6.83484V7.79637C93.3623 7.96206 93.228 8.09637 93.0623 8.09637H92.1215C91.9559 8.09637 91.8215 7.96206 91.8215 7.79637V6.83484C91.8215 6.66915 91.6872 6.53484 91.5215 6.53484H91.2402C91.0746 6.53484 90.9402 6.66915 90.9402 6.83484V7.79637C90.9402 7.96206 90.8059 8.09637 90.6403 8.09637H89.6995C89.5338 8.09637 89.3995 7.96206 89.3995 7.79637V4.28538C89.3995 4.1197 89.2652 3.98538 89.0995 3.98538H88.8213C88.6556 3.98538 88.5213 4.1197 88.5213 4.28538V7.79637C88.5213 7.96206 88.387 8.09637 88.2213 8.09637H87.2806C87.1149 8.09637 86.9806 7.96206 86.9806 7.79637V4.71879C86.9806 4.55311 86.8463 4.41879 86.6806 4.41879H86.3993C86.2336 4.41879 86.0993 4.55311 86.0993 4.71879V7.79637C86.0993 7.96206 85.965 8.09637 85.7993 8.09637H84.8585C84.6929 8.09637 84.5585 7.96206 84.5585 7.79637V5.34978C84.5585 5.18409 84.4242 5.04978 84.2585 5.04978H83.9803C83.8146 5.04978 83.6803 5.18409 83.6803 5.34978V7.79637C83.6803 7.96206 83.546 8.09637 83.3803 8.09637H79.4598C79.2942 8.09637 79.1598 7.96206 79.1598 7.79637V5.33385C79.1598 5.16816 79.0255 5.03385 78.8598 5.03385H78.5816C78.4159 5.03385 78.2816 5.16816 78.2816 5.33385V7.79637C78.2816 7.96206 78.1473 8.09637 77.9816 8.09637H77.0409C76.8752 8.09637 76.7409 7.96206 76.7409 7.79637V6.83484C76.7409 6.66915 76.6066 6.53484 76.4409 6.53484H76.1627C75.997 6.53484 75.8627 6.66915 75.8627 6.83484V7.79637C75.8627 7.96206 75.7284 8.09637 75.5627 8.09637H74.6219C74.4563 8.09637 74.3219 7.96206 74.3219 7.79637V4.93868C74.3219 4.773 74.1876 4.63868 74.0219 4.63868H73.7406C73.575 4.63868 73.4407 4.773 73.4407 4.93868V7.79637C73.4407 7.96206 73.3063 8.09637 73.1406 8.09637H72.1999C72.0342 8.09637 71.8999 7.96206 71.8999 7.79637V7.0356C71.8999 6.86992 71.7656 6.7356 71.5999 6.7356H71.3217C71.156 6.7356 71.0217 6.86992 71.0217 7.0356V7.79637C71.0217 7.96206 70.8874 8.09637 70.7217 8.09637H69.781C69.6153 8.09637 69.481 7.96206 69.481 7.79637V4.40648C69.481 4.2408 69.3467 4.10648 69.181 4.10648H68.8997C68.734 4.10648 68.5997 4.2408 68.5997 4.40648V7.79637C68.5997 7.96206 68.4654 8.09637 68.2997 8.09637H67.3589C67.1933 8.09637 67.0589 7.96206 67.0589 7.79637V5.15538C67.0589 4.9897 66.9246 4.85538 66.7589 4.85538H66.4807C66.315 4.85538 66.1807 4.9897 66.1807 5.15538V7.79637C66.1807 7.96206 66.0464 8.09637 65.8807 8.09637H64.94C64.7743 8.09637 64.64 7.96206 64.64 7.79637V5.33385C64.64 5.16816 64.5057 5.03385 64.34 5.03385H64.0587C63.893 5.03385 63.7587 5.16816 63.7587 5.33385V7.79637C63.7587 7.96206 63.6244 8.09637 63.4587 8.09637H59.5413C59.3756 8.09637 59.2413 7.96206 59.2413 7.79637V6.83484C59.2413 6.66915 59.107 6.53484 58.9413 6.53484H58.66C58.4943 6.53484 58.36 6.66915 58.36 6.83484V7.79637C58.36 7.96206 58.2257 8.09637 58.06 8.09637H57.1193C56.9536 8.09637 56.8193 7.96206 56.8193 7.79637V6.83484C56.8193 6.66915 56.685 6.53484 56.5193 6.53484H56.241C56.0754 6.53484 55.941 6.66915 55.941 6.83484V7.79637C55.941 7.96206 55.8067 8.09637 55.641 8.09637H54.7003C54.5346 8.09637 54.4003 7.96206 54.4003 7.79637V2.3C54.4003 2.13431 54.266 2 54.1003 2H53.8221C53.6564 2 53.5221 2.13431 53.5221 2.3V7.79637C53.5221 7.96206 53.3878 8.09637 53.2221 8.09637H52.2814C52.1157 8.09637 51.9814 7.96206 51.9814 7.79637V7.19176C51.9814 7.02607 51.8471 6.89176 51.6814 6.89176H51.4001C51.2344 6.89176 51.1001 7.02607 51.1001 7.19176V7.79637C51.1001 7.96206 50.9658 8.09637 50.8001 8.09637H49.8594C49.6937 8.09637 49.5594 7.96206 49.5594 7.79637V3.46319C49.5594 3.2975 49.425 3.16319 49.2594 3.16319H48.9811C48.8154 3.16319 48.6811 3.2975 48.6811 3.46319V7.79637C48.6811 7.96206 48.5468 8.09637 48.3811 8.09637H47.4404C47.2747 8.09637 47.1404 7.96206 47.1404 7.79637V4.40648C47.1404 4.2408 47.0061 4.10648 46.8404 4.10648H46.5591C46.3934 4.10648 46.2591 4.2408 46.2591 4.40648V7.79637C46.2591 7.96206 46.1248 8.09637 45.9591 8.09637H45.0184C44.8527 8.09637 44.7184 7.96206 44.7184 7.79637V4.23758C44.7184 4.0719 44.5841 3.93758 44.4184 3.93758H44.1402C43.9745 3.93758 43.8402 4.0719 43.8402 4.23758V7.79637C43.8402 7.96206 43.7058 8.09637 43.5402 8.09637H39.6197C39.454 8.09637 39.3197 7.96206 39.3197 7.79637V4.40648C39.3197 4.2408 39.1854 4.10648 39.0197 4.10648H38.7415C38.5758 4.10648 38.4415 4.2408 38.4415 4.40648V7.79637C38.4415 7.96206 38.3071 8.09637 38.1414 8.09637H37.2007C37.035 8.09637 36.9007 7.96206 36.9007 7.79637V6.83484C36.9007 6.66915 36.7664 6.53484 36.6007 6.53484H36.3225C36.1568 6.53484 36.0225 6.66915 36.0225 6.83484V7.79637C36.0225 7.96206 35.8882 8.09637 35.7225 8.09637H34.7818C34.6161 8.09637 34.4818 7.96206 34.4818 7.79637V5.33385C34.4818 5.16816 34.3475 5.03385 34.1818 5.03385H33.9005C33.7348 5.03385 33.6005 5.16816 33.6005 5.33385V7.79637C33.6005 7.96206 33.4662 8.09637 33.3005 8.09637H32.3598C32.1941 8.09637 32.0598 7.96206 32.0598 7.79637V7.19176C32.0598 7.02607 31.9254 6.89176 31.7598 6.89176H31.4815C31.3159 6.89176 31.1815 7.02607 31.1815 7.19176V7.79637C31.1815 7.96206 31.0472 8.09637 30.8815 8.09637H29.9408C29.7751 8.09637 29.6408 7.96206 29.6408 7.79637V4.23758C29.6408 4.0719 29.5065 3.93758 29.3408 3.93758H29.0595C28.8938 3.93758 28.7595 4.0719 28.7595 4.23758V7.79637C28.7595 7.96206 28.6252 8.09637 28.4595 8.09637H27.5188C27.3531 8.09637 27.2188 7.96206 27.2188 7.79637V3.89659C27.2188 3.73091 27.0845 3.59659 26.9188 3.59659H26.6406C26.4749 3.59659 26.3406 3.73091 26.3406 3.89659V7.79637C26.3406 7.96206 26.2063 8.09637 26.0406 8.09637H25.0998C24.9342 8.09637 24.7998 7.96206 24.7998 7.79637V4.13879C24.7998 3.97311 24.6655 3.83879 24.4998 3.83879H24.2185C24.0529 3.83879 23.9185 3.97311 23.9185 4.13879V7.79637C23.9185 7.96206 23.7842 8.09637 23.6185 8.09637H19.7011C19.5354 8.09637 19.4011 7.96206 19.4011 7.79637V7.41165C19.4011 7.24596 19.2668 7.11165 19.1011 7.11165H18.8198C18.6541 7.11165 18.5198 7.24596 18.5198 7.41165V7.79637C18.5198 7.96206 18.3855 8.09637 18.2198 8.09637H17.2791C17.1134 8.09637 16.9791 7.96206 16.9791 7.79637V3.89659C16.9791 3.73091 16.8448 3.59659 16.6791 3.59659H16.4009C16.2352 3.59659 16.1009 3.73091 16.1009 3.89659V7.79637C16.1009 7.96206 15.9666 8.09637 15.8009 8.09637H14.8602C14.6945 8.09637 14.5602 7.96206 14.5602 7.79637V3.43769C14.5602 3.27201 14.4258 3.13769 14.2602 3.13769H13.9819C13.8163 3.13769 13.6819 3.27201 13.6819 3.43769V7.79637C13.6819 7.96206 13.5476 8.09637 13.3819 8.09637H12.4412C12.2755 8.09637 12.1412 7.96206 12.1412 7.79637V6.83484C12.1412 6.66915 12.0069 6.53484 11.8412 6.53484H11.5599C11.3942 6.53484 11.2599 6.66915 11.2599 6.83484V7.79637C11.2599 7.96206 11.1256 8.09637 10.9599 8.09637H10.0192C9.8535 8.09637 9.71919 7.96206 9.71919 7.79637V6.83484C9.71919 6.66915 9.58487 6.53484 9.41919 6.53484H9.14097C8.97528 6.53484 8.84097 6.66915 8.84097 6.83484V7.79637C8.84097 7.96206 8.70666 8.09637 8.54097 8.09637H7.60024C7.43456 8.09637 7.30024 7.96206 7.30024 7.79637V3.2911C7.30024 3.12541 7.16593 2.9911 7.00024 2.9911H6.71894C6.55326 2.9911 6.41894 3.12541 6.41894 3.2911V7.79637C6.41894 7.96206 6.28463 8.09637 6.11894 8.09637H5.17822C5.01253 8.09637 4.87822 7.96206 4.87822 7.79637V4.59769C4.87822 4.43201 4.7439 4.29769 4.57822 4.29769H4.3C4.13431 4.29769 4 4.43201 4 4.59769V8.72582C4 8.72667 4.00069 8.72736 4.00154 8.72736C4.00239 8.72736 4.00308 8.72805 4.00308 8.7289V8.84368C4.00308 8.90792 4.05516 8.96 4.1194 8.96H118.874C118.939 8.96 118.991 8.90792 118.991 8.84368V8.73199C118.991 8.72943 118.993 8.72736 118.995 8.72736C118.998 8.72736 119 8.72529 119 8.72274V5.33385Z" fill="white"/>
<mask id="path-2-outside-1_1107_152" maskUnits="userSpaceOnUse" x="3.24023" y="10.5996" width="116" height="10" fill="black">
<rect fill="white" x="3.24023" y="10.5996" width="116" height="10"/>
<path d="M12.3085 17.5653C12.3085 17.8851 12.267 18.1629 12.1841 18.3988C12.1012 18.6346 11.9847 18.8384 11.8346 19.0103C11.6885 19.1782 11.5108 19.3161 11.3015 19.424C11.0961 19.5279 10.869 19.6119 10.6202 19.6758C10.3714 19.7358 10.1048 19.7778 9.8205 19.8018C9.53615 19.8257 9.24194 19.8377 8.93785 19.8377H4.24023V11.5996H8.83122C9.06422 11.5996 9.29723 11.6096 9.53023 11.6296C9.76324 11.6496 9.98637 11.6875 10.1996 11.7435C10.4168 11.7955 10.6163 11.8694 10.7979 11.9653C10.9835 12.0613 11.1435 12.1872 11.2778 12.3431C11.416 12.499 11.5226 12.6868 11.5977 12.9067C11.6766 13.1265 11.7161 13.3863 11.7161 13.6861C11.7161 13.9539 11.6826 14.1858 11.6154 14.3816C11.5522 14.5775 11.4535 14.7454 11.3192 14.8853C11.1889 15.0252 11.0211 15.1411 10.8157 15.233C10.6103 15.321 10.3694 15.3909 10.093 15.4429C10.4879 15.4708 10.8256 15.5388 11.106 15.6467C11.3864 15.7546 11.6154 15.8985 11.7931 16.0784C11.9709 16.2583 12.1012 16.4741 12.1841 16.7259C12.267 16.9738 12.3085 17.2536 12.3085 17.5653ZM11.023 13.6981C11.023 13.5822 11.0151 13.4663 10.9993 13.3504C10.9835 13.2344 10.948 13.1245 10.8927 13.0206C10.8374 12.9127 10.7565 12.8127 10.6498 12.7208C10.5472 12.6289 10.405 12.5509 10.2233 12.487C10.0417 12.419 9.81655 12.3671 9.548 12.3311C9.2834 12.2911 8.96352 12.2711 8.58834 12.2711H4.98072V15.1491H8.58834C9.12148 15.1491 9.548 15.1111 9.86789 15.0352C10.1878 14.9552 10.4326 14.8493 10.6024 14.7174C10.7762 14.5855 10.8888 14.4316 10.9401 14.2557C10.9954 14.0798 11.023 13.894 11.023 13.6981ZM11.5325 17.5534C11.5325 17.2416 11.4792 16.9758 11.3725 16.7559C11.2659 16.5361 11.102 16.3562 10.8809 16.2163C10.6597 16.0764 10.3754 15.9745 10.0278 15.9105C9.6803 15.8426 9.26761 15.8086 8.78975 15.8086H4.98072V19.1602H8.89045C9.38411 19.1602 9.79878 19.1322 10.1345 19.0763C10.4741 19.0163 10.7466 18.9224 10.952 18.7945C11.1613 18.6626 11.3094 18.4947 11.3962 18.2908C11.4871 18.087 11.5325 17.8412 11.5325 17.5534Z"/>
<path d="M14.9683 19.8377V12.2591L13.0253 12.8767V12.2112L14.9683 11.5996H15.697V19.8377H14.9683Z"/>
<path d="M26.3303 19.8377L19.2572 12.5829V19.8377H18.5167V11.5996H19.3342L26.4073 18.8784V11.5996H27.1359V19.8377H26.3303Z"/>
<path d="M37.3308 19.8377L36.2112 17.6673H30.6843L29.5647 19.8377H28.7531L33.0124 11.5996H33.8832L38.1424 19.8377H37.3308ZM33.4507 12.3251L31.0456 16.9778H35.8499L33.4507 12.3251Z"/>
<path d="M40.4883 16.3122V19.8377H39.7478V11.5996H43.7997C44.4197 11.5996 44.9509 11.6496 45.3932 11.7495C45.8355 11.8454 46.1969 11.9933 46.4773 12.1932C46.7616 12.389 46.9689 12.6349 47.0993 12.9307C47.2296 13.2264 47.2948 13.5722 47.2948 13.9679C47.2948 14.5835 47.1348 15.0771 46.8149 15.4489C46.495 15.8166 45.9797 16.0684 45.2688 16.2043L48.0471 19.8377H47.117L44.4928 16.2883C44.3822 16.2963 44.2696 16.3023 44.1551 16.3062C44.0406 16.3102 43.9221 16.3122 43.7997 16.3122H40.4883ZM46.5306 13.9679C46.5306 13.6162 46.4694 13.3324 46.3469 13.1165C46.2245 12.8967 46.0251 12.7268 45.7486 12.6069C45.4722 12.487 45.1089 12.407 44.6586 12.3671C44.2124 12.3231 43.6634 12.3011 43.0118 12.3011H40.4883V15.6107H42.9881C43.6397 15.6107 44.1907 15.5928 44.6409 15.5568C45.0911 15.5168 45.4564 15.4389 45.7368 15.3229C46.0172 15.203 46.2186 15.0372 46.341 14.8253C46.4674 14.6095 46.5306 14.3237 46.5306 13.9679Z"/>
<path d="M52.9994 16.3482V19.8377H52.2589V16.3482L48.4381 11.5996H49.3207L52.6321 15.7247L55.9317 11.5996H56.8203L52.9994 16.3482Z"/>
<path d="M63.9348 12.3011V15.1371H69.3492V15.8326H63.9348V19.8377H63.1944V11.5996H69.6395V12.3011H63.9348Z"/>
<path d="M79.6923 17.2476C79.6923 17.6593 79.6054 18.035 79.4316 18.3748C79.2618 18.7105 79.0051 19.0003 78.6615 19.2441C78.3219 19.484 77.8954 19.6698 77.382 19.8018C76.8686 19.9337 76.2703 19.9996 75.5871 19.9996C74.9038 19.9996 74.3055 19.9337 73.7921 19.8018C73.2787 19.6698 72.8502 19.484 72.5067 19.2441C72.1631 19.0003 71.9044 18.7105 71.7306 18.3748C71.5608 18.035 71.4759 17.6593 71.4759 17.2476V11.5996H72.2164V17.3075C72.2164 17.5833 72.2875 17.8451 72.4296 18.093C72.5758 18.3368 72.791 18.5506 73.0753 18.7345C73.3597 18.9184 73.7112 19.0643 74.1298 19.1722C74.5484 19.2801 75.0342 19.3341 75.5871 19.3341C76.136 19.3341 76.6198 19.2801 77.0384 19.1722C77.457 19.0643 77.8085 18.9184 78.0928 18.7345C78.3772 18.5506 78.5904 18.3368 78.7326 18.093C78.8787 17.8451 78.9518 17.5833 78.9518 17.3075V11.5996H79.6923V17.2476Z"/>
<path d="M85.6635 12.2831V19.8377H84.929V12.2831H81.2266V11.5996H89.3659V12.2831H85.6635Z"/>
<path d="M99.1107 17.2476C99.1107 17.6593 99.0238 18.035 98.85 18.3748C98.6802 18.7105 98.4235 19.0003 98.0799 19.2441C97.7403 19.484 97.3138 19.6698 96.8004 19.8018C96.287 19.9337 95.6886 19.9996 95.0054 19.9996C94.3222 19.9996 93.7239 19.9337 93.2105 19.8018C92.6971 19.6698 92.2686 19.484 91.925 19.2441C91.5814 19.0003 91.3228 18.7105 91.149 18.3748C90.9792 18.035 90.8943 17.6593 90.8943 17.2476V11.5996H91.6348V17.3075C91.6348 17.5833 91.7058 17.8451 91.848 18.093C91.9941 18.3368 92.2094 18.5506 92.4937 18.7345C92.7781 18.9184 93.1295 19.0643 93.5482 19.1722C93.9668 19.2801 94.4525 19.3341 95.0054 19.3341C95.5544 19.3341 96.0382 19.2801 96.4568 19.1722C96.8754 19.0643 97.2269 18.9184 97.5112 18.7345C97.7956 18.5506 98.0088 18.3368 98.151 18.093C98.2971 17.8451 98.3702 17.5833 98.3702 17.3075V11.5996H99.1107V17.2476Z"/>
<path d="M102.523 16.3122V19.8377H101.782V11.5996H105.834C106.454 11.5996 106.985 11.6496 107.428 11.7495C107.87 11.8454 108.231 11.9933 108.512 12.1932C108.796 12.389 109.003 12.6349 109.134 12.9307C109.264 13.2264 109.329 13.5722 109.329 13.9679C109.329 14.5835 109.169 15.0771 108.849 15.4489C108.53 15.8166 108.014 16.0684 107.303 16.2043L110.082 19.8377H109.152L106.527 16.2883C106.417 16.2963 106.304 16.3023 106.19 16.3062C106.075 16.3102 105.957 16.3122 105.834 16.3122H102.523ZM108.565 13.9679C108.565 13.6162 108.504 13.3324 108.381 13.1165C108.259 12.8967 108.06 12.7268 107.783 12.6069C107.507 12.487 107.143 12.407 106.693 12.3671C106.247 12.3231 105.698 12.3011 105.046 12.3011H102.523V15.6107H105.023C105.674 15.6107 106.225 15.5928 106.675 15.5568C107.126 15.5168 107.491 15.4389 107.771 15.3229C108.052 15.203 108.253 15.0372 108.376 14.8253C108.502 14.6095 108.565 14.3237 108.565 13.9679Z"/>
<path d="M111.888 19.8377V11.5996H118.671V12.3011H112.694V15.1371H118.369V15.8326H112.694V19.1362H118.76V19.8377H111.888Z"/>
</mask>
<path d="M12.3085 17.5653C12.3085 17.8851 12.267 18.1629 12.1841 18.3988C12.1012 18.6346 11.9847 18.8384 11.8346 19.0103C11.6885 19.1782 11.5108 19.3161 11.3015 19.424C11.0961 19.5279 10.869 19.6119 10.6202 19.6758C10.3714 19.7358 10.1048 19.7778 9.8205 19.8018C9.53615 19.8257 9.24194 19.8377 8.93785 19.8377H4.24023V11.5996H8.83122C9.06422 11.5996 9.29723 11.6096 9.53023 11.6296C9.76324 11.6496 9.98637 11.6875 10.1996 11.7435C10.4168 11.7955 10.6163 11.8694 10.7979 11.9653C10.9835 12.0613 11.1435 12.1872 11.2778 12.3431C11.416 12.499 11.5226 12.6868 11.5977 12.9067C11.6766 13.1265 11.7161 13.3863 11.7161 13.6861C11.7161 13.9539 11.6826 14.1858 11.6154 14.3816C11.5522 14.5775 11.4535 14.7454 11.3192 14.8853C11.1889 15.0252 11.0211 15.1411 10.8157 15.233C10.6103 15.321 10.3694 15.3909 10.093 15.4429C10.4879 15.4708 10.8256 15.5388 11.106 15.6467C11.3864 15.7546 11.6154 15.8985 11.7931 16.0784C11.9709 16.2583 12.1012 16.4741 12.1841 16.7259C12.267 16.9738 12.3085 17.2536 12.3085 17.5653ZM11.023 13.6981C11.023 13.5822 11.0151 13.4663 10.9993 13.3504C10.9835 13.2344 10.948 13.1245 10.8927 13.0206C10.8374 12.9127 10.7565 12.8127 10.6498 12.7208C10.5472 12.6289 10.405 12.5509 10.2233 12.487C10.0417 12.419 9.81655 12.3671 9.548 12.3311C9.2834 12.2911 8.96352 12.2711 8.58834 12.2711H4.98072V15.1491H8.58834C9.12148 15.1491 9.548 15.1111 9.86789 15.0352C10.1878 14.9552 10.4326 14.8493 10.6024 14.7174C10.7762 14.5855 10.8888 14.4316 10.9401 14.2557C10.9954 14.0798 11.023 13.894 11.023 13.6981ZM11.5325 17.5534C11.5325 17.2416 11.4792 16.9758 11.3725 16.7559C11.2659 16.5361 11.102 16.3562 10.8809 16.2163C10.6597 16.0764 10.3754 15.9745 10.0278 15.9105C9.6803 15.8426 9.26761 15.8086 8.78975 15.8086H4.98072V19.1602H8.89045C9.38411 19.1602 9.79878 19.1322 10.1345 19.0763C10.4741 19.0163 10.7466 18.9224 10.952 18.7945C11.1613 18.6626 11.3094 18.4947 11.3962 18.2908C11.4871 18.087 11.5325 17.8412 11.5325 17.5534Z" fill="white"/>
<path d="M14.9683 19.8377V12.2591L13.0253 12.8767V12.2112L14.9683 11.5996H15.697V19.8377H14.9683Z" fill="white"/>
<path d="M26.3303 19.8377L19.2572 12.5829V19.8377H18.5167V11.5996H19.3342L26.4073 18.8784V11.5996H27.1359V19.8377H26.3303Z" fill="white"/>
<path d="M37.3308 19.8377L36.2112 17.6673H30.6843L29.5647 19.8377H28.7531L33.0124 11.5996H33.8832L38.1424 19.8377H37.3308ZM33.4507 12.3251L31.0456 16.9778H35.8499L33.4507 12.3251Z" fill="white"/>
<path d="M40.4883 16.3122V19.8377H39.7478V11.5996H43.7997C44.4197 11.5996 44.9509 11.6496 45.3932 11.7495C45.8355 11.8454 46.1969 11.9933 46.4773 12.1932C46.7616 12.389 46.9689 12.6349 47.0993 12.9307C47.2296 13.2264 47.2948 13.5722 47.2948 13.9679C47.2948 14.5835 47.1348 15.0771 46.8149 15.4489C46.495 15.8166 45.9797 16.0684 45.2688 16.2043L48.0471 19.8377H47.117L44.4928 16.2883C44.3822 16.2963 44.2696 16.3023 44.1551 16.3062C44.0406 16.3102 43.9221 16.3122 43.7997 16.3122H40.4883ZM46.5306 13.9679C46.5306 13.6162 46.4694 13.3324 46.3469 13.1165C46.2245 12.8967 46.0251 12.7268 45.7486 12.6069C45.4722 12.487 45.1089 12.407 44.6586 12.3671C44.2124 12.3231 43.6634 12.3011 43.0118 12.3011H40.4883V15.6107H42.9881C43.6397 15.6107 44.1907 15.5928 44.6409 15.5568C45.0911 15.5168 45.4564 15.4389 45.7368 15.3229C46.0172 15.203 46.2186 15.0372 46.341 14.8253C46.4674 14.6095 46.5306 14.3237 46.5306 13.9679Z" fill="white"/>
<path d="M52.9994 16.3482V19.8377H52.2589V16.3482L48.4381 11.5996H49.3207L52.6321 15.7247L55.9317 11.5996H56.8203L52.9994 16.3482Z" fill="white"/>
<path d="M63.9348 12.3011V15.1371H69.3492V15.8326H63.9348V19.8377H63.1944V11.5996H69.6395V12.3011H63.9348Z" fill="white"/>
<path d="M79.6923 17.2476C79.6923 17.6593 79.6054 18.035 79.4316 18.3748C79.2618 18.7105 79.0051 19.0003 78.6615 19.2441C78.3219 19.484 77.8954 19.6698 77.382 19.8018C76.8686 19.9337 76.2703 19.9996 75.5871 19.9996C74.9038 19.9996 74.3055 19.9337 73.7921 19.8018C73.2787 19.6698 72.8502 19.484 72.5067 19.2441C72.1631 19.0003 71.9044 18.7105 71.7306 18.3748C71.5608 18.035 71.4759 17.6593 71.4759 17.2476V11.5996H72.2164V17.3075C72.2164 17.5833 72.2875 17.8451 72.4296 18.093C72.5758 18.3368 72.791 18.5506 73.0753 18.7345C73.3597 18.9184 73.7112 19.0643 74.1298 19.1722C74.5484 19.2801 75.0342 19.3341 75.5871 19.3341C76.136 19.3341 76.6198 19.2801 77.0384 19.1722C77.457 19.0643 77.8085 18.9184 78.0928 18.7345C78.3772 18.5506 78.5904 18.3368 78.7326 18.093C78.8787 17.8451 78.9518 17.5833 78.9518 17.3075V11.5996H79.6923V17.2476Z" fill="white"/>
<path d="M85.6635 12.2831V19.8377H84.929V12.2831H81.2266V11.5996H89.3659V12.2831H85.6635Z" fill="white"/>
<path d="M99.1107 17.2476C99.1107 17.6593 99.0238 18.035 98.85 18.3748C98.6802 18.7105 98.4235 19.0003 98.0799 19.2441C97.7403 19.484 97.3138 19.6698 96.8004 19.8018C96.287 19.9337 95.6886 19.9996 95.0054 19.9996C94.3222 19.9996 93.7239 19.9337 93.2105 19.8018C92.6971 19.6698 92.2686 19.484 91.925 19.2441C91.5814 19.0003 91.3228 18.7105 91.149 18.3748C90.9792 18.035 90.8943 17.6593 90.8943 17.2476V11.5996H91.6348V17.3075C91.6348 17.5833 91.7058 17.8451 91.848 18.093C91.9941 18.3368 92.2094 18.5506 92.4937 18.7345C92.7781 18.9184 93.1295 19.0643 93.5482 19.1722C93.9668 19.2801 94.4525 19.3341 95.0054 19.3341C95.5544 19.3341 96.0382 19.2801 96.4568 19.1722C96.8754 19.0643 97.2269 18.9184 97.5112 18.7345C97.7956 18.5506 98.0088 18.3368 98.151 18.093C98.2971 17.8451 98.3702 17.5833 98.3702 17.3075V11.5996H99.1107V17.2476Z" fill="white"/>
<path d="M102.523 16.3122V19.8377H101.782V11.5996H105.834C106.454 11.5996 106.985 11.6496 107.428 11.7495C107.87 11.8454 108.231 11.9933 108.512 12.1932C108.796 12.389 109.003 12.6349 109.134 12.9307C109.264 13.2264 109.329 13.5722 109.329 13.9679C109.329 14.5835 109.169 15.0771 108.849 15.4489C108.53 15.8166 108.014 16.0684 107.303 16.2043L110.082 19.8377H109.152L106.527 16.2883C106.417 16.2963 106.304 16.3023 106.19 16.3062C106.075 16.3102 105.957 16.3122 105.834 16.3122H102.523ZM108.565 13.9679C108.565 13.6162 108.504 13.3324 108.381 13.1165C108.259 12.8967 108.06 12.7268 107.783 12.6069C107.507 12.487 107.143 12.407 106.693 12.3671C106.247 12.3231 105.698 12.3011 105.046 12.3011H102.523V15.6107H105.023C105.674 15.6107 106.225 15.5928 106.675 15.5568C107.126 15.5168 107.491 15.4389 107.771 15.3229C108.052 15.203 108.253 15.0372 108.376 14.8253C108.502 14.6095 108.565 14.3237 108.565 13.9679Z" fill="white"/>
<path d="M111.888 19.8377V11.5996H118.671V12.3011H112.694V15.1371H118.369V15.8326H112.694V19.1362H118.76V19.8377H111.888Z" fill="white"/>
<path d="M12.3085 17.5653C12.3085 17.8851 12.267 18.1629 12.1841 18.3988C12.1012 18.6346 11.9847 18.8384 11.8346 19.0103C11.6885 19.1782 11.5108 19.3161 11.3015 19.424C11.0961 19.5279 10.869 19.6119 10.6202 19.6758C10.3714 19.7358 10.1048 19.7778 9.8205 19.8018C9.53615 19.8257 9.24194 19.8377 8.93785 19.8377H4.24023V11.5996H8.83122C9.06422 11.5996 9.29723 11.6096 9.53023 11.6296C9.76324 11.6496 9.98637 11.6875 10.1996 11.7435C10.4168 11.7955 10.6163 11.8694 10.7979 11.9653C10.9835 12.0613 11.1435 12.1872 11.2778 12.3431C11.416 12.499 11.5226 12.6868 11.5977 12.9067C11.6766 13.1265 11.7161 13.3863 11.7161 13.6861C11.7161 13.9539 11.6826 14.1858 11.6154 14.3816C11.5522 14.5775 11.4535 14.7454 11.3192 14.8853C11.1889 15.0252 11.0211 15.1411 10.8157 15.233C10.6103 15.321 10.3694 15.3909 10.093 15.4429C10.4879 15.4708 10.8256 15.5388 11.106 15.6467C11.3864 15.7546 11.6154 15.8985 11.7931 16.0784C11.9709 16.2583 12.1012 16.4741 12.1841 16.7259C12.267 16.9738 12.3085 17.2536 12.3085 17.5653ZM11.023 13.6981C11.023 13.5822 11.0151 13.4663 10.9993 13.3504C10.9835 13.2344 10.948 13.1245 10.8927 13.0206C10.8374 12.9127 10.7565 12.8127 10.6498 12.7208C10.5472 12.6289 10.405 12.5509 10.2233 12.487C10.0417 12.419 9.81655 12.3671 9.548 12.3311C9.2834 12.2911 8.96352 12.2711 8.58834 12.2711H4.98072V15.1491H8.58834C9.12148 15.1491 9.548 15.1111 9.86789 15.0352C10.1878 14.9552 10.4326 14.8493 10.6024 14.7174C10.7762 14.5855 10.8888 14.4316 10.9401 14.2557C10.9954 14.0798 11.023 13.894 11.023 13.6981ZM11.5325 17.5534C11.5325 17.2416 11.4792 16.9758 11.3725 16.7559C11.2659 16.5361 11.102 16.3562 10.8809 16.2163C10.6597 16.0764 10.3754 15.9745 10.0278 15.9105C9.6803 15.8426 9.26761 15.8086 8.78975 15.8086H4.98072V19.1602H8.89045C9.38411 19.1602 9.79878 19.1322 10.1345 19.0763C10.4741 19.0163 10.7466 18.9224 10.952 18.7945C11.1613 18.6626 11.3094 18.4947 11.3962 18.2908C11.4871 18.087 11.5325 17.8412 11.5325 17.5534Z" stroke="white" stroke-width="0.24" mask="url(#path-2-outside-1_1107_152)"/>
<path d="M14.9683 19.8377V12.2591L13.0253 12.8767V12.2112L14.9683 11.5996H15.697V19.8377H14.9683Z" stroke="white" stroke-width="0.24" mask="url(#path-2-outside-1_1107_152)"/>
<path d="M26.3303 19.8377L19.2572 12.5829V19.8377H18.5167V11.5996H19.3342L26.4073 18.8784V11.5996H27.1359V19.8377H26.3303Z" stroke="white" stroke-width="0.24" mask="url(#path-2-outside-1_1107_152)"/>
<path d="M37.3308 19.8377L36.2112 17.6673H30.6843L29.5647 19.8377H28.7531L33.0124 11.5996H33.8832L38.1424 19.8377H37.3308ZM33.4507 12.3251L31.0456 16.9778H35.8499L33.4507 12.3251Z" stroke="white" stroke-width="0.24" mask="url(#path-2-outside-1_1107_152)"/>
<path d="M40.4883 16.3122V19.8377H39.7478V11.5996H43.7997C44.4197 11.5996 44.9509 11.6496 45.3932 11.7495C45.8355 11.8454 46.1969 11.9933 46.4773 12.1932C46.7616 12.389 46.9689 12.6349 47.0993 12.9307C47.2296 13.2264 47.2948 13.5722 47.2948 13.9679C47.2948 14.5835 47.1348 15.0771 46.8149 15.4489C46.495 15.8166 45.9797 16.0684 45.2688 16.2043L48.0471 19.8377H47.117L44.4928 16.2883C44.3822 16.2963 44.2696 16.3023 44.1551 16.3062C44.0406 16.3102 43.9221 16.3122 43.7997 16.3122H40.4883ZM46.5306 13.9679C46.5306 13.6162 46.4694 13.3324 46.3469 13.1165C46.2245 12.8967 46.0251 12.7268 45.7486 12.6069C45.4722 12.487 45.1089 12.407 44.6586 12.3671C44.2124 12.3231 43.6634 12.3011 43.0118 12.3011H40.4883V15.6107H42.9881C43.6397 15.6107 44.1907 15.5928 44.6409 15.5568C45.0911 15.5168 45.4564 15.4389 45.7368 15.3229C46.0172 15.203 46.2186 15.0372 46.341 14.8253C46.4674 14.6095 46.5306 14.3237 46.5306 13.9679Z" stroke="white" stroke-width="0.24" mask="url(#path-2-outside-1_1107_152)"/>
<path d="M52.9994 16.3482V19.8377H52.2589V16.3482L48.4381 11.5996H49.3207L52.6321 15.7247L55.9317 11.5996H56.8203L52.9994 16.3482Z" stroke="white" stroke-width="0.24" mask="url(#path-2-outside-1_1107_152)"/>
<path d="M63.9348 12.3011V15.1371H69.3492V15.8326H63.9348V19.8377H63.1944V11.5996H69.6395V12.3011H63.9348Z" stroke="white" stroke-width="0.24" mask="url(#path-2-outside-1_1107_152)"/>
<path d="M79.6923 17.2476C79.6923 17.6593 79.6054 18.035 79.4316 18.3748C79.2618 18.7105 79.0051 19.0003 78.6615 19.2441C78.3219 19.484 77.8954 19.6698 77.382 19.8018C76.8686 19.9337 76.2703 19.9996 75.5871 19.9996C74.9038 19.9996 74.3055 19.9337 73.7921 19.8018C73.2787 19.6698 72.8502 19.484 72.5067 19.2441C72.1631 19.0003 71.9044 18.7105 71.7306 18.3748C71.5608 18.035 71.4759 17.6593 71.4759 17.2476V11.5996H72.2164V17.3075C72.2164 17.5833 72.2875 17.8451 72.4296 18.093C72.5758 18.3368 72.791 18.5506 73.0753 18.7345C73.3597 18.9184 73.7112 19.0643 74.1298 19.1722C74.5484 19.2801 75.0342 19.3341 75.5871 19.3341C76.136 19.3341 76.6198 19.2801 77.0384 19.1722C77.457 19.0643 77.8085 18.9184 78.0928 18.7345C78.3772 18.5506 78.5904 18.3368 78.7326 18.093C78.8787 17.8451 78.9518 17.5833 78.9518 17.3075V11.5996H79.6923V17.2476Z" stroke="white" stroke-width="0.24" mask="url(#path-2-outside-1_1107_152)"/>
<path d="M85.6635 12.2831V19.8377H84.929V12.2831H81.2266V11.5996H89.3659V12.2831H85.6635Z" stroke="white" stroke-width="0.24" mask="url(#path-2-outside-1_1107_152)"/>
<path d="M99.1107 17.2476C99.1107 17.6593 99.0238 18.035 98.85 18.3748C98.6802 18.7105 98.4235 19.0003 98.0799 19.2441C97.7403 19.484 97.3138 19.6698 96.8004 19.8018C96.287 19.9337 95.6886 19.9996 95.0054 19.9996C94.3222 19.9996 93.7239 19.9337 93.2105 19.8018C92.6971 19.6698 92.2686 19.484 91.925 19.2441C91.5814 19.0003 91.3228 18.7105 91.149 18.3748C90.9792 18.035 90.8943 17.6593 90.8943 17.2476V11.5996H91.6348V17.3075C91.6348 17.5833 91.7058 17.8451 91.848 18.093C91.9941 18.3368 92.2094 18.5506 92.4937 18.7345C92.7781 18.9184 93.1295 19.0643 93.5482 19.1722C93.9668 19.2801 94.4525 19.3341 95.0054 19.3341C95.5544 19.3341 96.0382 19.2801 96.4568 19.1722C96.8754 19.0643 97.2269 18.9184 97.5112 18.7345C97.7956 18.5506 98.0088 18.3368 98.151 18.093C98.2971 17.8451 98.3702 17.5833 98.3702 17.3075V11.5996H99.1107V17.2476Z" stroke="white" stroke-width="0.24" mask="url(#path-2-outside-1_1107_152)"/>
<path d="M102.523 16.3122V19.8377H101.782V11.5996H105.834C106.454 11.5996 106.985 11.6496 107.428 11.7495C107.87 11.8454 108.231 11.9933 108.512 12.1932C108.796 12.389 109.003 12.6349 109.134 12.9307C109.264 13.2264 109.329 13.5722 109.329 13.9679C109.329 14.5835 109.169 15.0771 108.849 15.4489C108.53 15.8166 108.014 16.0684 107.303 16.2043L110.082 19.8377H109.152L106.527 16.2883C106.417 16.2963 106.304 16.3023 106.19 16.3062C106.075 16.3102 105.957 16.3122 105.834 16.3122H102.523ZM108.565 13.9679C108.565 13.6162 108.504 13.3324 108.381 13.1165C108.259 12.8967 108.06 12.7268 107.783 12.6069C107.507 12.487 107.143 12.407 106.693 12.3671C106.247 12.3231 105.698 12.3011 105.046 12.3011H102.523V15.6107H105.023C105.674 15.6107 106.225 15.5928 106.675 15.5568C107.126 15.5168 107.491 15.4389 107.771 15.3229C108.052 15.203 108.253 15.0372 108.376 14.8253C108.502 14.6095 108.565 14.3237 108.565 13.9679Z" stroke="white" stroke-width="0.24" mask="url(#path-2-outside-1_1107_152)"/>
<path d="M111.888 19.8377V11.5996H118.671V12.3011H112.694V15.1371H118.369V15.8326H112.694V19.1362H118.76V19.8377H111.888Z" stroke="white" stroke-width="0.24" mask="url(#path-2-outside-1_1107_152)"/>
</g>
<defs>
<filter id="filter0_d_1107_152" x="0" y="0" width="123" height="26.1191" filterUnits="userSpaceOnUse" color-interpolation-filters="sRGB">
<feFlood flood-opacity="0" result="BackgroundImageFix"/>
<feColorMatrix in="SourceAlpha" type="matrix" values="0 0 0 0 0 0 0 0 0 0 0 0 0 0 0 0 0 0 127 0" result="hardAlpha"/>
<feOffset dy="2"/>
<feGaussianBlur stdDeviation="2"/>
<feComposite in2="hardAlpha" operator="out"/>
<feColorMatrix type="matrix" values="0 0 0 0 0 0 0 0 0 0 0 0 0 0 0 0 0 0 0.4 0"/>
<feBlend mode="normal" in2="BackgroundImageFix" result="effect1_dropShadow_1107_152"/>
<feBlend mode="normal" in="SourceGraphic" in2="effect1_dropShadow_1107_152" result="shape"/>
</filter>
</defs>
</svg>
