<svg width="24" height="20" viewBox="0 0 24 20" fill="none" xmlns="http://www.w3.org/2000/svg">
<path d="M24 1.40039C24 0.848106 23.5523 0.400391 23 0.400391H1C0.447716 0.400391 0 0.848106 0 1.40039V18.6004C0 19.1527 0.447715 19.6004 1 19.6004H23C23.5523 19.6004 24 19.1527 24 18.6004V1.40039ZM21.6 4.64614C21.6 4.99093 21.4224 5.3114 21.13 5.49414L12 11.2004L2.87 5.49414C2.57762 5.3114 2.4 4.99093 2.4 4.64614V4.60464C2.4 3.8192 3.26395 3.34036 3.93 3.75664L12 8.80039L20.07 3.75664C20.736 3.34036 21.6 3.8192 21.6 4.60464V4.64614Z" fill="#FFFFFF"/>
</svg>
