<svg width="20" height="19" viewBox="0 0 20 19" fill="none" xmlns="http://www.w3.org/2000/svg">
<path fill-rule="evenodd" clip-rule="evenodd" d="M5 0.5H15C15.55 0.5 16 0.95 16 1.5V3.5C16 4.05 15.55 4.5 15 4.5H5C4.45 4.5 4 4.05 4 3.5V1.5C4 0.95 4.45 0.5 5 0.5ZM3 5.5H17C18.66 5.5 20 6.84 20 8.5V12.5C20 13.6 19.1 14.5 18 14.5H16V16.5C16 17.6 15.1 18.5 14 18.5H6C4.9 18.5 4 17.6 4 16.5V14.5H2C0.9 14.5 0 13.6 0 12.5V8.5C0 6.84 1.34 5.5 3 5.5ZM7 16.5H13C13.55 16.5 14 16.05 14 15.5V11.5H6V15.5C6 16.05 6.45 16.5 7 16.5ZM17 9.5C16.45 9.5 16 9.05 16 8.5C16 7.95 16.45 7.5 17 7.5C17.55 7.5 18 7.95 18 8.5C18 9.05 17.55 9.5 17 9.5Z" fill="white"/>
</svg>
