<svg width="24" height="25" viewBox="0 0 24 25" fill="none" xmlns="http://www.w3.org/2000/svg">
<path d="M12.6144 21.5H3.99346C3.44463 21.5 3 21.0551 3 20.5065V4.49345C3 3.94469 3.4447 3.5 3.99346 3.5H20.0066C20.5552 3.5 21 3.94469 21 4.49345V20.5065C21 21.0552 20.5552 21.5 20.0066 21.5H15.4197V14.5294H17.7594L18.1098 11.8128H15.4197V10.0785C15.4197 9.29198 15.6381 8.756 16.766 8.756L18.2045 8.75537V6.32566C17.9557 6.29255 17.1018 6.21859 16.1083 6.21859C14.0343 6.21859 12.6144 7.48457 12.6144 9.80945V11.8128H10.2687V14.5294H12.6144V21.5Z" fill="white"/>
</svg>
