<svg width="24" height="25" viewBox="0 0 24 25" fill="none" xmlns="http://www.w3.org/2000/svg">
<path fill-rule="evenodd" clip-rule="evenodd" d="M12 3.5C9.55575 3.5 9.24926 3.51036 8.28931 3.55416C7.33137 3.59785 6.67712 3.75001 6.10466 3.97251C5.51283 4.20247 5.01092 4.51021 4.51055 5.01055C4.01021 5.51092 3.70247 6.01283 3.47251 6.60466C3.25001 7.17712 3.09785 7.83137 3.05416 8.78931C3.01036 9.74926 3 10.0557 3 12.5C3 14.9443 3.01036 15.2507 3.05416 16.2107C3.09785 17.1686 3.25001 17.8229 3.47251 18.3953C3.70247 18.9872 4.01021 19.4891 4.51055 19.9895C5.01092 20.4898 5.51283 20.7975 6.10466 21.0275C6.67712 21.25 7.33137 21.4021 8.28931 21.4458C9.24926 21.4896 9.55575 21.5 12 21.5C14.4443 21.5 14.7507 21.4896 15.7107 21.4458C16.6686 21.4021 17.3229 21.25 17.8953 21.0275C18.4872 20.7975 18.9891 20.4898 19.4895 19.9895C19.9898 19.4891 20.2975 18.9872 20.5275 18.3953C20.75 17.8229 20.9021 17.1686 20.9458 16.2107C20.9896 15.2507 21 14.9443 21 12.5C21 10.0557 20.9896 9.74926 20.9458 8.78931C20.9021 7.83137 20.75 7.17712 20.5275 6.60466C20.2975 6.01283 19.9898 5.51092 19.4895 5.01055C18.9891 4.51021 18.4872 4.20247 17.8953 3.97251C17.3229 3.75001 16.6686 3.59785 15.7107 3.55416C14.7507 3.51036 14.4443 3.5 12 3.5ZM12 5.12162C14.4031 5.12162 14.6878 5.1308 15.6368 5.1741C16.5143 5.21411 16.9908 5.36073 17.3079 5.48398C17.728 5.64725 18.0278 5.84227 18.3428 6.15723C18.6577 6.47215 18.8528 6.77196 19.016 7.19206C19.1393 7.50919 19.2859 7.98574 19.3259 8.86323C19.3692 9.81224 19.3784 10.0969 19.3784 12.5C19.3784 14.9031 19.3692 15.1878 19.3259 16.1368C19.2859 17.0143 19.1393 17.4908 19.016 17.8079C18.8528 18.228 18.6577 18.5278 18.3428 18.8428C18.0278 19.1577 17.728 19.3528 17.3079 19.516C16.9908 19.6393 16.5143 19.7859 15.6368 19.8259C14.6879 19.8692 14.4033 19.8784 12 19.8784C9.59672 19.8784 9.31213 19.8692 8.36323 19.8259C7.48574 19.7859 7.00919 19.6393 6.69206 19.516C6.27196 19.3528 5.97215 19.1577 5.65723 18.8428C5.34231 18.5278 5.14725 18.228 4.98398 17.8079C4.86073 17.4908 4.71411 17.0143 4.6741 16.1368C4.6308 15.1878 4.62162 14.9031 4.62162 12.5C4.62162 10.0969 4.6308 9.81224 4.6741 8.86323C4.71411 7.98574 4.86073 7.50919 4.98398 7.19206C5.14725 6.77196 5.34227 6.47215 5.65723 6.15723C5.97215 5.84227 6.27196 5.64725 6.69206 5.48398C7.00919 5.36073 7.48574 5.21411 8.36323 5.1741C9.31224 5.1308 9.5969 5.12162 12 5.12162ZM7.37838 12.5C7.37838 9.94753 9.44753 7.87838 12 7.87838C14.5525 7.87838 16.6216 9.94753 16.6216 12.5C16.6216 15.0525 14.5525 17.1216 12 17.1216C9.44753 17.1216 7.37838 15.0525 7.37838 12.5ZM12 15.5C10.3431 15.5 9 14.1569 9 12.5C9 10.8431 10.3431 9.5 12 9.5C13.6569 9.5 15 10.8431 15 12.5C15 14.1569 13.6569 15.5 12 15.5ZM16.8042 8.77577C17.4007 8.77577 17.8842 8.29226 17.8842 7.69579C17.8842 7.09931 17.4007 6.61577 16.8042 6.61577C16.2078 6.61577 15.7242 7.09931 15.7242 7.69579C15.7242 8.29226 16.2078 8.77577 16.8042 8.77577Z" fill="white"/>
</svg>
