<svg width="24" height="25" viewBox="0 0 24 25" fill="none" xmlns="http://www.w3.org/2000/svg">
<path fill-rule="evenodd" clip-rule="evenodd" d="M19.2291 15.7598L16.6891 15.4698C16.0791 15.3998 15.4791 15.6098 15.0491 16.0398L13.2091 17.8798C10.3791 16.4398 8.05906 14.1298 6.61906 11.2898L8.46906 9.43977C8.89906 9.00977 9.10906 8.40977 9.03906 7.79977L8.74906 5.27977C8.62906 4.26977 7.77906 3.50977 6.75906 3.50977H5.02906C3.89906 3.50977 2.95906 4.44977 3.02906 5.57977C3.55906 14.1198 10.3891 20.9398 18.9191 21.4698C20.0491 21.5398 20.9891 20.5998 20.9891 19.4698V17.7398C20.9991 16.7298 20.2391 15.8798 19.2291 15.7598Z" fill="white"/>
</svg>
